<?xml version="1.0" encoding="utf-8"?>
<!-- Generator: Adobe Illustrator 26.0.1, SVG Export Plug-In . SVG Version: 6.00 Build 0)  -->
<svg version="1.1" id="Layer_1" xmlns="http://www.w3.org/2000/svg" xmlns:xlink="http://www.w3.org/1999/xlink" x="0px" y="0px"
	 viewBox="0 0 538.1 538.1" style="enable-background:new 0 0 538.1 538.1;" xml:space="preserve">
<style type="text/css">
	.st0{fill:#857AAE;}
	.st1{fill:#C5C5C5;}
</style>
<g id="Ring07">
	<path d="M477.2,283.8c0,0.1,0,0.2,0,0.3l0,0c-0.1,1.2-0.6,2.2-1.4,3s-1.9,1.2-3.1,1.2c-0.1,0-0.2,0-0.3,0c-2.5-0.2-4.4-2.3-4.2-4.8
		c0.2-2.4,2.1-4.2,4.5-4.2c0.1,0,0.2,0,0.3,0C475.4,279.5,477.2,281.5,477.2,283.8z"/>
	<path d="M477.2,253.6c0,0.1,0,0.2,0,0.3c0,2.4-1.8,4.3-4.2,4.5c-0.1,0-0.2,0-0.3,0c-1.2,0-2.2-0.5-3.1-1.2c-0.8-0.8-1.3-1.8-1.4-3
		c-0.2-2.5,1.7-4.6,4.2-4.8c0.1,0,0.2,0,0.3,0C475,249.5,477,251.3,477.2,253.6z"/>
	<path d="M477.7,268.9c0,1.2-0.5,2.4-1.3,3.2c-0.8,0.8-1.9,1.3-3.2,1.3c-1.2,0-2.4-0.5-3.2-1.3c-0.8-0.8-1.3-1.9-1.3-3.2
		c0-2.5,2-4.5,4.5-4.5l0,0C475.7,264.4,477.7,266.4,477.7,268.9z"/>
	<path class="st0" d="M475.7,298.7c0,0.2,0,0.4,0,0.6c-0.1,1.1-0.7,2.1-1.5,2.8c-0.8,0.7-1.8,1.1-2.9,1.1c-0.2,0-0.4,0-0.6,0
		c-2.5-0.3-4.2-2.6-3.9-5.1c0.3-2.2,2.2-3.9,4.4-3.9c0.2,0,0.4,0,0.6,0C474,294.6,475.7,296.5,475.7,298.7z"/>
	<path class="st0" d="M475.6,238.5c0,0.2,0,0.4,0,0.6c0,2.2-1.6,4.1-3.9,4.5c-0.2,0-0.4,0-0.6,0c-1.1,0-2.1-0.4-2.9-1.1
		c-0.8-0.7-1.3-1.6-1.5-2.8c-0.3-2.5,1.4-4.7,3.8-5.1c0.2,0,0.4,0,0.6,0C473.3,234.6,475.3,236.2,475.6,238.5z"/>
	<path d="M473.2,313.4c0,0.3,0,0.6-0.1,0.9c-0.2,1.1-0.8,2-1.6,2.6c-0.8,0.6-1.8,1-2.8,1c-0.3,0-0.6,0-0.9-0.1
		c-2.4-0.5-4-2.9-3.5-5.3c0.4-2.1,2.3-3.6,4.4-3.6c0.3,0,0.6,0,0.9,0.1C471.7,309.5,473.2,311.3,473.2,313.4z"/>
	<path class="st0" d="M473,223.4c0.1,0.3,0.1,0.6,0.1,0.9c0,2.1-1.5,4-3.6,4.4c-0.3,0.1-0.6,0.1-0.9,0.1c-1,0-2-0.4-2.8-1
		s-1.4-1.5-1.6-2.6c-0.5-2.4,1-4.8,3.5-5.3c0.3-0.1,0.6-0.1,0.9-0.1C470.6,219.9,472.5,221.3,473,223.4z"/>
	<path d="M469.6,328c0,0.4-0.1,0.8-0.2,1.2c-0.3,1-0.9,1.8-1.6,2.4c-0.8,0.6-1.7,0.9-2.7,0.9c-0.4,0-0.8-0.1-1.2-0.2
		c-2.4-0.7-3.8-3.2-3.1-5.5c0.6-2,2.4-3.3,4.3-3.3c0.4,0,0.8,0.1,1.2,0.2C468.3,324.2,469.6,326,469.6,328z"/>
	<path d="M469.3,208.6c0.1,0.4,0.2,0.8,0.2,1.2c0,2-1.3,3.8-3.3,4.3c-0.4,0.1-0.8,0.2-1.2,0.2c-1,0-1.9-0.3-2.7-0.9
		c-0.8-0.6-1.4-1.4-1.6-2.4c-0.7-2.4,0.7-4.9,3.1-5.6c0.4-0.1,0.8-0.2,1.2-0.2C466.9,205.4,468.7,206.6,469.3,208.6z"/>
	<path d="M465,342.2c0,0.5-0.1,1-0.3,1.5c-0.3,0.9-0.9,1.7-1.7,2.2c-0.8,0.5-1.6,0.8-2.6,0.8c-0.5,0-1-0.1-1.5-0.3
		c-2.3-0.8-3.5-3.4-2.7-5.8l0,0c0.9-2.3,3.4-3.5,5.8-2.7C463.9,338.6,465,340.4,465,342.2z"/>
	<path class="st0" d="M464.6,194.1c0.2,0.5,0.3,1,0.3,1.5c0,1.8-1.1,3.6-3,4.2c-0.5,0.2-1,0.3-1.5,0.3c-0.9,0-1.8-0.3-2.5-0.8
		c-0.8-0.5-1.3-1.2-1.7-2.2c-0.9-2.3,0.4-4.9,2.7-5.8c0.5-0.2,1-0.3,1.5-0.3C462.2,191.1,463.9,192.3,464.6,194.1z"/>
	<path class="st0" d="M459.5,356.1c0,0.6-0.1,1.2-0.4,1.8c-0.4,0.8-1,1.5-1.7,2s-1.6,0.7-2.4,0.7c-0.6,0-1.2-0.1-1.8-0.4
		c-2.3-1-3.3-3.7-2.3-6c0.8-1.7,2.4-2.7,4.1-2.7c0.6,0,1.2,0.1,1.8,0.4C458.5,352.7,459.5,354.3,459.5,356.1z"/>
	<path d="M458.9,179.9c0.3,0.6,0.4,1.2,0.4,1.8c0,1.7-1,3.4-2.7,4.1c-0.6,0.3-1.2,0.4-1.8,0.4c-0.9,0-1.7-0.2-2.4-0.7
		c-0.7-0.5-1.3-1.1-1.7-2c-1-2.3,0-4.9,2.3-5.9c0.6-0.3,1.2-0.4,1.8-0.4C456.5,177.3,458.1,178.3,458.9,179.9z"/>
	<path class="st1" d="M452.9,369.5c0,0.7-0.2,1.5-0.5,2.1c-0.4,0.8-1,1.4-1.7,1.8s-1.5,0.6-2.3,0.6c-0.7,0-1.4-0.2-2.1-0.5
		c-2.2-1.2-3-3.9-1.8-6.1c0.8-1.5,2.4-2.4,4-2.4c0.7,0,1.4,0.2,2.1,0.5C452,366.3,452.9,367.9,452.9,369.5z"/>
	<path d="M452.1,166.2c0.4,0.7,0.5,1.4,0.5,2.1c0,1.6-0.9,3.2-2.4,4c-0.7,0.4-1.4,0.6-2.1,0.6c-0.8,0-1.6-0.2-2.3-0.6
		c-0.7-0.4-1.3-1-1.7-1.8c-1.2-2.2-0.4-4.9,1.8-6.1c0.7-0.4,1.4-0.6,2.1-0.6C449.7,163.9,451.3,164.7,452.1,166.2z"/>
	<path class="st1" d="M445.3,382.4c0,0.8-0.2,1.7-0.7,2.4c-0.9,1.3-2.3,2.1-3.8,2.1c-0.8,0-1.7-0.2-2.4-0.7
		c-2.1-1.3-2.7-4.1-1.4-6.2c0.9-1.3,2.3-2.1,3.8-2.1c0.8,0,1.7,0.2,2.4,0.7C444.6,379.4,445.3,380.9,445.3,382.4z"/>
	<path class="st0" d="M444.3,153.1c0.5,0.8,0.7,1.6,0.7,2.4c0,1.5-0.7,2.9-2.1,3.8c-0.8,0.5-1.6,0.7-2.4,0.7c-1.5,0-2.9-0.7-3.8-2.1
		c-1.3-2.1-0.7-4.9,1.4-6.2c0.8-0.5,1.6-0.7,2.4-0.7C442,151,443.5,151.7,444.3,153.1z"/>
	<path class="st1" d="M436.8,394.6c0,0.9-0.3,1.9-0.9,2.7c-0.9,1.2-2.2,1.8-3.6,1.8c-0.9,0-1.9-0.3-2.7-0.9c-2-1.5-2.4-4.3-0.9-6.3
		c0.9-1.2,2.2-1.8,3.6-1.8c1,0,1.9,0.3,2.7,0.9C436.2,391.9,436.8,393.3,436.8,394.6z"/>
	<path class="st0" d="M435.6,140.5c0.6,0.8,0.9,1.8,0.9,2.7c0,1.4-0.6,2.7-1.8,3.6c-0.8,0.6-1.8,0.9-2.7,0.9c-1.4,0-2.7-0.6-3.6-1.8
		l0,0c-1.5-2-1.1-4.8,0.9-6.3c0.8-0.6,1.8-0.9,2.7-0.9C433.3,138.7,434.7,139.3,435.6,140.5z"/>
	<path class="st1" d="M427.3,406.2c0,1.1-0.4,2.1-1.1,3c-0.9,1-2.1,1.5-3.4,1.5c-1.1,0-2.1-0.4-3-1.1c-1.9-1.7-2-4.5-0.4-6.4
		c0.9-1,2.1-1.5,3.4-1.5c1.1,0,2.1,0.4,3,1.1C426.8,403.7,427.3,404.9,427.3,406.2z"/>
	<path d="M425.9,128.7c0.8,0.9,1.1,1.9,1.1,3c0,1.2-0.5,2.5-1.5,3.4c-0.9,0.8-1.9,1.1-3,1.1c-1.2,0-2.5-0.5-3.4-1.5
		c-1.7-1.9-1.5-4.7,0.4-6.4c0.9-0.8,1.9-1.1,3-1.1C423.7,127.2,425,127.7,425.9,128.7z"/>
	<path class="st0" d="M415.8,413.9c0.8,0.9,1.3,2,1.3,3.1c0,1.2-0.5,2.4-1.4,3.2c-0.9,0.8-2,1.3-3.1,1.3c-1.2,0-2.4-0.5-3.2-1.4
		c-1.7-1.8-1.7-4.6,0.1-6.4c0.9-0.8,2-1.3,3.1-1.3C413.7,412.5,414.9,412.9,415.8,413.9z"/>
	<path d="M416.6,120.9c0,1.1-0.4,2.2-1.3,3.1s-2.1,1.4-3.2,1.4s-2.2-0.4-3.1-1.3c-1.8-1.7-1.9-4.6-0.1-6.4c0.9-0.9,2.1-1.4,3.2-1.4
		s2.2,0.4,3.1,1.2C416.2,118.6,416.6,119.7,416.6,120.9z"/>
	<path class="st0" d="M404.8,424.1c0.7,0.8,1,1.8,1,2.9c0,1.3-0.6,2.6-1.6,3.5c-0.8,0.7-1.8,1-2.9,1c-1.3,0-2.6-0.6-3.5-1.6
		c-1.6-1.9-1.3-4.8,0.6-6.3c0.8-0.7,1.9-1,2.9-1C402.7,422.4,404,423,404.8,424.1z"/>
	<path d="M405.5,111c0,1-0.3,2-1,2.8c-0.9,1.1-2.2,1.7-3.5,1.7c-1,0-2-0.3-2.9-1c-1.9-1.6-2.2-4.4-0.6-6.3c0.9-1.1,2.2-1.7,3.5-1.7
		c1,0,2,0.3,2.9,1l0,0C404.9,108.4,405.5,109.7,405.5,111z"/>
	<path class="st0" d="M393.2,433.4c0.5,0.8,0.8,1.7,0.8,2.6c0,1.4-0.7,2.8-1.9,3.7c-0.8,0.5-1.7,0.8-2.6,0.8c-1.4,0-2.8-0.7-3.7-1.9
		c-1.4-2-0.9-4.9,1.1-6.3c0.8-0.5,1.7-0.8,2.6-0.8C390.9,431.5,392.3,432.1,393.2,433.4z"/>
	<path d="M393.5,102c0,0.9-0.3,1.8-0.8,2.6c-0.9,1.3-2.3,1.9-3.7,1.9c-0.9,0-1.8-0.3-2.6-0.8c-2-1.4-2.5-4.2-1.1-6.3
		c0.9-1.3,2.3-1.9,3.7-1.9c0.9,0,1.8,0.3,2.6,0.8C392.9,99.2,393.5,100.6,393.5,102z"/>
	<path d="M380.8,441.7c0.4,0.7,0.6,1.5,0.6,2.3c0,1.5-0.8,3-2.2,3.9c-0.7,0.4-1.5,0.6-2.3,0.6c-1.5,0-3-0.8-3.9-2.2
		c-1.3-2.1-0.6-4.9,1.6-6.2c0.7-0.4,1.5-0.6,2.3-0.6C378.4,439.5,379.9,440.3,380.8,441.7z"/>
	<path class="st0" d="M381,94c0,0.8-0.2,1.6-0.6,2.3c-0.8,1.4-2.4,2.2-3.9,2.2c-0.8,0-1.6-0.2-2.3-0.6c-2.1-1.3-2.9-4-1.6-6.2
		c0.8-1.4,2.3-2.2,3.9-2.2c0.8,0,1.5,0.2,2.3,0.6C380.2,90.9,381,92.4,381,94z"/>
	<path class="st0" d="M367.8,449.1c0.3,0.6,0.5,1.3,0.5,2c0,1.7-0.9,3.3-2.5,4c-0.6,0.3-1.3,0.5-2,0.5c-0.8,0-1.6-0.2-2.4-0.7
		c-0.7-0.4-1.3-1.1-1.7-1.9c-1.1-2.2-0.2-4.9,2.1-6c0.6-0.3,1.3-0.5,2-0.5C365.4,446.6,367,447.5,367.8,449.1z"/>
	<path d="M367.8,86.9c0,0.7-0.1,1.3-0.5,2c-0.4,0.8-1,1.4-1.7,1.9c-0.7,0.4-1.5,0.7-2.4,0.7c-0.7,0-1.3-0.2-2-0.5
		c-2.2-1.1-3.1-3.8-2.1-6c0.8-1.6,2.4-2.5,4-2.5c0.7,0,1.3,0.2,2,0.5C366.9,83.6,367.8,85.2,367.8,86.9z"/>
	<path class="st0" d="M354.3,455.5c0.2,0.6,0.3,1.1,0.3,1.7c0,1.8-1.1,3.5-2.8,4.2c-0.6,0.2-1.1,0.3-1.7,0.3c-0.9,0-1.8-0.3-2.5-0.8
		s-1.3-1.2-1.7-2.1c-0.9-2.3,0.2-4.9,2.5-5.8c0.6-0.2,1.1-0.3,1.7-0.3C351.9,452.7,353.6,453.8,354.3,455.5z"/>
	<path d="M354.1,80.8c0,0.6-0.1,1.1-0.3,1.7c-0.4,0.9-1,1.6-1.7,2.1s-1.6,0.8-2.5,0.8c-0.6,0-1.1-0.1-1.7-0.3
		c-2.3-0.9-3.4-3.6-2.5-5.8c0.7-1.8,2.4-2.8,4.2-2.8c0.6,0,1.1,0.1,1.7,0.3C353.1,77.4,354.1,79.1,354.1,80.8z"/>
	<path d="M340.4,460.9c0.1,0.5,0.2,0.9,0.2,1.4c0,1.9-1.2,3.7-3.1,4.3c-0.5,0.1-0.9,0.2-1.4,0.2c-1,0-1.9-0.3-2.6-0.8
		s-1.4-1.3-1.7-2.3c-0.8-2.4,0.5-4.9,2.9-5.7c0.5-0.1,0.9-0.2,1.4-0.2C338,457.8,339.7,459,340.4,460.9z"/>
	<path d="M340.1,75.8c0,0.5-0.1,0.9-0.2,1.4c-0.3,1-0.9,1.7-1.7,2.3c-0.8,0.5-1.7,0.8-2.6,0.8c-0.5,0-0.9-0.1-1.4-0.2
		c-2.4-0.8-3.7-3.3-2.9-5.7c0.6-1.9,2.4-3.1,4.3-3.1c0.5,0,0.9,0.1,1.4,0.2C338.9,72.1,340.1,73.9,340.1,75.8z"/>
	<path class="st0" d="M326.1,465.4c0.1,0.4,0.1,0.7,0.1,1.1c0,2-1.4,3.9-3.4,4.4c-0.4,0.1-0.7,0.1-1.1,0.1c-1,0-2-0.3-2.7-0.9
		c-0.8-0.6-1.4-1.5-1.6-2.5c-0.6-2.4,0.9-4.9,3.3-5.5c0.4-0.1,0.7-0.1,1.1-0.1C323.7,462,325.6,463.3,326.1,465.4z"/>
	<path d="M325.7,71.7c0,0.4,0,0.7-0.1,1.1c-0.2,1-0.8,1.9-1.6,2.5c-0.8,0.6-1.7,0.9-2.7,0.9c-0.4,0-0.7,0-1.1-0.1
		c-2.4-0.6-3.9-3-3.3-5.4c0.5-2.1,2.3-3.4,4.4-3.4c0.4,0,0.7,0,1.1,0.1C324.4,67.8,325.7,69.7,325.7,71.7z"/>
	<path d="M311.6,468.8c0,0.3,0.1,0.6,0.1,0.8c0,2.1-1.5,4-3.7,4.4c-0.3,0.1-0.5,0.1-0.8,0.1c-1.1,0-2.1-0.4-2.9-1s-1.4-1.6-1.6-2.6
		c-0.5-2.4,1.2-4.8,3.6-5.2c0.3-0.1,0.5-0.1,0.8-0.1C309.3,465.1,311.2,466.7,311.6,468.8z"/>
	<path d="M311,69.3c-0.4,2.2-2.3,3.7-4.4,3.7l0,0c-0.3,0-0.5,0-0.8-0.1c-2.4-0.5-4.1-2.8-3.6-5.2c0.4-2.2,2.3-3.7,4.4-3.7
		c0.3,0,0.6,0,0.8,0.1c2.2,0.4,3.7,2.3,3.7,4.4C311.1,68.8,311.1,69.1,311,69.3z"/>
	<path d="M296.8,471.4c0,0.2,0,0.4,0,0.6c0,2.2-1.7,4.2-4,4.5c-0.2,0-0.4,0-0.6,0c-1.1,0-2.2-0.4-3-1.1s-1.4-1.7-1.5-2.8
		c-0.3-2.5,1.4-4.7,3.9-5c0.2,0,0.4,0,0.6,0C294.6,467.4,296.6,469.1,296.8,471.4z"/>
	<path d="M296.3,66.3c0,0.2,0,0.4,0,0.5c-0.1,1.1-0.7,2.1-1.5,2.8c-0.8,0.7-1.8,1.1-3,1.1c-0.2,0-0.4,0-0.5,0
		c-2.5-0.3-4.2-2.6-3.9-5c0.3-2.3,2.2-4,4.5-4c0.2,0,0.4,0,0.5,0C294.7,62.1,296.3,64,296.3,66.3z"/>
	<path d="M282,473c0,0.1,0,0.2,0,0.3c0,2.3-1.8,4.3-4.2,4.5c-0.1,0-0.2,0-0.3,0c-1.2,0-2.3-0.5-3.1-1.2c-0.8-0.8-1.3-1.8-1.4-3
		c-0.2-2.5,1.7-4.6,4.2-4.8c0.1,0,0.2,0,0.3,0C279.9,468.8,281.8,470.7,282,473z"/>
	<path d="M281.5,64.9c0,0.1,0,0.2,0,0.3c-0.1,1.2-0.6,2.2-1.4,3s-1.9,1.2-3.1,1.2c-0.1,0-0.2,0-0.3,0c-2.5-0.2-4.4-2.3-4.2-4.8
		c0.1-2.4,2.1-4.2,4.5-4.2c0.1,0,0.2,0,0.3,0C279.7,60.5,281.5,62.5,281.5,64.9z"/>
	<path d="M267.1,473.6v0.1c-0.1,1.2-0.6,2.3-1.4,3.1c-0.8,0.8-1.9,1.3-3.1,1.3c-0.1,0-0.1,0-0.2,0c-2.5-0.1-4.4-2.2-4.3-4.6
		s2.1-4.4,4.5-4.4h0.1C265.2,469.2,267.1,471.2,267.1,473.6z"/>
	<path d="M266.5,64.5c0,0.1,0,0.1,0,0.2c0,2.4-1.9,4.4-4.3,4.5c-0.1,0-0.1,0-0.2,0c-1.2,0-2.3-0.5-3.1-1.3c-0.8-0.8-1.3-1.9-1.4-3.1
		c-0.1-2.5,1.9-4.6,4.3-4.7c0.1,0,0.1,0,0.2,0C264.5,60.1,266.4,62,266.5,64.5z"/>
	<path d="M252.2,472.6c0,0.2,0,0.3,0,0.5c-0.1,1.1-0.7,2.2-1.5,2.9c-0.8,0.7-1.9,1.1-3,1.1c-0.2,0-0.3,0-0.5,0
		c-2.5-0.3-4.3-2.5-4-4.9c0.2-2.3,2.2-4,4.5-4c0.2,0,0.3,0,0.5,0C250.4,468.4,252.2,470.3,252.2,472.6z"/>
	<path d="M251.6,65.2c0,0.2,0,0.3,0,0.5c0,2.3-1.7,4.2-4,4.5c-0.2,0-0.3,0-0.5,0c-1.1,0-2.2-0.4-3-1.2c-0.8-0.7-1.4-1.7-1.5-2.9
		c-0.3-2.5,1.5-4.7,4-5c0.2,0,0.3,0,0.5,0C249.4,61.2,251.4,62.9,251.6,65.2z"/>
	<path class="st0" d="M237.4,470.5c0,0.3,0,0.5-0.1,0.8c-0.2,1.1-0.8,2-1.5,2.7c-0.8,0.7-1.8,1-2.9,1c-0.3,0-0.5,0-0.8-0.1
		c-2.4-0.4-4.1-2.8-3.6-5.2c0.4-2.2,2.3-3.7,4.4-3.7c0.3,0,0.6,0,0.8,0.1C235.8,466.4,237.4,468.3,237.4,470.5z"/>
	<path d="M236.8,67.1c0.1,0.3,0.1,0.5,0.1,0.8c0,2.1-1.5,4-3.7,4.4c-0.3,0.1-0.6,0.1-0.8,0.1c-1.1,0-2.1-0.4-2.9-1
		c-0.8-0.6-1.4-1.6-1.6-2.7c-0.4-2.4,1.2-4.8,3.6-5.2c0.3,0,0.6-0.1,0.8-0.1C234.5,63.4,236.4,64.9,236.8,67.1z"/>
	<path d="M222.8,467.3c0,0.4,0,0.8-0.1,1.1c-0.3,1-0.9,1.9-1.6,2.4s-1.7,0.9-2.7,0.9c-0.4,0-0.8,0-1.1-0.1c-2.4-0.6-3.9-3.1-3.2-5.5
		c0.5-2,2.4-3.4,4.4-3.4c0.4,0,0.8,0,1.1,0.1C221.4,463.4,222.8,465.3,222.8,467.3z"/>
	<path d="M222.1,70c0.1,0.4,0.2,0.8,0.2,1.1c0,2-1.3,3.8-3.4,4.4c-0.4,0.1-0.8,0.1-1.1,0.1c-1,0-1.9-0.3-2.7-0.9s-1.4-1.4-1.6-2.4
		c-0.6-2.4,0.8-4.9,3.2-5.5c0.4-0.1,0.8-0.2,1.1-0.2C219.8,66.6,221.6,68,222.1,70z"/>
	<path d="M208.5,463c0,0.5-0.1,1-0.2,1.4c-0.3,0.9-0.9,1.7-1.7,2.2s-1.7,0.8-2.6,0.8c-0.5,0-1-0.1-1.4-0.2c-2.4-0.8-3.6-3.4-2.8-5.7
		c0.6-1.9,2.4-3.1,4.2-3.1c0.5,0,1,0.1,1.4,0.2C207.3,459.4,208.5,461.1,208.5,463z"/>
	<path d="M207.7,74c0.2,0.5,0.2,1,0.2,1.5c0,1.9-1.2,3.6-3,4.3c-0.5,0.2-1,0.2-1.5,0.2c-0.9,0-1.8-0.3-2.6-0.8s-1.3-1.3-1.7-2.2
		c-0.8-2.4,0.4-4.9,2.8-5.7c0.5-0.2,1-0.2,1.4-0.2C205.3,70.9,207.1,72.1,207.7,74z"/>
	<path class="st0" d="M194.5,457.7c0,0.6-0.1,1.2-0.4,1.8c-0.4,0.9-1,1.5-1.7,2s-1.6,0.7-2.5,0.7c-0.6,0-1.2-0.1-1.8-0.4
		c-2.3-1-3.4-3.6-2.4-5.9c0.7-1.7,2.4-2.8,4.2-2.8c0.6,0,1.2,0.1,1.8,0.4C193.4,454.3,194.5,455.9,194.5,457.7z"/>
	<path d="M193.7,79c0.2,0.6,0.4,1.2,0.4,1.8c0,1.8-1,3.4-2.7,4.2c-0.6,0.2-1.2,0.4-1.8,0.4c-0.9,0-1.7-0.3-2.5-0.7
		c-0.7-0.5-1.3-1.2-1.7-2c-1-2.3,0.1-4.9,2.4-5.9c0.6-0.2,1.2-0.4,1.8-0.4C191.3,76.3,192.9,77.3,193.7,79z"/>
	<path class="st0" d="M178.5,447.3c2.2,1.1,3.1,3.8,1.9,6.1c-0.4,0.8-1,1.4-1.7,1.8s-1.5,0.6-2.3,0.6c-0.7,0-1.4-0.2-2.1-0.5
		c-2.2-1.1-3.1-3.9-1.9-6.1c0.8-1.5,2.4-2.5,4-2.5C177.1,446.8,177.8,447,178.5,447.3L178.5,447.3z"/>
	<path class="st0" d="M180,85c0.3,0.7,0.5,1.4,0.5,2.1c0,1.6-0.9,3.2-2.4,4c-0.7,0.3-1.4,0.5-2.1,0.5c-0.8,0-1.6-0.2-2.3-0.6
		s-1.3-1-1.7-1.8c-1.1-2.2-0.3-4.9,1.9-6.1c0.7-0.3,1.4-0.5,2.1-0.5C177.6,82.6,179.2,83.5,180,85z"/>
	<path class="st0" d="M167.9,444.1c0,0.8-0.2,1.6-0.7,2.3c-0.8,1.4-2.3,2.2-3.8,2.2c-0.8,0-1.6-0.2-2.3-0.7
		c-2.1-1.3-2.8-4.1-1.5-6.2c0.8-1.4,2.3-2.2,3.8-2.2c0.8,0,1.6,0.2,2.3,0.7C167.1,441.1,167.9,442.5,167.9,444.1z"/>
	<path d="M166.8,92.1c0.4,0.7,0.7,1.5,0.7,2.3c0,1.5-0.8,3-2.2,3.8c-0.7,0.5-1.6,0.7-2.3,0.7c-1.5,0-3-0.8-3.8-2.2
		c-1.3-2.1-0.6-4.9,1.5-6.2c0.7-0.4,1.5-0.7,2.3-0.7C164.5,89.9,166,90.7,166.8,92.1z"/>
	<path d="M155.4,435.8c0,0.9-0.3,1.8-0.8,2.6c-0.9,1.2-2.3,1.9-3.7,1.9c-0.9,0-1.8-0.3-2.6-0.8c-2-1.4-2.5-4.3-1.1-6.3
		c0.9-1.2,2.3-1.9,3.7-1.9c0.9,0,1.8,0.3,2.6,0.8C154.7,433,155.4,434.4,155.4,435.8z"/>
	<path d="M154.2,100.1c0.6,0.8,0.8,1.7,0.8,2.6c0,1.4-0.6,2.8-1.9,3.7c-0.8,0.6-1.7,0.8-2.6,0.8c-1.4,0-2.8-0.7-3.7-1.9
		c-1.5-2-1-4.8,1-6.3c0.8-0.6,1.7-0.8,2.6-0.8C151.9,98.2,153.3,98.8,154.2,100.1z"/>
	<path d="M143.5,426.7c0,1-0.3,2-1,2.9c-0.9,1.1-2.2,1.6-3.5,1.6c-1,0-2-0.3-2.9-1l0,0c-1.1-0.9-1.6-2.2-1.6-3.5c0-1,0.3-2,1-2.9
		c0.9-1.1,2.2-1.6,3.5-1.6c1,0,2,0.3,2.9,1C143,424.1,143.5,425.4,143.5,426.7z"/>
	<path d="M142.2,109c0.7,0.8,1,1.9,1,2.9c0,1.3-0.6,2.6-1.6,3.5c-0.8,0.7-1.9,1.1-2.9,1.1c-1.3,0-2.6-0.6-3.5-1.6
		c-1.6-1.9-1.3-4.8,0.6-6.3c0.8-0.7,1.9-1,2.9-1C140,107.3,141.3,107.9,142.2,109z"/>
	<path d="M132.4,416.7c0,1.1-0.4,2.2-1.2,3.1c-0.9,0.9-2.1,1.4-3.2,1.4c-1.1,0-2.2-0.4-3.1-1.2c-1.8-1.7-1.9-4.6-0.1-6.4
		c0.9-0.9,2.1-1.4,3.2-1.4c1.1,0,2.2,0.4,3.1,1.2C131.9,414.4,132.4,415.5,132.4,416.7z"/>
	<path class="st0" d="M130.8,118.7c0.8,0.9,1.3,2,1.3,3.1c0,1.2-0.5,2.4-1.4,3.2c-0.9,0.8-2,1.3-3.1,1.3c-1.2,0-2.3-0.5-3.2-1.4
		c-1.7-1.8-1.7-4.6,0.1-6.4c0.9-0.8,2-1.3,3.1-1.3C128.8,117.3,130,117.8,130.8,118.7z"/>
	<path d="M120.8,403c0.8,0.9,1.2,1.9,1.2,3c0,1.2-0.5,2.4-1.5,3.3c-0.9,0.8-1.9,1.2-3,1.2c-1.2,0-2.5-0.5-3.3-1.5
		c-1.7-1.9-1.5-4.7,0.3-6.4c0.9-0.8,1.9-1.1,3-1.1C118.7,401.5,120,402,120.8,403z"/>
	<path class="st0" d="M121.7,132.6c0,1.1-0.4,2.1-1.2,3c-0.9,1-2.1,1.5-3.3,1.5c-1.1,0-2.2-0.4-3-1.2c-1.8-1.7-2-4.5-0.3-6.3
		c0.9-1,2.1-1.5,3.4-1.5c1.1,0,2.1,0.4,3,1.1C121.2,130.1,121.7,131.3,121.7,132.6z"/>
	<path d="M111.5,391.8c0.6,0.8,0.9,1.8,0.9,2.8c0,1.3-0.6,2.7-1.7,3.6c-0.8,0.6-1.8,0.9-2.8,0.9c-1.3,0-2.7-0.6-3.5-1.7
		c-1.5-2-1.2-4.8,0.8-6.3c0.8-0.6,1.8-0.9,2.8-0.9C109.3,390,110.6,390.6,111.5,391.8z"/>
	<path d="M112.2,144.1c0,1-0.3,1.9-0.9,2.8c-0.9,1.1-2.2,1.7-3.6,1.7c-1,0-1.9-0.3-2.8-0.9c-2-1.5-2.3-4.3-0.8-6.3
		c0.9-1.1,2.2-1.7,3.6-1.7c1,0,1.9,0.3,2.7,0.9C111.6,141.4,112.2,142.7,112.2,144.1z"/>
	<path d="M102.9,379.9c0.5,0.8,0.8,1.6,0.8,2.5c0,1.5-0.7,2.9-2,3.8c-0.8,0.5-1.6,0.8-2.5,0.8c-1.5,0-2.9-0.7-3.7-2
		c-1.4-2.1-0.8-4.9,1.2-6.2c0.8-0.5,1.6-0.8,2.5-0.8C100.6,377.9,102.1,378.6,102.9,379.9z"/>
	<path class="st0" d="M103.4,156.2c0,0.8-0.2,1.7-0.8,2.5c-0.9,1.3-2.3,2-3.8,2c-0.9,0-1.7-0.2-2.5-0.8c-2.1-1.4-2.6-4.2-1.3-6.2
		c0.9-1.3,2.3-2,3.8-2c0.8,0,1.7,0.2,2.5,0.8C102.7,153.3,103.4,154.7,103.4,156.2z"/>
	<path d="M95.3,367.5c0.4,0.7,0.6,1.5,0.6,2.2c0,1.6-0.8,3.1-2.3,3.9c-0.7,0.4-1.5,0.6-2.2,0.6c-1.6,0-3.1-0.8-3.9-2.3
		c-1.2-2.2-0.5-4.9,1.7-6.1c0.7-0.4,1.5-0.6,2.2-0.6C92.9,365.2,94.5,366,95.3,367.5z"/>
	<path d="M95.6,169c0,0.8-0.2,1.5-0.6,2.2c-0.8,1.5-2.3,2.3-3.9,2.3c-0.8,0-1.5-0.2-2.2-0.6c-2.2-1.2-2.9-4-1.7-6.1
		c0.8-1.5,2.3-2.3,3.9-2.3c0.7,0,1.5,0.2,2.2,0.6C94.8,165.9,95.6,167.4,95.6,169z"/>
	<path d="M88.6,354.5c0.3,0.6,0.4,1.3,0.4,1.9c0,1.7-0.9,3.3-2.6,4.1c-0.6,0.3-1.3,0.4-1.9,0.4c-0.8,0-1.7-0.2-2.4-0.7
		c-0.7-0.4-1.3-1.1-1.7-1.9c-1.1-2.2-0.1-4.9,2.2-6c0.6-0.3,1.3-0.4,1.9-0.4C86.2,351.9,87.8,352.9,88.6,354.5z"/>
	<path d="M88.8,182.3c0,0.6-0.1,1.3-0.4,1.9c-0.4,0.8-1,1.5-1.7,1.9s-1.5,0.7-2.4,0.7c-0.6,0-1.3-0.1-1.9-0.4
		c-2.2-1.1-3.2-3.7-2.2-6c0.8-1.6,2.4-2.6,4.1-2.6c0.6,0,1.3,0.1,1.9,0.4C87.8,178.9,88.8,180.6,88.8,182.3z"/>
	<path class="st0" d="M82.8,341.1c0.9,2.3-0.3,4.9-2.6,5.8c-0.5,0.2-1.1,0.3-1.6,0.3c-0.9,0-1.8-0.3-2.5-0.8s-1.3-1.2-1.7-2.1
		c-0.9-2.3,0.3-4.9,2.6-5.8c0.5-0.2,1.1-0.3,1.6-0.3C80.4,338.2,82.1,339.3,82.8,341.1L82.8,341.1z"/>
	<path d="M82.9,196c0,0.5-0.1,1.1-0.3,1.6c-0.3,0.9-0.9,1.6-1.7,2.1s-1.6,0.8-2.5,0.8c-0.5,0-1.1-0.1-1.6-0.3
		c-2.3-0.9-3.5-3.5-2.6-5.8c0.7-1.8,2.4-2.9,4.2-2.9c0.5,0,1.1,0.1,1.6,0.3C81.8,192.5,82.9,194.2,82.9,196z"/>
	<path d="M78.1,327.3c0.1,0.4,0.2,0.9,0.2,1.3c0,1.9-1.3,3.7-3.2,4.3c-0.4,0.1-0.9,0.2-1.3,0.2c-1,0-1.9-0.3-2.7-0.9
		c-0.8-0.5-1.3-1.4-1.7-2.3c-0.7-2.4,0.6-4.9,3-5.6c0.4-0.1,0.9-0.2,1.3-0.2C75.7,324.1,77.5,325.3,78.1,327.3z"/>
	<path d="M78.1,210.2c0,0.4-0.1,0.9-0.2,1.3c-0.3,1-0.9,1.8-1.7,2.3c-0.8,0.5-1.7,0.9-2.7,0.9c-0.4,0-0.9-0.1-1.3-0.2
		c-2.4-0.7-3.7-3.2-3-5.6c0.6-1.9,2.4-3.2,4.3-3.2c0.4,0,0.9,0.1,1.3,0.2C76.9,206.5,78.1,208.2,78.1,210.2z"/>
	<path d="M74.4,313.1c0.5,2.4-1,4.8-3.4,5.4c-0.3,0.1-0.7,0.1-1,0.1c-1,0-2-0.4-2.8-1s-1.4-1.5-1.6-2.5c-0.5-2.4,1-4.8,3.4-5.4
		c0.3-0.1,0.7-0.1,1-0.1C72,309.6,73.9,311,74.4,313.1L74.4,313.1z"/>
	<path d="M74.3,224.6c0,0.3,0,0.7-0.1,1c-0.2,1.1-0.8,1.9-1.6,2.6c-0.8,0.6-1.8,1-2.8,1c-0.3,0-0.7,0-1-0.1c-2.4-0.5-4-2.9-3.4-5.4
		c0.5-2.1,2.3-3.5,4.4-3.5c0.3,0,0.7,0,1,0.1C72.9,220.7,74.3,222.6,74.3,224.6z"/>
	<path class="st0" d="M71.7,298.8c0,0.2,0.1,0.5,0.1,0.7c0,2.2-1.6,4.1-3.8,4.4c-0.2,0-0.4,0.1-0.7,0.1c-1.1,0-2.1-0.4-2.9-1.1
		c-0.8-0.7-1.4-1.6-1.5-2.8c-0.4-2.5,1.3-4.8,3.8-5.1c0.2,0,0.4,0,0.7,0C69.4,294.9,71.3,296.5,71.7,298.8z"/>
	<path class="st0" d="M71.7,239.3c0,0.2,0,0.4-0.1,0.7c-0.2,1.1-0.7,2.1-1.5,2.8s-1.8,1.1-2.9,1.1c-0.2,0-0.4,0-0.7,0
		c-2.5-0.4-4.2-2.6-3.8-5.1c0.3-2.2,2.2-3.9,4.4-3.9c0.2,0,0.4,0,0.7,0.1C70,235.2,71.7,237.1,71.7,239.3z"/>
	<path class="st0" d="M70.1,284.2c0,0.1,0,0.2,0,0.3c0,2.3-1.8,4.3-4.2,4.5c-0.1,0-0.2,0-0.3,0c-1.2,0-2.2-0.5-3-1.2
		c-0.8-0.8-1.3-1.8-1.4-3c-0.2-2.5,1.7-4.6,4.1-4.8c0.1,0,0.2,0,0.3,0C67.9,280.1,69.9,281.9,70.1,284.2z"/>
	<path d="M70,254.2c0,0.1,0,0.2,0,0.3c-0.1,1.2-0.6,2.2-1.4,3s-1.9,1.2-3.1,1.2c-0.1,0-0.2,0-0.3,0c-2.5-0.2-4.3-2.3-4.2-4.8
		c0.2-2.4,2.1-4.2,4.5-4.2c0.1,0,0.2,0,0.3,0C68.2,249.9,70,251.9,70,254.2z"/>
	<path d="M69.5,269.7c0,2.5-2,4.5-4.5,4.5c-1.2,0-2.4-0.5-3.2-1.3s-1.3-1.9-1.3-3.2c0-0.1,0-0.2,0-0.2c0-0.1,0-0.2,0-0.3
		c0-1.2,0.5-2.4,1.3-3.2c0.8-0.8,1.9-1.3,3.2-1.3c1.2,0,2.4,0.5,3.2,1.3c0.8,0.8,1.3,1.9,1.3,3.2c0,0.1,0,0.2,0,0.3
		C69.5,269.5,69.5,269.5,69.5,269.7C69.5,269.6,69.5,269.6,69.5,269.7z"/>
</g>
</svg>
