<?xml version="1.0" encoding="utf-8"?>
<!-- Generator: Adobe Illustrator 26.0.1, SVG Export Plug-In . SVG Version: 6.00 Build 0)  -->
<svg version="1.1" id="Layer_1" xmlns="http://www.w3.org/2000/svg" xmlns:xlink="http://www.w3.org/1999/xlink" x="0px" y="0px"
	 viewBox="0 0 538.1 538.1" style="enable-background:new 0 0 538.1 538.1;" xml:space="preserve">
<style type="text/css">
	.st0{fill:#857AAE;}
	.st1{fill:#C5C5C5;}
	.st2{fill:#3D2662;}
</style>
<g id="Ring01">
	<path d="M406.7,269L406.7,269c0,2.5-2,4.5-4.5,4.5l0,0c-2.5,0-4.5-2-4.5-4.5s2-4.5,4.5-4.5l0,0C404.7,264.5,406.7,266.5,406.7,269z
		"/>
	<path class="st0" d="M406,283.9c0,0.2,0,0.3,0,0.5c-0.1,1.2-0.7,2.2-1.5,2.9c-0.8,0.7-1.9,1.1-3,1.1c-0.1,0-0.3,0-0.5,0
		c-2.5-0.3-4.3-2.5-4-4.9c0.2-2.3,2.2-4,4.5-4c0.2,0,0.3,0,0.5,0C404.3,279.7,406,281.7,406,283.9z"/>
	<path class="st1" d="M405.9,253.6c0,0.2,0,0.3,0,0.5c0,2.3-1.7,4.2-4,4.5c-0.2,0-0.3,0-0.5,0c-1.1,0-2.2-0.4-3-1.1
		s-1.3-1.7-1.5-2.9c-0.3-2.5,1.5-4.7,4-4.9c0.2,0,0.3,0,0.5,0C403.7,249.6,405.7,251.3,405.9,253.6z"/>
	<path class="st0" d="M403.7,298.7c0,0.3,0,0.6-0.1,1c-0.2,1.1-0.8,2-1.6,2.6c-0.8,0.6-1.8,1-2.8,1c-0.3,0-0.6,0-0.9-0.1
		c-2.4-0.5-4-2.9-3.5-5.3c0.4-2.1,2.3-3.6,4.4-3.6c0.3,0,0.6,0,0.9,0.1C402.2,294.7,403.7,296.6,403.7,298.7z"/>
	<path class="st1" d="M403.5,238.4c0.1,0.3,0.1,0.6,0.1,0.9c0,2.1-1.5,3.9-3.6,4.4c-0.3,0.1-0.6,0.1-1,0.1c-1,0-2-0.4-2.8-1
		s-1.4-1.5-1.6-2.6c-0.5-2.4,1-4.8,3.4-5.3c0.3-0.1,0.6-0.1,1-0.1C401.2,234.8,403,236.2,403.5,238.4z"/>
	<path class="st1" d="M399.8,313.1c0,0.5-0.1,0.9-0.2,1.4c-0.3,0.9-0.9,1.7-1.7,2.2c-0.8,0.5-1.7,0.8-2.6,0.8
		c-0.5,0-0.9-0.1-1.4-0.2c-2.4-0.8-3.6-3.3-2.9-5.7c0.6-1.9,2.4-3.1,4.3-3.1c0.5,0,0.9,0.1,1.4,0.2
		C398.6,309.5,399.8,311.2,399.8,313.1z"/>
	<path class="st1" d="M399.4,223.5c0.2,0.5,0.2,0.9,0.2,1.4c0,1.9-1.2,3.6-3.1,4.3c-0.5,0.2-0.9,0.2-1.4,0.2c-0.9,0-1.9-0.3-2.6-0.8
		c-0.8-0.5-1.4-1.3-1.7-2.2c-0.8-2.4,0.5-4.9,2.9-5.7c0.5-0.1,1-0.2,1.4-0.2C397,220.4,398.8,221.6,399.4,223.5z"/>
	<path d="M394.3,327.1c0,0.6-0.1,1.3-0.4,1.9c-0.4,0.8-1,1.5-1.7,1.9c-0.7,0.5-1.5,0.7-2.4,0.7c-0.6,0-1.3-0.1-1.9-0.4
		c-2.3-1-3.2-3.7-2.2-6c0.8-1.6,2.4-2.6,4.1-2.6c0.6,0,1.3,0.1,1.9,0.4C393.3,323.7,394.3,325.3,394.3,327.1z"/>
	<path class="st0" d="M393.8,209.1c0.3,0.6,0.4,1.2,0.4,1.9c0,1.7-1,3.3-2.6,4.1c-0.6,0.3-1.2,0.4-1.9,0.4c-0.9,0-1.7-0.2-2.4-0.7
		c-0.7-0.5-1.3-1.1-1.7-1.9c-1-2.3-0.1-4.9,2.2-6c0.6-0.3,1.2-0.4,1.9-0.4C391.4,206.5,393,207.4,393.8,209.1z"/>
	<path class="st1" d="M387.3,340.3c0,0.8-0.2,1.6-0.6,2.3c-0.9,1.4-2.3,2.2-3.9,2.2c-0.8,0-1.6-0.2-2.3-0.6
		c-2.1-1.3-2.8-4.1-1.5-6.2c0.9-1.4,2.3-2.2,3.9-2.2c0.8,0,1.6,0.2,2.3,0.6C386.5,337.3,387.3,338.7,387.3,340.3z"/>
	<path class="st1" d="M386.5,195.4c0.4,0.7,0.7,1.5,0.7,2.3c0,1.5-0.8,3-2.2,3.8c-0.7,0.4-1.5,0.7-2.3,0.7c-1.5,0-3-0.8-3.9-2.2
		c-1.3-2.1-0.6-4.9,1.5-6.2c0.7-0.4,1.5-0.7,2.3-0.7C384.2,193.3,385.6,194,386.5,195.4z"/>
	<path class="st1" d="M378.8,352.6c0,1-0.3,1.9-0.9,2.8c-0.9,1.1-2.2,1.7-3.6,1.7c-1,0-1.9-0.3-2.8-1c-2-1.5-2.3-4.4-0.8-6.3
		c0.9-1.1,2.2-1.7,3.5-1.7c1,0,2,0.3,2.8,1C378.2,349.9,378.8,351.2,378.8,352.6z"/>
	<path d="M377.7,182.7c0.6,0.8,1,1.8,1,2.8c0,1.3-0.6,2.7-1.7,3.5c-0.8,0.6-1.8,1-2.8,1c-1.3,0-2.7-0.6-3.5-1.7
		c-1.5-1.9-1.2-4.8,0.8-6.3c0.8-0.6,1.8-1,2.8-1C375.5,181,376.8,181.6,377.7,182.7z"/>
	<path d="M368.9,363.8c0,1.1-0.4,2.3-1.3,3.2c-0.9,0.9-2,1.3-3.2,1.3s-2.3-0.4-3.2-1.3c-1.8-1.8-1.8-4.6,0-6.4
		c0.9-0.9,2-1.3,3.2-1.3c1.1,0,2.3,0.4,3.2,1.3C368.5,361.5,368.9,362.6,368.9,363.8z"/>
	<path d="M367.4,171.1c0.9,0.9,1.3,2,1.3,3.2s-0.4,2.3-1.3,3.2s-2,1.3-3.2,1.3s-2.3-0.4-3.2-1.3c-1.8-1.8-1.8-4.6,0-6.4
		c0.9-0.9,2-1.3,3.2-1.3S366.5,170.2,367.4,171.1z"/>
	<path class="st0" d="M356.8,370.9c0.6,0.8,1,1.8,1,2.8c0,1.3-0.6,2.7-1.7,3.6l0,0c-0.8,0.6-1.8,1-2.8,1c-1.3,0-2.7-0.6-3.6-1.7
		c-1.5-2-1.2-4.8,0.8-6.3c0.8-0.6,1.8-1,2.8-1C354.6,369.2,355.9,369.8,356.8,370.9z"/>
	<path d="M357.5,164.4c0,1-0.3,1.9-1,2.8c-0.9,1.1-2.2,1.7-3.5,1.7c-1,0-2-0.3-2.8-0.9c-2-1.5-2.3-4.4-0.8-6.3
		c0.9-1.1,2.2-1.7,3.5-1.7c1,0,1.9,0.3,2.8,1C356.9,161.7,357.5,163.1,357.5,164.4z"/>
	<path d="M344.8,379.9c0.4,0.7,0.7,1.5,0.7,2.3c0,1.5-0.8,3-2.2,3.8c-0.7,0.4-1.5,0.7-2.3,0.7c-1.5,0-3-0.8-3.9-2.2
		c-1.3-2.1-0.6-4.9,1.5-6.2c0.7-0.4,1.5-0.7,2.3-0.7C342.5,377.7,344,378.5,344.8,379.9z"/>
	<path class="st1" d="M345.2,155.9c0,0.8-0.2,1.6-0.6,2.3c-0.8,1.4-2.3,2.2-3.9,2.2c-0.8,0-1.6-0.2-2.3-0.7c-2.1-1.3-2.8-4-1.5-6.2
		c0.8-1.4,2.3-2.2,3.9-2.2c0.8,0,1.6,0.2,2.3,0.6C344.5,152.9,345.2,154.4,345.2,155.9z"/>
	<path d="M331.9,387.3c0.3,0.6,0.4,1.2,0.4,1.9c0,1.7-1,3.3-2.6,4.1c-0.6,0.3-1.2,0.4-1.9,0.4c-0.8,0-1.7-0.2-2.4-0.7
		c-0.7-0.5-1.3-1.1-1.7-1.9c-1-2.3,0-4.9,2.2-6c0.6-0.3,1.2-0.4,1.9-0.4C329.5,384.7,331.1,385.7,331.9,387.3z"/>
	<path class="st1" d="M332,148.9c0,0.6-0.1,1.3-0.4,1.9c-0.4,0.8-1,1.5-1.7,1.9s-1.5,0.7-2.4,0.7c-0.6,0-1.3-0.1-1.9-0.4
		c-2.3-1-3.3-3.7-2.2-6c0.8-1.6,2.4-2.6,4.1-2.6c0.6,0,1.3,0.1,1.9,0.4C331,145.6,332,147.2,332,148.9z"/>
	<path class="st1" d="M318.2,393.3c0.2,0.5,0.2,0.9,0.2,1.4c0,1.9-1.2,3.6-3.1,4.3c-0.5,0.1-1,0.2-1.4,0.2c-0.9,0-1.9-0.3-2.6-0.8
		c-0.8-0.5-1.4-1.3-1.7-2.2c-0.8-2.4,0.5-4.9,2.9-5.7c0.5-0.1,0.9-0.2,1.4-0.2C315.8,390.2,317.5,391.4,318.2,393.3z"/>
	<path d="M318.1,143.5c0,0.5-0.1,0.9-0.2,1.4c-0.3,0.9-0.9,1.7-1.7,2.3c-0.8,0.5-1.7,0.8-2.6,0.8c-0.5,0-0.9-0.1-1.4-0.2l0,0
		c-2.4-0.8-3.6-3.3-2.9-5.7c0.6-1.9,2.4-3.1,4.3-3.1c0.5,0,0.9,0.1,1.4,0.2C316.9,139.8,318.1,141.6,318.1,143.5z"/>
	<path class="st1" d="M303.9,397.7c0.1,0.3,0.1,0.7,0.1,1c0,2.1-1.4,3.9-3.5,4.4c-0.3,0.1-0.7,0.1-1,0.1c-1,0-2-0.4-2.8-1
		s-1.4-1.5-1.6-2.5c-0.5-2.4,1-4.8,3.4-5.4c0.3-0.1,0.7-0.1,1-0.1C301.5,394.2,303.4,395.6,303.9,397.7z"/>
	<path d="M303.7,139.5c0,0.3,0,0.6-0.1,1c-0.2,1.1-0.8,1.9-1.6,2.6c-0.8,0.6-1.8,1-2.8,1c-0.3,0-0.6,0-1-0.1c-2.4-0.5-4-2.9-3.4-5.4
		c0.5-2.1,2.3-3.5,4.4-3.5c0.3,0,0.6,0,1,0.1C302.3,135.6,303.7,137.5,303.7,139.5z"/>
	<path d="M289.2,400.6c0,0.2,0,0.4,0,0.6c0,2.2-1.7,4.2-3.9,4.5c-0.2,0-0.4,0-0.6,0c-1.1,0-2.2-0.4-3-1.1s-1.3-1.7-1.5-2.8
		c-0.3-2.5,1.4-4.7,3.9-5c0.2,0,0.4,0,0.6,0C287,396.7,288.9,398.4,289.2,400.6z"/>
	<path class="st1" d="M289,137c0,0.2,0,0.4,0,0.6c-0.1,1.1-0.7,2.1-1.5,2.8s-1.9,1.1-3,1.1c-0.2,0-0.4,0-0.6,0
		c-2.5-0.3-4.2-2.6-3.9-5c0.3-2.3,2.2-4,4.4-4c0.2,0,0.4,0,0.6,0C287.3,132.8,289,134.8,289,137z"/>
	<path d="M274.4,402.3c0,0.1,0,0.1,0,0.2c0,2.4-1.9,4.4-4.3,4.5c-0.1,0-0.1,0-0.2,0c-1.2,0-2.3-0.5-3.1-1.2
		c-0.8-0.8-1.3-1.8-1.4-3.1c-0.1-2.5,1.8-4.6,4.3-4.7c0.1,0,0.1,0,0.2,0C272.3,397.9,274.3,399.8,274.4,402.3z"/>
	<path d="M272.7,132.6c0.8,0.8,1.3,1.9,1.3,3.2c0,1.2-0.5,2.4-1.3,3.2s-1.9,1.3-3.2,1.3c-1.2,0-2.4-0.5-3.2-1.3
		c-0.8-0.8-1.3-1.9-1.3-3.2c0-2.5,2-4.5,4.5-4.5C270.8,131.3,271.9,131.8,272.7,132.6z"/>
	<path d="M259.4,401.6c0,0.2,0,0.3,0,0.5c-0.1,1.1-0.7,2.1-1.5,2.9c-0.8,0.7-1.9,1.1-3,1.1c-0.2,0-0.3,0-0.5,0c-2.5-0.3-4.2-2.5-4-5
		c0.2-2.3,2.2-4,4.5-4c0.2,0,0.3,0,0.5,0C257.7,397.4,259.4,399.4,259.4,401.6z"/>
	<path class="st0" d="M259.1,136.1c0,0.2,0,0.3,0,0.5c0,2.3-1.7,4.2-4,4.5c-0.2,0-0.3,0-0.5,0c-1.1,0-2.2-0.4-3-1.1
		c-0.8-0.7-1.4-1.7-1.5-2.9c-0.3-2.5,1.5-4.7,4-5c0.2,0,0.3,0,0.5,0C256.9,132.1,258.9,133.8,259.1,136.1z"/>
	<path d="M244.7,399.2c0,0.3,0,0.7-0.1,1c-0.2,1-0.8,1.9-1.6,2.5s-1.8,1-2.8,1c-0.3,0-0.7,0-1-0.1c-2.4-0.5-3.9-3-3.4-5.4
		c0.5-2.1,2.3-3.5,4.4-3.5c0.3,0,0.7,0,1,0.1C243.3,395.3,244.7,397.1,244.7,399.2z"/>
	<path d="M244.3,138.1c0.1,0.3,0.1,0.7,0.1,1c0,2.1-1.4,3.9-3.5,4.4c-0.3,0.1-0.7,0.1-1,0.1c-1,0-2-0.3-2.8-1
		c-0.8-0.6-1.4-1.5-1.6-2.5c-0.6-2.4,1-4.8,3.4-5.4c0.3-0.1,0.7-0.1,1-0.1C242,134.6,243.8,136,244.3,138.1z"/>
	<path class="st0" d="M230.3,395.1c0,0.5-0.1,1-0.2,1.5c-0.3,0.9-0.9,1.7-1.7,2.2s-1.6,0.8-2.6,0.8c-0.5,0-1-0.1-1.5-0.2
		c-2.4-0.8-3.6-3.4-2.8-5.7c0.6-1.9,2.4-3,4.2-3c0.5,0,1,0.1,1.5,0.2C229.2,391.5,230.3,393.2,230.3,395.1z"/>
	<path d="M229.8,141.8c0.2,0.5,0.2,1,0.2,1.5c0,1.9-1.2,3.6-3,4.2c-0.5,0.2-1,0.2-1.5,0.2c-0.9,0-1.8-0.3-2.6-0.8s-1.3-1.3-1.7-2.2
		c-0.8-2.3,0.4-4.9,2.8-5.7c0.5-0.2,1-0.3,1.5-0.3C227.4,138.8,229.1,139.9,229.8,141.8z"/>
	<path class="st2" d="M216.5,389.4c0,0.7-0.2,1.3-0.5,2c-0.4,0.8-1,1.4-1.7,1.9c-0.7,0.4-1.5,0.7-2.4,0.7c-0.6,0-1.3-0.1-1.9-0.4
		c-2.2-1.1-3.2-3.8-2.1-6c0.8-1.6,2.4-2.6,4.1-2.6c0.7,0,1.3,0.1,1.9,0.4C215.5,386.1,216.5,387.7,216.5,389.4z"/>
	<path class="st0" d="M215.8,147c0.3,0.6,0.4,1.3,0.4,2c0,1.7-0.9,3.3-2.5,4.1c-0.6,0.3-1.3,0.4-1.9,0.4c-0.8,0-1.7-0.2-2.4-0.7
		c-0.7-0.4-1.3-1.1-1.7-1.9c-1.1-2.2-0.1-4.9,2.1-6c0.6-0.3,1.3-0.4,1.9-0.4C213.4,144.5,215,145.4,215.8,147z"/>
	<path class="st2" d="M203.4,382.2c0,0.8-0.2,1.7-0.7,2.4c-0.9,1.4-2.3,2.1-3.8,2.1c-0.8,0-1.6-0.2-2.4-0.7
		c-2.1-1.3-2.7-4.1-1.4-6.2c0.8-1.4,2.3-2.1,3.8-2.1c0.8,0,1.6,0.2,2.4,0.7C202.7,379.2,203.4,380.7,203.4,382.2z"/>
	<path d="M202.5,153.8c0.5,0.7,0.7,1.6,0.7,2.4c0,1.5-0.8,2.9-2.1,3.8c-0.7,0.5-1.6,0.7-2.4,0.7c-1.5,0-3-0.8-3.8-2.1
		c-1.3-2.1-0.7-4.9,1.4-6.2c0.8-0.5,1.6-0.7,2.4-0.7C200.2,151.7,201.6,152.5,202.5,153.8z"/>
	<path class="st2" d="M191.2,373.5c0,1-0.3,2-1,2.8c-0.9,1.1-2.2,1.7-3.5,1.7c-1,0-2-0.3-2.8-1c-1.9-1.5-2.3-4.4-0.7-6.3
		c0.9-1.1,2.2-1.7,3.5-1.7c1,0,2,0.3,2.8,1C190.6,370.9,191.2,372.2,191.2,373.5z"/>
	<path class="st1" d="M190,162.1c0.7,0.8,1,1.8,1,2.8c0,1.3-0.6,2.6-1.7,3.5c-0.8,0.7-1.8,1-2.8,1c-1.3,0-2.6-0.6-3.5-1.7
		c-1.6-1.9-1.2-4.8,0.7-6.3c0.8-0.7,1.8-1,2.8-1C187.8,160.4,189.1,161,190,162.1z"/>
	<path class="st1" d="M180,363.6c0,1.2-0.4,2.3-1.3,3.2c-0.9,0.9-2,1.3-3.2,1.3c-1.1,0-2.3-0.4-3.2-1.3c-1.8-1.8-1.8-4.6,0-6.4
		c0.9-0.9,2-1.3,3.2-1.3s2.3,0.4,3.2,1.3C179.6,361.3,180,362.4,180,363.6z"/>
	<path class="st1" d="M178.5,171.7c0.9,0.9,1.3,2,1.3,3.2s-0.4,2.3-1.3,3.2s-2,1.3-3.2,1.3c-1.1,0-2.3-0.4-3.2-1.3
		c-1.8-1.8-1.8-4.6,0-6.4c0.9-0.9,2-1.3,3.2-1.3S177.7,170.8,178.5,171.7z"/>
	<path class="st1" d="M169.1,349.6c0.7,0.8,1,1.8,1,2.8c0,1.3-0.6,2.6-1.7,3.5c-0.8,0.7-1.8,1-2.8,1c-1.3,0-2.6-0.6-3.5-1.7
		c-1.6-1.9-1.2-4.8,0.7-6.3c0.8-0.7,1.8-1,2.8-1C166.9,347.9,168.2,348.5,169.1,349.6z"/>
	<path d="M169.9,186c0,1-0.3,2-1,2.8c-0.9,1.1-2.2,1.7-3.5,1.7c-1,0-2-0.3-2.8-1c-1.9-1.6-2.3-4.4-0.7-6.3c0.9-1.1,2.2-1.7,3.5-1.7
		c1,0,2,0.3,2.8,1C169.3,183.4,169.9,184.7,169.9,186z"/>
	<path d="M160.7,337.9c0.5,0.8,0.7,1.6,0.7,2.4c0,1.5-0.8,2.9-2.1,3.8c-0.7,0.5-1.6,0.7-2.4,0.7c-1.5,0-2.9-0.8-3.8-2.1
		c-1.3-2.1-0.7-4.9,1.4-6.2c0.8-0.5,1.6-0.7,2.4-0.7C158.4,335.8,159.8,336.5,160.7,337.9z"/>
	<path d="M161.2,198.2c0,0.8-0.2,1.6-0.7,2.4c-0.9,1.4-2.3,2.1-3.8,2.1c-0.8,0-1.7-0.2-2.4-0.7c-2.1-1.3-2.7-4.1-1.4-6.2
		c0.9-1.4,2.3-2.1,3.8-2.1c0.8,0,1.6,0.2,2.4,0.7C160.5,195.2,161.2,196.7,161.2,198.2z"/>
	<path d="M153.7,325.3c0.3,0.6,0.4,1.3,0.4,2c0,1.7-0.9,3.3-2.5,4.1c-0.6,0.3-1.3,0.4-2,0.4c-0.8,0-1.6-0.2-2.4-0.7
		c-0.7-0.4-1.3-1.1-1.7-1.9c-1.1-2.2-0.2-4.9,2.1-6c0.6-0.3,1.3-0.5,2-0.5C151.3,322.7,152.9,323.7,153.7,325.3z"/>
	<path class="st0" d="M154,211.3c0,0.6-0.1,1.3-0.4,1.9c-0.4,0.8-1,1.4-1.7,1.9c-0.7,0.4-1.5,0.7-2.4,0.7c-0.7,0-1.3-0.2-1.9-0.5
		c-2.2-1.1-3.2-3.8-2.1-6c0.8-1.6,2.4-2.6,4.1-2.6c0.7,0,1.3,0.2,1.9,0.4C153,208,154,209.6,154,211.3z"/>
	<path d="M148.1,311.9c0.2,0.5,0.3,1,0.3,1.5c0,1.9-1.2,3.6-3,4.2c-0.5,0.2-1,0.3-1.5,0.3c-0.9,0-1.8-0.3-2.6-0.8s-1.3-1.3-1.7-2.2
		c-0.8-2.4,0.4-4.9,2.8-5.7c0.5-0.2,1-0.3,1.5-0.3C145.7,308.9,147.4,310.1,148.1,311.9z"/>
	<path class="st1" d="M148.3,225.1c0,0.5-0.1,1-0.2,1.5c-0.3,0.9-0.9,1.7-1.7,2.2s-1.7,0.8-2.6,0.8c-0.5,0-1-0.1-1.5-0.3
		c-2.4-0.8-3.6-3.4-2.8-5.7c0.7-1.9,2.4-3,4.3-3c0.5,0,1,0.1,1.5,0.2C147.1,221.5,148.3,223.2,148.3,225.1z"/>
	<path d="M144.1,298.1c0.1,0.3,0.1,0.7,0.1,1c0,2-1.4,3.9-3.5,4.4c-0.3,0.1-0.7,0.1-1,0.1c-1,0-2-0.4-2.8-1s-1.4-1.5-1.6-2.5
		c-0.6-2.4,1-4.8,3.4-5.4c0.3-0.1,0.7-0.1,1-0.1C141.7,294.6,143.6,296,144.1,298.1z"/>
	<path class="st1" d="M144.1,239.5c0,0.3,0,0.7-0.1,1c-0.2,1-0.8,1.9-1.6,2.5s-1.8,1-2.8,1c-0.3,0-0.7,0-1-0.1
		c-2.4-0.6-3.9-3-3.4-5.4c0.5-2.1,2.3-3.5,4.4-3.5c0.3,0,0.7,0,1,0.1C142.7,235.5,144.1,237.4,144.1,239.5z"/>
	<path d="M141.6,283.8c0,0.2,0,0.3,0,0.5c0,2.3-1.7,4.2-4,4.5c-0.2,0-0.3,0-0.5,0c-1.1,0-2.2-0.4-3-1.1s-1.3-1.7-1.5-2.9
		c-0.3-2.5,1.5-4.7,4-5c0.2,0,0.3,0,0.5,0C139.4,279.8,141.4,281.5,141.6,283.8z"/>
	<path class="st0" d="M141.6,254.2c0,0.2,0,0.3,0,0.5c-0.1,1.1-0.7,2.1-1.5,2.9c-0.8,0.7-1.9,1.1-3,1.1c-0.2,0-0.3,0-0.5,0
		c-2.5-0.3-4.2-2.5-4-5c0.3-2.3,2.2-4,4.5-4c0.2,0,0.3,0,0.5,0C139.9,250,141.6,251.9,141.6,254.2z"/>
	<path class="st0" d="M140.8,269.4L140.8,269.4c0,2.5-2,4.5-4.5,4.5l0,0c-1.2,0-2.4-0.5-3.2-1.3s-1.3-1.9-1.3-3.2c0-0.1,0-0.1,0-0.1
		c0-0.1,0-0.1,0-0.2c0-1.2,0.5-2.4,1.3-3.2c0.8-0.8,1.9-1.3,3.2-1.3s2.4,0.5,3.2,1.3s1.3,1.9,1.3,3.2c0,0.1,0,0.1,0,0.2V269.4z"/>
</g>
</svg>
