<?xml version="1.0" encoding="utf-8"?>
<!-- Generator: Adobe Illustrator 26.0.1, SVG Export Plug-In . SVG Version: 6.00 Build 0)  -->
<svg version="1.1" id="Layer_1" xmlns="http://www.w3.org/2000/svg" xmlns:xlink="http://www.w3.org/1999/xlink" x="0px" y="0px"
	 viewBox="0 0 538.1 538.1" style="enable-background:new 0 0 538.1 538.1;" xml:space="preserve">
<style type="text/css">
	.st0{fill:#FFFFFF;}
	.st1{fill:#C5C5C5;}
	.st2{fill:#857AAE;}
	.st3{fill:#37236B;}
	.st4{fill:#3D2662;}
	.st5{fill:#6A56A4;}
</style>
<g id="Ring06">
	<path class="st0" d="M465.7,276.4v0.1c0,1.2-0.6,2.3-1.4,3.1c-0.8,0.8-1.9,1.3-3.1,1.3h-0.1c-2.5-0.1-4.4-2.2-4.4-4.6
		c0.1-2.4,2.1-4.3,4.5-4.3c0.1,0,0.1,0,0.2,0C463.8,272,465.7,274,465.7,276.4z"/>
	<path class="st1" d="M465.7,261.3c0,0.1,0,0.1,0,0.2c0,2.4-1.9,4.4-4.3,4.5c-0.1,0-0.1,0-0.2,0c-1.2,0-2.3-0.5-3.1-1.2
		c-0.8-0.8-1.3-1.9-1.4-3.1l0,0c-0.1-2.5,1.9-4.6,4.3-4.7c0.1,0,0.1,0,0.2,0C463.6,256.9,465.6,258.8,465.7,261.3z"/>
	<path d="M464.7,291.3c0,0.2,0,0.3,0,0.5l0,0c-0.1,1.1-0.7,2.2-1.5,2.9c-0.8,0.7-1.9,1.1-3,1.1c-0.2,0-0.3,0-0.5,0
		c-2.5-0.3-4.3-2.5-4-5c0.2-2.3,2.2-4,4.5-4c0.2,0,0.3,0,0.5,0C462.9,287.1,464.7,289,464.7,291.3z"/>
	<path class="st1" d="M464.6,246c0,0.2,0,0.3,0,0.5c0,2.3-1.7,4.2-4,4.4c-0.2,0-0.3,0-0.5,0c-1.1,0-2.2-0.4-3-1.1
		c-0.8-0.7-1.4-1.7-1.5-2.9c-0.3-2.5,1.5-4.7,4-5c0.2,0,0.3,0,0.5,0C462.4,242,464.3,243.7,464.6,246z"/>
	<path d="M462.5,306.1c0,0.3,0,0.5-0.1,0.8c-0.2,1.1-0.8,2-1.6,2.7c-0.8,0.6-1.8,1-2.9,1c-0.3,0-0.5,0-0.8-0.1
		c-2.5-0.4-4.1-2.8-3.6-5.2c0.4-2.2,2.3-3.7,4.4-3.7c0.3,0,0.6,0,0.8,0.1C461,302.1,462.5,303.9,462.5,306.1z"/>
	<path class="st1" d="M462.3,230.9c0,0.3,0.1,0.6,0.1,0.8c0,2.1-1.5,4-3.7,4.4c-0.3,0.1-0.6,0.1-0.8,0.1c-1.1,0-2.1-0.4-2.9-1
		s-1.4-1.6-1.6-2.7c-0.5-2.4,1.2-4.8,3.6-5.2c0.3-0.1,0.6-0.1,0.8-0.1C460.1,227.2,461.9,228.8,462.3,230.9z"/>
	<path d="M459.3,320.7c0,0.4,0,0.8-0.1,1.1c-0.3,1-0.9,1.9-1.6,2.4c-0.8,0.6-1.7,0.9-2.7,0.9c-0.4,0-0.8,0-1.1-0.1
		c-2.4-0.6-3.9-3.1-3.2-5.5c0.5-2,2.3-3.4,4.3-3.4c0.4,0,0.8,0,1.1,0.1C458,316.8,459.3,318.7,459.3,320.7z"/>
	<path class="st1" d="M459,216c0.1,0.4,0.1,0.8,0.1,1.1c0,2-1.3,3.8-3.4,4.4c-0.4,0.1-0.8,0.2-1.1,0.2c-1,0-2-0.3-2.7-0.9
		c-0.8-0.6-1.4-1.4-1.6-2.4c-0.6-2.4,0.8-4.9,3.2-5.5c0.4-0.1,0.8-0.1,1.1-0.1C456.7,212.6,458.5,214,459,216z"/>
	<path d="M455,335c0,0.5-0.1,1-0.2,1.5c-0.3,0.9-0.9,1.7-1.7,2.2c-0.8,0.5-1.7,0.8-2.6,0.8c-0.5,0-1-0.1-1.5-0.2
		c-2.4-0.8-3.6-3.4-2.8-5.7c0.6-1.9,2.4-3,4.2-3c0.5,0,1,0.1,1.5,0.2C453.8,331.4,455,333.1,455,335z"/>
	<path class="st1" d="M454.6,201.4c0.2,0.5,0.2,1,0.2,1.5c0,1.9-1.2,3.6-3,4.2c-0.5,0.2-1,0.2-1.5,0.2c-0.9,0-1.8-0.3-2.6-0.8
		c-0.8-0.5-1.3-1.3-1.7-2.2c-0.8-2.4,0.4-4.9,2.8-5.7c0.5-0.2,1-0.2,1.5-0.2C452.2,198.3,453.9,199.5,454.6,201.4L454.6,201.4z"/>
	<path class="st2" d="M449.6,348.9c0,0.6-0.1,1.2-0.4,1.8c-0.4,0.8-1,1.5-1.7,2s-1.6,0.7-2.4,0.7c-0.6,0-1.2-0.1-1.8-0.4
		c-2.3-1-3.3-3.6-2.4-5.9c0.7-1.7,2.4-2.7,4.1-2.7c0.6,0,1.2,0.1,1.8,0.4C448.6,345.5,449.6,347.2,449.6,348.9z"/>
	<path class="st1" d="M449,187.1c0.2,0.6,0.4,1.2,0.4,1.8c0,1.7-1,3.4-2.7,4.1c-0.6,0.2-1.2,0.4-1.8,0.4c-0.9,0-1.7-0.2-2.4-0.7
		c-0.7-0.5-1.3-1.1-1.7-2c-1-2.3,0-4.9,2.3-5.9c0.6-0.2,1.2-0.4,1.8-0.4C446.6,184.4,448.3,185.4,449,187.1z"/>
	<path d="M443.1,362.4c0,0.7-0.2,1.4-0.5,2.1c-0.4,0.8-1,1.4-1.7,1.8s-1.5,0.6-2.3,0.6c-0.7,0-1.4-0.2-2.1-0.5
		c-2.2-1.2-3-3.9-1.9-6.1c0.8-1.5,2.4-2.4,4-2.4c0.7,0,1.4,0.2,2.1,0.5C442.3,359.2,443.1,360.8,443.1,362.4z"/>
	<path class="st1" d="M442.4,173.3c0.4,0.7,0.5,1.4,0.5,2.1c0,1.6-0.9,3.2-2.4,4c-0.7,0.3-1.4,0.5-2.1,0.5c-0.8,0-1.6-0.2-2.3-0.6
		c-0.7-0.4-1.3-1-1.7-1.8c-1.2-2.2-0.3-4.9,1.9-6.1c0.7-0.4,1.4-0.5,2.1-0.5C440,170.9,441.6,171.8,442.4,173.3z"/>
	<path class="st0" d="M435.7,375.3c0,0.8-0.2,1.6-0.7,2.4c-0.9,1.4-2.3,2.1-3.8,2.1c-0.8,0-1.7-0.2-2.4-0.7
		c-2.1-1.3-2.7-4.1-1.4-6.2c0.9-1.4,2.3-2.1,3.8-2.1c0.8,0,1.7,0.2,2.4,0.7C434.9,372.4,435.7,373.8,435.7,375.3z"/>
	<path class="st3" d="M434.7,160.1c0.5,0.8,0.7,1.6,0.7,2.4c0,1.5-0.7,2.9-2.1,3.8c-0.8,0.5-1.6,0.7-2.4,0.7c-1.5,0-2.9-0.7-3.8-2.1
		c-1.3-2.1-0.7-4.9,1.4-6.2c0.8-0.5,1.6-0.7,2.4-0.7C432.4,158,433.8,158.8,434.7,160.1z"/>
	<path class="st1" d="M427.1,387.6c0,0.9-0.3,1.9-0.9,2.7c-0.9,1.2-2.2,1.8-3.6,1.8c-0.9,0-1.9-0.3-2.7-0.9c-2-1.5-2.4-4.3-0.9-6.3
		c0.9-1.2,2.2-1.8,3.6-1.8c0.9,0,1.9,0.3,2.7,0.9C426.5,384.9,427.1,386.2,427.1,387.6z"/>
	<path d="M425.9,147.6c0.6,0.8,0.9,1.8,0.9,2.7c0,1.4-0.6,2.7-1.8,3.6c-0.8,0.6-1.8,0.9-2.7,0.9c-1.4,0-2.7-0.6-3.6-1.8
		c-1.5-2-1.1-4.8,0.9-6.3c0.8-0.6,1.8-0.9,2.7-0.9C423.7,145.8,425,146.4,425.9,147.6z"/>
	<path class="st1" d="M417.6,399.1c0,1.1-0.4,2.1-1.1,3c-0.9,1-2.1,1.5-3.4,1.5c-1.1,0-2.1-0.4-3-1.1c-1.9-1.7-2-4.5-0.3-6.4
		c0.9-1,2.1-1.5,3.4-1.5c1.1,0,2.1,0.4,3,1.2C417.1,396.7,417.6,397.9,417.6,399.1z"/>
	<path d="M416.1,135.8c0.8,0.9,1.1,1.9,1.1,3c0,1.2-0.5,2.5-1.5,3.3c-0.9,0.8-1.9,1.2-3,1.2c-1.2,0-2.5-0.5-3.4-1.5
		c-1.7-1.9-1.5-4.7,0.3-6.4c0.9-0.8,1.9-1.2,3-1.2C414,134.3,415.2,134.8,416.1,135.8z"/>
	<path class="st1" d="M406,406.7c0.8,0.9,1.2,2,1.2,3.1c0,1.2-0.5,2.4-1.4,3.3c-0.9,0.8-2,1.2-3.1,1.2c-1.2,0-2.4-0.5-3.3-1.4
		c-1.7-1.8-1.6-4.7,0.2-6.4c0.9-0.8,2-1.2,3.1-1.2C403.9,405.3,405.1,405.8,406,406.7z"/>
	<path class="st0" d="M406.8,128.1c0,1.1-0.4,2.2-1.2,3.1c-0.9,0.9-2.1,1.4-3.3,1.4c-1.1,0-2.2-0.4-3.1-1.2
		c-1.8-1.7-1.9-4.5-0.2-6.4c0.9-0.9,2.1-1.4,3.3-1.4c1.1,0,2.2,0.4,3.1,1.2C406.4,125.7,406.8,126.9,406.8,128.1z"/>
	<path class="st1" d="M394.9,416.8c0.7,0.8,1,1.8,1,2.8c0,1.3-0.6,2.6-1.7,3.5c-0.8,0.7-1.8,1-2.8,1c-1.3,0-2.6-0.6-3.5-1.7
		c-1.5-1.9-1.2-4.8,0.7-6.3l0,0C390.6,414.5,393.4,414.9,394.9,416.8z"/>
	<path class="st0" d="M395.5,118.4c0,1-0.3,2-1,2.8c-0.9,1.1-2.2,1.7-3.5,1.7c-1,0-2-0.3-2.8-1c-1.9-1.5-2.3-4.4-0.7-6.3
		c0.9-1.1,2.2-1.7,3.5-1.7c1,0,2,0.3,2.8,1C394.9,115.7,395.5,117,395.5,118.4z"/>
	<path class="st1" d="M383.1,425.9c0.5,0.8,0.8,1.6,0.8,2.5c0,1.5-0.7,2.9-2,3.7c-0.8,0.5-1.6,0.8-2.5,0.8c-1.5,0-2.9-0.7-3.8-2
		c-1.4-2.1-0.8-4.9,1.2-6.2c0.8-0.5,1.6-0.8,2.5-0.8C380.8,423.9,382.2,424.6,383.1,425.9z"/>
	<path class="st1" d="M383.4,109.6c0,0.8-0.2,1.7-0.8,2.5c-0.9,1.3-2.3,2-3.8,2c-0.9,0-1.7-0.2-2.5-0.8c-2.1-1.4-2.6-4.2-1.3-6.2
		c0.9-1.3,2.3-2,3.8-2c0.8,0,1.7,0.2,2.5,0.8C382.7,106.7,383.4,108.1,383.4,109.6z"/>
	<path class="st4" d="M370.5,434c0.4,0.7,0.6,1.4,0.6,2.2c0,1.6-0.8,3.1-2.3,3.9c-0.7,0.4-1.4,0.6-2.2,0.6c-1.6,0-3.1-0.8-3.9-2.3
		c-1.2-2.2-0.4-4.9,1.8-6.1c0.7-0.4,1.4-0.6,2.2-0.6C368.2,431.7,369.7,432.5,370.5,434z"/>
	<path class="st1" d="M370.7,101.8c0,0.7-0.2,1.5-0.6,2.2c-0.8,1.5-2.4,2.3-3.9,2.3c-0.7,0-1.5-0.2-2.2-0.6c-2.2-1.2-3-3.9-1.8-6.1
		c0.8-1.5,2.4-2.3,3.9-2.3c0.7,0,1.5,0.2,2.2,0.6C369.8,98.7,370.7,100.2,370.7,101.8z"/>
	<path class="st3" d="M357.4,441.1c0.3,0.6,0.4,1.2,0.4,1.9c0,1.7-1,3.3-2.6,4.1c-0.6,0.3-1.2,0.4-1.9,0.4c-0.9,0-1.7-0.2-2.4-0.7
		c-0.7-0.4-1.3-1.1-1.7-1.9c-1-2.3,0-4.9,2.2-6c0.6-0.3,1.2-0.4,1.9-0.4C355,438.4,356.6,439.4,357.4,441.1z"/>
	<path class="st2" d="M357.3,95.1c0,0.6-0.1,1.2-0.4,1.9c-0.4,0.8-1,1.5-1.7,1.9c-0.7,0.5-1.6,0.7-2.4,0.7c-0.6,0-1.2-0.1-1.9-0.4
		c-2.3-1-3.3-3.7-2.2-6c0.8-1.7,2.4-2.6,4.1-2.6c0.6,0,1.2,0.1,1.8,0.4C356.3,91.8,357.3,93.4,357.3,95.1z"/>
	<path class="st3" d="M343.7,447c0.2,0.5,0.3,1,0.3,1.5c0,1.8-1.1,3.6-2.9,4.2c-0.5,0.2-1,0.3-1.6,0.3c-0.9,0-1.8-0.3-2.5-0.8
		s-1.3-1.2-1.7-2.2c-0.9-2.3,0.3-4.9,2.7-5.8c0.5-0.2,1-0.3,1.5-0.3C341.3,444.1,343,445.2,343.7,447z"/>
	<path d="M343.5,89.5c0,0.5-0.1,1-0.3,1.5c-0.3,0.9-0.9,1.7-1.7,2.2c-0.7,0.5-1.6,0.8-2.6,0.8c-0.5,0-1-0.1-1.5-0.3
		c-2.3-0.8-3.5-3.4-2.7-5.8c0.7-1.8,2.4-3,4.2-3c0.5,0,1,0.1,1.5,0.3C342.3,85.9,343.5,87.7,343.5,89.5z"/>
	<path class="st3" d="M329.6,452c0.1,0.4,0.2,0.8,0.2,1.2c0,2-1.3,3.8-3.3,4.3c-0.4,0.1-0.8,0.2-1.1,0.2h-0.1c-1,0-1.9-0.3-2.7-0.9
		c-0.8-0.6-1.4-1.4-1.6-2.4c-0.7-2.4,0.7-4.9,3.1-5.6c0.4-0.1,0.8-0.2,1.2-0.2C327.2,448.7,329,450,329.6,452z"/>
	<path class="st2" d="M329.3,84.9c0,0.4-0.1,0.8-0.2,1.2c-0.3,1-0.9,1.8-1.6,2.4c-0.8,0.6-1.7,0.9-2.7,0.9c-0.4,0-0.8-0.1-1.2-0.2
		c-2.4-0.7-3.8-3.2-3.1-5.6c0.6-2,2.4-3.3,4.3-3.3c0.4,0,0.8,0,1.2,0.2C328,81.1,329.3,82.9,329.3,84.9z"/>
	<path class="st0" d="M315.2,455.9c0.1,0.3,0.1,0.6,0.1,0.9c0,2.1-1.4,4-3.6,4.4c-0.3,0.1-0.6,0.1-0.9,0.1c-1,0-2-0.4-2.8-1
		s-1.4-1.5-1.6-2.6c-0.5-2.4,1-4.8,3.5-5.3c0.3-0.1,0.6-0.1,0.9-0.1C312.8,452.3,314.7,453.8,315.2,455.9z"/>
	<path d="M314.8,81.3c0,0.3,0,0.6-0.1,0.9c-0.2,1.1-0.8,1.9-1.6,2.6c-0.8,0.6-1.8,1-2.8,1c-0.3,0-0.6,0-0.9-0.1
		c-2.4-0.5-4-2.9-3.5-5.3c0.4-2.1,2.3-3.6,4.4-3.6c0.3,0,0.6,0,0.9,0.1C313.3,77.4,314.8,79.2,314.8,81.3z"/>
	<path class="st0" d="M300.5,458.8c0,0.2,0,0.4,0,0.7c0,2.2-1.6,4.1-3.9,4.4c-0.2,0-0.4,0.1-0.7,0.1c-1.1,0-2.1-0.4-2.9-1.1
		s-1.4-1.6-1.5-2.8c-0.4-2.5,1.3-4.8,3.8-5.1l0,0C297.9,454.6,300.1,456.3,300.5,458.8z"/>
	<path class="st3" d="M300.1,78.7c0,0.2,0,0.4-0.1,0.6c-0.2,1.1-0.7,2.1-1.5,2.8c-0.8,0.7-1.8,1.1-2.9,1.1c-0.2,0-0.4,0-0.6,0
		c-2.5-0.4-4.2-2.6-3.8-5.1c0.3-2.2,2.2-3.9,4.4-3.9c0.2,0,0.4,0,0.6,0C298.4,74.6,300.1,76.5,300.1,78.7z"/>
	<path class="st0" d="M285.7,460.8c0,0.1,0,0.3,0,0.4c0,2.3-1.8,4.3-4.1,4.5c-0.1,0-0.3,0-0.4,0c-1.2,0-2.2-0.4-3-1.2
		c-0.8-0.7-1.3-1.8-1.4-2.9c-0.2-2.5,1.6-4.7,4.1-4.9c0.1,0,0.3,0,0.4,0C283.5,456.6,285.5,458.4,285.7,460.8z"/>
	<path class="st2" d="M285.2,77c0,0.1,0,0.2,0,0.4c-0.1,1.2-0.6,2.2-1.4,3c-0.8,0.7-1.9,1.2-3,1.2c-0.1,0-0.2,0-0.4,0
		c-2.5-0.2-4.3-2.4-4.1-4.8c0.2-2.4,2.2-4.1,4.5-4.1c0.1,0,0.2,0,0.4,0C283.4,72.8,285.2,74.7,285.2,77z"/>
	<path d="M270.8,461.8C270.8,461.9,270.8,461.9,270.8,461.8c0,1.3-0.5,2.4-1.4,3.2c-0.8,0.8-1.9,1.3-3.1,1.3h-0.1
		c-2.5,0-4.5-2.1-4.4-4.6c0-2.5,2.1-4.4,4.5-4.4h0.1C268.8,457.4,270.8,459.4,270.8,461.8z"/>
	<path class="st0" d="M270.3,76.3C270.3,76.4,270.3,76.4,270.3,76.3c0,2.5-1.9,4.5-4.4,4.6h-0.1c-1.2,0-2.3-0.5-3.1-1.3
		c-0.8-0.8-1.3-1.9-1.4-3.1c0-2.5,1.9-4.5,4.4-4.6h0.1C268.2,71.9,270.2,73.9,270.3,76.3z"/>
	<path d="M255.9,461c0,0.1,0,0.3,0,0.4c-0.1,1.2-0.6,2.2-1.5,2.9c-0.8,0.7-1.9,1.2-3,1.2c-0.1,0-0.3,0-0.4,0
		c-2.5-0.2-4.3-2.4-4.1-4.9c0.2-2.3,2.2-4.1,4.5-4.1c0.1,0,0.3,0,0.4,0C254.1,456.8,255.9,458.7,255.9,461z"/>
	<path class="st1" d="M255.3,76.9c0,0.2,0,0.3,0,0.4c0,2.3-1.7,4.2-4.1,4.5c-0.1,0-0.3,0-0.4,0c-1.1,0-2.2-0.4-3-1.2
		c-0.8-0.7-1.3-1.7-1.5-2.9c-0.2-2.5,1.6-4.7,4-4.9c0.2,0,0.3,0,0.4,0C253.2,72.8,255.1,74.5,255.3,76.9z"/>
	<path class="st3" d="M241.1,459c0,0.3,0,0.5-0.1,0.8c-0.2,1.1-0.8,2-1.6,2.7c-0.8,0.6-1.8,1-2.9,1c-0.2,0-0.5,0-0.8-0.1
		c-2.4-0.4-4.1-2.8-3.7-5.2c0.4-2.2,2.3-3.7,4.4-3.7c0.3,0,0.5,0,0.8,0.1C239.5,455,241.1,456.9,241.1,459z"/>
	<path class="st1" d="M240.5,78.5c0,0.3,0.1,0.5,0.1,0.8c0,2.1-1.5,4-3.7,4.4c-0.3,0-0.5,0.1-0.8,0.1c-1.1,0-2.1-0.4-2.9-1
		c-0.8-0.7-1.4-1.6-1.6-2.7c-0.4-2.4,1.2-4.8,3.7-5.2c0.3-0.1,0.5-0.1,0.8-0.1C238.2,74.8,240.1,76.3,240.5,78.5z"/>
	<path d="M226.4,455.9c0,0.4,0,0.7-0.1,1.1c-0.3,1-0.8,1.9-1.6,2.5s-1.7,0.9-2.7,0.9c-0.4,0-0.8,0-1.1-0.1c-2.4-0.6-3.9-3.1-3.2-5.5
		c0.5-2,2.4-3.4,4.4-3.4c0.4,0,0.7,0.1,1.1,0.1C225.1,452.1,226.4,453.9,226.4,455.9z"/>
	<path d="M225.8,81.3c0.1,0.4,0.1,0.8,0.1,1.1c0,2-1.4,3.8-3.4,4.3c-0.4,0.1-0.8,0.1-1.1,0.1c-1,0-2-0.3-2.7-0.9
		c-0.8-0.6-1.4-1.4-1.6-2.4c-0.6-2.4,0.8-4.9,3.2-5.5c0.4-0.1,0.8-0.2,1.1-0.2C223.5,78,225.3,79.3,225.8,81.3z"/>
	<path d="M212.1,451.7c0,0.5-0.1,1-0.2,1.5c-0.3,0.9-0.9,1.7-1.7,2.2s-1.6,0.8-2.6,0.8c-0.5,0-1-0.1-1.4-0.2
		c-2.4-0.8-3.6-3.4-2.8-5.7c0.6-1.9,2.4-3.1,4.2-3.1c0.5,0,1,0.1,1.5,0.2C210.9,448,212.1,449.8,212.1,451.7z"/>
	<path d="M211.4,85.3c0.2,0.5,0.2,1,0.2,1.5c0,1.9-1.2,3.6-3,4.2c-0.5,0.2-1,0.2-1.5,0.2c-0.9,0-1.8-0.3-2.6-0.8s-1.4-1.3-1.7-2.2
		c-0.8-2.3,0.4-4.9,2.8-5.7c0.5-0.2,1-0.2,1.5-0.2C209,82.2,210.8,83.4,211.4,85.3z"/>
	<path class="st3" d="M198.2,446.3c0,0.6-0.1,1.2-0.4,1.8c-0.4,0.8-1,1.5-1.7,2s-1.6,0.7-2.4,0.7c-0.6,0-1.2-0.1-1.8-0.4
		c-2.3-1-3.3-3.6-2.4-5.9c0.7-1.7,2.4-2.7,4.1-2.7c0.6,0,1.2,0.1,1.8,0.4C197.1,442.9,198.2,444.6,198.2,446.3z"/>
	<path d="M197.3,90.3c0.2,0.6,0.4,1.2,0.4,1.8c0,1.7-1,3.4-2.7,4.1c-0.6,0.3-1.2,0.4-1.8,0.4c-0.9,0-1.7-0.3-2.4-0.7
		c-0.7-0.5-1.3-1.1-1.7-2c-1-2.3,0.1-4.9,2.3-5.9c0.6-0.2,1.2-0.4,1.8-0.4C195,87.6,196.6,88.6,197.3,90.3z"/>
	<path class="st3" d="M182.2,435.9c2.2,1.1,3.1,3.9,1.9,6.1c-0.4,0.8-1,1.4-1.7,1.8s-1.5,0.6-2.3,0.6c-0.7,0-1.4-0.2-2.1-0.5
		c-2.2-1.1-3.1-3.9-1.9-6.1c0.8-1.5,2.4-2.4,4-2.4C180.9,435.4,181.6,435.5,182.2,435.9L182.2,435.9z"/>
	<path class="st4" d="M183.7,96.5c0.4,0.7,0.5,1.4,0.5,2.1c0,1.6-0.9,3.2-2.4,4c-0.7,0.4-1.4,0.5-2.1,0.5c-0.8,0-1.6-0.2-2.3-0.6
		s-1.3-1-1.7-1.8c-1.2-2.2-0.3-4.9,1.9-6.1c0.7-0.3,1.4-0.5,2.1-0.5C181.4,94.1,182.9,95,183.7,96.5z"/>
	<path class="st3" d="M171.7,432.4c0,0.8-0.2,1.6-0.7,2.4c-0.9,1.4-2.3,2.1-3.8,2.1c-0.8,0-1.6-0.2-2.4-0.7
		c-2.1-1.3-2.7-4.1-1.4-6.2c0.8-1.4,2.3-2.1,3.8-2.1c0.8,0,1.6,0.2,2.4,0.7C170.9,429.5,171.7,430.9,171.7,432.4z"/>
	<path d="M170.6,103.7c0.5,0.7,0.7,1.6,0.7,2.4c0,1.5-0.7,2.9-2.1,3.8c-0.8,0.5-1.6,0.7-2.4,0.7c-1.5,0-2.9-0.7-3.8-2.1
		c-1.3-2.1-0.7-4.9,1.4-6.2c0.8-0.5,1.6-0.7,2.4-0.7C168.3,101.6,169.8,102.3,170.6,103.7z"/>
	<path class="st4" d="M159.4,424c0,0.9-0.3,1.9-0.9,2.7c-0.9,1.2-2.2,1.8-3.6,1.8c-0.9,0-1.9-0.3-2.7-0.9c-2-1.5-2.4-4.3-0.9-6.3
		c0.9-1.2,2.2-1.8,3.6-1.8c0.9,0,1.9,0.3,2.7,0.9C158.7,421.2,159.4,422.6,159.4,424z"/>
	<path d="M158.1,111.8c0.6,0.8,0.9,1.8,0.9,2.7c0,1.4-0.6,2.7-1.8,3.6c-0.8,0.6-1.8,0.9-2.7,0.9c-1.4,0-2.7-0.6-3.6-1.8
		c-1.5-2-1.1-4.8,0.9-6.3c0.8-0.6,1.8-0.9,2.7-0.9C155.9,110,157.2,110.7,158.1,111.8z"/>
	<path class="st4" d="M146.2,411.2c1.9,1.6,2.1,4.5,0.4,6.3c-0.9,1-2.1,1.5-3.4,1.5c-1.1,0-2.1-0.4-2.9-1.1
		c-1.9-1.6-2.1-4.5-0.4-6.3c0.9-1,2.1-1.5,3.4-1.5C144.3,410.1,145.3,410.5,146.2,411.2L146.2,411.2z"/>
	<path d="M146.3,121c0.8,0.9,1.1,1.9,1.1,3c0,1.2-0.5,2.5-1.5,3.4l0,0c-0.8,0.7-1.9,1.1-2.9,1.1c-1.3,0-2.5-0.5-3.4-1.5
		c-1.6-1.9-1.4-4.7,0.4-6.3c0.9-0.8,1.9-1.1,3-1.1C144.1,119.4,145.4,119.9,146.3,121z"/>
	<path class="st4" d="M135.5,401.2c0.9,0.9,1.3,2,1.3,3.2s-0.4,2.3-1.3,3.2c-0.9,0.9-2,1.3-3.2,1.3s-2.3-0.4-3.2-1.3
		c-1.7-1.8-1.7-4.6,0.1-6.4c0.9-0.9,2-1.3,3.2-1.3C133.5,399.9,134.6,400.3,135.5,401.2z"/>
	<path d="M136.5,134.2c0,1.1-0.4,2.3-1.3,3.1c-0.9,0.9-2.1,1.4-3.2,1.4c-1.1,0-2.3-0.4-3.2-1.3c-1.8-1.8-1.8-4.6-0.1-6.4
		c0.9-0.9,2-1.3,3.2-1.3c1.1,0,2.3,0.4,3.1,1.3C136.1,131.8,136.5,133,136.5,134.2z"/>
	<path class="st0" d="M125.7,390.4c0.7,0.8,1.1,1.9,1.1,2.9c0,1.3-0.5,2.5-1.6,3.4c-0.8,0.7-1.9,1.1-2.9,1.1c-1.3,0-2.6-0.5-3.4-1.6
		c-1.6-1.9-1.4-4.7,0.5-6.3c0.8-0.7,1.9-1.1,2.9-1.1C123.5,388.8,124.8,389.4,125.7,390.4z"/>
	<path d="M126.5,145.2c0,1-0.3,2.1-1.1,2.9c-0.9,1.1-2.2,1.6-3.4,1.6c-1,0-2.1-0.3-2.9-1.1c-1.9-1.6-2.1-4.4-0.5-6.3
		c0.9-1.1,2.2-1.6,3.4-1.6c1,0,2,0.3,2.9,1.1C125.9,142.7,126.5,144,126.5,145.2z"/>
	<path class="st0" d="M116.7,378.9c0.6,0.8,0.8,1.7,0.8,2.6c0,1.4-0.7,2.8-1.9,3.7c-0.8,0.6-1.7,0.9-2.6,0.9c-1.4,0-2.8-0.6-3.7-1.9
		c-1.5-2-1-4.8,1-6.3c0.8-0.6,1.7-0.9,2.6-0.9C114.5,377,115.8,377.7,116.7,378.9z"/>
	<path class="st5" d="M117.3,157.1c0,0.9-0.3,1.8-0.8,2.6c-0.9,1.2-2.2,1.9-3.7,1.9c-0.9,0-1.8-0.3-2.6-0.8c-2-1.4-2.5-4.3-1-6.3
		c0.9-1.2,2.3-1.9,3.7-1.9c0.9,0,1.8,0.3,2.6,0.8C116.7,154.3,117.3,155.7,117.3,157.1z"/>
	<path d="M108.7,366.7c0.4,0.7,0.7,1.5,0.7,2.3c0,1.5-0.8,3-2.2,3.8c-0.7,0.4-1.5,0.7-2.3,0.7c-1.5,0-3-0.8-3.8-2.2
		c-1.3-2.1-0.6-4.9,1.5-6.2c0.7-0.4,1.5-0.6,2.3-0.6C106.3,364.6,107.8,365.4,108.7,366.7z"/>
	<path class="st5" d="M109.1,169.5c0,0.8-0.2,1.6-0.6,2.3c-0.8,1.4-2.3,2.2-3.9,2.2c-0.8,0-1.6-0.2-2.3-0.7
		c-2.1-1.3-2.8-4.1-1.5-6.2c0.8-1.4,2.3-2.2,3.9-2.2c0.8,0,1.6,0.2,2.3,0.6C108.3,166.5,109.1,168,109.1,169.5z"/>
	<path d="M101.6,354c0.3,0.6,0.5,1.3,0.5,2c0,1.6-0.9,3.2-2.5,4c-0.6,0.3-1.3,0.5-2,0.5c-0.8,0-1.6-0.2-2.3-0.6
		c-0.7-0.4-1.3-1-1.7-1.8c-1.1-2.2-0.2-4.9,2-6c0.7-0.3,1.3-0.5,2-0.5C99.2,351.5,100.8,352.4,101.6,354z"/>
	<path d="M101.9,182.6c0,0.7-0.2,1.4-0.5,2c-0.4,0.8-1,1.4-1.7,1.8c-0.7,0.4-1.5,0.7-2.3,0.7c-0.7,0-1.4-0.2-2-0.5
		c-2.2-1.1-3.1-3.8-2-6.1c0.8-1.6,2.4-2.5,4-2.5c0.7,0,1.4,0.1,2,0.5C100.9,179.4,101.9,181,101.9,182.6z"/>
	<path class="st3" d="M95.5,340.7c0.2,0.6,0.3,1.1,0.3,1.7c0,1.8-1,3.4-2.8,4.2c-0.6,0.2-1.1,0.3-1.7,0.3c-0.9,0-1.7-0.3-2.5-0.7
		c-0.7-0.5-1.3-1.2-1.7-2.1c-0.9-2.3,0.2-4.9,2.4-5.9c0.6-0.2,1.1-0.3,1.7-0.3C93.1,338,94.8,339,95.5,340.7z"/>
	<path d="M95.7,196.2c0,0.6-0.1,1.1-0.3,1.7c-0.4,0.9-1,1.6-1.7,2.1s-1.6,0.8-2.5,0.8c-0.6,0-1.1-0.1-1.7-0.3
		c-2.3-0.9-3.4-3.6-2.5-5.9c0.7-1.7,2.4-2.8,4.2-2.8c0.6,0,1.1,0.1,1.7,0.3C94.6,192.8,95.7,194.5,95.7,196.2z"/>
	<path d="M90.5,327c0.1,0.5,0.2,0.9,0.2,1.4c0,1.9-1.2,3.7-3.1,4.3c-0.5,0.1-0.9,0.2-1.4,0.2c-0.9,0-1.9-0.3-2.6-0.8
		c-0.8-0.5-1.4-1.3-1.7-2.3c-0.2-0.5-0.2-0.9-0.2-1.4c0-1.9,1.2-3.7,3.1-4.3c0.5-0.1,0.9-0.2,1.4-0.2
		C88.1,323.9,89.9,325.1,90.5,327z"/>
	<path class="st5" d="M90.5,210.3c0,0.5-0.1,0.9-0.2,1.4c-0.3,1-0.9,1.7-1.7,2.3c-0.8,0.5-1.7,0.9-2.6,0.9c-0.5,0-0.9-0.1-1.4-0.2
		c-2.4-0.8-3.7-3.3-2.9-5.7c0.6-1.9,2.4-3.1,4.3-3.1c0.5,0,0.9,0.1,1.4,0.2C89.3,206.6,90.5,208.4,90.5,210.3z"/>
	<path class="st3" d="M86.5,313c0.1,0.3,0.1,0.7,0.1,1c0,2-1.4,3.9-3.5,4.4c-0.3,0.1-0.7,0.1-1,0.1c-1,0-2-0.4-2.8-0.9
		c-0.8-0.6-1.3-1.5-1.6-2.5c-0.6-2.4,0.9-4.9,3.3-5.4c0.3-0.1,0.7-0.1,1-0.1C84.2,309.5,86,310.9,86.5,313z"/>
	<path class="st5" d="M86.5,224.7c0,0.4,0,0.7-0.1,1c-0.2,1-0.8,1.9-1.6,2.5c-0.8,0.6-1.8,0.9-2.8,0.9c-0.3,0-0.7,0-1-0.1
		c-2.4-0.6-3.9-3-3.3-5.4c0.5-2.1,2.3-3.5,4.4-3.5c0.3,0,0.7,0,1,0.1C85.1,220.8,86.5,222.6,86.5,224.7z"/>
	<path class="st3" d="M83.7,298.7c0,0.2,0.1,0.5,0.1,0.7c0,2.2-1.6,4.1-3.8,4.4c-0.2,0-0.5,0.1-0.7,0.1c-1.1,0-2.1-0.4-2.9-1.1
		s-1.3-1.6-1.5-2.7c-0.4-2.5,1.3-4.8,3.7-5.2c0.2,0,0.5-0.1,0.7-0.1C81.4,294.9,83.4,296.5,83.7,298.7z"/>
	<path d="M83.7,239.3c0,0.2,0,0.5-0.1,0.7c-0.2,1.1-0.7,2.1-1.5,2.7c-0.8,0.7-1.8,1.1-2.9,1.1c-0.2,0-0.5,0-0.7-0.1
		c-2.5-0.4-4.1-2.7-3.8-5.1c0.3-2.2,2.3-3.8,4.4-3.8c0.2,0,0.5,0,0.7,0.1C82.1,235.2,83.7,237.2,83.7,239.3z"/>
	<path class="st3" d="M82,284.2c0,0.1,0,0.2,0,0.4c0,2.3-1.8,4.3-4.1,4.5c-0.1,0-0.2,0-0.4,0c-1.2,0-2.2-0.5-3.1-1.2
		c-0.8-0.7-1.3-1.8-1.4-3c-0.2-2.5,1.7-4.6,4.1-4.8c0.1,0,0.2,0,0.3,0C79.8,280,81.8,281.8,82,284.2z"/>
	<path d="M82,254.2c0,0.1,0,0.2,0,0.4c-0.1,1.2-0.6,2.2-1.4,3c-0.8,0.7-1.9,1.2-3,1.2c-0.1,0-0.2,0-0.4,0c-2.5-0.2-4.3-2.4-4.1-4.8
		c0.2-2.4,2.2-4.2,4.5-4.2c0.1,0,0.2,0,0.3,0C80.2,249.9,82,251.9,82,254.2z"/>
	<path class="st3" d="M81.4,269.6L81.4,269.6c0,2.5-2,4.5-4.5,4.5c-1.2,0-2.4-0.5-3.2-1.3c-0.8-0.8-1.3-1.9-1.3-3.2
		c0-0.1,0-0.2,0-0.3c0-0.1,0-0.2,0-0.2c0-1.2,0.5-2.4,1.3-3.2s1.9-1.3,3.2-1.3s2.4,0.5,3.2,1.3c0.8,0.8,1.3,1.9,1.3,3.2
		c0,0.1,0,0.2,0,0.2C81.4,269.4,81.4,269.5,81.4,269.6z"/>
</g>
</svg>
