<?xml version="1.0" encoding="utf-8"?>
<!-- Generator: Adobe Illustrator 26.0.1, SVG Export Plug-In . SVG Version: 6.00 Build 0)  -->
<svg version="1.1" id="Layer_1" xmlns="http://www.w3.org/2000/svg" xmlns:xlink="http://www.w3.org/1999/xlink" x="0px" y="0px"
	 viewBox="0 0 538.1 538.1" style="enable-background:new 0 0 538.1 538.1;" xml:space="preserve">
<style type="text/css">
	.st0{fill:#FFFFFF;}
	.st1{fill:#857AAE;}
	.st2{fill:#37236B;}
	.st3{fill:#C5C5C5;}
	.st4{fill:#6A56A4;}
	.st5{fill:#3D2662;}
</style>
<g id="Ring09">
	<path d="M500.9,283.8c0,0.1,0,0.2,0,0.3c-0.1,1.2-0.6,2.2-1.4,3s-1.9,1.2-3.1,1.2c-0.1,0-0.2,0-0.3,0c-2.5-0.1-4.4-2.3-4.2-4.8
		c0.1-2.4,2.1-4.2,4.5-4.2c0.1,0,0.2,0,0.3,0C499.1,279.5,500.9,281.5,500.9,283.8z"/>
	<path d="M500.9,253.7c0,0.1,0,0.2,0,0.3c0,2.4-1.8,4.4-4.2,4.5c-0.1,0-0.2,0-0.3,0c-1.2,0-2.3-0.5-3.1-1.2c-0.8-0.8-1.3-1.8-1.4-3
		l0,0c-0.2-2.5,1.7-4.6,4.2-4.8c0.1,0,0.2,0,0.3,0C498.8,249.4,500.7,251.3,500.9,253.7z"/>
	<path d="M501.4,268.9c0,1.2-0.5,2.4-1.3,3.2c-0.8,0.8-1.9,1.3-3.2,1.3c-1.2,0-2.4-0.5-3.2-1.3c-0.8-0.8-1.3-1.9-1.3-3.2
		c0-2.5,2-4.5,4.5-4.5l0,0C499.4,264.4,501.4,266.4,501.4,268.9z"/>
	<path d="M499.6,298.7c0,0.2,0,0.4,0,0.5c-0.1,1.1-0.7,2.1-1.5,2.8c-0.8,0.7-1.9,1.1-3,1.1c-0.2,0-0.4,0-0.5,0
		c-2.5-0.3-4.2-2.5-3.9-5c0.3-2.3,2.2-4,4.5-4c0.2,0,0.4,0,0.5,0C497.9,294.5,499.6,296.5,499.6,298.7z"/>
	<path class="st0" d="M499.5,238.5c0,0.2,0,0.4,0,0.6c0,2.2-1.7,4.2-3.9,4.5c-0.2,0-0.4,0-0.6,0c-1.1,0-2.2-0.4-3-1.1
		c-0.8-0.7-1.4-1.7-1.5-2.8c-0.3-2.5,1.5-4.7,3.9-5c0.2,0,0.4,0,0.6,0C497.3,234.6,499.2,236.2,499.5,238.5z"/>
	<path d="M497.3,313.5c0,0.3,0,0.5-0.1,0.8c-0.2,1.1-0.8,2-1.6,2.7s-1.8,1-2.9,1c-0.3,0-0.6,0-0.8-0.1c-2.4-0.5-4-2.8-3.6-5.2
		c0.4-2.2,2.3-3.7,4.4-3.7c0.3,0,0.5,0,0.8,0.1C495.8,309.5,497.3,311.4,497.3,313.5z"/>
	<path class="st1" d="M497.1,223.5c0,0.3,0.1,0.6,0.1,0.8c0,2.1-1.5,4-3.7,4.4c-0.3,0.1-0.6,0.1-0.8,0.1c-1.1,0-2.1-0.4-2.8-1
		c-0.8-0.6-1.4-1.6-1.6-2.6c-0.5-2.4,1.2-4.8,3.6-5.2c0.3-0.1,0.6-0.1,0.8-0.1C494.8,219.8,496.7,221.3,497.1,223.5z"/>
	<path class="st2" d="M494.1,328.1c0,0.4,0,0.7-0.1,1.1c-0.3,1-0.8,1.9-1.6,2.5c-0.8,0.6-1.7,0.9-2.7,0.9c-0.4,0-0.7,0-1.1-0.1
		c-2.4-0.6-3.9-3-3.3-5.5c0.5-2,2.3-3.4,4.4-3.4c0.4,0,0.7,0,1.1,0.1C492.8,324.3,494.1,326.1,494.1,328.1z"/>
	<path class="st1" d="M493.9,208.6c0.1,0.4,0.1,0.7,0.1,1.1c0,2-1.4,3.8-3.4,4.4c-0.4,0.1-0.7,0.1-1.1,0.1c-1,0-2-0.3-2.7-0.9
		c-0.8-0.6-1.4-1.4-1.6-2.5c-0.6-2.4,0.9-4.9,3.3-5.5c0.4-0.1,0.8-0.1,1.1-0.1C491.5,205.2,493.3,206.5,493.9,208.6z"/>
	<path class="st1" d="M490,342.5c0,0.4-0.1,0.9-0.2,1.4c-0.3,1-0.9,1.7-1.7,2.3c-0.8,0.5-1.7,0.9-2.6,0.9c-0.4,0-0.9-0.1-1.4-0.2
		c-2.4-0.8-3.7-3.3-2.9-5.7c0.6-1.9,2.4-3.1,4.3-3.1c0.5,0,0.9,0.1,1.4,0.2C488.8,338.8,490,340.6,490,342.5z"/>
	<path d="M489.7,193.9c0.1,0.5,0.2,0.9,0.2,1.4c0,1.9-1.2,3.7-3.1,4.3c-0.5,0.1-0.9,0.2-1.4,0.2c-1,0-1.9-0.3-2.6-0.9
		c-0.8-0.5-1.4-1.3-1.7-2.3c-0.8-2.4,0.5-4.9,2.9-5.7c0.5-0.1,0.9-0.2,1.4-0.2C487.3,190.8,489,192,489.7,193.9z"/>
	<path class="st3" d="M485,356.6c0,0.5-0.1,1.1-0.3,1.6l0,0c-0.3,0.9-0.9,1.6-1.7,2.1c-0.7,0.5-1.6,0.8-2.5,0.8
		c-0.5,0-1.1-0.1-1.6-0.3c-2.3-0.9-3.5-3.5-2.5-5.8c0.7-1.8,2.4-2.9,4.2-2.9c0.6,0,1.1,0.1,1.6,0.3C484,353.1,485,354.8,485,356.6z"
		/>
	<path d="M484.5,179.6c0.2,0.5,0.3,1.1,0.3,1.7c0,1.8-1.1,3.5-2.9,4.2c-0.6,0.2-1.1,0.3-1.6,0.3c-0.9,0-1.8-0.3-2.5-0.8
		s-1.3-1.2-1.7-2.1c-0.9-2.3,0.2-4.9,2.5-5.8c0.5-0.2,1.1-0.3,1.7-0.3C482.1,176.8,483.8,177.8,484.5,179.6z"/>
	<path class="st3" d="M479.1,370.3c0,0.6-0.1,1.3-0.4,1.9c-0.4,0.8-1,1.5-1.7,1.9s-1.5,0.7-2.4,0.7c-0.6,0-1.3-0.1-1.9-0.4
		c-2.2-1.1-3.2-3.7-2.2-6c0.8-1.6,2.4-2.6,4.1-2.6c0.6,0,1.3,0.1,1.9,0.4C478.2,367,479.1,368.6,479.1,370.3z"/>
	<path d="M478.5,165.6c0.3,0.6,0.4,1.3,0.4,1.9c0,1.7-1,3.3-2.6,4.1c-0.6,0.3-1.3,0.4-1.9,0.4c-0.8,0-1.7-0.2-2.4-0.7
		s-1.3-1.1-1.7-1.9c-1.1-2.2-0.1-4.9,2.1-6c0.6-0.3,1.3-0.4,1.9-0.4C476.1,163,477.7,164,478.5,165.6z"/>
	<path d="M472.3,383.6c0,0.7-0.2,1.5-0.6,2.2c-0.8,1.5-2.4,2.3-3.9,2.3c-0.7,0-1.5-0.2-2.2-0.6c-2.2-1.2-3-3.9-1.8-6.1
		c0.8-1.5,2.3-2.3,3.9-2.3c0.7,0,1.5,0.2,2.2,0.6C471.5,380.5,472.3,382,472.3,383.6z"/>
	<path d="M471.5,152c0.4,0.7,0.6,1.4,0.6,2.2c0,1.6-0.8,3.1-2.3,3.9c-0.7,0.4-1.4,0.6-2.2,0.6c-1.6,0-3.1-0.8-3.9-2.3
		c-1.2-2.2-0.4-4.9,1.7-6.1c0.7-0.4,1.4-0.6,2.2-0.6C469.1,149.7,470.7,150.6,471.5,152z"/>
	<path d="M464.7,396.4c0,0.8-0.2,1.7-0.7,2.4c-0.9,1.3-2.3,2.1-3.8,2.1c-0.8,0-1.7-0.2-2.4-0.7c-2.1-1.3-2.7-4.1-1.3-6.2
		c0.9-1.3,2.3-2.1,3.8-2.1c0.8,0,1.7,0.2,2.4,0.7C463.9,393.5,464.7,394.9,464.7,396.4z"/>
	<path d="M463.6,139c0.5,0.8,0.7,1.6,0.7,2.4c0,1.5-0.7,2.9-2,3.8c-0.8,0.5-1.6,0.7-2.4,0.7c-1.5,0-2.9-0.7-3.8-2.1
		c-1.4-2.1-0.8-4.9,1.3-6.2c0.8-0.5,1.6-0.7,2.4-0.7C461.3,136.9,462.8,137.6,463.6,139z"/>
	<path d="M456.1,408.7c0,0.9-0.3,1.9-0.9,2.7c-0.9,1.2-2.2,1.8-3.6,1.8c-0.9,0-1.9-0.3-2.7-0.9c-2-1.5-2.4-4.3-0.9-6.3
		c0.9-1.2,2.2-1.8,3.6-1.8c0.9,0,1.9,0.3,2.7,0.9C455.5,405.9,456.1,407.3,456.1,408.7z"/>
	<path class="st1" d="M454.9,126.4c0.6,0.8,0.9,1.8,0.9,2.7c0,1.4-0.6,2.7-1.8,3.6c-0.8,0.6-1.8,0.9-2.7,0.9c-1.4,0-2.7-0.6-3.6-1.8
		c-1.5-2-1.1-4.8,0.9-6.3c0.8-0.6,1.8-0.9,2.7-0.9C452.6,124.7,454,125.3,454.9,126.4z"/>
	<path class="st2" d="M446.8,420.3c0,1-0.4,2.1-1.1,2.9c-0.9,1-2.1,1.6-3.4,1.6c-1,0-2.1-0.4-2.9-1.1c-1.9-1.6-2.1-4.5-0.5-6.3
		c0.9-1,2.1-1.6,3.4-1.6c1,0,2.1,0.4,2.9,1.1C446.2,417.8,446.8,419,446.8,420.3z"/>
	<path d="M445.3,114.6c0.7,0.8,1.1,1.9,1.1,2.9c0,1.3-0.5,2.5-1.5,3.4c-0.9,0.8-1.9,1.1-2.9,1.1c-1.3,0-2.5-0.5-3.4-1.5
		c-1.6-1.9-1.4-4.7,0.4-6.3c0.9-0.7,1.9-1.1,3-1.1C443.1,113,444.4,113.5,445.3,114.6z"/>
	<path d="M436.6,431.3c0,1.1-0.4,2.3-1.3,3.2c-0.9,0.9-2,1.3-3.2,1.3s-2.3-0.4-3.2-1.3c-1.8-1.8-1.8-4.6,0-6.4
		c0.9-0.9,2-1.3,3.2-1.3c1.1,0,2.3,0.4,3.2,1.3C436.2,428.9,436.6,430.1,436.6,431.3z"/>
	<path d="M436.2,106.6c0,1.2-0.4,2.3-1.3,3.2c-0.9,0.9-2,1.3-3.2,1.3s-2.3-0.4-3.2-1.3c-1.8-1.8-1.8-4.6,0-6.4
		c0.9-0.9,2-1.3,3.2-1.3c1.1,0,2.3,0.4,3.2,1.3C435.7,104.3,436.2,105.4,436.2,106.6z"/>
	<path d="M424.6,438.5c0.7,0.9,1.1,1.9,1.1,3c0,1.2-0.5,2.5-1.5,3.4l0,0c-0.9,0.7-1.9,1.1-3,1.1c-1.3,0-2.5-0.5-3.4-1.5
		c-1.6-1.9-1.4-4.7,0.4-6.4c0.9-0.7,1.9-1.1,3-1.1C422.5,437,423.7,437.5,424.6,438.5z"/>
	<path d="M425.2,96.4c0,1-0.4,2.1-1.1,2.9c-0.9,1-2.1,1.6-3.4,1.6c-1,0-2.1-0.4-2.9-1.1c-1.9-1.6-2.1-4.5-0.5-6.3
		c0.9-1,2.1-1.6,3.4-1.6c1,0,2.1,0.4,2.9,1.1C424.7,93.9,425.2,95.2,425.2,96.4z"/>
	<path class="st2" d="M413.2,448.2c0.6,0.8,0.9,1.8,0.9,2.7c0,1.4-0.6,2.7-1.8,3.6c-0.8,0.6-1.8,0.9-2.7,0.9c-1.4,0-2.7-0.6-3.6-1.8
		c-1.5-2-1.1-4.8,0.9-6.3c0.8-0.6,1.8-0.9,2.7-0.9C411,446.4,412.3,447,413.2,448.2z"/>
	<path class="st1" d="M413.6,87c0,0.9-0.3,1.9-0.9,2.7c-0.9,1.2-2.2,1.8-3.6,1.8c-0.9,0-1.9-0.3-2.7-0.9l0,0c-2-1.5-2.4-4.3-0.9-6.3
		c0.9-1.2,2.2-1.8,3.6-1.8c0.9,0,1.9,0.3,2.7,0.9C413,84.3,413.6,85.7,413.6,87z"/>
	<path class="st2" d="M401.1,457c0.5,0.8,0.7,1.6,0.7,2.4c0,1.5-0.7,2.9-2,3.8c-0.8,0.5-1.6,0.7-2.5,0.7c-1.5,0-2.9-0.7-3.8-2
		c-1.4-2.1-0.8-4.9,1.3-6.2c0.8-0.5,1.6-0.7,2.4-0.7C398.8,454.9,400.3,455.7,401.1,457z"/>
	<path class="st1" d="M401.4,78.5c0,0.8-0.2,1.7-0.7,2.4c-0.9,1.3-2.3,2-3.8,2c-0.8,0-1.7-0.2-2.4-0.7c-2.1-1.3-2.7-4.1-1.3-6.2
		c0.9-1.3,2.3-2.1,3.8-2.1c0.8,0,1.7,0.2,2.4,0.7C400.6,75.6,401.4,77,401.4,78.5z"/>
	<path class="st2" d="M388.5,465c0.4,0.7,0.6,1.4,0.6,2.2c0,1.6-0.8,3.1-2.3,3.9c-0.7,0.4-1.5,0.6-2.2,0.6c-1.6,0-3.1-0.8-3.9-2.3
		c-1.2-2.2-0.4-4.9,1.7-6.1c0.7-0.4,1.4-0.6,2.2-0.6C386.1,462.6,387.7,463.5,388.5,465z"/>
	<path d="M388.5,70.8c0,0.7-0.2,1.5-0.6,2.2c-0.8,1.5-2.4,2.3-3.9,2.3c-0.7,0-1.5-0.2-2.2-0.6c-2.2-1.2-3-3.9-1.8-6.1
		c0.8-1.5,2.4-2.3,3.9-2.3c0.7,0,1.5,0.2,2.2,0.6C387.7,67.7,388.5,69.2,388.5,70.8z"/>
	<path d="M375.3,472c0.3,0.6,0.4,1.3,0.4,1.9c0,1.7-1,3.3-2.6,4.1c-0.6,0.3-1.3,0.4-1.9,0.4c-0.9,0-1.7-0.2-2.4-0.7
		c-0.7-0.5-1.3-1.1-1.7-1.9c-1.1-2.2-0.1-4.9,2.2-6c0.6-0.3,1.3-0.4,1.9-0.4C373,469.4,374.6,470.4,375.3,472z"/>
	<path class="st4" d="M375.2,64.1c0,0.6-0.1,1.3-0.4,1.9c-0.4,0.8-1,1.5-1.7,1.9s-1.5,0.7-2.4,0.7c-0.6,0-1.3-0.1-1.9-0.4
		c-2.2-1.1-3.2-3.7-2.2-6c0.8-1.6,2.4-2.6,4.1-2.6c0.6,0,1.3,0.1,1.9,0.4C374.3,60.7,375.2,62.4,375.2,64.1z"/>
	<path class="st4" d="M361.7,478.2c0.2,0.5,0.3,1.1,0.3,1.6c0,1.8-1.1,3.5-2.9,4.2c-0.5,0.2-1.1,0.3-1.6,0.3c-0.9,0-1.8-0.3-2.5-0.8
		s-1.3-1.2-1.7-2.1c-0.9-2.3,0.2-4.9,2.5-5.8c0.5-0.2,1.1-0.3,1.6-0.3C359.3,475.4,361,476.5,361.7,478.2z"/>
	<path d="M361.5,58.2c0,0.5-0.1,1.1-0.3,1.6c-0.3,0.9-0.9,1.6-1.7,2.1c-0.7,0.5-1.6,0.8-2.5,0.8c-0.5,0-1.1-0.1-1.6-0.3
		c-2.3-0.9-3.5-3.5-2.6-5.8c0.7-1.8,2.4-2.9,4.2-2.9c0.5,0,1.1,0.1,1.6,0.3C360.4,54.7,361.5,56.4,361.5,58.2z"/>
	<path class="st4" d="M347.8,483.5c0.1,0.5,0.2,0.9,0.2,1.4c0,1.9-1.2,3.7-3.1,4.3c-0.5,0.2-0.9,0.2-1.4,0.2c-0.9,0-1.9-0.3-2.6-0.8
		c-0.8-0.5-1.4-1.3-1.7-2.3c-0.8-2.4,0.5-4.9,2.9-5.7c0.5-0.1,0.9-0.2,1.4-0.2C345.4,480.4,347.1,481.6,347.8,483.5z"/>
	<path d="M347.4,53.2c0,0.5-0.1,0.9-0.2,1.4c-0.3,1-0.9,1.7-1.7,2.3c-0.8,0.5-1.7,0.8-2.6,0.8c-0.5,0-0.9-0.1-1.4-0.2
		c-2.4-0.8-3.7-3.3-2.9-5.7c0.6-1.9,2.4-3.1,4.3-3.1c0.5,0,0.9,0.1,1.4,0.2C346.2,49.5,347.4,51.3,347.4,53.2z"/>
	<path class="st1" d="M333.5,487.9c0.1,0.4,0.1,0.8,0.1,1.1c0,2-1.3,3.8-3.4,4.4c-0.4,0.1-0.8,0.1-1.1,0.1c-1,0-2-0.3-2.7-0.9
		s-1.4-1.4-1.6-2.5c-0.6-2.4,0.8-4.9,3.2-5.5c0.4-0.1,0.8-0.1,1.1-0.1C331.1,484.6,333,485.9,333.5,487.9z"/>
	<path d="M333.1,49c0,0.4-0.1,0.7-0.1,1.1c-0.3,1-0.8,1.9-1.6,2.5c-0.8,0.6-1.7,0.9-2.7,0.9c-0.4,0-0.7,0-1.1-0.1
		c-2.4-0.6-3.9-3.1-3.2-5.5c0.5-2,2.3-3.4,4.4-3.4c0.4,0,0.7,0,1.1,0.1C331.7,45.2,333.1,47,333.1,49z"/>
	<path class="st1" d="M319,491.5c0.1,0.3,0.1,0.6,0.1,0.9c0,2.1-1.5,4-3.6,4.4c-0.3,0.1-0.6,0.1-0.9,0.1c-1.1,0-2-0.4-2.8-1
		s-1.4-1.6-1.6-2.6c-0.5-2.4,1.1-4.8,3.5-5.3c0.3-0.1,0.6-0.1,0.9-0.1C316.7,487.9,318.6,489.4,319,491.5z"/>
	<path d="M318.5,45.8c0,0.3,0,0.6-0.1,0.9c-0.2,1.1-0.8,2-1.6,2.6s-1.8,1-2.8,1c-0.3,0-0.6,0-0.9-0.1c-2.4-0.5-4-2.8-3.5-5.3
		c0.4-2.2,2.3-3.6,4.4-3.6c0.3,0,0.6,0,0.9,0.1C317,41.8,318.5,43.7,318.5,45.8z"/>
	<path d="M304.3,494.2c0,0.2,0,0.4,0,0.6c0,2.2-1.6,4.1-3.9,4.5l0,0c-0.2,0-0.4,0-0.6,0c-1.1,0-2.1-0.4-2.9-1.1s-1.4-1.7-1.5-2.8
		c-0.4-2.5,1.4-4.7,3.8-5.1c0.2,0,0.4,0,0.6,0C302,490.4,304,492,304.3,494.2z"/>
	<path d="M303.7,43.3c0,0.2,0,0.4-0.1,0.6c-0.2,1.1-0.7,2.1-1.5,2.8s-1.8,1.1-2.9,1.1c-0.2,0-0.4,0-0.6,0c-2.5-0.3-4.2-2.6-3.8-5.1
		c0.3-2.2,2.2-3.9,4.5-3.9c0.2,0,0.4,0,0.6,0C302.1,39.2,303.7,41.1,303.7,43.3z"/>
	<path d="M289.5,496.2c0,0.1,0,0.3,0,0.4c0,2.3-1.8,4.3-4.1,4.5c-0.1,0-0.3,0-0.4,0c-1.1,0-2.2-0.4-3-1.2c-0.8-0.7-1.4-1.8-1.5-2.9
		c-0.2-2.5,1.6-4.7,4.1-4.9c0.1,0,0.3,0,0.4,0C287.3,492.1,289.3,493.8,289.5,496.2z"/>
	<path d="M288.9,41.6c0,0.1,0,0.3,0,0.4c-0.1,1.2-0.6,2.2-1.5,2.9c-0.8,0.7-1.9,1.2-3,1.2c-0.1,0-0.3,0-0.4,0
		c-2.5-0.2-4.3-2.4-4.1-4.9c0.2-2.3,2.2-4.1,4.5-4.1c0.1,0,0.3,0,0.4,0C287.1,37.3,288.9,39.3,288.9,41.6z"/>
	<path class="st1" d="M274.6,497.4c0,0.1,0,0.1,0,0.2c0,2.4-1.9,4.4-4.3,4.5c-0.1,0-0.1,0-0.2,0c-1.2,0-2.3-0.5-3.1-1.2
		c-0.8-0.8-1.3-1.9-1.4-3.1c-0.1-2.5,1.8-4.6,4.3-4.7c0.1,0,0.1,0,0.2,0C272.5,493,274.5,494.9,274.6,497.4z"/>
	<path d="M274,40.7c0,1.2-0.5,2.4-1.3,3.2s-1.9,1.3-3.2,1.3c-1.2,0-2.4-0.5-3.2-1.3c-0.8-0.8-1.3-1.9-1.3-3.2c0-2.5,2-4.5,4.5-4.5
		c1.2,0,2.4,0.5,3.2,1.3C273.5,38.3,274,39.4,274,40.7z"/>
	<path class="st1" d="M259.6,497.1c0,0.1,0,0.2,0,0.3c-0.1,1.2-0.6,2.2-1.4,3s-1.9,1.2-3.1,1.2c-0.1,0-0.2,0-0.3,0
		c-2.5-0.2-4.4-2.3-4.2-4.8c0.1-2.4,2.1-4.2,4.5-4.2c0.1,0,0.2,0,0.3,0C257.8,492.8,259.6,494.8,259.6,497.1z"/>
	<path class="st4" d="M259,40.9c0,0.1,0,0.2,0,0.3c0,2.4-1.8,4.3-4.2,4.5c-0.1,0-0.2,0-0.3,0c-1.2,0-2.3-0.5-3.1-1.2
		c-0.8-0.8-1.3-1.8-1.4-3c-0.2-2.5,1.7-4.6,4.2-4.8c0.1,0,0.2,0,0.3,0C256.9,36.7,258.9,38.5,259,40.9z"/>
	<path class="st1" d="M244.8,495.7c0,0.2,0,0.4,0,0.6c-0.2,1.1-0.7,2.1-1.5,2.8c-0.8,0.7-1.8,1.1-2.9,1.1c-0.2,0-0.4,0-0.6,0
		c-2.5-0.3-4.2-2.6-3.9-5c0.3-2.3,2.2-3.9,4.5-3.9c0.2,0,0.4,0,0.6,0C243.1,491.5,244.8,493.5,244.8,495.7z"/>
	<path class="st2" d="M244.1,42c0,0.2,0,0.4,0,0.6c0,2.2-1.6,4.2-3.9,4.5c-0.2,0-0.4,0-0.6,0c-1.1,0-2.2-0.4-2.9-1.1
		c-0.8-0.7-1.4-1.7-1.5-2.8c-0.3-2.5,1.4-4.7,3.9-5c0.2,0,0.4,0,0.6,0C241.9,38.1,243.8,39.8,244.1,42z"/>
	<path d="M230,493.3c0,0.3,0,0.6-0.1,0.9c-0.2,1.1-0.8,2-1.6,2.6s-1.8,1-2.8,1c-0.3,0-0.6,0-0.9-0.1c-2.4-0.5-4-2.8-3.6-5.3
		c0.4-2.1,2.3-3.6,4.4-3.6c0.3,0,0.6,0,0.9,0.1C228.5,489.3,230,491.2,230,493.3z"/>
	<path class="st1" d="M229.3,44.2c0.1,0.3,0.1,0.6,0.1,0.9c0,2.1-1.5,4-3.6,4.4c-0.3,0.1-0.6,0.1-0.9,0.1c-1.1,0-2.1-0.4-2.8-1
		c-0.8-0.6-1.4-1.5-1.6-2.6c-0.5-2.4,1.1-4.8,3.5-5.3c0.3-0.1,0.6-0.1,0.9-0.1C227,40.6,228.9,42,229.3,44.2z"/>
	<path class="st1" d="M215.5,490c0,0.4-0.1,0.8-0.1,1.1c-0.3,1-0.9,1.9-1.6,2.4c-0.8,0.6-1.7,0.9-2.7,0.9c-0.4,0-0.8-0.1-1.2-0.1
		c-2.4-0.6-3.8-3.1-3.2-5.5c0.5-2,2.4-3.4,4.3-3.4c0.4,0,0.8,0,1.2,0.1C214.1,486.1,215.5,488,215.5,490z"/>
	<path class="st1" d="M214.7,47.3c0.1,0.4,0.1,0.8,0.1,1.2c0,2-1.3,3.8-3.3,4.3c-0.4,0.1-0.8,0.1-1.2,0.1c-1,0-1.9-0.3-2.7-0.9
		c-0.8-0.6-1.4-1.4-1.6-2.4c-0.6-2.4,0.8-4.9,3.2-5.5c0.4-0.1,0.8-0.2,1.2-0.2C212.4,43.9,214.2,45.3,214.7,47.3z"/>
	<path class="st1" d="M201.1,485.7c0,0.5-0.1,1-0.2,1.4c-0.3,0.9-0.9,1.7-1.7,2.2s-1.7,0.8-2.6,0.8c-0.5,0-1-0.1-1.4-0.2
		c-2.4-0.8-3.6-3.4-2.8-5.7c0.6-1.9,2.4-3.1,4.3-3.1c0.5,0,0.9,0.1,1.4,0.2C200,482,201.1,483.8,201.1,485.7z"/>
	<path class="st2" d="M200.3,51.3c0.2,0.5,0.2,1,0.2,1.5c0,1.9-1.2,3.6-3,4.2c-0.5,0.2-1,0.2-1.5,0.2c-0.9,0-1.8-0.3-2.6-0.8
		s-1.3-1.3-1.7-2.2c-0.8-2.3,0.5-4.9,2.8-5.7c0.5-0.2,1-0.2,1.4-0.2C198,48.3,199.7,49.5,200.3,51.3z"/>
	<path d="M187.1,480.4c0,0.6-0.1,1.1-0.3,1.7c-0.4,0.9-1,1.6-1.7,2c-0.7,0.5-1.6,0.7-2.5,0.7c-0.6,0-1.2-0.1-1.7-0.3
		c-2.3-0.9-3.4-3.6-2.4-5.9c0.7-1.7,2.4-2.8,4.2-2.8c0.6,0,1.2,0.1,1.7,0.3C186.1,477,187.1,478.6,187.1,480.4z"/>
	<path class="st2" d="M186.3,56.3c0.2,0.6,0.3,1.2,0.3,1.7c0,1.8-1,3.4-2.8,4.2c-0.6,0.2-1.1,0.3-1.7,0.3c-0.9,0-1.8-0.3-2.5-0.7
		c-0.7-0.5-1.3-1.2-1.7-2c-1-2.3,0.1-4.9,2.4-5.9c0.6-0.2,1.1-0.3,1.7-0.3C183.9,53.6,185.6,54.6,186.3,56.3z"/>
	<path d="M173.5,474.3c0,0.7-0.1,1.3-0.5,2c-0.4,0.8-1,1.4-1.7,1.9c-0.7,0.4-1.5,0.7-2.4,0.7c-0.7,0-1.3-0.1-2-0.5l0,0
		c-1.6-0.8-2.5-2.4-2.5-4c0-0.7,0.1-1.4,0.5-2c0.8-1.6,2.4-2.5,4-2.5c0.7,0,1.3,0.1,2,0.5C172.6,471,173.5,472.6,173.5,474.3z"/>
	<path class="st4" d="M172.6,62.2c0.3,0.6,0.5,1.3,0.5,2c0,1.7-0.9,3.3-2.5,4c-0.6,0.3-1.3,0.5-2,0.5c-0.8,0-1.6-0.2-2.4-0.7
		c-0.7-0.4-1.3-1.1-1.7-1.8c-1.1-2.2-0.2-4.9,2-6c0.6-0.3,1.3-0.5,2-0.5C170.2,59.7,171.8,60.6,172.6,62.2z"/>
	<path class="st5" d="M160.3,467.2c0,0.8-0.2,1.5-0.6,2.2c-0.8,1.4-2.3,2.2-3.9,2.2c-0.8,0-1.5-0.2-2.2-0.6c-2.1-1.2-2.9-4-1.6-6.1
		c0.8-1.4,2.3-2.2,3.9-2.2c0.8,0,1.5,0.2,2.2,0.6C159.5,464.1,160.3,465.7,160.3,467.2z"/>
	<path class="st4" d="M159.3,69c0.4,0.7,0.6,1.5,0.6,2.2c0,1.6-0.8,3.1-2.2,3.9c-0.7,0.4-1.5,0.6-2.2,0.6c-1.6,0-3.1-0.8-3.9-2.2
		c-1.2-2.1-0.5-4.9,1.6-6.1c0.7-0.4,1.5-0.6,2.3-0.6C156.9,66.8,158.4,67.6,159.3,69z"/>
	<path d="M147.6,459.3c0,0.8-0.2,1.7-0.8,2.5c-0.9,1.3-2.3,2-3.8,2c-0.9,0-1.7-0.2-2.5-0.8c-2.1-1.4-2.6-4.2-1.2-6.2
		c0.9-1.3,2.3-2,3.8-2c0.8,0,1.7,0.2,2.5,0.8C146.9,456.5,147.6,457.9,147.6,459.3z"/>
	<path class="st4" d="M146.4,76.7c0.5,0.8,0.8,1.6,0.8,2.5c0,1.5-0.7,2.9-2,3.7c-0.8,0.5-1.6,0.8-2.5,0.8c-1.4,0-2.9-0.7-3.7-2
		c-1.4-2.1-0.8-4.9,1.2-6.2l0,0c0.8-0.5,1.6-0.8,2.5-0.8C144.1,74.7,145.6,75.4,146.4,76.7z"/>
	<path d="M135.4,450.6c0,1-0.3,1.9-0.9,2.7c-0.9,1.2-2.2,1.8-3.6,1.8c-0.9,0-1.9-0.3-2.7-0.9c-2-1.5-2.3-4.3-0.8-6.3
		c0.9-1.2,2.2-1.8,3.6-1.8c1,0,1.9,0.3,2.7,0.9C134.8,447.9,135.4,449.3,135.4,450.6z"/>
	<path class="st2" d="M134.1,85.1c0.6,0.8,0.9,1.8,0.9,2.7c0,1.4-0.6,2.7-1.8,3.6c-0.8,0.6-1.8,0.9-2.7,0.9c-1.4,0-2.7-0.6-3.6-1.8
		c-1.5-2-1.2-4.8,0.8-6.3c0.8-0.6,1.8-0.9,2.7-0.9C131.9,83.4,133.2,84,134.1,85.1z"/>
	<path class="st5" d="M123.8,441.2c0,1.1-0.4,2.1-1.1,3c-0.9,1-2.1,1.5-3.4,1.5c-1,0-2.1-0.4-3-1.1c-1.9-1.6-2.1-4.5-0.4-6.4
		c0.9-1,2.1-1.5,3.4-1.5c1.1,0,2.1,0.4,3,1.1C123.3,438.7,123.8,439.9,123.8,441.2z"/>
	<path class="st2" d="M122.4,94.4c0.8,0.9,1.1,1.9,1.1,3c0,1.2-0.5,2.5-1.5,3.4c-0.9,0.8-1.9,1.1-3,1.1c-1.2,0-2.5-0.5-3.4-1.5
		c-1.6-1.9-1.5-4.7,0.4-6.3c0.9-0.8,1.9-1.1,3-1.1C120.3,92.9,121.5,93.4,122.4,94.4z"/>
	<path d="M112.9,431c0,1.1-0.4,2.3-1.3,3.2c-0.9,0.9-2,1.3-3.2,1.3s-2.3-0.4-3.2-1.3c-1.8-1.8-1.8-4.6,0-6.4c0.9-0.9,2-1.3,3.2-1.3
		c1.1,0,2.3,0.4,3.2,1.3C112.5,428.7,112.9,429.8,112.9,431z"/>
	<path d="M111.3,104.4c0.9,0.9,1.3,2,1.3,3.2s-0.4,2.3-1.3,3.2l0,0c-0.9,0.9-2,1.3-3.2,1.3s-2.3-0.4-3.2-1.3c-1.8-1.8-1.8-4.6,0-6.4
		c0.9-0.9,2-1.3,3.2-1.3C109.3,103.1,110.4,103.5,111.3,104.4z"/>
	<path d="M101.6,417.1c0.8,0.9,1.1,1.9,1.1,3c0,1.2-0.5,2.5-1.5,3.4c-0.8,0.8-1.9,1.1-3,1.1c-1.2,0-2.5-0.5-3.4-1.5l0,0
		c-0.8-0.9-1.1-1.9-1.1-3c0-1.2,0.5-2.5,1.5-3.4c0.9-0.8,1.9-1.1,3-1.1C99.4,415.6,100.7,416.1,101.6,417.1z"/>
	<path d="M102.4,118.5c0,1.1-0.4,2.1-1.1,3c-0.9,1-2.1,1.5-3.4,1.5c-1.1,0-2.1-0.4-3-1.1c-1.9-1.6-2-4.5-0.4-6.4
		c0.9-1,2.1-1.5,3.4-1.5c1.1,0,2.1,0.4,3,1.1C101.9,116,102.4,117.2,102.4,118.5z"/>
	<path class="st3" d="M92.2,405.8c0.6,0.8,0.9,1.8,0.9,2.8c0,1.3-0.6,2.7-1.8,3.6c-0.8,0.6-1.8,0.9-2.7,0.9c-1.3,0-2.7-0.6-3.6-1.8
		c-1.5-2-1.2-4.8,0.8-6.3c0.8-0.6,1.8-0.9,2.8-0.9C90,404.1,91.3,404.7,92.2,405.8z"/>
	<path d="M92.9,130.1c0,1-0.3,1.9-0.9,2.7c-0.9,1.1-2.2,1.8-3.6,1.8c-1,0-1.9-0.3-2.7-0.9c-2-1.5-2.3-4.3-0.8-6.3
		c0.9-1.2,2.2-1.8,3.6-1.8c1,0,1.9,0.3,2.7,0.9C92.3,127.4,92.9,128.7,92.9,130.1z"/>
	<path class="st3" d="M83.7,393.9c0.5,0.8,0.8,1.6,0.8,2.5c0,1.4-0.7,2.9-2,3.7c-0.8,0.5-1.6,0.8-2.5,0.8c-1.5,0-2.9-0.7-3.7-2
		c-1.4-2.1-0.8-4.9,1.2-6.2c0.8-0.5,1.7-0.8,2.5-0.8C81.4,391.9,82.8,392.6,83.7,393.9z"/>
	<path d="M84.2,142.2c0,0.9-0.2,1.7-0.8,2.5c-0.9,1.3-2.3,2-3.7,2c-0.9,0-1.7-0.2-2.5-0.8c-2.1-1.4-2.6-4.2-1.2-6.2
		c0.9-1.3,2.3-2,3.8-2c0.9,0,1.7,0.2,2.5,0.8C83.5,139.3,84.2,140.7,84.2,142.2z"/>
	<path class="st3" d="M75.9,381.5c0.4,0.7,0.6,1.5,0.6,2.3c0,1.5-0.8,3-2.2,3.9c-0.7,0.4-1.5,0.6-2.2,0.6c-1.5,0-3.1-0.8-3.9-2.2
		c-1.2-2.1-0.5-4.9,1.6-6.1c0.7-0.4,1.5-0.6,2.3-0.6C73.6,379.3,75.1,380.1,75.9,381.5z"/>
	<path d="M76.3,154.9c0,0.8-0.2,1.5-0.6,2.2c-0.8,1.4-2.3,2.2-3.9,2.2c-0.8,0-1.5-0.2-2.2-0.6c-2.1-1.2-2.9-4-1.6-6.2
		c0.8-1.4,2.3-2.2,3.9-2.2c0.8,0,1.6,0.2,2.3,0.6C75.5,151.8,76.3,153.3,76.3,154.9z"/>
	<path class="st2" d="M69,368.6c0.3,0.7,0.5,1.3,0.5,2c0,1.7-0.9,3.2-2.5,4c-0.7,0.3-1.3,0.5-2,0.5c-0.8,0-1.6-0.2-2.4-0.6
		c-0.7-0.4-1.3-1-1.7-1.8c-1.1-2.2-0.2-4.9,2-6c0.6-0.3,1.3-0.5,2-0.5C66.6,366.1,68.2,367,69,368.6z"/>
	<path class="st3" d="M69.2,168.1c0,0.7-0.2,1.4-0.5,2c-0.4,0.8-1,1.4-1.7,1.8c-0.7,0.4-1.5,0.7-2.4,0.7c-0.7,0-1.3-0.1-2-0.5
		c-2.2-1.1-3.2-3.8-2.1-6c0.8-1.6,2.4-2.5,4-2.5c0.7,0,1.3,0.1,2,0.5C68.3,164.8,69.2,166.4,69.2,168.1z"/>
	<path class="st2" d="M62.9,355.3c0.2,0.6,0.4,1.2,0.4,1.7c0,1.8-1.1,3.4-2.8,4.2c-0.6,0.2-1.2,0.4-1.7,0.4c-0.9,0-1.7-0.3-2.5-0.7
		c-0.7-0.5-1.3-1.2-1.7-2c-1-2.3,0.1-4.9,2.4-5.9c0.6-0.2,1.2-0.4,1.7-0.4C60.5,352.5,62.2,353.6,62.9,355.3z"/>
	<path d="M63,181.7c0,0.6-0.1,1.2-0.3,1.7c-0.4,0.9-1,1.6-1.7,2c-0.7,0.5-1.6,0.7-2.5,0.7c-0.6,0-1.2-0.1-1.7-0.3
		c-2.3-1-3.4-3.6-2.4-5.9c0.7-1.7,2.4-2.8,4.2-2.8c0.6,0,1.2,0.1,1.7,0.3C62,178.3,63,179.9,63,181.7z"/>
	<path class="st1" d="M57.7,341.6c0.2,0.5,0.2,1,0.2,1.5c0,1.9-1.2,3.6-3,4.2c-0.5,0.2-1,0.2-1.5,0.2c-0.9,0-1.8-0.3-2.6-0.8
		s-1.3-1.3-1.7-2.2c-0.8-2.4,0.5-4.9,2.8-5.7c0.5-0.2,1-0.2,1.5-0.2C55.3,338.6,57.1,339.8,57.7,341.6z"/>
	<path class="st1" d="M57.8,195.7c0,0.5-0.1,1-0.2,1.4c-0.3,0.9-0.9,1.7-1.7,2.2s-1.7,0.8-2.6,0.8c-0.5,0-1-0.1-1.4-0.2
		c-2.4-0.8-3.6-3.4-2.8-5.7c0.6-1.9,2.4-3.1,4.3-3.1c0.5,0,1,0.1,1.4,0.2C56.6,192.1,57.8,193.8,57.8,195.7z"/>
	<path class="st1" d="M53.4,327.6c0.1,0.4,0.2,0.8,0.2,1.2c0,2-1.3,3.8-3.3,4.3c-0.4,0.1-0.8,0.2-1.2,0.2c-1,0-1.9-0.3-2.7-0.9
		S45,331,44.8,330c-0.6-2.4,0.8-4.9,3.2-5.5c0.4-0.1,0.8-0.2,1.2-0.2C51.1,324.3,52.9,325.6,53.4,327.6z"/>
	<path class="st2" d="M53.4,210c0,0.4,0,0.8-0.1,1.2c-0.3,1-0.9,1.8-1.6,2.4c-0.8,0.6-1.7,0.9-2.7,0.9c-0.4,0-0.8-0.1-1.2-0.2
		c-2.4-0.6-3.8-3.1-3.2-5.5c0.5-2,2.3-3.3,4.3-3.3c0.4,0,0.8,0.1,1.2,0.1C52.1,206.2,53.4,208,53.4,210z"/>
	<path d="M50.1,313.4c0.1,0.3,0.1,0.6,0.1,0.9c0,2.1-1.5,4-3.6,4.4c-0.3,0.1-0.6,0.1-0.9,0.1c-1,0-2-0.4-2.8-1s-1.4-1.5-1.6-2.6
		c-0.5-2.4,1.1-4.8,3.5-5.3c0.3-0.1,0.6-0.1,0.9-0.1C47.8,309.8,49.6,311.2,50.1,313.4z"/>
	<path class="st2" d="M50,224.6c0,0.3,0,0.6-0.1,0.9c-0.2,1.1-0.8,2-1.6,2.6s-1.8,1-2.8,1c-0.3,0-0.6,0-0.9-0.1
		c-2.4-0.5-4-2.9-3.5-5.3c0.4-2.1,2.3-3.6,4.4-3.6c0.3,0,0.6,0,0.9,0.1C48.6,220.6,50,222.5,50,224.6z"/>
	<path d="M47.7,298.9c0,0.2,0,0.4,0,0.6c0,2.2-1.6,4.2-3.9,4.5c-0.2,0-0.4,0-0.6,0c-1.1,0-2.2-0.4-3-1.1s-1.3-1.7-1.5-2.8l0,0
		c0-0.2,0-0.4,0-0.6c0-2.2,1.6-4.2,3.9-4.5c0.2,0,0.4,0,0.6,0C45.4,295,47.4,296.7,47.7,298.9z"/>
	<path class="st3" d="M47.6,239.3c0,0.2,0,0.4,0,0.6c-0.2,1.1-0.7,2.1-1.5,2.8s-1.8,1.1-3,1.1c-0.2,0-0.4,0-0.6,0
		c-2.5-0.3-4.2-2.6-3.9-5c0.3-2.3,2.2-3.9,4.5-3.9c0.2,0,0.4,0,0.6,0C46,235.1,47.6,237.1,47.6,239.3z"/>
	<path class="st1" d="M46.2,284.4c0,0.1,0,0.2,0,0.3c0,2.3-1.8,4.3-4.2,4.5c-0.1,0-0.2,0-0.3,0c-1.2,0-2.3-0.5-3.1-1.2
		c-0.8-0.8-1.3-1.8-1.4-3c-0.2-2.5,1.7-4.6,4.2-4.8c0.1,0,0.2,0,0.3,0C44.1,280.2,46,282,46.2,284.4z"/>
	<path class="st0" d="M46.2,254.2c0,0.1,0,0.2,0,0.3c-0.1,1.2-0.6,2.2-1.4,3c-0.8,0.8-1.9,1.2-3.1,1.2c-0.1,0-0.2,0-0.3,0
		c-2.5-0.2-4.4-2.3-4.2-4.8c0.2-2.4,2.1-4.2,4.5-4.2c0.1,0,0.2,0,0.3,0C44.3,249.8,46.2,251.8,46.2,254.2z"/>
	<path class="st3" d="M45.7,269.7L45.7,269.7c0,2.5-2,4.5-4.5,4.5l0,0c-1.2,0-2.4-0.5-3.2-1.3s-1.3-1.9-1.3-3.2c0-0.1,0-0.2,0-0.3
		c0-0.1,0-0.2,0-0.3c0-1.2,0.5-2.4,1.3-3.2s1.9-1.3,3.2-1.3c1.2,0,2.4,0.5,3.2,1.3s1.3,1.9,1.3,3.2c0,0.1,0,0.2,0,0.3
		S45.7,269.6,45.7,269.7z"/>
</g>
</svg>
