<?xml version="1.0" encoding="utf-8"?>
<!-- Generator: Adobe Illustrator 26.0.1, SVG Export Plug-In . SVG Version: 6.00 Build 0)  -->
<svg version="1.1" id="Layer_1" xmlns="http://www.w3.org/2000/svg" xmlns:xlink="http://www.w3.org/1999/xlink" x="0px" y="0px"
	 viewBox="0 0 538.1 538.1" style="enable-background:new 0 0 538.1 538.1;" xml:space="preserve">
<style type="text/css">
	.st0{fill:#37236B;}
	.st1{fill:#C5C5C5;}
	.st2{fill:#857AAE;}
	.st3{fill:#FFFFFF;}
</style>
<g id="Ring05">
	<path class="st0" d="M453.4,283.8c0,0.1,0,0.2,0,0.3c-0.1,1.2-0.6,2.2-1.4,3c-0.8,0.7-1.9,1.2-3.1,1.2c-0.1,0-0.2,0-0.3,0
		c-2.5-0.2-4.3-2.4-4.1-4.8l0,0c0.2-2.5,2.4-4.3,4.8-4.1C451.6,279.5,453.4,281.5,453.4,283.8z"/>
	<path class="st0" d="M453.4,253.6c0,0.1,0,0.2,0,0.4c0,2.3-1.8,4.3-4.1,4.5c-0.1,0-0.2,0-0.4,0c-1.2,0-2.2-0.4-3-1.2
		c-0.8-0.7-1.4-1.8-1.4-3c-0.2-2.5,1.7-4.6,4.1-4.8c0.1,0,0.2,0,0.4,0C451.2,249.5,453.2,251.3,453.4,253.6z"/>
	<path class="st0" d="M452.7,265.7c0.8,0.8,1.3,1.9,1.3,3.2c0,1.2-0.5,2.4-1.3,3.2c-0.8,0.8-1.9,1.3-3.2,1.3c-1.2,0-2.4-0.5-3.2-1.3
		c-0.8-0.8-1.3-1.9-1.3-3.2c0-2.5,2-4.5,4.5-4.5C450.7,264.4,451.8,264.9,452.7,265.7z"/>
	<path d="M451.7,298.7c0,0.2,0,0.5,0,0.7c-0.2,1.1-0.7,2.1-1.5,2.7c-0.8,0.7-1.8,1.1-2.9,1.1c-0.2,0-0.5,0-0.7,0
		c-2.5-0.4-4.1-2.7-3.8-5.1l0,0c0.4-2.5,2.7-4.1,5.1-3.8C450.1,294.6,451.7,296.5,451.7,298.7z"/>
	<path class="st1" d="M451.6,238.4c0,0.2,0,0.5,0,0.7c0,2.2-1.6,4.1-3.8,4.4c-0.2,0-0.5,0.1-0.7,0.1c-1.1,0-2.1-0.4-2.9-1.1
		c-0.8-0.7-1.4-1.6-1.5-2.7l0,0c-0.4-2.5,1.3-4.8,3.7-5.1c0.2,0,0.5-0.1,0.7-0.1C449.3,234.6,451.2,236.2,451.6,238.4z"/>
	<path class="st0" d="M448.8,313.3c0,0.4,0,0.7-0.1,1c-0.2,1-0.8,1.9-1.6,2.5c-0.8,0.6-1.8,1-2.8,1c-0.3,0-0.7,0-1-0.1
		c-2.4-0.6-3.9-3-3.3-5.4c0.5-2.1,2.3-3.5,4.4-3.5c0.4,0,0.7,0,1.1,0.1C447.4,309.5,448.8,311.3,448.8,313.3z"/>
	<path class="st1" d="M448.6,223.4c0.1,0.3,0.1,0.7,0.1,1c0,2-1.4,3.9-3.5,4.4c-0.3,0.1-0.7,0.1-1,0.1c-1,0-2-0.3-2.8-0.9
		c-0.8-0.6-1.4-1.5-1.6-2.5c-0.6-2.4,0.9-4.8,3.3-5.4c0.3-0.1,0.7-0.1,1-0.1C446.3,220,448.1,221.4,448.6,223.4z"/>
	<path class="st2" d="M444.8,327.7c0,0.5-0.1,0.9-0.2,1.4c-0.3,1-0.9,1.7-1.7,2.3c-0.8,0.5-1.7,0.8-2.6,0.8c-0.5,0-0.9-0.1-1.4-0.2
		c-2.4-0.8-3.7-3.3-2.9-5.7c0.6-1.9,2.4-3.1,4.3-3.1c0.5,0,0.9,0.1,1.4,0.2C443.6,324.1,444.8,325.8,444.8,327.7z"/>
	<path class="st1" d="M444.5,208.7c0.1,0.5,0.2,0.9,0.2,1.4c0,1.9-1.2,3.7-3.1,4.3c-0.5,0.2-0.9,0.2-1.4,0.2c-1,0-1.9-0.3-2.6-0.8
		c-0.8-0.5-1.4-1.3-1.7-2.3c-0.8-2.4,0.5-4.9,2.9-5.7c0.5-0.1,0.9-0.2,1.4-0.2C442.1,205.6,443.8,206.8,444.5,208.7z"/>
	<path d="M439.7,341.8c0,0.6-0.1,1.2-0.3,1.7c-0.4,0.9-1,1.6-1.7,2c-0.7,0.5-1.6,0.7-2.5,0.7c-0.6,0-1.2-0.1-1.7-0.4
		c-2.3-0.9-3.4-3.6-2.4-5.9c0.7-1.7,2.4-2.8,4.2-2.8c0.6,0,1.2,0.1,1.7,0.3C438.6,338.3,439.7,340,439.7,341.8z"/>
	<path d="M439.1,194.3c0.2,0.6,0.4,1.2,0.4,1.7c0,1.8-1,3.4-2.8,4.1c-0.6,0.2-1.2,0.4-1.7,0.4c-0.9,0-1.7-0.3-2.5-0.7
		c-0.7-0.5-1.3-1.2-1.7-2c-1-2.3,0.1-4.9,2.4-5.9c0.6-0.2,1.2-0.4,1.7-0.4C436.7,191.6,438.4,192.6,439.1,194.3z"/>
	<path d="M433.4,355.3c0,0.7-0.2,1.4-0.5,2.1c-0.4,0.8-1,1.4-1.7,1.8s-1.5,0.6-2.3,0.6c-0.7,0-1.4-0.2-2.1-0.5
		c-2.2-1.1-3.1-3.9-1.9-6.1c0.8-1.5,2.4-2.4,4-2.4c0.7,0,1.4,0.2,2.1,0.5C432.5,352.1,433.4,353.7,433.4,355.3z"/>
	<path class="st0" d="M432.6,180.5c0.3,0.7,0.5,1.4,0.5,2.1c0,1.6-0.9,3.2-2.4,4c-0.7,0.3-1.4,0.5-2.1,0.5c-0.8,0-1.6-0.2-2.3-0.6
		c-0.7-0.4-1.3-1-1.7-1.8c-1.2-2.2-0.3-4.9,1.9-6.1c0.7-0.3,1.4-0.5,2.1-0.5C430.3,178,431.8,178.9,432.6,180.5z"/>
	<path d="M425.9,368.3c0,0.8-0.2,1.6-0.7,2.4c-0.9,1.4-2.3,2.1-3.8,2.1c-0.8,0-1.7-0.2-2.4-0.7c-2.1-1.3-2.7-4.1-1.4-6.2
		c0.9-1.4,2.3-2.1,3.8-2.1c0.8,0,1.6,0.2,2.4,0.7C425.2,365.3,425.9,366.8,425.9,368.3z"/>
	<path class="st0" d="M425,167.2c0.5,0.8,0.7,1.6,0.7,2.4c0,1.5-0.8,2.9-2.1,3.8c-0.8,0.5-1.6,0.7-2.4,0.7c-1.5,0-2.9-0.7-3.8-2.1
		c-1.3-2.1-0.7-4.9,1.4-6.2c0.8-0.5,1.6-0.7,2.4-0.7C422.7,165.1,424.1,165.8,425,167.2L425,167.2z"/>
	<path d="M417.4,380.5c0,1-0.3,1.9-0.9,2.7c-0.9,1.2-2.2,1.8-3.6,1.8c-1,0-1.9-0.3-2.7-0.9c-2-1.5-2.4-4.3-0.9-6.3
		c0.9-1.2,2.2-1.8,3.6-1.8c0.9,0,1.9,0.3,2.7,0.9C416.8,377.8,417.4,379.2,417.4,380.5z"/>
	<path d="M416.2,154.6c0.6,0.8,0.9,1.8,0.9,2.7c0,1.4-0.6,2.7-1.8,3.6c-0.8,0.6-1.8,0.9-2.7,0.9c-1.4,0-2.7-0.6-3.6-1.8
		c-1.5-2-1.1-4.8,0.8-6.3c0.8-0.6,1.8-0.9,2.7-0.9C414,152.8,415.3,153.4,416.2,154.6z"/>
	<path d="M407.9,392c0,1.1-0.4,2.2-1.2,3c-0.9,1-2.1,1.5-3.3,1.5c-1.1,0-2.2-0.4-3-1.2c-1.8-1.7-2-4.5-0.3-6.4
		c0.9-1,2.1-1.5,3.3-1.5c1.1,0,2.2,0.4,3,1.2C407.4,389.6,407.9,390.8,407.9,392z"/>
	<path d="M406.4,142.8c0.8,0.9,1.2,1.9,1.2,3c0,1.2-0.5,2.4-1.5,3.3c-0.9,0.8-2,1.2-3,1.2c-1.2,0-2.4-0.5-3.3-1.5
		c-1.7-1.8-1.5-4.7,0.3-6.4c0.9-0.8,2-1.2,3-1.2C404.3,141.4,405.5,141.9,406.4,142.8z"/>
	<path d="M396.1,399.6c0.8,0.9,1.2,2,1.2,3c0,1.2-0.5,2.4-1.5,3.3c-0.9,0.8-2,1.2-3,1.2c-1.2,0-2.4-0.5-3.3-1.5
		c-1.7-1.8-1.6-4.7,0.3-6.4c0.9-0.8,2-1.2,3.1-1.2C394,398.1,395.3,398.6,396.1,399.6z"/>
	<path d="M397,135.3c0,1.1-0.4,2.2-1.2,3c-0.9,1-2.1,1.5-3.3,1.5c-1.1,0-2.2-0.4-3-1.2c-1.8-1.7-2-4.5-0.3-6.4
		c0.9-1,2.1-1.5,3.3-1.5c1.1,0,2.2,0.4,3,1.2C396.5,132.9,397,134.1,397,135.3z"/>
	<path d="M385,409.5c0.6,0.8,0.9,1.8,0.9,2.7c0,1.4-0.6,2.7-1.8,3.6c-0.8,0.6-1.8,0.9-2.7,0.9c-1.4,0-2.7-0.6-3.6-1.8
		c-1.5-2-1.1-4.8,0.8-6.3c0.8-0.6,1.8-0.9,2.7-0.9C382.7,407.7,384.1,408.3,385,409.5z"/>
	<path class="st2" d="M385.5,125.8c0,0.9-0.3,1.9-0.9,2.7c-0.9,1.2-2.2,1.8-3.6,1.8c-0.9,0-1.9-0.3-2.7-0.9c-2-1.5-2.4-4.3-0.9-6.3
		c0.9-1.2,2.2-1.8,3.6-1.8c0.9,0,1.9,0.3,2.7,0.9C384.9,123.1,385.5,124.4,385.5,125.8z"/>
	<path d="M372.9,418.3c0.5,0.7,0.7,1.6,0.7,2.4c0,1.5-0.7,2.9-2.1,3.8c-0.8,0.5-1.6,0.7-2.4,0.7c-1.5,0-3-0.7-3.8-2.1
		c-1.3-2.1-0.7-4.9,1.4-6.2c0.8-0.5,1.6-0.7,2.4-0.7C370.6,416.3,372.1,417,372.9,418.3z"/>
	<path d="M373.2,117.2c0,0.8-0.2,1.7-0.7,2.4c-0.9,1.4-2.3,2.1-3.8,2.1c-0.8,0-1.6-0.2-2.4-0.7c-2.1-1.3-2.7-4.1-1.4-6.2
		c0.9-1.4,2.3-2.1,3.8-2.1c0.8,0,1.6,0.2,2.4,0.7C372.5,114.3,373.2,115.8,373.2,117.2z"/>
	<path class="st1" d="M360.2,426.1c0.4,0.7,0.5,1.4,0.5,2.1c0,1.6-0.9,3.2-2.4,4c-0.7,0.4-1.4,0.5-2.1,0.5c-0.8,0-1.6-0.2-2.3-0.6
		c-0.7-0.4-1.3-1-1.7-1.8c-1.1-2.2-0.3-4.9,1.9-6.1c0.7-0.4,1.4-0.5,2.1-0.5C357.8,423.7,359.4,424.6,360.2,426.1z"/>
	<path class="st2" d="M360.3,109.8c0,0.7-0.2,1.4-0.5,2.1c-0.4,0.8-1,1.4-1.7,1.8s-1.5,0.6-2.3,0.6c-0.7,0-1.4-0.2-2.1-0.5
		c-2.2-1.1-3.1-3.8-1.9-6.1c0.8-1.5,2.4-2.4,4-2.4c0.7,0,1.4,0.2,2.1,0.5C359.4,106.6,360.3,108.2,360.3,109.8z"/>
	<path class="st2" d="M346.8,432.8c0.2,0.6,0.4,1.2,0.4,1.7c0,1.8-1,3.4-2.8,4.1c-0.6,0.2-1.2,0.4-1.7,0.4c-0.9,0-1.7-0.3-2.5-0.7
		c-0.7-0.5-1.3-1.2-1.7-2c-1-2.3,0.1-4.9,2.4-5.9c0.6-0.2,1.2-0.4,1.7-0.4C344.4,430,346.1,431.1,346.8,432.8z"/>
	<path class="st2" d="M346.7,103.6c0,0.6-0.1,1.2-0.3,1.7c-0.4,0.9-1,1.6-1.7,2c-0.7,0.5-1.6,0.7-2.5,0.7c-0.6,0-1.2-0.1-1.7-0.3
		c-2.3-0.9-3.4-3.6-2.4-5.9c0.7-1.7,2.4-2.8,4.2-2.8c0.6,0,1.2,0.1,1.7,0.3C345.7,100.1,346.7,101.8,346.7,103.6z"/>
	<path class="st2" d="M333,438.3c0.1,0.5,0.2,0.9,0.2,1.4c0,1.9-1.2,3.7-3.1,4.3c-0.5,0.1-0.9,0.2-1.4,0.2c-0.9,0-1.9-0.3-2.6-0.8
		c-0.8-0.5-1.4-1.3-1.7-2.3c-0.8-2.4,0.5-4.9,2.9-5.7l0,0C329.6,434.7,332.2,435.9,333,438.3z"/>
	<path class="st0" d="M332.7,98.4c0,0.5-0.1,0.9-0.2,1.4c-0.3,1-0.9,1.7-1.7,2.3c-0.8,0.5-1.7,0.8-2.6,0.8c-0.5,0-0.9-0.1-1.4-0.2
		c-2.4-0.8-3.7-3.3-2.9-5.7c0.6-1.9,2.4-3.1,4.3-3.1c0.5,0,0.9,0.1,1.4,0.2C331.5,94.7,332.7,96.5,332.7,98.4z"/>
	<path d="M318.7,442.7c0.1,0.4,0.1,0.7,0.1,1.1c0,2-1.4,3.9-3.4,4.4c-0.4,0.1-0.7,0.1-1.1,0.1c-1,0-2-0.3-2.8-1
		c-0.8-0.6-1.4-1.5-1.6-2.5c-0.6-2.4,0.9-4.9,3.3-5.4c0.4-0.1,0.7-0.1,1.1-0.1C316.3,439.3,318.2,440.7,318.7,442.7z"/>
	<path class="st2" d="M318.4,94.3c0,0.3,0,0.7-0.1,1.1c-0.2,1-0.8,1.9-1.6,2.5c-0.8,0.6-1.7,0.9-2.8,0.9c-0.4,0-0.7,0-1.1-0.1
		c-2.4-0.6-3.9-3-3.3-5.4c0.5-2.1,2.3-3.4,4.4-3.4c0.4,0,0.7,0,1.1,0.1C317,90.5,318.4,92.3,318.4,94.3z"/>
	<path d="M304.1,446.1c0,0.3,0.1,0.5,0.1,0.8c0,2.2-1.6,4.1-3.8,4.4c-0.2,0-0.5,0.1-0.8,0.1c-1.1,0-2.1-0.4-2.9-1
		c-0.8-0.7-1.4-1.6-1.6-2.7c-0.4-2.5,1.2-4.8,3.7-5.2c0.3,0,0.5-0.1,0.8-0.1C301.9,442.3,303.7,443.9,304.1,446.1z"/>
	<path class="st2" d="M303.7,91.3c0,0.2,0,0.5-0.1,0.8c-0.2,1.1-0.8,2-1.5,2.7c-0.8,0.7-1.8,1-2.9,1c-0.2,0-0.5,0-0.8-0.1
		c-2.4-0.4-4.1-2.7-3.7-5.2c0.4-2.2,2.3-3.8,4.4-3.8c0.2,0,0.5,0,0.8,0.1C302.2,87.3,303.7,89.2,303.7,91.3z"/>
	<path class="st0" d="M289.4,448.4c0,0.1,0,0.3,0,0.5c0,2.3-1.7,4.2-4,4.5c-0.2,0-0.3,0-0.5,0c-1.1,0-2.2-0.4-3-1.1
		s-1.4-1.7-1.5-2.9c-0.2-2.5,1.6-4.7,4-4.9c0.1,0,0.3,0,0.5,0C287.2,444.3,289.1,446.1,289.4,448.4z"/>
	<path d="M288.9,89.4c0,0.2,0,0.3,0,0.5c-0.1,1.2-0.7,2.2-1.5,2.9c-0.8,0.7-1.9,1.2-3,1.2c-0.1,0-0.3,0-0.5,0
		c-2.5-0.2-4.3-2.5-4-4.9c0.2-2.3,2.2-4,4.5-4c0.2,0,0.3,0,0.5,0C287.2,85.1,288.9,87.1,288.9,89.4z"/>
	<path class="st0" d="M274.5,449.7c0,0.1,0,0.1,0,0.2c0,2.4-1.9,4.4-4.3,4.5c-0.1,0-0.1,0-0.2,0c-1.2,0-2.3-0.5-3.1-1.2
		c-0.8-0.8-1.3-1.8-1.4-3.1c-0.1-2.5,1.8-4.6,4.3-4.7c0.1,0,0.1,0,0.2,0C272.4,445.4,274.4,447.3,274.5,449.7z"/>
	<path class="st0" d="M272.7,85.1c0.8,0.8,1.3,1.9,1.3,3.2s-0.5,2.4-1.3,3.2c-0.8,0.8-1.9,1.3-3.2,1.3c-2.5,0-4.5-2-4.5-4.5
		c0-1.2,0.5-2.4,1.3-3.2c0.8-0.8,1.9-1.3,3.2-1.3C270.8,83.8,271.9,84.3,272.7,85.1z"/>
	<path class="st2" d="M259.6,449.3c0,0.1,0,0.2,0,0.4c-0.1,1.2-0.6,2.2-1.4,2.9c-0.8,0.7-1.9,1.2-3,1.2c-0.1,0-0.2,0-0.4,0
		c-2.5-0.2-4.3-2.4-4.1-4.8s2.1-4.1,4.5-4.1c0.1,0,0.2,0,0.4,0C257.8,445,259.6,447,259.6,449.3z"/>
	<path d="M259.1,88.6c0,0.1,0,0.2,0,0.4c0,2.3-1.8,4.3-4.1,4.5c-0.1,0-0.2,0-0.4,0c-1.2,0-2.2-0.4-3-1.2c-0.8-0.7-1.3-1.8-1.4-3
		c-0.2-2.5,1.6-4.6,4.1-4.9c0.1,0,0.2,0,0.4,0C256.9,84.4,258.9,86.2,259.1,88.6z"/>
	<path class="st0" d="M244.7,447.5c0,0.2,0,0.5-0.1,0.7c-0.2,1.1-0.8,2-1.5,2.7c-0.8,0.7-1.8,1.1-2.9,1.1c-0.2,0-0.5,0-0.7-0.1
		c-2.5-0.4-4.1-2.7-3.7-5.2c0.4-2.2,2.3-3.8,4.4-3.8c0.2,0,0.5,0,0.7,0.1C243.2,443.5,244.7,445.4,244.7,447.5z"/>
	<path class="st0" d="M244.2,90c0,0.2,0.1,0.5,0.1,0.8c0,2.2-1.6,4.1-3.8,4.4c-0.2,0-0.5,0.1-0.8,0.1c-1.1,0-2.1-0.4-2.9-1.1
		c-0.8-0.7-1.4-1.6-1.5-2.7c-0.4-2.5,1.2-4.8,3.7-5.2c0.2,0,0.5-0.1,0.8-0.1C241.9,86.3,243.8,87.8,244.2,90z"/>
	<path class="st0" d="M230.1,444.5c0,0.4,0,0.7-0.1,1.1c-0.3,1-0.8,1.9-1.6,2.5s-1.7,0.9-2.7,0.9c-0.4,0-0.7,0-1.1-0.1
		c-2.4-0.6-3.9-3-3.3-5.5c0.5-2,2.3-3.4,4.4-3.4c0.4,0,0.7,0,1.1,0.1C228.7,440.7,230.1,442.5,230.1,444.5z"/>
	<path class="st0" d="M229.5,92.7c0.1,0.4,0.1,0.7,0.1,1.1c0,2-1.4,3.8-3.4,4.4c-0.4,0.1-0.7,0.1-1.1,0.1c-1,0-2-0.3-2.8-0.9
		s-1.3-1.4-1.6-2.5c-0.6-2.4,0.9-4.9,3.3-5.5c0.4-0.1,0.7-0.1,1.1-0.1C227.2,89.3,229,90.7,229.5,92.7z"/>
	<path class="st1" d="M215.8,440.3c0,0.5-0.1,1-0.2,1.4c-0.3,0.9-0.9,1.7-1.7,2.2s-1.7,0.8-2.6,0.8c-0.5,0-1-0.1-1.5-0.2
		c-2.3-0.8-3.6-3.4-2.8-5.7c0.6-1.9,2.4-3,4.3-3c0.5,0,1,0.1,1.4,0.2C214.6,436.7,215.8,438.4,215.8,440.3z"/>
	<path class="st2" d="M215.1,96.6c0.2,0.5,0.2,1,0.2,1.5c0,1.9-1.2,3.6-3,4.2c-0.5,0.2-1,0.2-1.5,0.2c-0.9,0-1.8-0.3-2.6-0.8
		s-1.4-1.3-1.7-2.2c-0.8-2.3,0.4-4.9,2.8-5.7c0.5-0.2,1-0.2,1.4-0.2C212.7,93.6,214.5,94.8,215.1,96.6z"/>
	<path class="st1" d="M201.8,434.9c0,0.6-0.1,1.2-0.4,1.8c-0.4,0.9-1,1.5-1.7,2s-1.6,0.7-2.4,0.7c-0.6,0-1.2-0.1-1.8-0.4
		c-2.3-1-3.3-3.6-2.3-5.9c0.7-1.7,2.4-2.7,4.1-2.7c0.6,0,1.2,0.1,1.8,0.4C200.8,431.5,201.8,433.2,201.8,434.9z"/>
	<path class="st2" d="M201.1,101.7c0.3,0.6,0.4,1.2,0.4,1.8c0,1.7-1,3.4-2.7,4.1c-0.6,0.3-1.2,0.4-1.8,0.4c-0.9,0-1.7-0.2-2.4-0.7
		s-1.3-1.1-1.7-2c-1-2.3,0-4.9,2.3-5.9c0.6-0.3,1.2-0.4,1.8-0.4C198.7,99,200.3,100,201.1,101.7z"/>
	<path d="M188.4,428.3c0,0.7-0.2,1.5-0.5,2.1c-0.4,0.8-1,1.4-1.7,1.8s-1.5,0.6-2.3,0.6c-0.7,0-1.5-0.2-2.1-0.5
		c-2.2-1.2-3-3.9-1.8-6.1c0.8-1.5,2.4-2.4,4-2.4c0.7,0,1.4,0.2,2.1,0.5C187.5,425.2,188.4,426.7,188.4,428.3z"/>
	<path class="st0" d="M187.5,108c0.4,0.7,0.5,1.4,0.5,2.1c0,1.6-0.9,3.2-2.4,4c-0.7,0.4-1.4,0.6-2.1,0.6c-1.6,0-3.1-0.8-4-2.4
		c-1.2-2.2-0.4-4.9,1.8-6.1c0.7-0.4,1.4-0.5,2.1-0.5C185.1,105.6,186.7,106.5,187.5,108z"/>
	<path d="M175.6,420.7c0,0.8-0.2,1.7-0.7,2.4c-0.9,1.3-2.3,2-3.8,2c-0.8,0-1.7-0.2-2.5-0.7c-2.1-1.4-2.7-4.1-1.3-6.2
		c0.9-1.3,2.3-2,3.8-2c0.9,0,1.7,0.2,2.4,0.7C174.8,417.8,175.6,419.2,175.6,420.7z"/>
	<path class="st0" d="M174.5,115.3c0.5,0.8,0.7,1.6,0.7,2.5c0,1.5-0.7,2.9-2,3.8l0,0c-0.8,0.5-1.6,0.7-2.5,0.7c-1.5,0-2.9-0.7-3.8-2
		c-1.4-2.1-0.8-4.9,1.3-6.2c0.8-0.5,1.6-0.7,2.5-0.7C172.2,113.3,173.6,114,174.5,115.3z"/>
	<path d="M163.4,412c0,1-0.3,1.9-1,2.8c-0.9,1.1-2.2,1.7-3.5,1.7c-1,0-1.9-0.3-2.8-1c-2-1.5-2.3-4.3-0.8-6.3
		c0.9-1.1,2.2-1.7,3.6-1.7c1,0,1.9,0.3,2.8,0.9C162.8,409.4,163.4,410.7,163.4,412z"/>
	<path class="st2" d="M162.1,123.7c0.6,0.8,1,1.8,1,2.8c0,1.3-0.6,2.7-1.7,3.6c-0.8,0.6-1.8,0.9-2.8,0.9c-1.3,0-2.7-0.6-3.6-1.7
		c-1.5-1.9-1.2-4.8,0.8-6.3c0.8-0.6,1.8-1,2.8-1C159.9,122,161.2,122.6,162.1,123.7z"/>
	<path d="M152,402.4c0,1.1-0.4,2.2-1.2,3c-0.9,1-2.1,1.5-3.3,1.5c-1.1,0-2.2-0.4-3-1.2c-1.8-1.7-1.9-4.5-0.3-6.4
		c0.9-1,2.1-1.5,3.3-1.5c1.1,0,2.2,0.4,3,1.2C151.5,400,152,401.2,152,402.4z"/>
	<path class="st3" d="M150.5,133.1c0.8,0.9,1.2,2,1.2,3.1c0,1.2-0.5,2.4-1.5,3.3c-0.9,0.8-2,1.2-3,1.2c-1.2,0-2.4-0.5-3.3-1.4
		c-1.7-1.8-1.6-4.7,0.3-6.4c0.9-0.8,2-1.2,3.1-1.2C148.4,131.6,149.6,132.1,150.5,133.1z"/>
	<path d="M140.2,388.8c0.8,0.9,1.2,2,1.2,3.1c0,1.2-0.5,2.4-1.4,3.3c-0.9,0.8-2,1.2-3.1,1.2c-1.2,0-2.4-0.5-3.3-1.4
		c-1.7-1.8-1.6-4.7,0.2-6.4c0.9-0.8,2-1.2,3.1-1.2C138.1,387.4,139.3,387.8,140.2,388.8z"/>
	<path class="st3" d="M141.1,146.7c0,1.1-0.4,2.2-1.2,3c-0.9,1-2.1,1.4-3.3,1.4c-1.1,0-2.2-0.4-3-1.2c-1.8-1.7-2-4.5-0.3-6.4
		c0.9-1,2.1-1.5,3.3-1.5c1.1,0,2.2,0.4,3.1,1.2C140.6,144.3,141.1,145.5,141.1,146.7z"/>
	<path d="M130.7,377.7c0.6,0.8,1,1.8,1,2.8c0,1.3-0.6,2.6-1.7,3.5c-0.8,0.6-1.8,1-2.8,1c-1.3,0-2.7-0.6-3.5-1.7
		c-1.5-1.9-1.2-4.8,0.8-6.3c0.8-0.6,1.8-1,2.8-1C128.5,376,129.8,376.6,130.7,377.7z"/>
	<path d="M131.4,158.1c0,1-0.3,1.9-0.9,2.8c-0.9,1.1-2.2,1.7-3.5,1.7c-1,0-1.9-0.3-2.8-0.9c-2-1.5-2.3-4.4-0.8-6.3
		c0.9-1.1,2.2-1.7,3.6-1.7c1,0,2,0.3,2.8,0.9C130.8,155.4,131.4,156.8,131.4,158.1z"/>
	<path class="st1" d="M122.2,365.9c0.5,0.8,0.7,1.6,0.7,2.5c0,1.5-0.7,2.9-2,3.8c-0.8,0.5-1.6,0.7-2.5,0.7c-1.5,0-2.9-0.7-3.8-2
		c-1.4-2.1-0.8-4.9,1.3-6.2c0.8-0.5,1.6-0.7,2.5-0.7C119.9,363.9,121.4,364.6,122.2,365.9z"/>
	<path class="st3" d="M122.7,170.3c0,0.9-0.2,1.7-0.7,2.5c-0.9,1.3-2.3,2-3.8,2c-0.8,0-1.7-0.2-2.5-0.7c-2.1-1.4-2.7-4.2-1.3-6.2
		c0.9-1.3,2.3-2,3.8-2c0.8,0,1.7,0.2,2.5,0.7C122,167.3,122.7,168.8,122.7,170.3z"/>
	<path d="M114.7,353.4c0.4,0.7,0.6,1.4,0.6,2.1c0,1.6-0.9,3.1-2.4,4c-0.7,0.4-1.4,0.5-2.1,0.5c-1.6,0-3.1-0.9-4-2.3
		c-1.2-2.2-0.4-4.9,1.8-6.1c0.7-0.4,1.4-0.5,2.2-0.5C112.4,351,113.9,351.9,114.7,353.4z"/>
	<path class="st3" d="M115.1,183.1c0,0.7-0.2,1.5-0.5,2.1c-0.4,0.8-1,1.3-1.7,1.7s-1.5,0.6-2.3,0.6c-0.7,0-1.5-0.2-2.1-0.5
		c-2.2-1.2-3-3.9-1.8-6.1c0.8-1.5,2.4-2.4,4-2.4c0.7,0,1.5,0.2,2.1,0.6C114.2,179.9,115.1,181.5,115.1,183.1z"/>
	<path class="st0" d="M108.3,340.3c0.3,0.6,0.4,1.2,0.4,1.8c0,1.7-1,3.4-2.7,4.1c-0.6,0.3-1.2,0.4-1.8,0.4c-0.9,0-1.7-0.2-2.4-0.7
		c-0.7-0.5-1.3-1.1-1.7-2c-1-2.3,0-4.9,2.3-5.9c0.6-0.3,1.2-0.4,1.8-0.4C105.9,337.7,107.6,338.6,108.3,340.3z"/>
	<path class="st3" d="M108.5,196.5c0,0.6-0.1,1.2-0.4,1.8c-0.4,0.8-1,1.5-1.7,2s-1.6,0.7-2.4,0.7c-0.6,0-1.2-0.1-1.8-0.4
		c-2.3-1-3.3-3.7-2.3-5.9c0.7-1.7,2.4-2.7,4.1-2.7c0.6,0,1.2,0.1,1.8,0.4C107.5,193.1,108.5,194.8,108.5,196.5z"/>
	<path class="st2" d="M103,326.8c0.2,0.5,0.2,1,0.2,1.5c0,1.9-1.2,3.6-3,4.3c-0.5,0.2-1,0.2-1.5,0.2c-0.9,0-1.8-0.3-2.6-0.8
		c-0.8-0.5-1.3-1.3-1.7-2.2c-0.8-2.4,0.4-4.9,2.8-5.7c0.5-0.2,1-0.2,1.5-0.2C100.6,323.8,102.3,324.9,103,326.8z"/>
	<path d="M103.1,210.4c0,0.5-0.1,1-0.2,1.5c-0.3,0.9-0.9,1.7-1.7,2.2c-0.8,0.5-1.7,0.8-2.6,0.8c-0.5,0-1-0.1-1.5-0.2
		c-2.4-0.8-3.6-3.4-2.8-5.7c0.6-1.9,2.4-3,4.2-3c0.5,0,1,0.1,1.5,0.2C101.9,206.8,103.1,208.6,103.1,210.4z"/>
	<path class="st0" d="M98.8,312.8c0.1,0.4,0.1,0.8,0.1,1.1c0,2-1.4,3.8-3.4,4.4c-0.4,0.1-0.8,0.1-1.1,0.1c-1,0-2-0.3-2.7-0.9
		c-0.8-0.6-1.4-1.4-1.6-2.5c-0.6-2.4,0.8-4.9,3.2-5.5c0.4-0.1,0.8-0.1,1.1-0.1C96.5,309.5,98.3,310.8,98.8,312.8z"/>
	<path d="M98.8,224.7c0,0.4-0.1,0.7-0.1,1.1c-0.2,1-0.8,1.9-1.6,2.5c-0.8,0.6-1.7,0.9-2.7,0.9c-0.4,0-0.7,0-1.1-0.1
		c-2.4-0.6-3.9-3-3.3-5.5c0.5-2,2.3-3.4,4.4-3.4c0.4,0,0.7,0.1,1.1,0.1C97.5,220.9,98.8,222.7,98.8,224.7z"/>
	<path d="M95.8,298.6c0,0.2,0.1,0.5,0.1,0.8c0,2.2-1.5,4.1-3.8,4.4c-0.2,0-0.5,0.1-0.8,0.1c-1.1,0-2.1-0.4-2.9-1.1s-1.4-1.6-1.6-2.7
		c-0.4-2.5,1.2-4.8,3.7-5.2c0.2,0,0.5-0.1,0.8-0.1C93.5,294.8,95.4,296.4,95.8,298.6z"/>
	<path d="M95.8,239.4c0,0.2,0,0.5-0.1,0.7c-0.2,1.1-0.8,2.1-1.5,2.7c-0.8,0.7-1.8,1.1-2.9,1.1c-0.2,0-0.5,0-0.8-0.1
		c-2.5-0.4-4.1-2.7-3.7-5.2c0.4-2.2,2.3-3.8,4.4-3.8c0.2,0,0.5,0,0.7,0.1C94.2,235.3,95.8,237.2,95.8,239.4z"/>
	<path class="st0" d="M94,284.1c0,0.1,0,0.3,0,0.4c0,2.3-1.8,4.3-4.1,4.5c-0.1,0-0.3,0-0.4,0c-1.2,0-2.2-0.4-3-1.2
		c-0.8-0.7-1.3-1.8-1.4-2.9c-0.2-2.5,1.6-4.6,4.1-4.9c0.1,0,0.3,0,0.4,0C91.8,280,93.8,281.8,94,284.1z"/>
	<path d="M93.9,254.2c0,0.1,0,0.2,0,0.4c-0.1,1.2-0.6,2.2-1.5,2.9c-0.8,0.7-1.9,1.2-3,1.2c-0.1,0-0.2,0-0.4,0
		c-2.5-0.2-4.3-2.4-4.1-4.8c0.2-2.4,2.2-4.1,4.5-4.1c0.1,0,0.2,0,0.4,0C92.2,249.9,93.9,251.9,93.9,254.2z"/>
	<path d="M93.3,269.6L93.3,269.6c0,2.5-2,4.5-4.5,4.5l0,0c-1.2,0-2.4-0.5-3.2-1.3c-0.8-0.8-1.3-1.9-1.3-3.2c0-0.1,0-0.2,0-0.2
		c0-0.1,0-0.1,0-0.2c0-1.2,0.5-2.4,1.3-3.2c0.8-0.8,1.9-1.3,3.2-1.3c1.2,0,2.4,0.5,3.2,1.3c0.8,0.8,1.3,1.9,1.3,3.2
		c0,0.1,0,0.2,0,0.2S93.3,269.5,93.3,269.6z"/>
</g>
</svg>
