<?xml version="1.0" encoding="utf-8"?>
<!-- Generator: Adobe Illustrator 26.0.1, SVG Export Plug-In . SVG Version: 6.00 Build 0)  -->
<svg version="1.1" id="Layer_1" xmlns="http://www.w3.org/2000/svg" xmlns:xlink="http://www.w3.org/1999/xlink" x="0px" y="0px"
	 viewBox="0 0 538.1 538.1" style="enable-background:new 0 0 538.1 538.1;" xml:space="preserve">
<style type="text/css">
	.st0{fill:#3D2662;}
	.st1{fill:#6A56A4;}
	.st2{fill:#857AAE;}
</style>
<g id="Ring04">
	<path d="M442,276.4c0,0.1,0,0.1,0,0.2c0,1.2-0.6,2.3-1.4,3.1s-1.9,1.2-3.1,1.2c-0.1,0-0.1,0-0.2,0c-2.5-0.1-4.4-2.2-4.3-4.7
		c0.1-2.4,2.1-4.3,4.5-4.3c0.1,0,0.1,0,0.2,0C440.1,272,442,274,442,276.4z"/>
	<path d="M442,261.3c0,0.1,0,0.1,0,0.2c0,2.4-1.9,4.4-4.3,4.5c-0.1,0-0.1,0-0.2,0c-1.2,0-2.3-0.5-3.1-1.2s-1.3-1.9-1.4-3.1
		c-0.1-2.5,1.8-4.6,4.3-4.7c0.1,0,0.1,0,0.2,0C439.9,257,441.9,258.8,442,261.3z"/>
	<path class="st0" d="M440.8,291.3c0,0.2,0,0.4,0,0.6c-0.1,1.1-0.7,2.1-1.5,2.8c-0.8,0.7-1.9,1.1-3,1.1c-0.2,0-0.4,0-0.5,0
		c-2.5-0.3-4.2-2.5-3.9-5c0.3-2.3,2.2-4,4.5-4c0.2,0,0.4,0,0.6,0C439.1,287.1,440.8,289,440.8,291.3z"/>
	<path class="st0" d="M440.7,246c0,0.2,0,0.4,0,0.6c0,2.2-1.7,4.2-3.9,4.5c-0.2,0-0.4,0-0.6,0c-1.1,0-2.2-0.4-3-1.1
		c-0.8-0.7-1.4-1.7-1.5-2.8c-0.3-2.5,1.4-4.7,3.9-5c0.2,0,0.4,0,0.6,0C438.5,242.1,440.4,243.7,440.7,246z"/>
	<path class="st0" d="M438.4,306c0,0.3,0,0.6-0.1,0.9c-0.2,1.1-0.8,1.9-1.6,2.6c-0.8,0.6-1.8,1-2.8,1c-0.3,0-0.6,0-0.9-0.1
		c-2.4-0.5-4-2.9-3.5-5.3c0.4-2.1,2.3-3.6,4.4-3.6c0.3,0,0.6,0,0.9,0.1C436.9,302.1,438.4,303.9,438.4,306z"/>
	<path class="st0" d="M438.2,230.9c0.1,0.3,0.1,0.6,0.1,0.9c0,2.1-1.5,4-3.6,4.4c-0.3,0.1-0.6,0.1-0.9,0.1c-1,0-2-0.4-2.8-1
		s-1.4-1.5-1.6-2.6c-0.5-2.4,1-4.8,3.5-5.3c0.3-0.1,0.6-0.1,0.9-0.1C435.8,227.3,437.7,228.8,438.2,230.9z"/>
	<path class="st0" d="M434.7,320.5c0,0.4-0.1,0.9-0.2,1.3c-0.3,1-0.9,1.8-1.6,2.3c-0.8,0.6-1.7,0.9-2.7,0.9c-0.4,0-0.9-0.1-1.3-0.2
		c-2.4-0.7-3.7-3.2-3-5.6c0.6-1.9,2.4-3.2,4.3-3.2c0.4,0,0.9,0.1,1.3,0.2C433.4,316.8,434.7,318.6,434.7,320.5z"/>
	<path class="st0" d="M434.4,216c0.1,0.4,0.2,0.9,0.2,1.3c0,1.9-1.2,3.7-3.2,4.3c-0.4,0.1-0.9,0.2-1.3,0.2c-1,0-1.9-0.3-2.6-0.9
		c-0.8-0.5-1.4-1.3-1.6-2.3c-0.7-2.4,0.6-4.9,3-5.6c0.4-0.1,0.9-0.2,1.3-0.2C432,212.8,433.8,214.1,434.4,216z"/>
	<path d="M429.8,334.6c0,0.5-0.1,1.1-0.3,1.7c-0.4,0.9-1,1.6-1.7,2.1s-1.6,0.8-2.5,0.8c-0.6,0-1.1-0.1-1.7-0.3
		c-2.3-0.9-3.4-3.5-2.5-5.8c0.7-1.8,2.4-2.8,4.2-2.8c0.5,0,1.1,0.1,1.7,0.3C428.7,331.2,429.8,332.9,429.8,334.6z"/>
	<path d="M429.3,201.6c0.2,0.5,0.3,1.1,0.3,1.7c0,1.8-1.1,3.5-2.8,4.2c-0.6,0.2-1.1,0.3-1.7,0.3c-0.9,0-1.8-0.3-2.5-0.8
		s-1.3-1.2-1.7-2.1c-0.9-2.3,0.2-4.9,2.5-5.8c0.5-0.2,1.1-0.3,1.7-0.3C426.9,198.7,428.6,199.8,429.3,201.6z"/>
	<path d="M423.6,348.3c0,0.7-0.1,1.4-0.5,2l0,0c-0.4,0.8-1,1.4-1.7,1.8s-1.5,0.6-2.3,0.6c-0.7,0-1.4-0.2-2-0.5c-2.2-1.1-3.1-3.8-2-6
		c0.8-1.6,2.4-2.5,4-2.5c0.7,0,1.4,0.1,2,0.5C422.7,345,423.6,346.6,423.6,348.3z"/>
	<path class="st1" d="M422.9,187.6c0.3,0.6,0.5,1.3,0.5,2c0,1.6-0.9,3.2-2.5,4c-0.6,0.3-1.4,0.5-2,0.5c-0.8,0-1.6-0.2-2.3-0.6
		s-1.3-1-1.7-1.8c-1.1-2.2-0.2-4.9,2-6.1c0.7-0.3,1.4-0.5,2-0.5C420.6,185.1,422.1,186,422.9,187.6z"/>
	<path class="st2" d="M416.3,361.3c0,0.8-0.2,1.6-0.7,2.4c-0.9,1.4-2.3,2.1-3.8,2.1c-0.8,0-1.6-0.2-2.4-0.7
		c-2.1-1.3-2.7-4.1-1.4-6.2c0.9-1.4,2.3-2.1,3.8-2.1c0.8,0,1.6,0.2,2.4,0.7C415.5,358.3,416.3,359.8,416.3,361.3z"/>
	<path class="st1" d="M415.4,174.2c0.5,0.7,0.7,1.6,0.7,2.4c0,1.5-0.7,3-2.1,3.8c-0.7,0.5-1.6,0.7-2.4,0.7c-1.5,0-3-0.8-3.8-2.1
		c-1.3-2.1-0.7-4.9,1.4-6.2c0.7-0.5,1.6-0.7,2.4-0.7C413,172.1,414.5,172.9,415.4,174.2z"/>
	<path class="st0" d="M407.8,373.6c0,1-0.3,1.9-0.9,2.7c-0.9,1.2-2.2,1.8-3.6,1.8c-0.9,0-1.9-0.3-2.7-0.9c-2-1.5-2.4-4.3-0.8-6.3
		c0.9-1.2,2.2-1.8,3.6-1.8c1,0,1.9,0.3,2.7,0.9C407.2,370.9,407.8,372.2,407.8,373.6z"/>
	<path d="M406.6,161.6c0.6,0.8,0.9,1.8,0.9,2.7c0,1.4-0.6,2.7-1.8,3.6c-0.8,0.6-1.8,0.9-2.7,0.9c-1.4,0-2.7-0.6-3.6-1.8
		c-1.5-2-1.1-4.8,0.8-6.3c0.8-0.6,1.8-0.9,2.7-0.9C404.4,159.9,405.7,160.5,406.6,161.6z"/>
	<path class="st0" d="M398.2,385c0,1.1-0.4,2.2-1.2,3.1c-0.9,1-2.1,1.4-3.3,1.4c-1.1,0-2.2-0.4-3.1-1.2c-1.8-1.7-1.9-4.5-0.2-6.4
		c0.9-1,2.1-1.4,3.3-1.4c1.1,0,2.2,0.4,3.1,1.2C397.7,382.6,398.2,383.8,398.2,385z"/>
	<path d="M396.7,149.9c0.8,0.9,1.2,2,1.2,3.1c0,1.2-0.5,2.4-1.4,3.3c-0.9,0.8-2,1.2-3.1,1.2c-1.2,0-2.4-0.5-3.3-1.4
		c-1.7-1.8-1.6-4.7,0.2-6.4c0.9-0.8,2-1.2,3.1-1.2C394.6,148.5,395.8,148.9,396.7,149.9z"/>
	<path class="st1" d="M386.4,392.4c0.8,0.9,1.1,1.9,1.1,3c0,1.2-0.5,2.5-1.5,3.4c-0.9,0.8-1.9,1.1-3,1.1c-1.2,0-2.5-0.5-3.4-1.5
		c-1.6-1.9-1.5-4.7,0.4-6.4c0.9-0.8,1.9-1.1,3-1.1C384.2,390.9,385.5,391.4,386.4,392.4z"/>
	<path class="st0" d="M387.2,142.5c0,1.1-0.4,2.1-1.1,3c-0.9,1-2.1,1.5-3.4,1.5c-1.1,0-2.1-0.4-3-1.1c-1.9-1.7-2-4.5-0.4-6.4
		c0.9-1,2.1-1.5,3.4-1.5c1.1,0,2.1,0.4,3,1.1C386.7,140.1,387.2,141.3,387.2,142.5z"/>
	<path d="M375,402.2c0.6,0.8,0.9,1.7,0.9,2.6c0,1.4-0.6,2.8-1.8,3.6c-0.8,0.6-1.7,0.9-2.7,0.9c-1.4,0-2.8-0.6-3.6-1.8
		c-1.5-2-1-4.8,1-6.3c0.8-0.6,1.7-0.9,2.7-0.9C372.8,400.3,374.1,401,375,402.2z"/>
	<path class="st0" d="M375.5,133.2c0,0.9-0.3,1.8-0.9,2.6c-0.9,1.2-2.2,1.9-3.6,1.9c-0.9,0-1.8-0.3-2.6-0.9c-2-1.5-2.4-4.3-1-6.3
		c0.9-1.2,2.3-1.8,3.6-1.8c0.9,0,1.8,0.3,2.6,0.9C374.9,130.4,375.5,131.8,375.5,133.2z"/>
	<path d="M362.8,410.8c0.4,0.7,0.6,1.5,0.6,2.3c0,1.5-0.8,3-2.2,3.9c-0.7,0.4-1.5,0.6-2.3,0.6c-1.5,0-3-0.8-3.9-2.2
		c-1.3-2.1-0.6-4.9,1.6-6.2c0.7-0.4,1.5-0.6,2.3-0.6C360.5,408.6,362,409.4,362.8,410.8z"/>
	<path class="st0" d="M363.1,125c0,0.8-0.2,1.6-0.6,2.3c-0.9,1.4-2.3,2.2-3.9,2.2c-0.8,0-1.6-0.2-2.3-0.6c-2.1-1.3-2.8-4-1.6-6.2
		c0.8-1.4,2.3-2.2,3.9-2.2c0.8,0,1.6,0.2,2.3,0.6C362.3,121.9,363.1,123.4,363.1,125z"/>
	<path class="st0" d="M349.8,418.2c0.3,0.6,0.5,1.3,0.5,1.9c0,1.7-1,3.3-2.6,4.1c-0.6,0.3-1.3,0.4-1.9,0.4c-0.8,0-1.7-0.2-2.4-0.7
		c-0.7-0.4-1.3-1.1-1.7-1.9c-1.1-2.2-0.1-4.9,2.1-6c0.6-0.3,1.3-0.4,1.9-0.4C347.4,415.6,349.1,416.6,349.8,418.2z"/>
	<path class="st2" d="M349.9,117.9c0,0.7-0.1,1.3-0.4,1.9c-0.4,0.8-1,1.4-1.7,1.9c-0.7,0.4-1.5,0.7-2.4,0.7c-0.7,0-1.3-0.1-1.9-0.4
		c-2.2-1.1-3.2-3.8-2.1-6c0.8-1.6,2.4-2.6,4.1-2.6c0.6,0,1.3,0.1,1.9,0.4C348.9,114.6,349.9,116.3,349.9,117.9z"/>
	<path class="st2" d="M336.2,424.4c0.2,0.5,0.3,1.1,0.3,1.6c0,1.8-1.1,3.5-2.9,4.2c-0.5,0.2-1,0.3-1.6,0.3c-0.9,0-1.8-0.3-2.5-0.8
		s-1.3-1.2-1.7-2.1c-0.9-2.3,0.3-4.9,2.6-5.8c0.5-0.2,1.1-0.3,1.6-0.3C333.9,421.5,335.6,422.6,336.2,424.4z"/>
	<path class="st2" d="M336.1,112.1c0,0.5-0.1,1-0.3,1.6c-0.3,0.9-0.9,1.6-1.7,2.1c-0.8,0.5-1.6,0.8-2.5,0.8c-0.5,0-1.1-0.1-1.6-0.3
		c-2.3-0.9-3.5-3.5-2.6-5.8c0.7-1.8,2.4-2.9,4.2-2.9c0.5,0,1,0.1,1.6,0.3C335,108.6,336.1,110.3,336.1,112.1z"/>
	<path d="M322.2,429.4c0.1,0.4,0.2,0.8,0.2,1.2c0,2-1.3,3.8-3.3,4.3c-0.4,0.1-0.8,0.2-1.2,0.2c-1,0-1.9-0.3-2.7-0.9
		c-0.8-0.6-1.4-1.4-1.6-2.4c-0.7-2.4,0.7-4.9,3.1-5.6c0.4-0.1,0.8-0.2,1.2-0.2C319.8,426.1,321.6,427.4,322.2,429.4z"/>
	<path class="st2" d="M321.9,107.5c0,0.4-0.1,0.8-0.2,1.2c-0.3,1-0.9,1.8-1.6,2.4c-0.8,0.6-1.7,0.9-2.7,0.9c-0.4,0-0.8,0-1.2-0.2
		c-2.4-0.7-3.8-3.2-3.1-5.6c0.6-2,2.4-3.3,4.3-3.3c0.4,0,0.8,0.1,1.2,0.2C320.6,103.7,321.9,105.5,321.9,107.5z"/>
	<path d="M307.7,433.2c0.1,0.3,0.1,0.6,0.1,0.9c0,2.1-1.5,4-3.6,4.4c-0.3,0.1-0.6,0.1-0.9,0.1c-1.1,0-2.1-0.4-2.8-1
		c-0.8-0.6-1.4-1.5-1.6-2.6c-0.5-2.4,1.1-4.8,3.5-5.3l0,0C304.9,429.2,307.2,430.8,307.7,433.2z"/>
	<path class="st0" d="M307.4,104c0,0.3,0,0.6-0.1,0.9c-0.2,1.1-0.8,2-1.6,2.6c-0.8,0.6-1.8,1-2.8,1c-0.3,0-0.6,0-0.9-0.1
		c-2.4-0.5-4-2.8-3.6-5.3c0.4-2.1,2.3-3.6,4.4-3.6c0.3,0,0.6,0,0.9,0.1C305.9,100,307.4,101.9,307.4,104z"/>
	<path d="M293,436c0,0.2,0,0.4,0,0.6c0,2.2-1.7,4.2-3.9,4.5l0,0c-0.2,0-0.4,0-0.6,0c-1.1,0-2.2-0.4-3-1.1s-1.4-1.7-1.5-2.8
		c-0.3-2.5,1.4-4.7,3.9-5c0.2,0,0.4,0,0.6,0C290.8,432,292.7,433.7,293,436z"/>
	<path class="st1" d="M292.6,101.7c0,0.2,0,0.4,0,0.6c-0.1,1.1-0.7,2.1-1.5,2.8c-0.8,0.7-1.9,1.1-3,1.1c-0.2,0-0.4,0-0.5,0
		c-2.5-0.3-4.2-2.6-3.9-5c0.3-2.3,2.2-4,4.5-4c0.2,0,0.4,0,0.6,0C291,97.5,292.6,99.4,292.6,101.7z"/>
	<path d="M278.2,437.6c0,0.1,0,0.2,0,0.3c0,2.4-1.8,4.3-4.2,4.5c-0.1,0-0.2,0-0.3,0c-1.2,0-2.3-0.5-3.1-1.2c-0.8-0.8-1.3-1.8-1.4-3
		c-0.1-2.5,1.8-4.6,4.2-4.8c0.1,0,0.2,0,0.3,0C276.1,433.4,278,435.2,278.2,437.6z"/>
	<path d="M277.8,100.3c0,0.1,0,0.2,0,0.3c-0.1,1.2-0.6,2.3-1.4,3c-0.8,0.8-1.9,1.2-3.1,1.2c-0.1,0-0.2,0-0.2,0
		c-2.5-0.1-4.4-2.3-4.2-4.7c0.1-2.4,2.1-4.3,4.5-4.3c0.1,0,0.2,0,0.3,0C275.9,96,277.8,98,277.8,100.3z"/>
	<path class="st1" d="M263.3,437.7c0,0.1,0,0.2,0,0.3c-0.1,1.2-0.6,2.2-1.4,3s-1.9,1.2-3.1,1.2c-0.1,0-0.2,0-0.3,0
		c-2.5-0.1-4.4-2.3-4.2-4.8c0.1-2.4,2.1-4.2,4.5-4.2c0.1,0,0.2,0,0.3,0C261.4,433.4,263.3,435.4,263.3,437.7z"/>
	<path d="M262.8,100.3c0,0.1,0,0.2,0,0.3c0,2.4-1.8,4.3-4.2,4.5c-0.1,0-0.2,0-0.3,0c-1.2,0-2.3-0.5-3.1-1.2c-0.8-0.8-1.3-1.8-1.4-3
		c-0.2-2.5,1.7-4.6,4.2-4.8c0.1,0,0.2,0,0.3,0C260.7,96.1,262.7,97.9,262.8,100.3z"/>
	<path class="st0" d="M248.4,436.1c0,0.2,0,0.5-0.1,0.7c-0.2,1.1-0.7,2.1-1.5,2.8c-0.8,0.7-1.8,1.1-2.9,1.1c-0.2,0-0.5,0-0.7-0.1
		c-2.4-0.4-4.1-2.7-3.8-5.1c0.3-2.2,2.3-3.8,4.4-3.8c0.2,0,0.4,0,0.7,0C246.8,432,248.4,433.9,248.4,436.1z"/>
	<path d="M247.9,101.5c0,0.2,0.1,0.5,0.1,0.7c0,2.2-1.6,4.1-3.8,4.4c-0.2,0-0.5,0.1-0.7,0.1c-1.1,0-2.1-0.4-2.9-1.1
		c-0.8-0.7-1.4-1.6-1.5-2.7c-0.4-2.5,1.3-4.8,3.8-5.1c0.2,0,0.5-0.1,0.7-0.1C245.7,97.7,247.6,99.3,247.9,101.5z"/>
	<path d="M233.8,433.2c0,0.4,0,0.7-0.1,1.1c-0.2,1-0.8,1.9-1.6,2.5s-1.7,0.9-2.8,0.9c-0.4,0-0.7,0-1.1-0.1c-2.4-0.6-3.9-3-3.3-5.4
		c0.5-2,2.3-3.4,4.4-3.4c0.3,0,0.7,0,1.1,0.1C232.4,429.3,233.8,431.2,233.8,433.2z"/>
	<path class="st0" d="M233.2,104.1c0.1,0.4,0.1,0.7,0.1,1.1c0,2-1.4,3.8-3.4,4.4c-0.4,0.1-0.7,0.1-1.1,0.1c-1,0-2-0.3-2.8-0.9
		s-1.4-1.5-1.6-2.5c-0.6-2.4,0.9-4.8,3.3-5.4c0.4-0.1,0.7-0.1,1.1-0.1C230.9,100.7,232.7,102,233.2,104.1z"/>
	<path d="M219.4,429c0,0.5-0.1,1-0.2,1.5c-0.3,0.9-0.9,1.7-1.7,2.2s-1.7,0.8-2.6,0.8c-0.5,0-1-0.1-1.5-0.2l0,0c-1.9-0.6-3-2.4-3-4.3
		c0-0.5,0.1-1,0.2-1.5c0.6-1.9,2.4-3,4.3-3c0.5,0,1,0.1,1.4,0.2C218.2,425.4,219.4,427.1,219.4,429z"/>
	<path d="M218.8,107.9c0.2,0.5,0.2,1,0.2,1.5c0,1.9-1.2,3.6-3,4.3c-0.5,0.2-1,0.2-1.5,0.2c-0.9,0-1.8-0.3-2.6-0.8s-1.4-1.3-1.7-2.2
		c-0.8-2.3,0.4-4.9,2.8-5.7c0.5-0.2,1-0.2,1.5-0.2C216.4,104.9,218.1,106.1,218.8,107.9z"/>
	<path d="M205.5,423.5c0,0.6-0.1,1.2-0.4,1.8c-0.4,0.8-1,1.5-1.7,2s-1.6,0.7-2.4,0.7c-0.6,0-1.2-0.1-1.8-0.4c-2.3-1-3.3-3.7-2.3-5.9
		c0.8-1.7,2.4-2.7,4.1-2.7c0.6,0,1.2,0.1,1.8,0.4C204.5,420.2,205.5,421.8,205.5,423.5z"/>
	<path class="st0" d="M204.7,113c0.3,0.6,0.4,1.2,0.4,1.8c0,1.7-1,3.4-2.7,4.1c-0.6,0.3-1.2,0.4-1.8,0.4c-0.9,0-1.7-0.2-2.4-0.7
		s-1.3-1.1-1.7-2c-1-2.3,0-4.9,2.3-6c0.6-0.3,1.2-0.4,1.8-0.4C202.3,110.4,204,111.4,204.7,113z"/>
	<path d="M192.1,416.9c0,0.7-0.2,1.5-0.6,2.2c-0.8,1.5-2.4,2.3-3.9,2.3c-0.7,0-1.5-0.2-2.2-0.6c-2.2-1.2-3-4-1.8-6.1
		c0.8-1.5,2.4-2.3,3.9-2.3c0.7,0,1.5,0.2,2.2,0.6C191.3,413.7,192.1,415.3,192.1,416.9z"/>
	<path class="st0" d="M191.2,119.4c0.4,0.7,0.6,1.4,0.6,2.2c0,1.6-0.8,3.1-2.3,3.9c-0.7,0.4-1.4,0.6-2.2,0.6c-1.6,0-3.1-0.8-3.9-2.3
		c-1.2-2.2-0.4-4.9,1.7-6.1c0.7-0.4,1.5-0.6,2.2-0.6C188.8,117.1,190.4,117.9,191.2,119.4z"/>
	<path d="M177.4,405.3c2.1,1.4,2.6,4.2,1.2,6.2c-0.9,1.3-2.3,2-3.7,2c-0.9,0-1.7-0.2-2.5-0.8c-2.1-1.4-2.6-4.2-1.2-6.2
		c0.9-1.3,2.3-2,3.7-2C175.8,404.5,176.7,404.8,177.4,405.3L177.4,405.3z"/>
	<path class="st2" d="M178.3,126.9c0.5,0.8,0.8,1.7,0.8,2.5c0,1.4-0.7,2.8-2,3.7c-0.8,0.5-1.7,0.8-2.5,0.8c-1.4,0-2.8-0.7-3.7-2
		c-1.4-2.1-0.9-4.9,1.2-6.2c0.8-0.5,1.7-0.8,2.5-0.8C176,125,177.4,125.6,178.3,126.9z"/>
	<path d="M167.4,400.1c0,1-0.3,2-1,2.8c-0.9,1.1-2.2,1.7-3.5,1.7c-1,0-2-0.3-2.8-1c-1.9-1.6-2.2-4.4-0.6-6.3
		c0.9-1.1,2.2-1.7,3.5-1.7c1,0,2,0.3,2.8,1C166.9,397.5,167.4,398.8,167.4,400.1z"/>
	<path class="st1" d="M166.1,135.6c0.7,0.8,1,1.9,1,2.9c0,1.3-0.6,2.6-1.6,3.5c-0.8,0.7-1.8,1-2.8,1c-1.3,0-2.6-0.6-3.5-1.7
		c-1.6-1.9-1.3-4.8,0.6-6.3c0.8-0.7,1.8-1,2.8-1C163.9,133.9,165.2,134.5,166.1,135.6z"/>
	<path d="M156.3,390.1c0,1.1-0.4,2.3-1.3,3.1c-0.9,0.9-2.1,1.4-3.2,1.4c-1.1,0-2.3-0.4-3.1-1.3c-1.8-1.7-1.8-4.6-0.1-6.4
		c0.9-0.9,2.1-1.4,3.2-1.4c1.1,0,2.3,0.4,3.1,1.3C155.8,387.8,156.3,389,156.3,390.1z"/>
	<path d="M154.7,145.2c0.9,0.9,1.3,2,1.3,3.1c0,1.2-0.5,2.3-1.4,3.2s-2,1.3-3.1,1.3c-1.2,0-2.3-0.4-3.2-1.4
		c-1.7-1.8-1.7-4.6,0.1-6.4c0.9-0.9,2-1.3,3.1-1.3C152.6,143.9,153.8,144.3,154.7,145.2z"/>
	<path class="st2" d="M144.9,376.3c0.7,0.9,1.1,1.9,1.1,2.9c0,1.3-0.5,2.5-1.6,3.4c-0.8,0.7-1.9,1.1-2.9,1.1c-1.3,0-2.5-0.5-3.4-1.6
		c-1.6-1.9-1.4-4.7,0.5-6.4c0.9-0.7,1.9-1.1,2.9-1.1C142.8,374.8,144.1,375.3,144.9,376.3z"/>
	<path d="M145.8,159.3c0,1-0.3,2.1-1.1,2.9c-0.9,1-2.1,1.6-3.4,1.6c-1,0-2.1-0.4-2.9-1.1c-1.9-1.6-2.1-4.5-0.5-6.4
		c0.9-1,2.2-1.6,3.4-1.6c1,0,2.1,0.4,2.9,1.1C145.2,156.8,145.8,158,145.8,159.3z"/>
	<path class="st1" d="M135.9,364.9c0.6,0.8,0.8,1.7,0.8,2.6c0,1.4-0.7,2.8-1.9,3.7c-0.8,0.6-1.7,0.8-2.6,0.8c-1.4,0-2.8-0.6-3.7-1.9
		c-1.5-2-1-4.8,1-6.3c0.8-0.6,1.7-0.8,2.6-0.8C133.7,363,135.1,363.7,135.9,364.9z"/>
	<path class="st2" d="M136.6,171.1c0,0.9-0.3,1.8-0.8,2.6c-0.9,1.2-2.3,1.9-3.7,1.9c-0.9,0-1.8-0.3-2.6-0.8c-2-1.4-2.5-4.3-1.1-6.3
		c0.9-1.2,2.3-1.9,3.7-1.9c0.9,0,1.8,0.3,2.6,0.8C135.9,168.3,136.6,169.7,136.6,171.1z"/>
	<path class="st0" d="M128,352.7c0.4,0.7,0.6,1.5,0.6,2.3c0,1.5-0.8,3-2.2,3.9c-0.7,0.4-1.5,0.6-2.3,0.6c-1.5,0-3-0.8-3.9-2.2
		c-1.3-2.1-0.6-4.9,1.6-6.2c0.7-0.4,1.5-0.6,2.3-0.6C125.7,350.5,127.2,351.3,128,352.7z"/>
	<path class="st2" d="M128.4,183.6c0,0.8-0.2,1.6-0.6,2.3c-0.8,1.4-2.3,2.2-3.9,2.2c-0.8,0-1.6-0.2-2.3-0.6c-2.1-1.3-2.9-4-1.6-6.2
		l0,0c0.8-1.4,2.3-2.2,3.9-2.2c0.8,0,1.6,0.2,2.3,0.6C127.6,180.6,128.4,182.1,128.4,183.6z"/>
	<path class="st0" d="M121.2,339.9c0.3,0.6,0.4,1.3,0.4,1.9c0,1.7-0.9,3.3-2.6,4.1c-0.6,0.3-1.3,0.4-1.9,0.4c-0.8,0-1.7-0.2-2.4-0.7
		c-0.7-0.4-1.3-1.1-1.7-1.9c-1.1-2.2-0.1-4.9,2.1-6c0.6-0.3,1.3-0.4,1.9-0.4C118.8,337.3,120.4,338.3,121.2,339.9z"/>
	<path class="st0" d="M121.4,196.8c0,0.6-0.1,1.3-0.4,1.9c-0.4,0.8-1,1.5-1.7,1.9s-1.5,0.7-2.4,0.7c-0.7,0-1.3-0.1-1.9-0.4
		c-2.2-1.1-3.2-3.8-2.1-6c0.8-1.6,2.4-2.6,4.1-2.6c0.6,0,1.3,0.1,1.9,0.4C120.5,193.5,121.4,195.1,121.4,196.8z"/>
	<path class="st2" d="M115.5,326.5c0.2,0.5,0.3,1,0.3,1.6c0,1.8-1.1,3.6-2.9,4.2c-0.5,0.2-1,0.3-1.6,0.3c-0.9,0-1.8-0.3-2.5-0.8
		s-1.3-1.2-1.7-2.1l0,0c-0.2-0.5-0.3-1.1-0.3-1.6c0-1.8,1.1-3.5,2.9-4.2c0.5-0.2,1.1-0.3,1.6-0.3
		C113.1,323.6,114.8,324.7,115.5,326.5z"/>
	<path class="st0" d="M115.6,210.6c0,0.5-0.1,1-0.3,1.6l0,0c-0.7,1.8-2.4,2.9-4.2,2.9c-0.5,0-1-0.1-1.6-0.3
		c-2.3-0.9-3.5-3.4-2.7-5.8c0.7-1.8,2.4-2.9,4.2-2.9c0.5,0,1,0.1,1.6,0.3C114.5,207,115.6,208.8,115.6,210.6z"/>
	<path d="M111,312.7c0.1,0.4,0.2,0.8,0.2,1.2c0,2-1.3,3.8-3.3,4.4c-0.4,0.1-0.8,0.2-1.2,0.2c-1,0-1.9-0.3-2.7-0.9
		c-0.8-0.6-1.4-1.4-1.6-2.4c-0.7-2.4,0.8-4.9,3.2-5.5c0.4-0.1,0.8-0.2,1.2-0.2C108.7,309.4,110.5,310.7,111,312.7z"/>
	<path class="st2" d="M111.1,224.8c0,0.4-0.1,0.8-0.2,1.2c-0.3,1-0.9,1.8-1.6,2.4c-0.8,0.6-1.7,0.9-2.7,0.9c-0.4,0-0.8-0.1-1.2-0.2
		c-2.4-0.7-3.8-3.1-3.2-5.5c0.5-2,2.4-3.3,4.3-3.3c0.4,0,0.8,0.1,1.2,0.2C109.8,221,111.1,222.8,111.1,224.8z"/>
	<path d="M107.8,298.5c0.1,0.3,0.1,0.5,0.1,0.8c0,2.1-1.5,4-3.7,4.4c-0.3,0-0.5,0.1-0.8,0.1c-1.1,0-2.1-0.4-2.9-1
		c-0.8-0.7-1.3-1.6-1.6-2.7c-0.4-2.4,1.2-4.8,3.6-5.2c0.3,0,0.5-0.1,0.8-0.1C105.5,294.8,107.4,296.3,107.8,298.5z"/>
	<path d="M107.8,239.4c0,0.3,0,0.5-0.1,0.8c-0.2,1.1-0.8,2-1.5,2.7c-0.8,0.7-1.8,1-2.9,1c-0.3,0-0.5,0-0.8-0.1
		c-2.4-0.4-4.1-2.8-3.6-5.2c0.4-2.2,2.3-3.7,4.4-3.7c0.3,0,0.5,0,0.8,0.1C106.3,235.3,107.8,237.2,107.8,239.4z"/>
	<path class="st1" d="M105.9,284.1c0,0.1,0,0.3,0,0.4c0,2.3-1.8,4.2-4.1,4.5c-0.1,0-0.3,0-0.4,0c-1.1,0-2.2-0.4-3-1.2
		c-0.8-0.7-1.3-1.8-1.4-2.9c-0.2-2.5,1.6-4.7,4.1-4.9c0.1,0,0.3,0,0.4,0C103.7,280,105.7,281.7,105.9,284.1z"/>
	<path d="M105.9,254.2c0,0.1,0,0.3,0,0.4c-0.1,1.2-0.6,2.2-1.4,2.9s-1.9,1.2-3,1.2c-0.1,0-0.3,0-0.4,0c-2.5-0.2-4.3-2.4-4.1-4.9
		c0.2-2.3,2.2-4.1,4.5-4.1c0.1,0,0.3,0,0.4,0C104.1,249.9,105.9,251.9,105.9,254.2z"/>
	<path d="M105.2,269.6c0,2.5-2,4.5-4.5,4.5l0,0c-1.2,0-2.4-0.5-3.2-1.3c-0.8-0.8-1.3-1.9-1.3-3.2c0-0.1,0-0.1,0-0.2s0-0.1,0-0.2
		c0-1.2,0.5-2.4,1.3-3.2c0.8-0.8,1.9-1.3,3.2-1.3c1.2,0,2.4,0.5,3.2,1.3c0.8,0.8,1.3,1.9,1.3,3.2c0,0.1,0,0.1,0,0.2
		C105.2,269.4,105.2,269.5,105.2,269.6C105.2,269.5,105.2,269.5,105.2,269.6z"/>
</g>
</svg>
