<?xml version="1.0" encoding="utf-8"?>
<!-- Generator: Adobe Illustrator 26.0.1, SVG Export Plug-In . SVG Version: 6.00 Build 0)  -->
<svg version="1.1" id="Layer_1" xmlns="http://www.w3.org/2000/svg" xmlns:xlink="http://www.w3.org/1999/xlink" x="0px" y="0px"
	 viewBox="0 0 538.1 538.1" style="enable-background:new 0 0 538.1 538.1;" xml:space="preserve">
<style type="text/css">
	.st0{fill:#C5C5C5;}
	.st1{fill:#857AAE;}
	.st2{fill:#37236B;}
</style>
<g id="Ring03">
	<path d="M429.7,283.9c0,0.1,0,0.3,0,0.4c-0.1,1.2-0.6,2.2-1.5,2.9c-0.8,0.7-1.9,1.2-3,1.2c-0.1,0-0.3,0-0.4,0
		c-2.5-0.2-4.3-2.4-4.1-4.9c0.2-2.3,2.2-4.1,4.5-4.1c0.1,0,0.3,0,0.4,0C427.9,279.6,429.7,281.6,429.7,283.9z"/>
	<path d="M429.6,253.6c0,0.1,0,0.3,0,0.4c0,2.3-1.8,4.3-4.1,4.5c-0.1,0-0.3,0-0.4,0c-1.1,0-2.2-0.4-3-1.2c-0.8-0.7-1.4-1.8-1.5-2.9
		c-0.2-2.5,1.6-4.7,4.1-4.9c0.1,0,0.3,0,0.4,0C427.5,249.5,429.4,251.3,429.6,253.6z"/>
	<path d="M430.3,268.9c0,1.2-0.5,2.4-1.3,3.2c-0.8,0.8-1.9,1.3-3.2,1.3c-1.2,0-2.4-0.5-3.2-1.3c-0.8-0.8-1.3-1.9-1.3-3.2
		c0-2.5,2-4.5,4.5-4.5c1.2,0,2.4,0.5,3.2,1.3C429.8,266.6,430.3,267.7,430.3,268.9z"/>
	<path d="M427.7,298.7c0,0.3,0,0.5-0.1,0.8c-0.2,1.1-0.8,2-1.6,2.7c-0.8,0.7-1.8,1-2.9,1c-0.3,0-0.5,0-0.8-0.1
		c-2.5-0.4-4.1-2.8-3.6-5.2c0.4-2.2,2.3-3.7,4.4-3.7c0.3,0,0.5,0,0.8,0.1C426.2,294.6,427.7,296.5,427.7,298.7z"/>
	<path d="M427.6,238.4c0.1,0.3,0.1,0.5,0.1,0.8c0,2.1-1.5,4-3.7,4.4c-0.3,0.1-0.5,0.1-0.8,0.1c-1.1,0-2.1-0.4-2.9-1
		c-0.8-0.7-1.4-1.6-1.6-2.7l0,0c-0.4-2.4,1.2-4.8,3.6-5.2c0.3-0.1,0.5-0.1,0.8-0.1C425.3,234.7,427.2,236.2,427.6,238.4z"/>
	<path d="M424.4,313.3c0,0.4,0,0.8-0.2,1.2c-0.3,1-0.9,1.8-1.6,2.4c-0.8,0.6-1.7,0.9-2.7,0.9c-0.4,0-0.8,0-1.2-0.2
		c-2.4-0.7-3.8-3.1-3.1-5.5c0.5-2,2.4-3.3,4.3-3.3c0.4,0,0.8,0,1.2,0.2C423.1,309.5,424.4,311.3,424.4,313.3z"/>
	<path d="M424.1,223.4c0.1,0.4,0.2,0.8,0.2,1.2c0,2-1.3,3.8-3.3,4.3c-0.4,0.1-0.8,0.2-1.2,0.2c-1,0-1.9-0.3-2.7-0.9
		c-0.8-0.6-1.4-1.4-1.6-2.4c-0.7-2.4,0.7-4.9,3.1-5.5c0.4-0.1,0.8-0.2,1.2-0.2C421.8,220.1,423.6,221.4,424.1,223.4z"/>
	<path d="M419.8,327.5c0,0.5-0.1,1.1-0.3,1.6c-0.3,0.9-0.9,1.6-1.7,2.1c-0.7,0.5-1.6,0.8-2.5,0.8c-0.5,0-1.1-0.1-1.6-0.3
		c-2.3-0.9-3.5-3.5-2.6-5.8c0.7-1.8,2.4-2.9,4.2-2.9c0.5,0,1.1,0.1,1.6,0.3C418.7,323.9,419.8,325.7,419.8,327.5z"/>
	<path d="M419.4,208.8c0.2,0.5,0.3,1.1,0.3,1.6c0,1.8-1.1,3.5-2.9,4.2c-0.5,0.2-1.1,0.3-1.6,0.3c-0.9,0-1.8-0.3-2.5-0.8
		s-1.3-1.2-1.7-2.1c-0.9-2.3,0.3-4.9,2.6-5.8c0.5-0.2,1.1-0.3,1.6-0.3C417,205.9,418.7,207,419.4,208.8z"/>
	<path class="st0" d="M413.9,341.2c0,0.7-0.1,1.3-0.5,2c-0.4,0.8-1,1.4-1.7,1.9c-0.7,0.4-1.5,0.7-2.3,0.7c-0.7,0-1.3-0.1-2-0.5
		c-2.2-1.1-3.1-3.8-2-6c0.8-1.6,2.4-2.5,4-2.5c0.7,0,1.3,0.1,2,0.5C412.9,337.9,413.9,339.5,413.9,341.2z"/>
	<path d="M413.2,194.7c0.3,0.6,0.5,1.3,0.5,2c0,1.7-0.9,3.3-2.5,4c-0.6,0.3-1.3,0.5-2,0.5c-0.8,0-1.6-0.2-2.4-0.7
		c-0.7-0.4-1.3-1.1-1.7-1.8c-1.1-2.2-0.2-4.9,2-6c0.6-0.3,1.3-0.5,2-0.5C410.8,192.2,412.4,193.2,413.2,194.7z"/>
	<path d="M406.6,354.3c0,0.8-0.2,1.6-0.7,2.4c-0.9,1.4-2.3,2.1-3.8,2.1c-0.8,0-1.6-0.2-2.4-0.7c-2.1-1.3-2.8-4.1-1.5-6.2
		c0.9-1.4,2.3-2.1,3.8-2.1c0.8,0,1.6,0.2,2.4,0.7C405.9,351.3,406.6,352.8,406.6,354.3z"/>
	<path d="M405.7,181.3c0.5,0.7,0.7,1.6,0.7,2.4c0,1.5-0.8,3-2.1,3.8c-0.8,0.5-1.6,0.7-2.4,0.7c-1.5,0-3-0.8-3.8-2.1
		c-1.3-2.1-0.7-4.9,1.4-6.2c0.7-0.5,1.6-0.7,2.4-0.7C403.4,179.2,404.9,179.9,405.7,181.3z"/>
	<path d="M398.1,366.5c0,1-0.3,1.9-0.9,2.7c-0.9,1.1-2.2,1.8-3.6,1.8c-1,0-1.9-0.3-2.7-0.9c-2-1.5-2.3-4.3-0.8-6.3
		c0.9-1.1,2.2-1.8,3.6-1.8c1,0,1.9,0.3,2.7,0.9C397.5,363.9,398.1,365.2,398.1,366.5z"/>
	<path class="st1" d="M396.9,168.7c0.6,0.8,0.9,1.8,0.9,2.8c0,1.3-0.6,2.7-1.8,3.6c-0.8,0.6-1.8,0.9-2.8,0.9c-1.4,0-2.7-0.6-3.6-1.8
		c-1.5-2-1.2-4.8,0.8-6.3c0.8-0.6,1.8-0.9,2.8-0.9C394.7,166.9,396,167.5,396.9,168.7z"/>
	<path d="M388.4,377.9c0,1.1-0.4,2.2-1.2,3.1c-0.9,0.9-2.1,1.4-3.3,1.4c-1.1,0-2.2-0.4-3.1-1.2c-1.8-1.7-1.9-4.6-0.2-6.4
		s4.6-1.9,6.4-0.2C387.9,375.5,388.4,376.7,388.4,377.9z"/>
	<path class="st2" d="M386.9,157c0.8,0.9,1.2,2,1.2,3.1c0,1.2-0.5,2.4-1.4,3.3c-0.9,0.8-2,1.2-3.1,1.2c-1.2,0-2.4-0.5-3.3-1.4
		c-1.7-1.8-1.6-4.6,0.2-6.4c0.9-0.8,2-1.2,3.1-1.2C384.8,155.6,386,156.1,386.9,157z"/>
	<path d="M376.5,385.3c0.7,0.8,1.1,1.9,1.1,2.9c0,1.3-0.5,2.5-1.6,3.4c-0.8,0.7-1.9,1.1-2.9,1.1l0,0c-1.3,0-2.5-0.5-3.4-1.6
		c-1.6-1.9-1.4-4.7,0.5-6.4c0.9-0.7,1.9-1.1,2.9-1.1C374.4,383.7,375.6,384.2,376.5,385.3z"/>
	<path class="st2" d="M377.3,149.8c0,1-0.4,2.1-1.1,2.9c-0.9,1-2.1,1.6-3.4,1.6c-1,0-2.1-0.4-2.9-1.1c-1.9-1.6-2.1-4.4-0.5-6.3
		c0.9-1,2.1-1.6,3.4-1.6c1,0,2.1,0.4,2.9,1.1C376.8,147.3,377.3,148.5,377.3,149.8z"/>
	<path d="M365,394.8c0.5,0.8,0.8,1.7,0.8,2.6c0,1.4-0.7,2.8-1.9,3.7c-0.8,0.5-1.7,0.8-2.6,0.8c-1.4,0-2.8-0.7-3.7-1.9
		c-1.4-2-0.9-4.9,1.1-6.3c0.8-0.5,1.7-0.8,2.6-0.8C362.7,392.9,364.1,393.5,365,394.8z"/>
	<path class="st0" d="M365.5,140.7c0,0.9-0.3,1.8-0.8,2.6c-0.9,1.3-2.3,1.9-3.7,1.9c-0.9,0-1.8-0.3-2.6-0.8c-2-1.4-2.5-4.2-1.1-6.3
		c0.9-1.3,2.3-1.9,3.7-1.9c0.9,0,1.8,0.3,2.6,0.8C364.8,137.9,365.5,139.3,365.5,140.7z"/>
	<path d="M352.6,403.1c0.4,0.7,0.6,1.4,0.6,2.2c0,1.6-0.8,3.1-2.3,3.9c-0.7,0.4-1.4,0.6-2.2,0.6c-1.6,0-3.1-0.8-3.9-2.3
		c-1.2-2.2-0.4-4.9,1.8-6.1c0.7-0.4,1.4-0.6,2.2-0.6C350.2,400.8,351.7,401.6,352.6,403.1z"/>
	<path d="M352.8,132.8c0,0.7-0.2,1.5-0.6,2.2c-0.8,1.5-2.4,2.3-3.9,2.3c-0.7,0-1.5-0.2-2.2-0.6c-2.2-1.2-3-3.9-1.8-6.1
		c0.8-1.5,2.4-2.3,3.9-2.3c0.7,0,1.5,0.2,2.2,0.6C351.9,129.7,352.8,131.2,352.8,132.8z"/>
	<path d="M339.4,410.1c0.2,0.6,0.4,1.2,0.4,1.8c0,1.7-1,3.4-2.7,4.1c-0.6,0.3-1.2,0.4-1.8,0.4c-0.9,0-1.7-0.2-2.4-0.7
		c-0.7-0.5-1.3-1.1-1.7-2c-1-2.3,0.1-4.9,2.3-5.9c0.6-0.2,1.2-0.4,1.8-0.4C337,407.4,338.6,408.4,339.4,410.1z"/>
	<path d="M339.4,126.2c0,0.6-0.1,1.2-0.4,1.8c-0.4,0.9-1,1.5-1.7,2s-1.6,0.7-2.4,0.7c-0.6,0-1.2-0.1-1.8-0.4c-2.3-1-3.3-3.6-2.4-5.9
		c0.7-1.7,2.4-2.7,4.1-2.7c0.6,0,1.2,0.1,1.8,0.4C338.4,122.8,339.4,124.5,339.4,126.2z"/>
	<path d="M325.5,415.8c0.1,0.5,0.2,0.9,0.2,1.4c0,1.9-1.2,3.6-3.1,4.3c-0.5,0.2-0.9,0.2-1.4,0.2c-0.9,0-1.9-0.3-2.6-0.8
		c-0.8-0.5-1.4-1.3-1.7-2.3c-0.8-2.4,0.5-4.9,2.9-5.7c0.5-0.1,0.9-0.2,1.4-0.2C323.2,412.7,324.9,413.9,325.5,415.8z"/>
	<path d="M325.4,121c0,0.5-0.1,0.9-0.2,1.4c-0.3,1-0.9,1.7-1.7,2.3s-1.7,0.8-2.6,0.8c-0.5,0-0.9-0.1-1.4-0.2
		c-2.4-0.8-3.6-3.3-2.9-5.7c0.6-1.9,2.4-3.1,4.3-3.1c0.5,0,0.9,0.1,1.4,0.2C324.2,117.3,325.4,119.1,325.4,121z"/>
	<path class="st2" d="M311.3,420.2c0.1,0.4,0.1,0.7,0.1,1c0,2-1.4,3.9-3.5,4.4c-0.4,0.1-0.7,0.1-1,0.1c-1,0-2-0.4-2.8-1
		s-1.4-1.5-1.6-2.5c-0.6-2.4,0.9-4.8,3.4-5.4c0.4-0.1,0.7-0.1,1-0.1C308.9,416.7,310.8,418.1,311.3,420.2z"/>
	<path d="M311,117c0,0.3,0,0.7-0.1,1c-0.2,1-0.8,1.9-1.6,2.5s-1.8,1-2.8,1c-0.3,0-0.7,0-1-0.1c-2.4-0.6-3.9-3-3.4-5.4
		c0.5-2.1,2.3-3.5,4.4-3.5c0.3,0,0.7,0,1,0.1C309.6,113.1,311,114.9,311,117z"/>
	<path d="M296.7,423.4c0,0.2,0,0.4,0,0.7c0,2.2-1.6,4.1-3.8,4.4c-0.2,0-0.5,0-0.7,0c-1.1,0-2.1-0.4-2.9-1.1s-1.4-1.6-1.5-2.7
		c-0.4-2.5,1.3-4.8,3.8-5.1c0.2,0,0.4-0.1,0.7-0.1C294.4,419.5,296.3,421.1,296.7,423.4z"/>
	<path d="M296.3,114.1c0,0.2,0,0.4-0.1,0.7c-0.2,1.1-0.7,2.1-1.5,2.8c-0.8,0.7-1.8,1.1-2.9,1.1c-0.2,0-0.4,0-0.7-0.1
		c-2.5-0.4-4.2-2.7-3.8-5.1c0.3-2.2,2.2-3.8,4.5-3.8c0.2,0,0.4,0,0.7,0C294.7,110,296.3,112,296.3,114.1z"/>
	<path d="M281.9,425.4c0,0.1,0,0.2,0,0.4c0,2.3-1.8,4.3-4.2,4.5c-0.1,0-0.2,0-0.3,0c-1.2,0-2.2-0.5-3-1.2c-0.8-0.8-1.3-1.8-1.4-3
		c-0.2-2.5,1.7-4.6,4.1-4.8c0.1,0,0.2,0,0.4,0C279.7,421.2,281.7,423,281.9,425.4z"/>
	<path d="M281.5,112.5c0,0.1,0,0.2,0,0.3c-0.1,1.2-0.6,2.2-1.4,3s-1.9,1.2-3.1,1.2c-0.1,0-0.2,0-0.3,0c-2.5-0.2-4.3-2.3-4.2-4.8
		c0.2-2.4,2.1-4.2,4.5-4.2c0.1,0,0.2,0,0.3,0C279.7,108.2,281.5,110.2,281.5,112.5z"/>
	<path d="M267,426c0,0.1,0,0.1,0,0.2c-0.1,1.2-0.6,2.3-1.4,3c-0.8,0.8-1.9,1.2-3.1,1.2c-0.1,0-0.1,0-0.2,0c-2.5-0.1-4.4-2.2-4.3-4.7
		c0.1-2.4,2.1-4.3,4.5-4.3c0.1,0,0.1,0,0.2,0C265.1,421.6,267,423.6,267,426z"/>
	<path class="st1" d="M266.6,112.1c0,0.1,0,0.1,0,0.2c0,2.4-1.9,4.4-4.3,4.5c-0.1,0-0.1,0-0.2,0c-1.2,0-2.3-0.5-3.1-1.2
		c-0.8-0.8-1.3-1.8-1.4-3c-0.1-2.5,1.8-4.6,4.3-4.7c0.1,0,0.1,0,0.2,0C264.5,107.8,266.5,109.6,266.6,112.1z"/>
	<path d="M252.1,424.6c0,0.2,0,0.4-0.1,0.6c-0.2,1.1-0.7,2.1-1.5,2.8c-0.8,0.7-1.8,1.1-2.9,1.1c-0.2,0-0.4,0-0.6,0
		c-2.5-0.4-4.2-2.6-3.8-5.1c0.3-2.2,2.2-3.9,4.5-3.9c0.2,0,0.4,0,0.6,0C250.5,420.5,252.1,422.4,252.1,424.6z"/>
	<path d="M251.7,113c0,0.2,0.1,0.4,0.1,0.6c0,2.2-1.6,4.1-3.9,4.4c-0.2,0-0.4,0-0.6,0c-1.1,0-2.1-0.4-2.9-1.1s-1.4-1.7-1.5-2.8
		c-0.4-2.5,1.4-4.7,3.8-5.1c0.2,0,0.4-0.1,0.6-0.1C249.4,109.2,251.3,110.8,251.7,113z"/>
	<path class="st1" d="M237.4,421.9c0,0.3,0,0.7-0.1,1c-0.2,1-0.8,1.9-1.6,2.5s-1.8,0.9-2.8,0.9c-0.3,0-0.7,0-1.1-0.1
		c-2.4-0.6-3.9-3-3.3-5.4c0.5-2.1,2.3-3.5,4.4-3.5c0.3,0,0.7,0,1.1,0.1C236,418,237.4,419.8,237.4,421.9z"/>
	<path d="M236.9,115.4c0.1,0.3,0.1,0.7,0.1,1.1c0,2-1.4,3.9-3.4,4.4c-0.4,0.1-0.7,0.1-1.1,0.1c-1,0-2-0.3-2.8-0.9s-1.4-1.5-1.6-2.5
		c-0.6-2.4,0.9-4.9,3.3-5.4c0.4-0.1,0.7-0.1,1.1-0.1C234.6,112,236.4,113.4,236.9,115.4z"/>
	<path class="st1" d="M223.1,417.7c0,0.5-0.1,1-0.2,1.5c-0.3,0.9-0.9,1.7-1.7,2.2s-1.6,0.8-2.6,0.8c-0.5,0-1-0.1-1.5-0.2
		c-2.3-0.8-3.6-3.4-2.8-5.7c0.6-1.9,2.4-3,4.2-3c0.5,0,1,0.1,1.5,0.2C221.9,414.1,223.1,415.8,223.1,417.7z"/>
	<path class="st2" d="M222.4,119.2c0.2,0.5,0.2,1,0.2,1.5c0,1.9-1.2,3.6-3,4.2c-0.5,0.2-1,0.2-1.5,0.2c-0.9,0-1.8-0.3-2.6-0.8
		s-1.4-1.3-1.7-2.2c-0.8-2.3,0.4-4.9,2.8-5.7c0.5-0.2,1-0.2,1.5-0.2C220.1,116.2,221.8,117.4,222.4,119.2z"/>
	<path class="st1" d="M209.2,412.1c0,0.6-0.1,1.3-0.4,1.9c-0.4,0.8-1,1.5-1.7,1.9c-0.7,0.5-1.6,0.7-2.4,0.7c-0.6,0-1.3-0.1-1.9-0.4
		c-2.3-1-3.3-3.7-2.2-6c0.8-1.7,2.4-2.6,4.1-2.6c0.6,0,1.3,0.1,1.9,0.4C208.2,408.8,209.2,410.4,209.2,412.1z"/>
	<path d="M208.4,124.4c0.3,0.6,0.4,1.2,0.4,1.9c0,1.7-1,3.3-2.6,4.1c-0.6,0.3-1.2,0.4-1.9,0.4c-0.9,0-1.7-0.2-2.4-0.7
		c-0.7-0.4-1.3-1.1-1.7-1.9c-1-2.3,0-4.9,2.2-6c0.6-0.3,1.2-0.4,1.9-0.4C206,121.8,207.7,122.7,208.4,124.4z"/>
	<path class="st0" d="M195.9,405.3c0,0.8-0.2,1.5-0.6,2.2c-0.8,1.4-2.4,2.3-3.9,2.3c-0.8,0-1.5-0.2-2.2-0.6c-2.2-1.2-2.9-4-1.7-6.1
		c0.8-1.4,2.4-2.3,3.9-2.3c0.8,0,1.5,0.2,2.2,0.6C195.1,402.2,195.9,403.8,195.9,405.3z"/>
	<path d="M195,130.9c0.4,0.7,0.6,1.5,0.6,2.2c0,1.6-0.8,3.1-2.2,3.9c-0.7,0.4-1.5,0.6-2.2,0.6c-1.6,0-3.1-0.8-3.9-2.2
		c-1.2-2.1-0.5-4.9,1.6-6.1c0.7-0.4,1.5-0.6,2.2-0.6C192.6,128.6,194.1,129.4,195,130.9z"/>
	<path d="M183.3,397.3c0,0.9-0.3,1.8-0.8,2.6c-0.9,1.2-2.3,1.9-3.7,1.9c-0.9,0-1.8-0.3-2.6-0.8c-2-1.4-2.5-4.2-1.1-6.3
		c0.9-1.2,2.3-1.9,3.7-1.9c0.9,0,1.8,0.3,2.6,0.8C182.6,394.5,183.3,395.8,183.3,397.3z"/>
	<path class="st2" d="M182.2,138.6c0.6,0.8,0.8,1.7,0.8,2.6c0,1.4-0.7,2.8-1.9,3.7c-0.8,0.6-1.7,0.8-2.6,0.8c-1.4,0-2.8-0.7-3.7-1.9
		c-1.4-2-1-4.8,1.1-6.3c0.8-0.6,1.7-0.8,2.6-0.8C179.9,136.7,181.3,137.4,182.2,138.6z"/>
	<path d="M171.5,388c0,1-0.4,2.1-1.1,2.9c-0.9,1-2.1,1.6-3.4,1.6c-1,0-2.1-0.4-2.9-1.1c-1.9-1.6-2.1-4.5-0.5-6.3
		c0.9-1,2.1-1.6,3.4-1.6c1,0,2.1,0.4,2.9,1.1C171,385.5,171.5,386.8,171.5,388z"/>
	<path class="st2" d="M170.2,147.5c0.7,0.9,1.1,1.9,1.1,2.9c0,1.3-0.5,2.5-1.6,3.4c-0.9,0.7-1.9,1.1-2.9,1.1c-1.3,0-2.5-0.5-3.4-1.5
		c-1.6-1.9-1.4-4.7,0.4-6.4c0.9-0.7,1.9-1.1,2.9-1.1C168,146,169.3,146.5,170.2,147.5z"/>
	<path d="M159.5,374.6c0.8,0.9,1.2,2,1.2,3.1c0,1.2-0.5,2.4-1.4,3.3c-0.9,0.8-2,1.2-3.1,1.2c-1.2,0-2.4-0.5-3.2-1.4
		c-1.7-1.8-1.7-4.6,0.1-6.4c0.9-0.8,2-1.2,3.1-1.2C157.4,373.2,158.6,373.7,159.5,374.6z"/>
	<path d="M160.5,160.8c0,1.1-0.4,2.2-1.2,3.1c-0.9,0.9-2.1,1.4-3.2,1.4c-1.1,0-2.2-0.4-3.1-1.2c-1.8-1.7-1.9-4.6-0.1-6.4
		c0.9-0.9,2.1-1.4,3.2-1.4c1.1,0,2.2,0.4,3.1,1.2C160,158.4,160.5,159.6,160.5,160.8z"/>
	<path d="M149.9,363.7c0.6,0.8,1,1.8,1,2.8c0,1.3-0.6,2.6-1.7,3.5c-0.8,0.6-1.8,1-2.8,1c-1.3,0-2.6-0.6-3.5-1.7
		c-1.5-1.9-1.2-4.8,0.7-6.3c0.8-0.6,1.8-1,2.8-1C147.7,362,149,362.6,149.9,363.7z"/>
	<path d="M150.7,172.1c0,1-0.3,2-1,2.8c-0.9,1.1-2.2,1.7-3.5,1.7c-1,0-2-0.3-2.8-1c-2-1.5-2.3-4.4-0.8-6.3c0.9-1.1,2.2-1.7,3.5-1.7
		c1,0,2,0.3,2.8,1C150.1,169.4,150.7,170.8,150.7,172.1z"/>
	<path d="M141.5,351.9c0.5,0.8,0.7,1.6,0.7,2.4c0,1.5-0.7,2.9-2.1,3.8c-0.8,0.5-1.6,0.7-2.4,0.7c-1.5,0-2.9-0.7-3.8-2.1
		c-1.4-2.1-0.8-4.9,1.3-6.2c0.8-0.5,1.6-0.7,2.4-0.7C139.2,349.8,140.6,350.5,141.5,351.9z"/>
	<path d="M142,184.3c0,0.8-0.2,1.7-0.7,2.4c-0.9,1.3-2.3,2.1-3.8,2.1c-0.8,0-1.7-0.2-2.4-0.7c-2.1-1.3-2.7-4.1-1.4-6.2
		c0.9-1.3,2.3-2.1,3.8-2.1c0.8,0,1.7,0.2,2.4,0.7C141.3,181.3,142,182.8,142,184.3z"/>
	<path d="M134.2,339.3c0.4,0.7,0.5,1.4,0.5,2.1c0,1.6-0.9,3.2-2.4,4c-0.7,0.4-1.4,0.5-2.1,0.5c-0.8,0-1.6-0.2-2.3-0.6
		s-1.3-1-1.7-1.8c-1.1-2.2-0.3-4.9,1.9-6.1c0.7-0.4,1.4-0.5,2.1-0.5C131.8,336.9,133.4,337.8,134.2,339.3z"/>
	<path d="M134.5,197.2c0,0.7-0.2,1.4-0.5,2.1c-0.4,0.8-1,1.4-1.7,1.8s-1.5,0.6-2.3,0.6c-0.7,0-1.4-0.2-2.1-0.5
		c-2.2-1.1-3.1-3.9-1.9-6.1c0.8-1.5,2.4-2.4,4-2.4c0.7,0,1.4,0.2,2.1,0.5C133.6,194,134.5,195.6,134.5,197.2z"/>
	<path d="M128.1,326.1c0.2,0.5,0.3,1.1,0.3,1.7c0,1.8-1.1,3.5-2.8,4.2c-0.5,0.2-1.1,0.3-1.7,0.3c-0.9,0-1.8-0.3-2.5-0.8
		s-1.3-1.2-1.7-2.1c-0.9-2.3,0.2-4.9,2.5-5.9c0.5-0.2,1.1-0.3,1.7-0.3C125.7,323.3,127.4,324.4,128.1,326.1z"/>
	<path class="st0" d="M128.3,210.8c0,0.6-0.1,1.1-0.3,1.7c-0.4,0.9-1,1.6-1.7,2.1s-1.6,0.8-2.5,0.8c-0.6,0-1.1-0.1-1.7-0.3
		c-2.3-0.9-3.4-3.5-2.5-5.8l0,0c0.7-1.8,2.4-2.8,4.2-2.8c0.6,0,1.1,0.1,1.7,0.3C127.2,207.3,128.3,209,128.3,210.8z"/>
	<path d="M123.3,312.4c0.1,0.4,0.2,0.9,0.2,1.3c0,1.9-1.3,3.7-3.2,4.3c-0.4,0.1-0.9,0.2-1.3,0.2c-1,0-1.9-0.3-2.7-0.9
		c-0.8-0.6-1.4-1.4-1.7-2.3l0,0c-0.1-0.4-0.2-0.9-0.2-1.3c0-1.9,1.3-3.7,3.2-4.3c0.4-0.1,0.8-0.2,1.3-0.2
		C121,309.2,122.8,310.5,123.3,312.4z"/>
	<path class="st0" d="M123.4,224.9c0,0.4-0.1,0.8-0.2,1.3c-0.3,1-0.9,1.8-1.7,2.3c-0.8,0.6-1.7,0.9-2.7,0.9c-0.4,0-0.8-0.1-1.3-0.2
		c-2.4-0.7-3.8-3.2-3.1-5.6c0.6-2,2.4-3.2,4.3-3.2c0.4,0,0.8,0.1,1.3,0.2C122.1,221.2,123.4,222.9,123.4,224.9z"/>
	<path d="M119.9,298.4c0.1,0.3,0.1,0.6,0.1,0.9c0,2.1-1.5,4-3.6,4.4c-0.3,0.1-0.6,0.1-0.9,0.1c-1.1,0-2.1-0.4-2.8-1
		c-0.8-0.6-1.4-1.5-1.6-2.6c-0.5-2.4,1.1-4.8,3.6-5.3c0.3-0.1,0.6-0.1,0.9-0.1C117.6,294.7,119.5,296.2,119.9,298.4z"/>
	<path class="st1" d="M119.9,239.4c0,0.3,0,0.6-0.1,0.8c-0.2,1.1-0.8,2-1.6,2.6c-0.8,0.6-1.8,1-2.8,1c-0.3,0-0.6,0-0.9-0.1
		c-2.4-0.5-4-2.8-3.6-5.3c0.4-2.2,2.3-3.7,4.4-3.7c0.3,0,0.6,0,0.8,0.1C118.4,235.4,119.9,237.3,119.9,239.4z"/>
	<path d="M117.8,284c0,0.1,0,0.3,0,0.4c0,2.3-1.8,4.2-4.1,4.5c-0.1,0-0.3,0-0.4,0c-1.2,0-2.2-0.4-3-1.2c-0.8-0.7-1.3-1.7-1.5-2.9
		c0-0.1,0-0.3,0-0.4c0-2.3,1.7-4.2,4.1-4.5c0.1,0,0.3,0,0.4,0C115.6,279.9,117.6,281.7,117.8,284z"/>
	<path d="M117.8,254.2c0,0.1,0,0.3,0,0.4c-0.1,1.2-0.7,2.2-1.5,2.9s-1.9,1.2-3,1.2c-0.1,0-0.3,0-0.4,0c-2.5-0.2-4.3-2.4-4.1-4.9
		c0.2-2.3,2.2-4.1,4.5-4.1c0.1,0,0.3,0,0.4,0C116,249.9,117.8,251.9,117.8,254.2z"/>
	<path d="M117.1,269.3c0,0.1,0,0.1,0,0.2l0,0c0,2.5-2,4.5-4.5,4.5l0,0c-1.2,0-2.4-0.5-3.2-1.3c-0.8-0.8-1.3-1.9-1.3-3.2
		c0-0.1,0-0.1,0-0.2s0-0.1,0-0.2c0-1.2,0.5-2.4,1.3-3.2c0.8-0.8,1.9-1.3,3.2-1.3s2.4,0.5,3.2,1.3c0.8,0.8,1.3,1.9,1.3,3.2
		C117.1,269.2,117.1,269.3,117.1,269.3z"/>
</g>
</svg>
