<?xml version="1.0" encoding="utf-8"?>
<!-- Generator: Adobe Illustrator 26.0.1, SVG Export Plug-In . SVG Version: 6.00 Build 0)  -->
<svg version="1.1" id="Layer_1" xmlns="http://www.w3.org/2000/svg" xmlns:xlink="http://www.w3.org/1999/xlink" x="0px" y="0px"
	 viewBox="0 0 538.1 538.1" style="enable-background:new 0 0 538.1 538.1;" xml:space="preserve">
<style type="text/css">
	.st0{fill:#37246B;}
</style>
<path id="Logo" class="st0" d="M345.2,251.1c1.2,5.5,1.8,11.1,1.8,16.9c0,19.2-6.9,37.3-19.6,51.5c-4.8-3.1-10.5-4.9-16.5-5.3
	l-6-62.2c3.6-1.8,6.5-4.9,7.9-8.7h56.9c-0.9-3.8-2.1-7.6-3.5-11.3h-53.4c-2.3-6-8.1-10.3-14.9-10.3c-8.8,0-16,7.2-16,16
	c0,7.4,5,13.6,11.8,15.4l6,62.2c-0.4,0.1-0.8,0.2-1.2,0.3l-47.6-97.8c8.6-6.1,14.4-15.9,14.9-27.2c1.2-0.1,2.5-0.1,3.8-0.1
	c20.7,0,40.1,8,54.7,22.7c3.4,3.4,6.4,7,9.1,10.9H363c-5.1-10.8-11.9-20.5-20.4-29c-9.5-9.5-20.5-16.9-32.8-22.1
	c-12.7-5.4-26.2-8.1-40.1-8.1c-4.2,0-8.4,0.3-12.5,0.7c-6.5-7.4-16-12.1-26.5-12.1c-19.5,0-35.3,15.8-35.3,35.3
	c0,2.4,0.2,4.7,0.7,6.9c-9.1,9.3-16.3,20-21.3,32c-5.4,12.7-8.1,26.2-8.1,40.1c0,2.4,0.1,4.8,0.3,7.2h25.8c-0.2-2.4-0.3-4.8-0.3-7.2
	c0-18.5,6.5-36,18.3-50c5,3.4,10.9,5.6,17.2,6.2l4,50.1c-3.7,1.8-6.6,4.9-8.1,8.8h-56c0.6,3.8,1.3,7.6,2.3,11.3h53.7
	c2.3,6,8.1,10.3,14.9,10.3c8.8,0,16-7.2,16-16c0-7.3-4.9-13.4-11.5-15.4l-4-50c0.6-0.1,1.2-0.3,1.7-0.5l47.6,97.8
	c-8,5.7-13.6,14.5-14.8,24.8c-1.3,0.1-2.6,0.1-3.9,0.1c-20.7,0-40.1-8-54.7-22.7c-6.1-6.1-11-13-14.8-20.5h-27.8
	c0.7,2,1.5,4,2.3,5.9c5.2,12.3,12.6,23.3,22.1,32.8s20.5,16.9,32.8,22.1c12.7,5.4,26.2,8.1,40.1,8.1c3.6,0,7.2-0.2,10.7-0.6
	c6.5,8.6,16.7,14.2,28.3,14.2c19.5,0,35.3-15.8,35.3-35.3c0-3.1-0.4-6-1.1-8.9c9.3-9.4,16.6-20.3,21.7-32.4
	c5.4-12.7,8.1-26.2,8.1-40.1c0-5.7-0.5-11.3-1.4-16.9L345.2,251.1L345.2,251.1z M249.4,288.6c0,6-4.8,10.8-10.8,10.8
	s-10.8-4.8-10.8-10.8s4.8-10.8,10.8-10.8C244.6,277.8,249.4,282.7,249.4,288.6z M230.6,212.5c-13,0-23.6-10.6-23.6-23.6
	s10.6-23.7,23.6-23.7c13.1,0,23.6,10.6,23.6,23.6C254.3,201.9,243.6,212.5,230.6,212.5z M297.9,248.4c-6,0-10.8-4.8-10.8-10.8
	s4.8-10.8,10.8-10.8s10.8,4.8,10.8,10.8S303.8,248.4,297.9,248.4z M308.7,373c-13,0-23.6-10.6-23.6-23.6s10.6-23.6,23.6-23.6
	s23.6,10.6,23.6,23.6S321.7,373,308.7,373z"/>
</svg>
