<?xml version="1.0" encoding="utf-8"?>
<!-- Generator: Adobe Illustrator 26.0.1, SVG Export Plug-In . SVG Version: 6.00 Build 0)  -->
<svg version="1.1" id="Layer_1" xmlns="http://www.w3.org/2000/svg" xmlns:xlink="http://www.w3.org/1999/xlink" x="0px" y="0px"
	 viewBox="0 0 538.1 538.1" style="enable-background:new 0 0 538.1 538.1;" xml:space="preserve">
<style type="text/css">
	.st0{fill:#857AAE;}
	.st1{fill:#C5C5C5;}
	.st2{fill:#FFFFFF;}
	.st3{fill:#6A56A4;}
</style>
<g id="Ring08">
	<path d="M489.4,276.5c0,1.2-0.6,2.3-1.4,3.1s-1.9,1.3-3.1,1.3h-0.1c-2.5-0.1-4.4-2.1-4.4-4.6l0,0c0.1-2.5,2.2-4.4,4.6-4.4
		c2.4,0.1,4.4,2.1,4.4,4.5V276.5z"/>
	<path class="st0" d="M489.4,261.3v0.1c0,2.4-1.9,4.4-4.4,4.5h-0.1c-1.2,0-2.3-0.5-3.1-1.3c-0.8-0.8-1.3-1.9-1.4-3.1
		c-0.1-2.5,1.9-4.6,4.3-4.6c0.1,0,0.1,0,0.2,0C487.3,256.9,489.3,258.8,489.4,261.3z"/>
	<path class="st0" d="M488.5,291.3c0,0.1,0,0.3,0,0.4c-0.1,1.2-0.7,2.2-1.5,2.9c-0.8,0.7-1.9,1.2-3,1.2c-0.1,0-0.3,0-0.4,0
		c-2.5-0.2-4.3-2.4-4-4.9c0.2-2.3,2.2-4.1,4.5-4.1c0.1,0,0.3,0,0.4,0C486.7,287,488.5,289,488.5,291.3z"/>
	<path d="M488.4,246.1c0,0.1,0,0.3,0,0.4c0,2.3-1.7,4.2-4.1,4.5c-0.1,0-0.3,0-0.4,0c-1.1,0-2.2-0.4-3-1.2c-0.8-0.7-1.4-1.7-1.5-2.9
		c-0.2-2.5,1.6-4.7,4-4.9c0.2,0,0.3,0,0.4,0C486.2,242,488.2,243.7,488.4,246.1z"/>
	<path class="st1" d="M486.6,306.1c0,0.2,0,0.5-0.1,0.7c-0.2,1.1-0.8,2-1.5,2.7c-0.8,0.7-1.8,1.1-2.9,1.1c-0.2,0-0.5,0-0.7-0.1
		c-2.5-0.4-4.1-2.7-3.7-5.2c0.3-2.2,2.3-3.8,4.4-3.8c0.2,0,0.5,0,0.7,0.1C485,302,486.6,303.9,486.6,306.1z"/>
	<path d="M486.4,231c0,0.2,0.1,0.5,0.1,0.7c0,2.2-1.6,4.1-3.8,4.4c-0.2,0-0.5,0.1-0.7,0.1c-1.1,0-2.1-0.4-2.9-1.1s-1.4-1.6-1.5-2.7
		c-0.4-2.4,1.3-4.8,3.7-5.2c0.2,0,0.5-0.1,0.8-0.1C484.1,227.2,486.1,228.7,486.4,231z"/>
	<path class="st2" d="M483.7,320.8c0,0.3,0,0.7-0.1,1c-0.2,1-0.8,1.9-1.6,2.5c-0.8,0.6-1.8,1-2.8,1c-0.3,0-0.7,0-1-0.1
		c-2.4-0.6-3.9-3-3.4-5.4c0.5-2.1,2.3-3.5,4.4-3.5c0.3,0,0.7,0,1,0.1C482.3,316.9,483.7,318.7,483.7,320.8z"/>
	<path d="M483.5,216c0.1,0.3,0.1,0.7,0.1,1c0,2.1-1.4,3.9-3.5,4.4c-0.3,0.1-0.7,0.1-1,0.1c-1,0-2-0.3-2.8-1
		c-0.8-0.6-1.4-1.5-1.6-2.5c-0.6-2.4,0.9-4.8,3.4-5.4c0.3-0.1,0.7-0.1,1-0.1C481.1,212.5,483,213.9,483.5,216z"/>
	<path class="st1" d="M479.9,335.2c0,0.4-0.1,0.9-0.2,1.3c-0.3,1-0.9,1.8-1.6,2.3s-1.7,0.9-2.7,0.9c-0.4,0-0.9-0.1-1.3-0.2
		c-2.4-0.7-3.7-3.2-3-5.6c0.6-1.9,2.4-3.2,4.3-3.2c0.4,0,0.9,0.1,1.3,0.2C478.6,331.5,479.9,333.3,479.9,335.2z"/>
	<path class="st3" d="M479.5,201.3c0.1,0.4,0.2,0.9,0.2,1.3c0,1.9-1.2,3.7-3.2,4.3c-0.4,0.1-0.9,0.2-1.3,0.2c-1,0-1.9-0.3-2.6-0.9
		c-0.8-0.6-1.4-1.4-1.6-2.3c-0.7-2.4,0.6-4.9,3-5.6c0.4-0.1,0.9-0.2,1.3-0.2C477.1,198.1,478.9,199.3,479.5,201.3z"/>
	<path class="st1" d="M475.1,349.4c0,0.5-0.1,1.1-0.3,1.6c-0.3,0.9-0.9,1.6-1.7,2.1c-0.7,0.5-1.6,0.8-2.5,0.8
		c-0.5,0-1.1-0.1-1.6-0.3c-2.3-0.9-3.5-3.5-2.6-5.8c0.7-1.8,2.4-2.9,4.2-2.9c0.5,0,1.1,0.1,1.6,0.3
		C474,345.9,475.1,347.6,475.1,349.4z"/>
	<path class="st0" d="M474.6,186.8c0.2,0.5,0.3,1.1,0.3,1.6c0,1.8-1.1,3.5-2.9,4.2c-0.5,0.2-1.1,0.3-1.6,0.3c-0.9,0-1.8-0.3-2.5-0.8
		s-1.3-1.2-1.7-2.1c-0.9-2.3,0.3-4.9,2.6-5.8c0.5-0.2,1.1-0.3,1.6-0.3C472.2,183.9,473.9,185,474.6,186.8z"/>
	<path d="M469.3,363.2c0,0.6-0.1,1.3-0.4,1.9c-0.4,0.8-1,1.5-1.7,1.9c-0.7,0.5-1.6,0.7-2.4,0.7c-0.6,0-1.3-0.1-1.9-0.4
		c-2.3-1-3.2-3.7-2.2-6c0.8-1.7,2.4-2.6,4.1-2.6c0.6,0,1.3,0.1,1.9,0.4C468.3,359.8,469.3,361.5,469.3,363.2z"/>
	<path d="M468.7,172.8c0.3,0.6,0.4,1.2,0.4,1.9c0,1.7-1,3.3-2.6,4.1c-0.6,0.3-1.2,0.4-1.9,0.4c-0.9,0-1.7-0.2-2.4-0.7
		c-0.7-0.5-1.3-1.1-1.7-1.9c-1-2.2-0.1-4.9,2.2-6c0.6-0.3,1.2-0.4,1.9-0.4C466.3,170.1,467.9,171.1,468.7,172.8z"/>
	<path class="st3" d="M462.6,376.5c0,0.7-0.2,1.5-0.5,2.1c-0.8,1.5-2.4,2.3-4,2.3c-0.7,0-1.5-0.2-2.2-0.5c-2.2-1.2-3-3.9-1.8-6.1
		c0.8-1.5,2.4-2.3,4-2.3c0.7,0,1.5,0.2,2.1,0.6C461.8,373.4,462.6,374.9,462.6,376.5z"/>
	<path class="st3" d="M461.8,159.1c0.4,0.7,0.6,1.4,0.6,2.2c0,1.6-0.9,3.1-2.3,3.9c-0.7,0.4-1.4,0.6-2.2,0.6c-1.6,0-3.1-0.8-4-2.3
		c-1.2-2.2-0.4-4.9,1.8-6.1c0.7-0.4,1.4-0.6,2.2-0.6C459.5,156.8,461,157.6,461.8,159.1z"/>
	<path class="st0" d="M455,389.4c0,0.8-0.2,1.7-0.7,2.4c-0.9,1.3-2.3,2.1-3.8,2.1c-0.8,0-1.7-0.2-2.4-0.7c-2.1-1.4-2.7-4.1-1.4-6.2
		c0.9-1.3,2.3-2.1,3.8-2.1c0.8,0,1.7,0.2,2.4,0.7C454.3,386.5,455,387.9,455,389.4z"/>
	<path class="st1" d="M454,146c0.5,0.8,0.7,1.6,0.7,2.4c0,1.5-0.7,2.9-2,3.8c-0.8,0.5-1.6,0.7-2.4,0.7c-1.5,0-2.9-0.7-3.8-2.1
		c-1.3-2.1-0.8-4.9,1.3-6.2c0.8-0.5,1.6-0.7,2.4-0.7C451.7,144,453.1,144.7,454,146z"/>
	<path d="M446.5,401.6c0,0.9-0.3,1.9-0.9,2.7c-0.9,1.2-2.2,1.8-3.6,1.8c-0.9,0-1.9-0.3-2.7-0.9c-2-1.5-2.4-4.3-0.9-6.3
		c0.9-1.2,2.2-1.8,3.6-1.8c0.9,0,1.9,0.3,2.7,0.9C445.8,398.9,446.5,400.3,446.5,401.6z"/>
	<path class="st1" d="M445.2,133.5c0.6,0.8,0.9,1.8,0.9,2.7c0,1.4-0.6,2.7-1.8,3.6c-0.8,0.6-1.8,0.9-2.7,0.9c-1.4,0-2.7-0.6-3.6-1.8
		c-1.5-2-1.1-4.8,0.9-6.3c0.8-0.6,1.8-0.9,2.7-0.9C443,131.7,444.3,132.3,445.2,133.5z"/>
	<path class="st2" d="M437.1,413.2c0,1.1-0.4,2.1-1.1,3c-0.9,1-2.1,1.5-3.4,1.5c-1.1,0-2.1-0.4-3-1.1c-1.9-1.6-2.1-4.5-0.4-6.4
		c0.9-1,2.1-1.5,3.4-1.5c1,0,2.1,0.4,3,1.1C436.5,410.7,437.1,412,437.1,413.2z"/>
	<path class="st1" d="M435.6,121.6c0.8,0.9,1.1,1.9,1.1,3c0,1.2-0.5,2.5-1.5,3.4c-0.9,0.7-1.9,1.1-3,1.1c-1.2,0-2.5-0.5-3.4-1.5
		c-1.6-1.9-1.5-4.7,0.4-6.3c0.9-0.8,1.9-1.1,3-1.1C433.4,120.1,434.7,120.6,435.6,121.6z"/>
	<path class="st0" d="M425.5,421c0.9,0.9,1.3,2,1.3,3.2s-0.5,2.3-1.3,3.2c-0.9,0.9-2,1.3-3.2,1.3s-2.3-0.5-3.2-1.3
		c-1.8-1.8-1.7-4.6,0-6.4c0.9-0.9,2-1.3,3.2-1.3C423.5,419.6,424.6,420.1,425.5,421z"/>
	<path class="st0" d="M426.4,113.7c0,1.1-0.4,2.3-1.3,3.2c-0.9,0.9-2,1.3-3.2,1.3c-1.1,0-2.3-0.4-3.2-1.3c-1.8-1.7-1.8-4.6-0.1-6.4
		c0.9-0.9,2-1.3,3.2-1.3c1.1,0,2.3,0.4,3.2,1.3C426,111.4,426.4,112.6,426.4,113.7z"/>
	<path class="st1" d="M414.7,431.3c0.7,0.9,1.1,1.9,1.1,2.9c0,1.3-0.5,2.6-1.6,3.4c-0.9,0.7-1.9,1.1-2.9,1.1c-1.3,0-2.5-0.5-3.4-1.6
		c-1.6-1.9-1.4-4.7,0.5-6.4c0.8-0.7,1.9-1.1,2.9-1.1C412.6,429.7,413.8,430.2,414.7,431.3z"/>
	<path class="st1" d="M415.4,103.7c0,1-0.4,2.1-1.1,2.9c-0.9,1.1-2.2,1.6-3.4,1.6c-1,0-2.1-0.4-2.9-1.1c-1.9-1.6-2.1-4.4-0.5-6.3
		c0.9-1.1,2.2-1.6,3.4-1.6c1,0,2.1,0.3,2.9,1.1C414.8,101.1,415.4,102.4,415.4,103.7z"/>
	<path d="M403.2,440.8c0.6,0.8,0.9,1.7,0.9,2.6c0,1.4-0.6,2.8-1.9,3.6c-0.8,0.6-1.7,0.9-2.6,0.9c-1.4,0-2.8-0.6-3.6-1.8
		c-1.5-2-1-4.8,1-6.3C398.9,438.3,401.7,438.8,403.2,440.8z"/>
	<path class="st1" d="M403.6,94.5c0,0.9-0.3,1.8-0.9,2.6c-0.9,1.2-2.3,1.9-3.7,1.9c-0.9,0-1.8-0.3-2.6-0.9c-2-1.5-2.5-4.3-1-6.3
		c0.9-1.2,2.3-1.9,3.6-1.9c0.9,0,1.8,0.3,2.6,0.9C402.9,91.7,403.6,93.1,403.6,94.5z"/>
	<path class="st3" d="M391,449.4c0.5,0.7,0.7,1.6,0.7,2.4c0,1.5-0.8,3-2.1,3.8c-0.7,0.5-1.6,0.7-2.4,0.7c-1.5,0-3-0.8-3.8-2.1
		c-1.3-2.1-0.7-4.9,1.4-6.2c0.7-0.5,1.6-0.7,2.4-0.7C388.7,447.3,390.1,448,391,449.4z"/>
	<path class="st1" d="M391.2,86.2c0,0.8-0.2,1.6-0.7,2.4c-0.9,1.4-2.3,2.1-3.8,2.1c-0.8,0-1.6-0.2-2.4-0.7c-2.1-1.3-2.8-4.1-1.5-6.2
		c0.9-1.4,2.3-2.1,3.8-2.1c0.8,0,1.6,0.2,2.4,0.7C390.4,83.2,391.2,84.7,391.2,86.2z"/>
	<path class="st0" d="M378.2,457.1c0.4,0.7,0.5,1.4,0.5,2.1c0,1.6-0.9,3.2-2.4,4c-0.7,0.4-1.4,0.5-2.1,0.5c-0.8,0-1.6-0.2-2.3-0.6
		c-0.7-0.4-1.3-1-1.7-1.8c-1.2-2.2-0.3-4.9,1.9-6.1c0.7-0.4,1.4-0.5,2.1-0.5C375.8,454.7,377.4,455.6,378.2,457.1z"/>
	<path class="st1" d="M378.2,78.8c0,0.7-0.2,1.4-0.5,2.1c-0.4,0.8-1,1.4-1.7,1.8s-1.5,0.6-2.3,0.6c-0.7,0-1.4-0.2-2.1-0.5
		c-2.2-1.2-3.1-3.9-1.9-6.1c0.8-1.5,2.4-2.4,4-2.4c0.7,0,1.4,0.2,2.1,0.5C377.3,75.6,378.2,77.2,378.2,78.8z"/>
	<path d="M364.8,463.9c0.3,0.6,0.4,1.2,0.4,1.8c0,1.7-1,3.4-2.7,4.1c-0.6,0.3-1.2,0.4-1.8,0.4c-0.9,0-1.7-0.2-2.4-0.7
		c-0.7-0.5-1.3-1.1-1.7-2c-1-2.3,0-4.9,2.3-5.9c0.6-0.3,1.2-0.4,1.8-0.4C362.5,461.2,364.1,462.2,364.8,463.9z"/>
	<path class="st1" d="M364.7,72.4c0,0.6-0.1,1.2-0.4,1.8c-0.4,0.8-1,1.5-1.7,2s-1.6,0.7-2.4,0.7c-0.6,0-1.2-0.1-1.8-0.4
		c-2.3-1-3.3-3.6-2.3-5.9c0.7-1.7,2.4-2.7,4.1-2.7c0.6,0,1.2,0.1,1.8,0.4C363.7,69,364.7,70.6,364.7,72.4z"/>
	<path class="st1" d="M351.1,469.7c0.2,0.5,0.3,1,0.3,1.5c0,1.8-1.1,3.6-3,4.2c-0.5,0.2-1,0.3-1.5,0.3c-0.9,0-1.8-0.3-2.6-0.8
		c-0.7-0.5-1.3-1.2-1.7-2.2c-0.8-2.3,0.4-4.9,2.7-5.8c0.5-0.2,1-0.3,1.5-0.3C348.7,466.7,350.4,467.8,351.1,469.7z"/>
	<path d="M350.8,66.9c0,0.5-0.1,1-0.3,1.5c-0.3,0.9-0.9,1.7-1.7,2.2c-0.7,0.5-1.6,0.8-2.6,0.8c-0.5,0-1-0.1-1.5-0.3
		c-2.3-0.8-3.6-3.4-2.7-5.8c0.7-1.8,2.4-3,4.2-3c0.5,0,1,0.1,1.5,0.3C349.7,63.3,350.8,65,350.8,66.9z"/>
	<path class="st2" d="M337,474.6c0.1,0.4,0.2,0.8,0.2,1.2c0,1.9-1.3,3.8-3.3,4.3c-0.4,0.1-0.8,0.2-1.2,0.2c-1,0-1.9-0.3-2.7-0.9
		c-0.8-0.6-1.4-1.4-1.6-2.4c-0.7-2.4,0.7-4.9,3.1-5.6c0.4-0.1,0.8-0.2,1.2-0.2C334.6,471.3,336.4,472.6,337,474.6z"/>
	<path d="M336.6,62.3c0,0.4-0.1,0.8-0.2,1.2c-0.3,1-0.9,1.8-1.6,2.4c-0.8,0.6-1.7,0.9-2.7,0.9c-0.4,0-0.8-0.1-1.2-0.2
		c-2.4-0.7-3.8-3.2-3.1-5.6c0.6-2,2.4-3.3,4.3-3.3c0.4,0,0.8,0.1,1.2,0.2C335.3,58.5,336.6,60.3,336.6,62.3z"/>
	<path d="M322.6,478.5c0.1,0.3,0.1,0.7,0.1,1c0,2.1-1.4,3.9-3.5,4.4c-0.3,0.1-0.7,0.1-1,0.1c-1,0-2-0.4-2.8-1s-1.4-1.5-1.6-2.5
		c-0.5-2.4,1-4.8,3.4-5.4c0.3-0.1,0.7-0.1,1-0.1C320.2,475,322.1,476.4,322.6,478.5z"/>
	<path class="st0" d="M322.1,58.6c0,0.3,0,0.6-0.1,1c-0.2,1.1-0.8,1.9-1.6,2.6c-0.8,0.6-1.8,1-2.8,1c-0.3,0-0.6,0-1-0.1
		c-2.4-0.5-4-2.9-3.4-5.4c0.5-2.1,2.3-3.5,4.4-3.5c0.3,0,0.6,0,1,0.1C320.7,54.7,322.1,56.6,322.1,58.6z"/>
	<path d="M307.9,481.6c0,0.2,0.1,0.5,0.1,0.7c0,2.2-1.6,4.1-3.8,4.4c-0.2,0-0.5,0.1-0.7,0.1c-1.1,0-2.1-0.4-2.9-1.1
		s-1.4-1.6-1.5-2.7c-0.4-2.5,1.3-4.8,3.7-5.2c0.2,0,0.5-0.1,0.7-0.1C305.7,477.8,307.6,479.4,307.9,481.6z"/>
	<path class="st1" d="M307.4,55.9c0,0.2,0,0.5-0.1,0.7c-0.2,1.1-0.7,2-1.5,2.7s-1.8,1.1-2.9,1.1c-0.2,0-0.5,0-0.7-0.1l0,0
		c-2.5-0.4-4.1-2.7-3.7-5.2c0.4-2.2,2.3-3.8,4.5-3.8c0.2,0,0.5,0,0.7,0.1C305.9,51.8,307.4,53.7,307.4,55.9z"/>
	<path d="M293.2,483.8c0,0.2,0,0.3,0,0.5c0,2.3-1.7,4.2-4,4.5c-0.2,0-0.3,0-0.5,0c-1.1,0-2.2-0.4-3-1.1s-1.4-1.7-1.5-2.9
		c-0.3-2.5,1.5-4.7,4-5c0.2,0,0.3,0,0.5,0C291,479.8,292.9,481.5,293.2,483.8z"/>
	<path class="st1" d="M292.6,53.9c0,0.2,0,0.3,0,0.5c-0.1,1.2-0.7,2.2-1.5,2.9s-1.9,1.2-3,1.2c-0.2,0-0.3,0-0.5,0
		c-2.5-0.3-4.3-2.5-4-5c0.2-2.3,2.2-4,4.5-4c0.1,0,0.3,0,0.5,0C290.9,49.7,292.6,51.6,292.6,53.9z"/>
	<path class="st3" d="M278.3,485.2c0,0.1,0,0.2,0,0.2c0,2.4-1.9,4.4-4.3,4.5c-0.1,0-0.2,0-0.2,0c-1.2,0-2.3-0.5-3.1-1.2
		c-0.8-0.8-1.3-1.8-1.4-3c-0.1-2.5,1.8-4.6,4.2-4.7c0.1,0,0.2,0,0.2,0C276.2,481,278.2,482.8,278.3,485.2z"/>
	<path class="st3" d="M277.7,52.7c0,0.1,0,0.2,0,0.2c-0.1,1.2-0.6,2.3-1.4,3c-0.8,0.8-1.9,1.2-3.1,1.2c-0.1,0-0.1,0-0.2,0
		c-2.5-0.1-4.4-2.2-4.3-4.7c0.1-2.4,2.1-4.3,4.5-4.3c0.1,0,0.2,0,0.2,0C275.9,48.4,277.7,50.4,277.7,52.7z"/>
	<path d="M263.4,485.4c0,0.1,0,0.1,0,0.2c-0.1,1.2-0.6,2.3-1.4,3c-0.8,0.8-1.9,1.2-3.1,1.2c-0.1,0-0.1,0-0.2,0
		c-2.5-0.1-4.4-2.2-4.3-4.7c0.1-2.4,2.1-4.3,4.5-4.3c0.1,0,0.1,0,0.2,0C261.5,481,263.4,483,263.4,485.4z"/>
	<path d="M262.8,52.6c0,0.1,0,0.2,0,0.2c0,2.4-1.9,4.4-4.3,4.5c-0.1,0-0.1,0-0.2,0c-1.2,0-2.3-0.5-3.1-1.2c-0.8-0.8-1.3-1.8-1.4-3
		c-0.1-2.5,1.8-4.6,4.3-4.7c0.1,0,0.2,0,0.2,0C260.7,48.4,262.7,50.2,262.8,52.6z"/>
	<path class="st1" d="M248.5,484.2c0,0.2,0,0.4,0,0.5c-0.1,1.1-0.7,2.1-1.5,2.8c-0.8,0.7-1.9,1.1-3,1.1c-0.2,0-0.3,0-0.5,0
		c-2.5-0.3-4.2-2.5-3.9-5c0.3-2.3,2.2-4,4.5-4c0.2,0,0.4,0,0.5,0C246.8,480,248.5,481.9,248.5,484.2z"/>
	<path class="st3" d="M247.9,53.6c0,0.2,0,0.4,0,0.5c0,2.2-1.7,4.2-4,4.5c-0.2,0-0.4,0-0.5,0c-1.1,0-2.2-0.4-3-1.1
		c-0.8-0.7-1.4-1.7-1.5-2.8c-0.3-2.5,1.5-4.7,3.9-5c0.2,0,0.4,0,0.6,0C245.6,49.7,247.6,51.3,247.9,53.6z"/>
	<path class="st1" d="M233.7,481.9c0,0.3,0,0.6-0.1,0.8c-0.2,1.1-0.8,2-1.6,2.6s-1.8,1-2.8,1c-0.3,0-0.6,0-0.8-0.1
		c-2.4-0.5-4-2.8-3.6-5.3c0.4-2.2,2.3-3.7,4.4-3.7c0.3,0,0.6,0,0.8,0.1C232.2,477.9,233.7,479.8,233.7,481.9z"/>
	<path class="st3" d="M233.1,55.6c0.1,0.3,0.1,0.6,0.1,0.8c0,2.1-1.5,4-3.7,4.4c-0.3,0-0.6,0.1-0.9,0.1c-1.1,0-2.1-0.4-2.8-1
		c-0.8-0.6-1.4-1.6-1.6-2.6c-0.5-2.4,1.1-4.8,3.6-5.3c0.3-0.1,0.6-0.1,0.9-0.1C230.8,52,232.6,53.5,233.1,55.6z"/>
	<path class="st1" d="M219.1,478.6c0,0.4-0.1,0.8-0.2,1.1c-0.3,1-0.8,1.9-1.6,2.4s-1.7,0.9-2.7,0.9c-0.4,0-0.8-0.1-1.1-0.1
		c-2.4-0.6-3.9-3.1-3.2-5.5c0.5-2,2.3-3.4,4.4-3.4c0.4,0,0.8,0,1.1,0.1C217.8,474.8,219.1,476.6,219.1,478.6z"/>
	<path class="st0" d="M218.4,58.6c0.1,0.4,0.1,0.8,0.1,1.1c0,2-1.3,3.8-3.4,4.3c-0.4,0.1-0.8,0.2-1.1,0.2c-1,0-1.9-0.3-2.7-0.9
		c-0.8-0.6-1.4-1.4-1.6-2.4c-0.6-2.4,0.8-4.9,3.2-5.5c0.4-0.1,0.8-0.2,1.2-0.2C216.1,55.3,217.9,56.6,218.4,58.6z"/>
	<path class="st1" d="M204.8,474.3c0,0.5-0.1,1-0.2,1.4c-0.3,0.9-0.9,1.7-1.7,2.2s-1.7,0.8-2.6,0.8c-0.5,0-1-0.1-1.4-0.2
		c-2.3-0.8-3.6-3.4-2.8-5.7c0.6-1.9,2.4-3.1,4.2-3.1c0.5,0,1,0.1,1.4,0.2C203.6,470.7,204.8,472.4,204.8,474.3z"/>
	<path class="st0" d="M204,62.7c0.2,0.5,0.2,1,0.2,1.4c0,1.9-1.2,3.6-3.1,4.3c-0.5,0.2-1,0.2-1.4,0.2c-0.9,0-1.8-0.3-2.6-0.8
		s-1.4-1.3-1.7-2.2c-0.8-2.4,0.5-4.9,2.8-5.7l0,0c0.5-0.2,1-0.2,1.5-0.2C201.6,59.6,203.4,60.8,204,62.7z"/>
	<path class="st1" d="M190.8,469c0,0.6-0.1,1.2-0.3,1.7c-0.4,0.9-1,1.6-1.7,2c-0.7,0.5-1.6,0.7-2.5,0.7c-0.6,0-1.2-0.1-1.7-0.4
		c-2.3-1-3.4-3.6-2.4-5.9c0.7-1.7,2.4-2.8,4.1-2.8c0.6,0,1.2,0.1,1.7,0.4C189.8,465.6,190.8,467.3,190.8,469z"/>
	<path class="st2" d="M190,67.7c0.2,0.6,0.4,1.2,0.4,1.8c0,1.8-1,3.4-2.8,4.1c-0.6,0.2-1.2,0.4-1.7,0.4c-0.9,0-1.7-0.3-2.5-0.7
		c-0.7-0.5-1.3-1.2-1.7-2c-1-2.3,0.1-4.9,2.4-5.9c0.6-0.2,1.2-0.4,1.8-0.4C187.6,64.9,189.2,65.9,190,67.7z"/>
	<path d="M177.2,462.8c0,0.7-0.2,1.4-0.5,2c-0.4,0.8-1,1.4-1.7,1.8s-1.5,0.7-2.3,0.7c-0.7,0-1.4-0.2-2-0.5c-2.2-1.1-3.1-3.8-2-6
		c0.8-1.6,2.4-2.5,4-2.5c0.7,0,1.4,0.2,2,0.5C176.3,459.6,177.2,461.2,177.2,462.8z"/>
	<path class="st3" d="M176.3,73.6c0.3,0.7,0.5,1.3,0.5,2c0,1.6-0.9,3.2-2.5,4c-0.6,0.3-1.3,0.5-2,0.5c-0.8,0-1.6-0.2-2.3-0.7
		c-0.7-0.4-1.3-1-1.7-1.8c-1.1-2.2-0.2-4.9,2-6.1c0.6-0.3,1.3-0.5,2-0.5C173.9,71.2,175.5,72.1,176.3,73.6z"/>
	<path d="M161.9,451.8c2.1,1.3,2.9,4,1.6,6.2c-0.8,1.4-2.3,2.2-3.9,2.2c-0.8,0-1.6-0.2-2.3-0.6c-2.1-1.3-2.9-4-1.6-6.2
		c0.8-1.4,2.3-2.2,3.9-2.2C160.3,451.1,161.1,451.3,161.9,451.8L161.9,451.8z"/>
	<path class="st2" d="M163,80.5c0.4,0.7,0.6,1.5,0.6,2.3c0,1.5-0.8,3-2.2,3.9c-0.7,0.4-1.5,0.6-2.3,0.6c-1.5,0-3-0.8-3.9-2.2
		c-1.3-2.1-0.6-4.9,1.6-6.2c0.7-0.4,1.5-0.6,2.3-0.6C160.7,78.3,162.2,79.1,163,80.5z"/>
	<path class="st0" d="M151.5,447.6c0,0.9-0.2,1.8-0.8,2.6c-0.9,1.3-2.3,1.9-3.7,1.9c-0.9,0-1.8-0.3-2.5-0.8
		c-2.1-1.4-2.6-4.2-1.2-6.3c0.9-1.3,2.3-1.9,3.7-1.9c0.9,0,1.8,0.2,2.5,0.8C150.8,444.8,151.5,446.2,151.5,447.6z"/>
	<path d="M150.3,88.4c0.5,0.8,0.8,1.7,0.8,2.6c0,1.4-0.7,2.8-1.9,3.7c-0.8,0.5-1.7,0.8-2.6,0.8c-1.4,0-2.8-0.7-3.7-1.9
		c-1.4-2-0.9-4.8,1.1-6.3c0.8-0.5,1.7-0.8,2.6-0.8C148,86.4,149.4,87.1,150.3,88.4z"/>
	<path class="st3" d="M139.5,438.7c0,1-0.3,2-1,2.8c-0.9,1.1-2.2,1.7-3.5,1.7c-1,0-2-0.3-2.8-1c-1.9-1.6-2.3-4.4-0.7-6.3
		c0.9-1.1,2.2-1.7,3.5-1.7c1,0,2,0.3,2.8,1C138.9,436.1,139.5,437.4,139.5,438.7z"/>
	<path class="st0" d="M138.1,97c0.7,0.8,1,1.8,1,2.8c0,1.3-0.6,2.6-1.7,3.5l0,0c-0.8,0.7-1.8,1-2.8,1c-1.3,0-2.6-0.6-3.5-1.7
		c-1.6-1.9-1.2-4.8,0.7-6.3c0.8-0.7,1.8-1,2.8-1C135.9,95.3,137.2,95.9,138.1,97z"/>
	<path class="st0" d="M128.1,429c0,1.1-0.4,2.2-1.2,3c-0.9,1-2.1,1.5-3.3,1.5c-1.1,0-2.2-0.4-3-1.2c-1.8-1.7-2-4.5-0.3-6.4
		c0.9-1,2.1-1.5,3.3-1.5c1.1,0,2.2,0.4,3,1.2C127.6,426.6,128.1,427.8,128.1,429z"/>
	<path class="st2" d="M126.6,106.5c0.8,0.9,1.2,1.9,1.2,3c0,1.2-0.5,2.4-1.5,3.3c-0.9,0.8-2,1.2-3,1.2c-1.2,0-2.4-0.5-3.3-1.5
		c-1.7-1.8-1.6-4.7,0.3-6.4c0.9-0.8,1.9-1.2,3-1.2C124.5,105.1,125.7,105.5,126.6,106.5z"/>
	<path class="st2" d="M116.2,415.4c0.8,0.9,1.2,2,1.2,3.1c0,1.2-0.5,2.4-1.4,3.2c-0.9,0.8-2,1.2-3.1,1.2c-1.2,0-2.4-0.5-3.3-1.4
		c-1.7-1.8-1.7-4.6,0.2-6.4c0.9-0.8,2-1.2,3.1-1.2C114.1,414,115.3,414.5,116.2,415.4z"/>
	<path class="st3" d="M117.1,120c0,1.1-0.4,2.2-1.2,3.1c-0.9,0.9-2.1,1.4-3.3,1.4c-1.1,0-2.2-0.4-3.1-1.2c-1.8-1.7-1.9-4.6-0.2-6.4
		c0.9-0.9,2.1-1.4,3.3-1.4c1.1,0,2.2,0.4,3.1,1.2C116.6,117.7,117.1,118.8,117.1,120z"/>
	<path class="st2" d="M106.4,404.5c0.7,0.8,1,1.9,1,2.9c0,1.3-0.6,2.6-1.6,3.5c-0.8,0.7-1.9,1-2.9,1c-1.3,0-2.6-0.6-3.5-1.6
		c-1.6-1.9-1.3-4.8,0.6-6.3c0.9-0.7,1.9-1,2.9-1C104.3,402.9,105.5,403.4,106.4,404.5z"/>
	<path d="M107.2,131.2c0,1-0.3,2-1,2.9c-0.9,1.1-2.2,1.6-3.5,1.6c-1,0-2-0.3-2.9-1c-1.9-1.6-2.2-4.4-0.6-6.3
		c0.9-1.1,2.2-1.6,3.5-1.6c1,0,2,0.3,2.9,1C106.6,128.6,107.2,129.9,107.2,131.2z"/>
	<path d="M97.5,392.9c0.6,0.8,0.8,1.7,0.8,2.6c0,1.4-0.7,2.8-1.9,3.7c-0.8,0.6-1.7,0.9-2.6,0.9c-1.4,0-2.8-0.7-3.7-1.9
		c-1.4-2-1-4.8,1-6.3c0.8-0.6,1.7-0.8,2.6-0.8C95.2,391.1,96.6,391.7,97.5,392.9z"/>
	<path d="M98.1,143.1c0,0.9-0.3,1.8-0.8,2.6c-0.9,1.2-2.3,1.9-3.7,1.9c-0.9,0-1.8-0.3-2.6-0.8c-2-1.4-2.5-4.3-1-6.3
		c0.9-1.2,2.3-1.9,3.7-1.9c0.9,0,1.8,0.3,2.6,0.9C97.4,140.3,98.1,141.7,98.1,143.1z"/>
	<path class="st2" d="M89.3,380.8c1.3,2.1,0.7,4.9-1.4,6.2c-0.7,0.5-1.6,0.7-2.4,0.7c-1.5,0-3-0.8-3.8-2.1c-1.3-2.1-0.7-4.9,1.4-6.2
		c0.7-0.5,1.6-0.7,2.4-0.7C87,378.6,88.5,379.4,89.3,380.8z"/>
	<path class="st0" d="M89.8,155.5c0,0.8-0.2,1.6-0.7,2.4c-0.8,1.4-2.3,2.1-3.8,2.1c-0.8,0-1.6-0.2-2.4-0.7c-2.1-1.3-2.8-4.1-1.5-6.2
		c0.8-1.4,2.3-2.1,3.8-2.1c0.8,0,1.6,0.2,2.4,0.7C89,152.5,89.8,154,89.8,155.5z"/>
	<path class="st2" d="M82.1,368.1c0.4,0.7,0.5,1.4,0.5,2.1c0,1.6-0.9,3.2-2.4,4c-0.7,0.4-1.4,0.5-2.1,0.5c-0.8,0-1.6-0.2-2.3-0.6
		c-0.7-0.4-1.3-1-1.7-1.8c-1.2-2.2-0.3-4.9,1.9-6.1c0.7-0.4,1.4-0.5,2.1-0.5C79.7,365.7,81.3,366.6,82.1,368.1z"/>
	<path class="st3" d="M82.4,168.5c0,0.7-0.2,1.4-0.5,2.1c-0.4,0.8-1,1.4-1.7,1.8c-0.7,0.4-1.5,0.6-2.3,0.6c-0.7,0-1.4-0.2-2.1-0.5
		c-2.2-1.2-3-3.9-1.9-6.1c0.8-1.5,2.4-2.4,4-2.4c0.7,0,1.4,0.2,2.1,0.5C81.5,165.3,82.4,166.9,82.4,168.5z"/>
	<path class="st3" d="M75.7,354.9c0.3,0.6,0.4,1.2,0.4,1.8c0,1.7-1,3.4-2.7,4.1c-0.6,0.3-1.2,0.4-1.8,0.4c-0.9,0-1.7-0.2-2.4-0.7
		s-1.3-1.1-1.7-2c-1-2.3,0-4.9,2.3-5.9c0.6-0.3,1.2-0.4,1.8-0.4C73.3,352.3,74.9,353.3,75.7,354.9z"/>
	<path d="M75.9,182c0,0.6-0.1,1.2-0.4,1.8c-0.4,0.9-1,1.5-1.7,2s-1.6,0.7-2.4,0.7c-0.6,0-1.2-0.1-1.8-0.4c-2.3-1-3.3-3.7-2.3-5.9
		c0.7-1.7,2.4-2.7,4.1-2.7c0.6,0,1.2,0.1,1.8,0.4C74.9,178.6,75.9,180.2,75.9,182z"/>
	<path class="st1" d="M70.2,341.4c0.2,0.5,0.3,1,0.3,1.5c0,1.8-1.1,3.6-3,4.2c-0.5,0.2-1,0.3-1.5,0.3c-0.9,0-1.8-0.3-2.6-0.8
		c-0.7-0.5-1.3-1.2-1.7-2.2c-0.9-2.3,0.4-4.9,2.7-5.8c0.5-0.2,1-0.3,1.5-0.3C67.8,338.4,69.6,339.5,70.2,341.4z"/>
	<path class="st2" d="M70.3,195.9c0,0.5-0.1,1-0.3,1.5c-0.3,0.9-0.9,1.7-1.7,2.2c-0.8,0.5-1.6,0.8-2.6,0.8c-0.5,0-1-0.1-1.5-0.3
		c-2.3-0.8-3.6-3.4-2.7-5.8c0.7-1.8,2.4-3,4.2-3c0.5,0,1,0.1,1.5,0.3C69.2,192.3,70.3,194,70.3,195.9z"/>
	<path class="st2" d="M65.7,327.5c0.1,0.4,0.2,0.8,0.2,1.2c0,2-1.3,3.8-3.3,4.3c-0.4,0.1-0.8,0.2-1.2,0.2c-1,0-1.9-0.3-2.7-0.9
		s-1.3-1.4-1.6-2.4c-0.7-2.4,0.7-4.9,3.1-5.6c0.4-0.1,0.8-0.2,1.2-0.2C63.4,324.2,65.2,325.5,65.7,327.5z"/>
	<path class="st2" d="M65.7,210.1c0,0.4-0.1,0.8-0.2,1.2c-0.3,1-0.9,1.8-1.6,2.4c-0.8,0.6-1.7,0.9-2.7,0.9c-0.4,0-0.8-0.1-1.2-0.2
		c-2.4-0.7-3.8-3.2-3.1-5.6c0.6-2,2.4-3.3,4.3-3.3c0.4,0,0.8,0.1,1.2,0.2C64.4,206.3,65.7,208.1,65.7,210.1z"/>
	<path class="st2" d="M62.2,313.3c0.1,0.3,0.1,0.6,0.1,0.9c0,2.1-1.5,4-3.6,4.4c-0.3,0.1-0.6,0.1-0.9,0.1c-1,0-2-0.4-2.8-1
		s-1.4-1.5-1.6-2.6c-0.5-2.4,1-4.8,3.5-5.3c0.3-0.1,0.6-0.1,0.9-0.1C59.9,309.7,61.7,311.1,62.2,313.3z"/>
	<path class="st2" d="M62.2,224.6c0,0.3,0,0.6-0.1,0.9c-0.2,1.1-0.8,2-1.6,2.6s-1.8,1-2.8,1c-0.3,0-0.6,0-0.9-0.1
		c-2.4-0.5-4-2.9-3.5-5.3c0.5-2.1,2.3-3.6,4.4-3.6c0.3,0,0.6,0,0.9,0.1C60.7,220.6,62.2,222.5,62.2,224.6z"/>
	<path d="M59.7,298.8c0,0.2,0,0.4,0,0.6c0,2.2-1.6,4.1-3.9,4.5c-0.2,0-0.4,0-0.6,0c-1.1,0-2.1-0.4-2.9-1.1c-0.8-0.7-1.4-1.6-1.5-2.8
		c-0.3-2.5,1.4-4.7,3.8-5.1c0.2,0,0.4,0,0.6,0C57.4,295,59.3,296.6,59.7,298.8z"/>
	<path class="st2" d="M59.6,239.3c0,0.2,0,0.4,0,0.6c-0.3,2.3-2.2,3.9-4.5,3.9c-0.2,0-0.4,0-0.6,0c-2.5-0.3-4.2-2.6-3.8-5.1
		c0.3-2.3,2.2-3.9,4.5-3.9c0.2,0,0.4,0,0.6,0C58,235.2,59.6,237.1,59.6,239.3z"/>
	<path d="M58.1,284.3c0,0.1,0,0.2,0,0.3c0,2.4-1.8,4.3-4.2,4.5c-0.1,0-0.2,0-0.3,0c-1.2,0-2.2-0.5-3.1-1.2s-1.3-1.8-1.4-3
		c-0.2-2.5,1.7-4.6,4.2-4.8c0.1,0,0.2,0,0.3,0C56,280.1,58,281.9,58.1,284.3z"/>
	<path class="st2" d="M58.1,254.2c0,0.1,0,0.2,0,0.3c-0.1,1.2-0.6,2.2-1.4,3c-0.8,0.8-1.9,1.2-3.1,1.2c-0.1,0-0.2,0-0.3,0
		c-2.5-0.2-4.3-2.3-4.2-4.8c0.2-2.4,2.1-4.2,4.5-4.2c0.1,0,0.2,0,0.3,0C56.3,249.9,58.1,251.8,58.1,254.2z"/>
	<path class="st3" d="M56.3,265.9c0.8,0.8,1.3,1.9,1.3,3.2c0,0.1,0,0.2,0,0.3c0,0.1,0,0.2,0,0.3l0,0c0,2.5-2,4.5-4.5,4.5l0,0
		c-1.2,0-2.4-0.5-3.2-1.3s-1.3-1.9-1.3-3.2c0-0.1,0-0.2,0-0.3c0-0.1,0-0.2,0-0.3c0-1.2,0.5-2.4,1.3-3.2c0.8-0.8,1.9-1.3,3.2-1.3
		C54.3,264.6,55.5,265.1,56.3,265.9z"/>
</g>
</svg>
