<?xml version="1.0" encoding="utf-8"?>
<!-- Generator: Adobe Illustrator 26.0.1, SVG Export Plug-In . SVG Version: 6.00 Build 0)  -->
<svg version="1.1" id="Layer_1" xmlns="http://www.w3.org/2000/svg" xmlns:xlink="http://www.w3.org/1999/xlink" x="0px" y="0px"
	 viewBox="0 0 538.1 538.1" style="enable-background:new 0 0 538.1 538.1;" xml:space="preserve">
<style type="text/css">
	.st0{fill:#6A56A4;}
</style>
<g id="Ring12">
	<path class="st0" d="M536.8,276.4v0.1c0,1.2-0.5,2.3-1.4,3.1c-0.8,0.8-1.9,1.3-3.1,1.3h-0.1c-2.5-0.1-4.5-2.1-4.4-4.6
		s2.1-4.4,4.5-4.4h0.1C534.8,271.9,536.8,274,536.8,276.4z"/>
	<path class="st0" d="M536.8,261.3v0.1c0,2.4-1.9,4.4-4.4,4.5h-0.1c-1.2,0-2.3-0.5-3.1-1.3s-1.3-1.9-1.4-3.1
		c-0.1-2.5,1.9-4.6,4.4-4.6h0.1C534.7,256.9,536.7,258.9,536.8,261.3z"/>
	<path class="st0" d="M536,291.3c0,0.1,0,0.2,0,0.4c-0.1,1.2-0.6,2.2-1.4,3c-0.8,0.7-1.9,1.2-3,1.2c-0.1,0-0.2,0-0.4,0
		c-2.5-0.2-4.3-2.4-4.1-4.8s2.2-4.2,4.5-4.2c0.1,0,0.2,0,0.3,0C534.2,287,536,289,536,291.3z"/>
	<path class="st0" d="M535.9,246.1c0,0.1,0,0.2,0,0.4c0,2.3-1.8,4.3-4.1,4.5c-0.1,0-0.2,0-0.4,0c-1.2,0-2.2-0.4-3-1.2
		c-0.8-0.7-1.3-1.8-1.4-3c-0.2-2.5,1.7-4.6,4.1-4.8c0.1,0,0.2,0,0.4,0C533.8,242,535.8,243.8,535.9,246.1z"/>
	<path class="st0" d="M534.5,306.2c0,0.2,0,0.4,0,0.6c-0.1,1.1-0.7,2.1-1.5,2.8c-0.8,0.7-1.8,1.1-2.9,1.1c-0.2,0-0.4,0-0.6,0
		c-2.5-0.3-4.2-2.6-3.9-5.1c0.3-2.3,2.2-3.9,4.5-3.9c0.2,0,0.4,0,0.6,0C532.8,302,534.5,304,534.5,306.2z"/>
	<path class="st0" d="M534.3,231c0,0.2,0,0.4,0,0.6c0,2.2-1.6,4.1-3.9,4.5c-0.2,0-0.4,0-0.6,0c-1.1,0-2.2-0.4-3-1.1
		c-0.8-0.7-1.4-1.7-1.5-2.8c-0.3-2.5,1.4-4.7,3.9-5.1c0.2,0,0.4,0,0.6,0C532.1,227.1,534,228.8,534.3,231z"/>
	<path class="st0" d="M532.1,321c0,0.3,0,0.5-0.1,0.8c-0.2,1.1-0.8,2-1.6,2.6s-1.8,1-2.9,1c-0.3,0-0.6,0-0.8-0.1
		c-2.4-0.5-4.1-2.8-3.6-5.2c0.4-2.2,2.3-3.7,4.4-3.7c0.3,0,0.6,0,0.8,0.1C530.6,316.9,532.1,318.8,532.1,321z"/>
	<path class="st0" d="M531.9,216c0.1,0.3,0.1,0.6,0.1,0.8c0,2.1-1.5,4-3.7,4.4c-0.3,0.1-0.6,0.1-0.8,0.1c-1.1,0-2.1-0.4-2.9-1
		c-0.8-0.6-1.4-1.6-1.6-2.6c-0.5-2.4,1.1-4.8,3.6-5.3c0.3-0.1,0.6-0.1,0.8-0.1C529.6,212.4,531.5,213.9,531.9,216z"/>
	<path class="st0" d="M529,335.6c0,0.3,0,0.7-0.1,1.1c-0.2,1-0.8,1.9-1.6,2.5s-1.7,0.9-2.8,0.9c-0.4,0-0.7,0-1.1-0.1
		c-2.4-0.6-3.9-3-3.3-5.4c0.5-2.1,2.3-3.4,4.4-3.4c0.3,0,0.7,0,1.1,0.1C527.6,331.7,529,333.5,529,335.6z"/>
	<path class="st0" d="M528.7,201.2c0.1,0.4,0.1,0.7,0.1,1.1c0,2-1.4,3.9-3.4,4.4c-0.4,0.1-0.7,0.1-1.1,0.1c-1,0-2-0.3-2.8-0.9
		c-0.8-0.6-1.4-1.5-1.6-2.5c-0.6-2.4,0.9-4.9,3.3-5.4c0.4-0.1,0.7-0.1,1.1-0.1C526.3,197.8,528.2,199.1,528.7,201.2z"/>
	<path class="st0" d="M525,350c0,0.4-0.1,0.9-0.2,1.3c-0.3,1-0.9,1.8-1.7,2.3s-1.7,0.9-2.7,0.9c-0.4,0-0.9-0.1-1.3-0.2
		c-2.4-0.7-3.7-3.2-3-5.6c0.6-1.9,2.4-3.2,4.3-3.2c0.4,0,0.9,0.1,1.3,0.2C523.8,346.3,525,348,525,350z"/>
	<path class="st0" d="M524.7,186.5c0.1,0.4,0.2,0.9,0.2,1.3c0,1.9-1.2,3.7-3.2,4.3c-0.4,0.1-0.9,0.2-1.3,0.2c-1,0-1.9-0.3-2.6-0.9
		c-0.8-0.6-1.4-1.4-1.7-2.3c-0.7-2.4,0.6-4.9,3-5.6c0.4-0.1,0.9-0.2,1.3-0.2C522.3,183.4,524.1,184.6,524.7,186.5z"/>
	<path class="st0" d="M520.3,364.2c0,0.5-0.1,1-0.3,1.5c-0.3,0.9-0.9,1.6-1.7,2.2c-0.7,0.5-1.6,0.8-2.5,0.8c-0.5,0-1-0.1-1.5-0.3
		c-2.3-0.9-3.5-3.4-2.7-5.8l0,0c0.8-2.3,3.4-3.5,5.8-2.7C519.2,360.6,520.3,362.3,520.3,364.2z"/>
	<path class="st0" d="M519.8,172.1c0.2,0.5,0.3,1,0.3,1.6c0,1.8-1.1,3.6-3,4.2c-0.5,0.2-1,0.3-1.5,0.3c-0.9,0-1.8-0.3-2.5-0.8
		s-1.3-1.2-1.7-2.2c-0.9-2.3,0.3-4.9,2.7-5.8c0.5-0.2,1-0.3,1.6-0.3C517.4,169.2,519.2,170.3,519.8,172.1z"/>
	<path class="st0" d="M514.8,378.1c0,0.6-0.1,1.2-0.4,1.8l0,0c-0.4,0.8-1,1.5-1.7,2s-1.6,0.7-2.4,0.7c-0.6,0-1.2-0.1-1.8-0.4
		c-2.3-1-3.3-3.6-2.4-5.9c1-2.3,3.6-3.3,5.9-2.4C513.8,374.6,514.8,376.3,514.8,378.1z"/>
	<path class="st0" d="M514.2,158c0.2,0.6,0.4,1.2,0.4,1.8c0,1.7-1,3.4-2.7,4.1c-0.6,0.2-1.2,0.4-1.8,0.4c-0.9,0-1.7-0.3-2.4-0.7
		c-0.7-0.5-1.3-1.2-1.7-2l0,0c-1-2.3,0.1-4.9,2.4-5.9c0.6-0.2,1.2-0.4,1.8-0.4C511.8,155.3,513.5,156.3,514.2,158z"/>
	<path class="st0" d="M508.5,391.6c0,0.7-0.1,1.4-0.5,2c-0.4,0.8-1,1.4-1.7,1.8s-1.5,0.7-2.4,0.7c-0.7,0-1.3-0.2-2-0.5
		c-2.2-1.1-3.1-3.8-2-6c0.8-1.6,2.4-2.5,4-2.5c0.7,0,1.4,0.2,2,0.5C507.6,388.4,508.5,390,508.5,391.6z"/>
	<path class="st0" d="M507.8,144.2c0.3,0.6,0.5,1.3,0.5,2c0,1.7-0.9,3.2-2.5,4c-0.6,0.3-1.3,0.5-2,0.5c-0.8,0-1.6-0.2-2.3-0.6
		c-0.7-0.4-1.3-1.1-1.7-1.8c-1.1-2.2-0.2-4.9,2-6c0.6-0.3,1.3-0.5,2-0.5C505.4,141.7,507,142.6,507.8,144.2z"/>
	<path class="st0" d="M501.5,404.8c0,0.8-0.2,1.5-0.6,2.2c-0.8,1.5-2.3,2.3-3.9,2.3c-0.8,0-1.5-0.2-2.2-0.6c-2.1-1.2-2.9-4-1.7-6.1
		c0.8-1.4,2.3-2.3,3.9-2.3c0.8,0,1.5,0.2,2.2,0.6C500.7,401.7,501.5,403.2,501.5,404.8z"/>
	<path class="st0" d="M500.6,130.8c0.4,0.7,0.6,1.5,0.6,2.2c0,1.6-0.8,3.1-2.2,3.9c-0.7,0.4-1.5,0.6-2.2,0.6c-1.6,0-3.1-0.8-3.9-2.2
		l0,0c-1.2-2.1-0.5-4.9,1.7-6.1c0.7-0.4,1.5-0.6,2.2-0.6C498.2,128.6,499.7,129.4,500.6,130.8z"/>
	<path class="st0" d="M493.7,417.5c0,0.8-0.2,1.7-0.7,2.5c-0.9,1.3-2.3,2-3.8,2c-0.8,0-1.7-0.2-2.5-0.7c-2.1-1.4-2.7-4.2-1.3-6.2
		c0.9-1.3,2.3-2,3.8-2c0.9,0,1.7,0.2,2.5,0.7C492.9,414.6,493.7,416,493.7,417.5z"/>
	<path class="st0" d="M492.6,117.8c0.5,0.8,0.7,1.6,0.7,2.5c0,1.5-0.7,2.9-2,3.8c-0.8,0.5-1.6,0.7-2.5,0.7c-1.5,0-2.9-0.7-3.8-2
		c-1.4-2.1-0.8-4.9,1.3-6.2c0.8-0.5,1.6-0.7,2.5-0.7C490.3,115.8,491.7,116.5,492.6,117.8z"/>
	<path class="st0" d="M485.1,429.7c0,0.9-0.3,1.9-0.9,2.7c-0.9,1.2-2.2,1.8-3.6,1.8c-0.9,0-1.9-0.3-2.7-0.9c-2-1.5-2.4-4.3-0.9-6.3
		c0.9-1.2,2.2-1.8,3.6-1.8c0.9,0,1.9,0.3,2.7,0.9C484.5,427,485.1,428.4,485.1,429.7z"/>
	<path class="st0" d="M483.9,105.4c0.6,0.8,0.9,1.8,0.9,2.7c0,1.4-0.6,2.7-1.8,3.6c-0.8,0.6-1.8,0.9-2.7,0.9c-1.4,0-2.7-0.6-3.6-1.8
		c-1.5-2-1.1-4.8,0.9-6.3c0.8-0.6,1.8-0.9,2.7-0.9C481.6,103.6,483,104.2,483.9,105.4z"/>
	<path class="st0" d="M475.8,441.5c0,1-0.3,2-1.1,2.9c-0.9,1.1-2.2,1.6-3.4,1.6c-1,0-2.1-0.4-2.9-1.1c-1.9-1.6-2.1-4.4-0.5-6.3
		c0.9-1.1,2.2-1.6,3.4-1.6c1,0,2.1,0.3,2.9,1C475.3,438.9,475.8,440.2,475.8,441.5z"/>
	<path class="st0" d="M474.4,93.4c0.7,0.8,1.1,1.9,1.1,2.9c0,1.3-0.5,2.5-1.6,3.4c-0.9,0.7-1.9,1.1-2.9,1.1c-1.3,0-2.6-0.5-3.4-1.6
		c-1.6-1.9-1.4-4.7,0.5-6.3c0.9-0.7,1.9-1.1,2.9-1.1C472.2,91.8,473.5,92.4,474.4,93.4z"/>
	<path class="st0" d="M465.9,452.6c0,1.1-0.4,2.2-1.2,3.1c-0.9,0.9-2.1,1.4-3.3,1.4c-1.1,0-2.2-0.4-3.1-1.2
		c-1.8-1.7-1.9-4.6-0.2-6.4c0.9-0.9,2.1-1.4,3.3-1.4c1.1,0,2.2,0.4,3.1,1.2C465.4,450.2,465.9,451.4,465.9,452.6z"/>
	<path class="st0" d="M464.2,82.1c0.8,0.9,1.2,2,1.2,3.1c0,1.2-0.5,2.4-1.4,3.3c-0.9,0.8-2,1.2-3.1,1.2c-1.2,0-2.4-0.5-3.2-1.4
		c-1.7-1.8-1.7-4.6,0.1-6.4c0.9-0.8,2-1.2,3.1-1.2C462.1,80.7,463.3,81.2,464.2,82.1z"/>
	<path class="st0" d="M454.1,460c0.8,0.9,1.2,2,1.2,3.1c0,1.2-0.5,2.4-1.4,3.3c-0.9,0.8-2,1.2-3.1,1.2c-1.2,0-2.4-0.5-3.3-1.4
		c-1.7-1.8-1.6-4.7,0.2-6.4c0.9-0.8,2-1.2,3.1-1.2C452,458.6,453.2,459.1,454.1,460z"/>
	<path class="st0" d="M454.8,74.7c0,1.1-0.4,2.2-1.2,3.1c-0.9,1-2.1,1.4-3.3,1.4c-1.1,0-2.2-0.4-3-1.2c-1.8-1.7-1.9-4.5-0.2-6.4
		c0.9-1,2.1-1.4,3.3-1.4c1.1,0,2.2,0.4,3.1,1.2C454.3,72.3,454.8,73.5,454.8,74.7z"/>
	<path class="st0" d="M443,470.1c0.7,0.8,1,1.9,1,2.9c0,1.3-0.6,2.6-1.6,3.5c-0.8,0.7-1.9,1-2.9,1c-1.3,0-2.6-0.6-3.5-1.6
		c-1.6-1.9-1.3-4.8,0.6-6.3c0.8-0.7,1.8-1,2.8-1C440.8,468.4,442.1,469,443,470.1z"/>
	<path class="st0" d="M443.5,64.9c0,1-0.3,2-1,2.8c-0.9,1.1-2.2,1.7-3.5,1.7c-1,0-2-0.3-2.9-1c-1.9-1.6-2.2-4.4-0.6-6.3
		c0.9-1.1,2.2-1.7,3.5-1.7c1,0,2,0.3,2.9,1C443,62.3,443.5,63.6,443.5,64.9z"/>
	<path class="st0" d="M431.3,479.4c0.6,0.8,0.9,1.7,0.9,2.6c0,1.4-0.7,2.8-1.9,3.6c-0.8,0.6-1.7,0.9-2.6,0.9c-1.4,0-2.8-0.6-3.7-1.9
		c-1.4-2-1-4.8,1-6.3l0,0C427.1,477,429.9,477.4,431.3,479.4z"/>
	<path class="st0" d="M431.7,55.8c0,0.9-0.3,1.8-0.8,2.6c-0.9,1.2-2.2,1.9-3.7,1.9c-0.9,0-1.8-0.3-2.6-0.9c-2-1.5-2.5-4.3-1-6.3
		c0.9-1.2,2.3-1.9,3.6-1.9c0.9,0,1.8,0.3,2.6,0.8C431,53.1,431.7,54.4,431.7,55.8z"/>
	<path class="st0" d="M419.1,488c0.5,0.8,0.7,1.6,0.7,2.4c0,1.5-0.7,2.9-2.1,3.8c-0.8,0.5-1.6,0.7-2.4,0.7c-1.5,0-3-0.7-3.8-2.1
		c-1.3-2.1-0.7-4.9,1.4-6.2c0.8-0.5,1.6-0.7,2.4-0.7C416.8,486,418.3,486.7,419.1,488z"/>
	<path d="M419.3,47.5c0,0.8-0.2,1.7-0.7,2.4c-0.9,1.4-2.3,2.1-3.8,2.1c-0.8,0-1.7-0.2-2.4-0.7c-2.1-1.3-2.7-4.1-1.4-6.2
		c0.9-1.4,2.3-2.1,3.8-2.1c0.8,0,1.7,0.2,2.4,0.7C418.5,44.5,419.3,46,419.3,47.5z"/>
	<path class="st0" d="M406.4,495.9c0.4,0.7,0.6,1.4,0.6,2.2c0,1.6-0.8,3.1-2.3,3.9c-0.7,0.4-1.5,0.6-2.2,0.6c-1.6,0-3.1-0.8-3.9-2.3
		c-1.2-2.2-0.4-4.9,1.8-6.1S405.2,493.7,406.4,495.9z"/>
	<path class="st0" d="M406.4,39.9c0,0.7-0.2,1.5-0.6,2.2c-0.8,1.5-2.4,2.3-3.9,2.3c-0.7,0-1.5-0.2-2.2-0.6c-2.2-1.2-3-3.9-1.8-6.1
		c0.8-1.5,2.4-2.3,3.9-2.3c0.7,0,1.5,0.2,2.2,0.6C405.6,36.7,406.4,38.3,406.4,39.9z"/>
	<path class="st0" d="M393.3,503c0.3,0.6,0.4,1.3,0.4,1.9c0,1.7-0.9,3.3-2.5,4.1c-0.6,0.3-1.3,0.4-2,0.4c-0.8,0-1.6-0.2-2.4-0.7
		s-1.3-1.1-1.7-1.9c-1.1-2.2-0.1-4.9,2.1-6c0.6-0.3,1.3-0.4,1.9-0.4C390.9,500.5,392.5,501.4,393.3,503z"/>
	<path class="st0" d="M393.2,33c0,0.7-0.2,1.3-0.5,1.9c-0.4,0.8-1,1.5-1.7,1.9s-1.5,0.7-2.4,0.7c-0.6,0-1.3-0.1-1.9-0.4
		c-2.2-1.1-3.2-3.8-2.1-6c0.8-1.6,2.4-2.6,4.1-2.6c0.6,0,1.3,0.1,1.9,0.4C392.2,29.7,393.2,31.3,393.2,33z"/>
	<path class="st0" d="M379.7,509.4c0.2,0.6,0.3,1.1,0.3,1.7c0,1.8-1.1,3.4-2.8,4.2c-0.6,0.2-1.1,0.3-1.7,0.3c-0.9,0-1.7-0.3-2.5-0.7
		s-1.3-1.2-1.7-2c-1-2.3,0.1-4.9,2.4-5.9c0.6-0.2,1.1-0.3,1.7-0.3C377.3,506.6,379,507.6,379.7,509.4z"/>
	<path class="st0" d="M379.5,26.9c0,0.6-0.1,1.1-0.3,1.7c-0.4,0.9-1,1.6-1.7,2.1s-1.6,0.7-2.5,0.7c-0.6,0-1.1-0.1-1.7-0.3
		c-2.3-0.9-3.4-3.6-2.4-5.9c0.7-1.7,2.4-2.8,4.2-2.8c0.6,0,1.1,0.1,1.7,0.3C378.4,23.5,379.5,25.2,379.5,26.9z"/>
	<path class="st0" d="M365.9,514.9c0.2,0.5,0.2,1,0.2,1.5c0,1.8-1.2,3.6-3,4.2c-0.5,0.2-1,0.3-1.5,0.3c-0.9,0-1.8-0.3-2.6-0.8
		c-0.8-0.5-1.3-1.3-1.7-2.2c-0.8-2.4,0.4-4.9,2.8-5.7c0.5-0.2,1-0.3,1.5-0.3C363.5,511.9,365.2,513.1,365.9,514.9z"/>
	<path class="st0" d="M365.5,21.6c0,0.5-0.1,1-0.2,1.5c-0.3,0.9-0.9,1.7-1.7,2.2c-0.8,0.5-1.6,0.8-2.6,0.8c-0.5,0-1-0.1-1.5-0.2
		c-2.3-0.8-3.6-3.4-2.8-5.7c0.6-1.9,2.4-3,4.3-3c0.5,0,1,0.1,1.5,0.2C364.4,18,365.5,19.8,365.5,21.6z"/>
	<path class="st0" d="M351.7,519.7c0.1,0.4,0.2,0.8,0.2,1.3c0,2-1.3,3.7-3.2,4.3c-0.4,0.1-0.8,0.2-1.3,0.2c-1,0-1.9-0.3-2.7-0.9
		c-0.8-0.6-1.3-1.4-1.6-2.4c-0.7-2.4,0.7-4.9,3-5.6c0.4-0.1,0.8-0.2,1.3-0.2C349.3,516.5,351.1,517.7,351.7,519.7z"/>
	<path class="st0" d="M351.3,17.1c0,0.4-0.1,0.8-0.2,1.3c-0.3,1-0.9,1.8-1.6,2.4c-0.8,0.6-1.7,0.9-2.7,0.9c-0.4,0-0.8-0.1-1.2-0.2
		c-2.4-0.7-3.8-3.2-3.1-5.6c0.6-2,2.4-3.2,4.3-3.2c0.4,0,0.8,0.1,1.2,0.2C350,13.4,351.3,15.2,351.3,17.1z"/>
	<path class="st0" d="M337.3,523.7c0.1,0.4,0.1,0.7,0.1,1c0,2-1.4,3.9-3.5,4.4c-0.3,0.1-0.7,0.1-1,0.1c-1,0-2-0.4-2.8-1
		s-1.4-1.5-1.6-2.5c-0.6-2.4,0.9-4.8,3.3-5.4c0.4-0.1,0.7-0.1,1.1-0.1C335,520.3,336.8,521.7,337.3,523.7z"/>
	<path class="st0" d="M336.8,13.3c0,0.3,0,0.7-0.1,1c-0.2,1-0.8,1.9-1.6,2.5c-0.8,0.6-1.8,1-2.8,1c-0.3,0-0.7,0-1-0.1
		c-2.4-0.6-3.9-3-3.4-5.4c0.5-2.1,2.3-3.5,4.4-3.5c0.3,0,0.7,0,1,0.1C335.4,9.4,336.8,11.3,336.8,13.3z"/>
	<path class="st0" d="M322.8,527.1c0.1,0.3,0.1,0.6,0.1,0.8c0,2.1-1.5,4-3.7,4.4c-0.3,0.1-0.5,0.1-0.8,0.1c-1.1,0-2.1-0.4-2.9-1
		c-0.8-0.7-1.4-1.6-1.6-2.7c-0.4-2.4,1.2-4.8,3.6-5.2c0.3,0,0.6-0.1,0.8-0.1C320.5,523.4,322.4,524.9,322.8,527.1z"/>
	<path class="st0" d="M322.2,10.3c0,0.3,0,0.5-0.1,0.8c-0.2,1.1-0.8,2-1.6,2.7c-0.8,0.6-1.8,1-2.9,1c-0.3,0-0.5,0-0.8-0.1
		c-2.5-0.5-4.1-2.8-3.6-5.2c0.4-2.2,2.3-3.7,4.4-3.7c0.3,0,0.5,0,0.8,0.1C320.7,6.2,322.2,8.1,322.2,10.3z"/>
	<path class="st0" d="M308.1,529.7c0,0.2,0,0.4,0,0.6c0,2.2-1.6,4.1-3.9,4.5c-0.2,0-0.4,0-0.6,0c-1.1,0-2.1-0.4-2.9-1.1
		c-0.8-0.7-1.4-1.6-1.5-2.8c-0.3-2.5,1.4-4.7,3.8-5.1l0,0C305.4,525.5,307.7,527.2,308.1,529.7z"/>
	<path class="st0" d="M307.5,7.9c0,0.2,0,0.4,0,0.6c-0.3,2.2-2.2,3.9-4.4,3.9l0,0c-0.2,0-0.4,0-0.6,0c-2.5-0.3-4.2-2.6-3.9-5.1
		c0.3-2.2,2.2-3.9,4.5-3.9c0.2,0,0.4,0,0.6,0C305.8,3.7,307.5,5.7,307.5,7.9z"/>
	<path class="st0" d="M293.2,531.6c0,0.1,0,0.3,0,0.4c0,2.3-1.8,4.3-4.1,4.5c-0.1,0-0.3,0-0.4,0c-1.1,0-2.2-0.4-3-1.2
		c-0.8-0.7-1.4-1.7-1.5-2.9c-0.2-2.5,1.6-4.7,4.1-4.9c0.1,0,0.3,0,0.4,0C291.1,527.5,293,529.2,293.2,531.6z"/>
	<path class="st0" d="M292.6,6.2c0,0.1,0,0.3,0,0.4c-0.1,1.2-0.6,2.2-1.5,2.9c-0.8,0.7-1.9,1.2-3,1.2c-0.1,0-0.3,0-0.4,0
		c-2.5-0.2-4.3-2.4-4.1-4.9c0.2-2.3,2.2-4.1,4.5-4.1c0.1,0,0.3,0,0.4,0C290.9,1.9,292.6,3.9,292.6,6.2z"/>
	<path class="st0" d="M278.3,532.8c0,0.1,0,0.2,0,0.2c0,2.4-1.9,4.4-4.3,4.5c-0.1,0-0.2,0-0.2,0c-1.2,0-2.3-0.5-3.1-1.2
		c-0.8-0.8-1.3-1.8-1.4-3c-0.1-2.5,1.8-4.6,4.3-4.7c0.1,0,0.1,0,0.2,0C276.2,528.6,278.2,530.4,278.3,532.8z"/>
	<path class="st0" d="M277.7,5.1c0,0.1,0,0.2,0,0.2c-0.1,1.2-0.6,2.3-1.4,3c-0.8,0.8-1.9,1.2-3.1,1.2c-0.1,0-0.1,0-0.2,0
		c-2.5-0.1-4.4-2.2-4.3-4.7c0.1-2.4,2.1-4.3,4.5-4.3c0.1,0,0.2,0,0.2,0C275.9,0.8,277.7,2.8,277.7,5.1z"/>
	<path class="st0" d="M263.4,533.1c0,0.1,0,0.1,0,0.2c-0.1,1.2-0.6,2.3-1.4,3.1s-1.9,1.2-3.1,1.2c-0.1,0-0.1,0-0.2,0
		c-2.5-0.1-4.4-2.2-4.3-4.7c0.1-2.4,2.1-4.3,4.5-4.3c0.1,0,0.1,0,0.2,0C261.5,528.7,263.4,530.7,263.4,533.1z"/>
	<path class="st0" d="M262.8,5c0,0.1,0,0.1,0,0.2c0,2.4-1.9,4.4-4.3,4.5c-0.1,0-0.1,0-0.2,0c-1.2,0-2.3-0.5-3.1-1.2
		c-0.8-0.8-1.3-1.9-1.4-3.1c-0.1-2.5,1.8-4.6,4.3-4.7c0.1,0,0.1,0,0.2,0C260.7,0.7,262.7,2.6,262.8,5z"/>
	<path class="st0" d="M248.5,532c0,0.1,0,0.3,0,0.4c-0.1,1.2-0.7,2.2-1.5,2.9s-1.9,1.2-3,1.2c-0.1,0-0.3,0-0.4,0
		c-2.5-0.2-4.3-2.4-4.1-4.9c0.2-2.3,2.2-4.1,4.5-4.1c0.2,0,0.3,0,0.4,0C246.8,527.8,248.5,529.7,248.5,532z"/>
	<path class="st0" d="M247.8,5.8c0,0.2,0,0.3,0,0.4c0,2.3-1.7,4.2-4.1,4.5c-0.2,0-0.3,0-0.4,0c-1.2,0-2.2-0.4-3-1.2
		c-0.8-0.7-1.4-1.7-1.5-2.9c-0.2-2.5,1.6-4.7,4-4.9c0.1,0,0.3,0,0.4,0C245.7,1.8,247.6,3.5,247.8,5.8z"/>
	<path class="st0" d="M233.7,530.2c0,0.2,0,0.5-0.1,0.7c-0.2,1.1-0.7,2.1-1.5,2.8s-1.8,1.1-2.9,1.1c-0.2,0-0.5,0-0.7,0
		c-2.5-0.4-4.1-2.7-3.8-5.1c0.3-2.2,2.3-3.8,4.4-3.8c0.2,0,0.5,0,0.7,0C232.1,526.1,233.7,528,233.7,530.2z"/>
	<path class="st0" d="M233,7.5c0,0.2,0,0.5,0,0.7c0,2.2-1.6,4.1-3.8,4.4c-0.2,0-0.5,0.1-0.7,0.1c-1.1,0-2.1-0.4-2.9-1.1
		c-0.8-0.7-1.3-1.6-1.5-2.7c-0.4-2.5,1.3-4.8,3.8-5.1c0.2,0,0.5-0.1,0.7-0.1C230.7,3.7,232.6,5.2,233,7.5z"/>
	<path d="M215.4,523.1c2.4,0.5,4,2.9,3.5,5.3c-0.2,1-0.8,2-1.6,2.6s-1.8,1-2.8,1c-0.3,0-0.6,0-0.9-0.1c-2.4-0.5-4-2.9-3.5-5.3
		c0.4-2.1,2.3-3.6,4.4-3.6C214.8,523,215.1,523,215.4,523.1L215.4,523.1z"/>
	<path class="st0" d="M218.3,9.9c0.1,0.3,0.1,0.6,0.1,1c0,2.1-1.4,3.9-3.6,4.4c-0.3,0.1-0.6,0.1-0.9,0.1c-1,0-2-0.4-2.8-1
		s-1.4-1.5-1.6-2.6c-0.5-2.4,1-4.8,3.5-5.3c0.3-0.1,0.6-0.1,0.9-0.1C215.9,6.4,217.8,7.8,218.3,9.9z"/>
	<path class="st0" d="M204.4,524c0,0.4-0.1,0.8-0.2,1.2c-0.3,1-0.9,1.8-1.6,2.4c-0.8,0.6-1.7,0.9-2.7,0.9c-0.4,0-0.8-0.1-1.2-0.2
		c-2.4-0.7-3.8-3.1-3.2-5.5c0.6-2,2.4-3.3,4.3-3.3c0.4,0,0.8,0,1.2,0.2C203.1,520.2,204.4,522,204.4,524z"/>
	<path class="st0" d="M203.7,13.2c0.1,0.4,0.2,0.8,0.2,1.2c0,2-1.3,3.8-3.3,4.3c-0.4,0.1-0.8,0.2-1.2,0.2c-1,0-1.9-0.3-2.7-0.9
		s-1.3-1.4-1.6-2.4c-0.7-2.4,0.8-4.9,3.1-5.5c0.4-0.1,0.8-0.2,1.2-0.2C201.3,9.9,203.1,11.3,203.7,13.2z"/>
	<path class="st0" d="M190.1,519.6c0,0.5-0.1,1-0.2,1.4c-0.3,1-0.9,1.7-1.7,2.2s-1.7,0.8-2.6,0.8c-0.5,0-1-0.1-1.4-0.2
		c-2.4-0.8-3.6-3.3-2.8-5.7c0.6-1.9,2.4-3.1,4.3-3.1c0.5,0,1,0.1,1.4,0.2C188.9,516,190.1,517.7,190.1,519.6z"/>
	<path class="st0" d="M189.3,17.4c0.2,0.5,0.2,1,0.2,1.4c0,1.9-1.2,3.6-3.1,4.3c-0.5,0.2-1,0.2-1.4,0.2c-0.9,0-1.8-0.3-2.6-0.8
		s-1.4-1.3-1.7-2.2c-0.8-2.4,0.5-4.9,2.8-5.7c0.5-0.2,1-0.2,1.4-0.2C186.9,14.3,188.7,15.5,189.3,17.4z"/>
	<path class="st0" d="M176.1,514.5c0,0.6-0.1,1.1-0.3,1.7c-0.3,0.9-0.9,1.6-1.7,2.1c-0.7,0.5-1.6,0.8-2.5,0.8
		c-0.5,0-1.1-0.1-1.7-0.3c-2.3-0.9-3.4-3.5-2.5-5.9c0.7-1.8,2.4-2.8,4.2-2.8c0.6,0,1.1,0.1,1.7,0.3C175,511,176.1,512.7,176.1,514.5
		z"/>
	<path class="st0" d="M175.2,22.3c0.2,0.6,0.3,1.1,0.3,1.7c0,1.8-1.1,3.5-2.8,4.2c-0.6,0.2-1.1,0.3-1.7,0.3c-0.9,0-1.8-0.3-2.5-0.8
		s-1.3-1.2-1.7-2.1c-0.9-2.3,0.2-4.9,2.5-5.9c0.6-0.2,1.1-0.3,1.7-0.3C172.8,19.5,174.5,20.6,175.2,22.3z"/>
	<path class="st0" d="M162.3,508.5c0,0.6-0.1,1.3-0.4,1.9c-0.4,0.8-1,1.5-1.7,1.9c-0.7,0.5-1.5,0.7-2.4,0.7c-0.6,0-1.3-0.1-1.9-0.4
		c-2.3-1.1-3.2-3.7-2.2-6c0.8-1.6,2.4-2.6,4.1-2.6c0.6,0,1.3,0.1,1.9,0.4C161.4,505.2,162.3,506.8,162.3,508.5z"/>
	<path class="st0" d="M161.4,28.1c0.3,0.6,0.4,1.3,0.4,1.9c0,1.7-1,3.3-2.6,4.1c-0.6,0.3-1.3,0.4-1.9,0.4c-0.8,0-1.7-0.2-2.4-0.7
		s-1.3-1.1-1.7-1.9c-1.1-2.2-0.1-4.9,2.2-6c0.6-0.3,1.3-0.4,1.9-0.4C159,25.5,160.7,26.4,161.4,28.1z"/>
	<path class="st0" d="M149,501.8c0,0.7-0.2,1.5-0.5,2.1c-0.8,1.5-2.4,2.4-4,2.4c-0.7,0-1.4-0.2-2.1-0.5c-2.2-1.2-3-3.9-1.8-6.1
		c0.8-1.5,2.4-2.4,4-2.4c0.7,0,1.4,0.2,2.1,0.5C148.1,498.6,149,500.2,149,501.8z"/>
	<path class="st0" d="M148,34.6c0.4,0.7,0.6,1.4,0.6,2.1c0,1.6-0.9,3.1-2.4,4c-0.7,0.4-1.4,0.5-2.1,0.5c-1.6,0-3.1-0.9-4-2.4
		c-1.2-2.2-0.4-4.9,1.8-6.1c0.7-0.4,1.4-0.5,2.1-0.5C145.6,32.2,147.2,33.1,148,34.6z"/>
	<path class="st0" d="M136,494.3c0,0.8-0.2,1.6-0.7,2.4c-0.8,1.4-2.3,2.1-3.8,2.1c-0.8,0-1.6-0.2-2.4-0.7c-2.1-1.3-2.8-4.1-1.5-6.2
		c0.9-1.4,2.3-2.2,3.9-2.2c0.8,0,1.6,0.2,2.3,0.7C135.3,491.3,136,492.8,136,494.3z"/>
	<path class="st0" d="M134.9,41.8c0.5,0.7,0.7,1.6,0.7,2.4c0,1.5-0.8,3-2.1,3.8c-0.7,0.5-1.6,0.7-2.4,0.7c-1.5,0-3-0.8-3.8-2.1
		c-1.3-2.1-0.6-4.9,1.5-6.2c0.7-0.5,1.6-0.7,2.4-0.7C132.6,39.7,134.1,40.4,134.9,41.8z"/>
	<path class="st0" d="M123.5,486.1c0,0.9-0.3,1.8-0.8,2.6c-0.9,1.3-2.3,1.9-3.7,1.9c-0.9,0-1.8-0.3-2.6-0.8c-2-1.4-2.5-4.2-1.1-6.3
		c0.9-1.3,2.3-1.9,3.7-1.9c0.9,0,1.8,0.3,2.6,0.8C122.8,483.3,123.5,484.7,123.5,486.1z"/>
	<path class="st0" d="M122.3,49.8c0.6,0.8,0.8,1.7,0.8,2.6c0,1.4-0.7,2.8-1.9,3.7c-0.8,0.5-1.7,0.8-2.6,0.8c-1.4,0-2.8-0.7-3.7-1.9
		c-1.4-2-0.9-4.8,1.1-6.3c0.8-0.5,1.7-0.8,2.6-0.8C120,47.9,121.4,48.6,122.3,49.8z"/>
	<path class="st0" d="M111.5,477.3c0,1-0.3,1.9-1,2.8c-0.9,1.1-2.2,1.7-3.5,1.7c-1,0-2-0.3-2.8-1c-2-1.5-2.3-4.4-0.8-6.3
		c0.9-1.1,2.2-1.7,3.6-1.7c1,0,1.9,0.3,2.8,1C110.9,474.6,111.5,475.9,111.5,477.3z"/>
	<path class="st0" d="M110.2,58.5c0.6,0.8,1,1.8,1,2.8c0,1.3-0.6,2.7-1.7,3.5c-0.8,0.6-1.8,1-2.8,1c-1.3,0-2.6-0.6-3.5-1.7
		c-1.5-2-1.2-4.8,0.8-6.3c0.8-0.6,1.8-1,2.8-1C108,56.8,109.3,57.4,110.2,58.5z"/>
	<path class="st0" d="M100,467.7c0,1.1-0.4,2.1-1.1,3c-0.9,1-2.1,1.5-3.4,1.5c-1.1,0-2.1-0.4-3-1.1c-1.9-1.6-2-4.5-0.4-6.4
		c0.9-1,2.1-1.5,3.4-1.5c1,0,2.1,0.4,3,1.1C99.4,465.2,100,466.4,100,467.7z"/>
	<path class="st0" d="M98.5,67.9c0.8,0.8,1.1,1.9,1.1,3c0,1.2-0.5,2.5-1.5,3.4c-0.8,0.8-1.9,1.1-3,1.1c-1.2,0-2.5-0.5-3.4-1.5
		c-1.6-1.9-1.5-4.7,0.4-6.4c0.8-0.8,1.9-1.1,3-1.1C96.4,66.3,97.6,66.8,98.5,67.9z"/>
	<path class="st0" d="M89,457.5c0,1.1-0.4,2.3-1.3,3.1c-0.9,0.9-2.1,1.3-3.2,1.3s-2.3-0.4-3.2-1.3c-1.8-1.7-1.8-4.6,0-6.4
		c0.9-0.9,2-1.3,3.2-1.3c1.1,0,2.3,0.4,3.2,1.3C88.6,455.2,89,456.4,89,457.5z"/>
	<path class="st0" d="M87.4,77.9c0.9,0.9,1.3,2,1.3,3.2s-0.4,2.3-1.3,3.2c-0.9,0.9-2,1.3-3.2,1.3s-2.3-0.5-3.2-1.3
		c-1.7-1.8-1.7-4.6,0.1-6.4c0.9-0.9,2-1.3,3.2-1.3C85.4,76.5,86.5,77,87.4,77.9z"/>
	<path class="st0" d="M77.5,443.7c0.8,0.9,1.2,1.9,1.2,3c0,1.2-0.5,2.4-1.5,3.3c-0.9,0.8-1.9,1.2-3,1.2c-1.2,0-2.5-0.5-3.3-1.5
		c-1.7-1.8-1.5-4.7,0.3-6.4c0.9-0.8,1.9-1.2,3-1.2C75.4,442.3,76.6,442.7,77.5,443.7z"/>
	<path class="st0" d="M78.4,91.8c0,1.1-0.4,2.2-1.2,3c-0.9,1-2.1,1.5-3.3,1.5c-1.1,0-2.2-0.4-3-1.2c-1.8-1.7-2-4.5-0.3-6.4
		c0.9-1,2.1-1.5,3.3-1.5c1.1,0,2.2,0.4,3,1.2C77.9,89.4,78.4,90.6,78.4,91.8z"/>
	<path class="st0" d="M67.9,432.6c0.7,0.8,1,1.8,1,2.8c0,1.3-0.6,2.6-1.7,3.5c-0.8,0.7-1.8,1-2.8,1l0,0c-1.3,0-2.6-0.6-3.5-1.7
		c-1.6-1.9-1.3-4.8,0.7-6.3c0.8-0.7,1.8-1,2.8-1C65.7,430.9,67,431.5,67.9,432.6z"/>
	<path class="st0" d="M68.6,103.2c0,1-0.3,2-1,2.8c-0.9,1.1-2.2,1.7-3.5,1.7c-1,0-2-0.3-2.8-1c-1.9-1.6-2.2-4.4-0.7-6.3
		c0.9-1.1,2.2-1.7,3.5-1.7c1,0,2,0.3,2.8,1C68.1,100.6,68.6,101.9,68.6,103.2z"/>
	<path class="st0" d="M59,420.9c0.6,0.8,0.9,1.7,0.9,2.6c0,1.4-0.7,2.8-1.9,3.6c-0.8,0.6-1.7,0.9-2.6,0.9c-1.4,0-2.8-0.6-3.7-1.9
		c-1.5-2-1-4.8,1-6.3c0.8-0.6,1.7-0.8,2.6-0.8C56.7,419.1,58.1,419.7,59,420.9z"/>
	<path class="st0" d="M59.6,115.1c0,0.9-0.3,1.8-0.8,2.6c-0.9,1.2-2.3,1.9-3.7,1.9c-0.9,0-1.8-0.3-2.6-0.9c-2-1.4-2.5-4.3-1-6.3
		c0.9-1.2,2.3-1.9,3.7-1.9c0.9,0,1.8,0.3,2.6,0.8C58.9,112.3,59.6,113.7,59.6,115.1z"/>
	<path class="st0" d="M50.7,408.8c0.5,0.8,0.7,1.6,0.7,2.4c0,1.5-0.7,2.9-2.1,3.8c-0.8,0.5-1.6,0.7-2.4,0.7c-1.5,0-2.9-0.7-3.8-2.1
		c-1.3-2.1-0.7-4.9,1.4-6.2c0.8-0.5,1.6-0.7,2.4-0.7C48.4,406.7,49.9,407.4,50.7,408.8z"/>
	<path class="st0" d="M51.2,127.4c0,0.8-0.2,1.7-0.7,2.4c-0.9,1.4-2.3,2.1-3.8,2.1c-0.8,0-1.7-0.2-2.4-0.7c-2.1-1.3-2.7-4.1-1.4-6.2
		l0,0c0.9-1.3,2.3-2.1,3.8-2.1c0.8,0,1.7,0.2,2.4,0.7C50.4,124.5,51.2,126,51.2,127.4z"/>
	<path class="st0" d="M43.2,396.2c1.2,2.2,0.5,4.9-1.7,6.1c-0.7,0.4-1.5,0.6-2.2,0.6c-1.6,0-3.1-0.8-3.9-2.3
		c-1.2-2.2-0.5-4.9,1.7-6.1c0.7-0.4,1.5-0.6,2.2-0.6C40.8,393.9,42.3,394.7,43.2,396.2z"/>
	<path class="st0" d="M43.5,140.3c0,0.7-0.2,1.5-0.6,2.2c-0.8,1.5-2.3,2.3-3.9,2.3c-0.8,0-1.5-0.2-2.2-0.6c-2.2-1.2-2.9-4-1.7-6.1
		c0.8-1.5,2.3-2.3,3.9-2.3c0.7,0,1.5,0.2,2.2,0.6C42.7,137.2,43.5,138.7,43.5,140.3z"/>
	<path d="M36.3,383.2c0.3,0.6,0.5,1.3,0.5,2c0,1.7-0.9,3.3-2.5,4c-0.6,0.3-1.3,0.5-2,0.5c-0.8,0-1.7-0.2-2.4-0.7
		c-0.7-0.4-1.3-1.1-1.7-1.9c-1.1-2.2-0.2-4.9,2.1-6c0.6-0.3,1.3-0.5,2-0.5C34,380.7,35.6,381.6,36.3,383.2z"/>
	<path class="st0" d="M36.6,153.5c0,0.7-0.2,1.3-0.5,2c-0.4,0.8-1,1.4-1.7,1.9c-0.7,0.4-1.5,0.7-2.4,0.7c-0.7,0-1.3-0.1-2-0.5
		c-2.2-1.1-3.2-3.8-2.1-6c0.8-1.6,2.4-2.5,4-2.5c0.7,0,1.3,0.1,2,0.5C35.6,150.3,36.6,151.9,36.6,153.5z"/>
	<path class="st0" d="M30.3,369.9c0.2,0.6,0.4,1.2,0.4,1.7c0,1.8-1,3.4-2.8,4.1c-0.6,0.2-1.2,0.4-1.8,0.4c-0.9,0-1.7-0.3-2.5-0.7
		c-0.7-0.5-1.3-1.2-1.7-2l0,0c-0.2-0.6-0.3-1.2-0.3-1.7c0-1.8,1-3.4,2.8-4.1c0.6-0.2,1.2-0.4,1.8-0.4
		C27.9,367.1,29.5,368.1,30.3,369.9z"/>
	<path class="st0" d="M30.4,167.2c0,0.6-0.1,1.2-0.3,1.7c-0.4,0.9-1,1.6-1.7,2c-0.7,0.5-1.6,0.7-2.5,0.7c-0.6,0-1.2-0.1-1.7-0.4
		c-2.3-1-3.4-3.6-2.4-5.9c0.7-1.7,2.4-2.8,4.1-2.8c0.6,0,1.2,0.1,1.7,0.3C29.3,163.7,30.4,165.4,30.4,167.2z"/>
	<path class="st0" d="M25,356.2c0.2,0.5,0.3,1,0.3,1.5c0,1.8-1.1,3.6-3,4.2c-0.5,0.2-1,0.3-1.5,0.3c-0.9,0-1.8-0.3-2.6-0.8
		c-0.7-0.5-1.3-1.3-1.7-2.2c-0.8-2.3,0.4-4.9,2.7-5.7c0.5-0.2,1-0.3,1.5-0.3C22.6,353.2,24.3,354.4,25,356.2z"/>
	<path class="st0" d="M25,181.1c0,0.5-0.1,1-0.3,1.5c-0.3,0.9-0.9,1.7-1.7,2.2c-0.8,0.5-1.6,0.8-2.6,0.8c-0.5,0-1-0.1-1.5-0.3
		c-2.4-0.8-3.6-3.4-2.8-5.7c0.6-1.8,2.4-3,4.2-3c0.5,0,1,0.1,1.5,0.3C23.8,177.6,25,179.3,25,181.1z"/>
	<path class="st0" d="M20.4,342.2c0.1,0.4,0.2,0.9,0.2,1.3c0,1.9-1.3,3.7-3.2,4.3c-0.4,0.1-0.8,0.2-1.3,0.2c-1,0-1.9-0.3-2.7-0.9
		s-1.4-1.4-1.6-2.4c-0.7-2.4,0.7-4.9,3.1-5.6c0.4-0.1,0.8-0.2,1.3-0.2C18.1,339,19.9,340.3,20.4,342.2z"/>
	<path class="st0" d="M20.4,195.4c0,0.4-0.1,0.8-0.2,1.2c-0.3,1-0.9,1.8-1.6,2.4c-0.8,0.6-1.7,0.9-2.7,0.9c-0.4,0-0.8-0.1-1.3-0.2
		c-2.4-0.7-3.8-3.2-3.1-5.6c0.6-2,2.4-3.2,4.3-3.2c0.4,0,0.8,0.1,1.3,0.2C19.2,191.6,20.4,193.4,20.4,195.4z"/>
	<path class="st0" d="M16.7,328c0.1,0.3,0.1,0.7,0.1,1c0,2-1.4,3.9-3.5,4.4c-0.3,0.1-0.7,0.1-1,0.1c-1,0-2-0.4-2.8-1
		S8.1,331,7.9,330c-0.6-2.4,1-4.8,3.4-5.4c0.3-0.1,0.7-0.1,1-0.1C14.4,324.5,16.2,325.9,16.7,328z"/>
	<path class="st0" d="M16.7,209.8c0,0.3,0,0.7-0.1,1c-0.2,1-0.8,1.9-1.6,2.5s-1.8,1-2.8,1c-0.3,0-0.7,0-1-0.1
		c-2.4-0.5-3.9-3-3.4-5.4c0.5-2.1,2.3-3.5,4.4-3.5c0.3,0,0.7,0,1,0.1C15.3,205.9,16.7,207.8,16.7,209.8z"/>
	<path class="st0" d="M13.8,313.6c0,0.3,0.1,0.5,0.1,0.8c0,2.1-1.6,4-3.7,4.4c-0.3,0-0.5,0.1-0.8,0.1c-1.1,0-2.1-0.4-2.9-1
		s-1.4-1.6-1.6-2.7c-0.4-2.4,1.2-4.8,3.7-5.2c0.3-0.1,0.5-0.1,0.8-0.1C11.5,309.9,13.4,311.4,13.8,313.6z"/>
	<path class="st0" d="M13.8,224.5c0,0.2,0,0.5-0.1,0.8c-0.2,1.1-0.8,2-1.5,2.7c-0.8,0.7-1.8,1.1-2.9,1.1c-0.2,0-0.5,0-0.8-0.1
		c-2.4-0.4-4.1-2.7-3.7-5.2c0.4-2.2,2.3-3.8,4.4-3.8c0.2,0,0.5,0,0.8,0.1C12.2,220.4,13.8,222.3,13.8,224.5z"/>
	<path class="st0" d="M11.7,299.1c0,0.2,0,0.3,0,0.5c0,2.3-1.7,4.2-4,4.5c-0.2,0-0.3,0-0.5,0c-1.1,0-2.2-0.4-3-1.1s-1.4-1.7-1.5-2.9
		c-0.3-2.5,1.5-4.7,4-5c0.2,0,0.3,0,0.5,0C9.5,295.1,11.4,296.8,11.7,299.1z"/>
	<path class="st0" d="M11.7,239.3c0,0.2,0,0.3,0,0.5c-0.1,1.1-0.7,2.1-1.5,2.9c-0.8,0.7-1.9,1.1-3,1.1c-0.2,0-0.3,0-0.5,0
		c-2.5-0.3-4.2-2.5-4-5c0.2-2.3,2.2-4,4.5-4c0.2,0,0.3,0,0.5,0C10,235.1,11.7,237,11.7,239.3z"/>
	<path class="st0" d="M10.4,284.4c0,0.1,0,0.2,0,0.3c0,2.4-1.8,4.3-4.2,4.5c-0.1,0-0.2,0-0.3,0c-1.2,0-2.3-0.5-3.1-1.2
		s-1.3-1.8-1.4-3c-0.1-2.5,1.8-4.6,4.2-4.8c0.1,0,0.2,0,0.3,0C8.3,280.2,10.3,282.1,10.4,284.4z"/>
	<path class="st0" d="M10.4,254.2c0,0.1,0,0.2,0,0.3c-0.1,1.2-0.6,2.3-1.4,3c-0.8,0.8-1.9,1.2-3.1,1.2c-0.1,0-0.2,0-0.2,0
		c-2.5-0.1-4.4-2.3-4.2-4.7c0.1-2.4,2.1-4.2,4.5-4.2c0.1,0,0.2,0,0.3,0C8.6,249.8,10.4,251.8,10.4,254.2z"/>
	<path class="st0" d="M10,269.8L10,269.8c0,2.5-2,4.5-4.5,4.5l0,0c-1.2,0-2.4-0.5-3.2-1.3c-0.8-0.9-1.3-2-1.3-3.2c0-0.1,0-0.2,0-0.3
		c0-0.1,0-0.2,0-0.3c0-1.2,0.5-2.4,1.3-3.2s1.9-1.3,3.2-1.3s2.4,0.5,3.2,1.3s1.3,1.9,1.3,3.2c0,0.1,0,0.2,0,0.3
		C10,269.5,10,269.7,10,269.8z"/>
</g>
</svg>
