<?xml version="1.0" encoding="utf-8"?>
<!-- Generator: Adobe Illustrator 26.0.1, SVG Export Plug-In . SVG Version: 6.00 Build 0)  -->
<svg version="1.1" id="Layer_1" xmlns="http://www.w3.org/2000/svg" xmlns:xlink="http://www.w3.org/1999/xlink" x="0px" y="0px"
	 viewBox="0 0 538.1 538.1" style="enable-background:new 0 0 538.1 538.1;" xml:space="preserve">
<style type="text/css">
	.st0{fill:#37236B;}
	.st1{fill:#857AAE;}
	.st2{fill:#C5C5C5;}
</style>
<g id="Ring02">
	<path class="st0" d="M140.9,325.7c0.3,0.6,0.4,1.2,0.4,1.8c0,1.7-1,3.4-2.7,4.1c-0.6,0.3-1.2,0.4-1.8,0.4c-0.9,0-1.7-0.2-2.4-0.7
		s-1.3-1.1-1.7-2c-1-2.3,0-4.9,2.3-5.9c0.6-0.3,1.2-0.4,1.8-0.4C138.5,323,140.1,324,140.9,325.7z"/>
	<path class="st0" d="M135.7,312.2c0.2,0.5,0.2,0.9,0.2,1.4c0,1.9-1.2,3.7-3.1,4.3c-0.5,0.1-0.9,0.2-1.4,0.2c-0.9,0-1.9-0.3-2.6-0.8
		c-0.8-0.6-1.4-1.3-1.7-2.3c-0.8-2.4,0.5-4.9,2.9-5.7c0.5-0.1,0.9-0.2,1.4-0.2C133.3,309.1,135.1,310.3,135.7,312.2z"/>
	<path d="M418.3,276.4c0,0.1,0,0.2,0,0.2c0,1.2-0.6,2.3-1.4,3.1c-0.8,0.8-1.9,1.2-3.1,1.2c-0.1,0-0.1,0-0.2,0
		c-2.5-0.1-4.4-2.2-4.3-4.7c0.1-2.4,2.1-4.3,4.5-4.3c0.1,0,0.1,0,0.2,0C416.5,272.1,418.3,274.1,418.3,276.4z"/>
	<path d="M418.3,261.3c0,0.1,0,0.1,0,0.2c0,2.4-1.9,4.4-4.3,4.5c-0.1,0-0.1,0-0.2,0c-1.2,0-2.3-0.5-3.1-1.2s-1.3-1.8-1.4-3
		c-0.1-2.5,1.8-4.6,4.3-4.7c0.1,0,0.1,0,0.2,0C416.2,257,418.2,258.9,418.3,261.3z"/>
	<path d="M416.9,291.3c0,0.2,0,0.4,0,0.7c-0.2,1.1-0.7,2.1-1.5,2.8c-0.8,0.7-1.8,1.1-2.9,1.1c-0.2,0-0.4,0-0.6,0
		c-2.5-0.4-4.2-2.6-3.8-5.1c0.3-2.2,2.2-3.9,4.4-3.9c0.2,0,0.4,0,0.6,0.1C415.3,287.2,416.9,289.1,416.9,291.3z"/>
	<path class="st1" d="M416.8,246c0,0.2,0,0.4,0,0.7c0,2.2-1.6,4.1-3.9,4.4c-0.2,0-0.4,0.1-0.7,0.1c-1.1,0-2.1-0.4-2.9-1.1
		c-0.8-0.7-1.4-1.6-1.5-2.8c-0.4-2.5,1.3-4.8,3.8-5.1c0.2,0,0.4-0.1,0.7-0.1C414.6,242.1,416.5,243.7,416.8,246z"/>
	<path class="st0" d="M414.1,306c0,0.4,0,0.7-0.1,1.1c-0.2,1-0.8,1.9-1.6,2.5c-0.8,0.6-1.7,1-2.8,1c-0.4,0-0.7-0.1-1.1-0.1
		c-2.4-0.6-3.9-3-3.3-5.4c0.5-2,2.3-3.4,4.4-3.4c0.4,0,0.7,0,1.1,0.1C412.7,302.1,414.1,304,414.1,306z"/>
	<path class="st0" d="M413.8,230.9c0.1,0.4,0.1,0.7,0.1,1.1c0,2-1.4,3.9-3.4,4.4c-0.4,0.1-0.7,0.1-1.1,0.1c-1,0-2-0.3-2.8-0.9
		c-0.8-0.6-1.4-1.4-1.6-2.5c-0.6-2.4,0.9-4.9,3.3-5.5c0.4-0.1,0.7-0.1,1.1-0.1C411.5,227.5,413.3,228.8,413.8,230.9z"/>
	<path class="st0" d="M409.8,320.3c0,0.5-0.1,1-0.3,1.5c-0.3,0.9-0.9,1.7-1.7,2.2c-0.8,0.5-1.6,0.8-2.6,0.8c-0.5,0-1-0.1-1.5-0.3
		c-2.4-0.8-3.6-3.4-2.7-5.8c0.7-1.8,2.4-3,4.2-3c0.5,0,1,0.1,1.5,0.3C408.6,316.7,409.8,318.5,409.8,320.3z"/>
	<path class="st1" d="M409.4,216.1c0.2,0.5,0.3,1,0.3,1.5c0,1.8-1.1,3.6-3,4.2c-0.5,0.2-1,0.3-1.5,0.3c-0.9,0-1.8-0.3-2.6-0.8
		c-0.7-0.5-1.3-1.3-1.7-2.2c-0.8-2.3,0.4-4.9,2.7-5.8c0.5-0.2,1-0.3,1.5-0.3C407,213.2,408.7,214.3,409.4,216.1z"/>
	<path class="st1" d="M404.1,334.1c0,0.6-0.1,1.3-0.4,1.9c-0.4,0.8-1,1.5-1.7,1.9s-1.5,0.7-2.4,0.7c-0.6,0-1.3-0.1-1.9-0.4
		c-2.2-1.1-3.2-3.8-2.1-6c0.8-1.6,2.4-2.6,4.1-2.6c0.6,0,1.3,0.1,1.9,0.4C403.1,330.8,404.1,332.4,404.1,334.1z"/>
	<path class="st1" d="M403.5,201.9c0.3,0.6,0.4,1.3,0.4,1.9c0,1.7-0.9,3.3-2.6,4.1c-0.6,0.3-1.3,0.4-1.9,0.4c-0.8,0-1.7-0.2-2.4-0.7
		c-0.7-0.4-1.3-1.1-1.7-1.9c-1.1-2.2-0.1-4.9,2.1-6c0.6-0.3,1.3-0.5,2-0.5C401.1,199.4,402.7,200.3,403.5,201.9z"/>
	<path d="M396.9,347.2c0,0.8-0.2,1.6-0.7,2.4c-0.9,1.4-2.3,2.1-3.8,2.1c-0.8,0-1.6-0.2-2.4-0.7c-2.1-1.3-2.8-4.1-1.5-6.2
		c0.8-1.4,2.3-2.1,3.8-2.1c0.8,0,1.6,0.2,2.3,0.7C396.2,344.2,396.9,345.7,396.9,347.2z"/>
	<path d="M396.1,188.4c0.5,0.7,0.7,1.6,0.7,2.4c0,1.5-0.8,3-2.1,3.8c-0.7,0.5-1.6,0.7-2.4,0.7c-1.5,0-3-0.8-3.8-2.1
		c-1.3-2.1-0.6-4.9,1.5-6.2c0.7-0.5,1.6-0.7,2.4-0.7C393.7,186.3,395.2,187,396.1,188.4z"/>
	<path class="st1" d="M388.4,359.5c0,1-0.3,1.9-0.9,2.8c-0.9,1.1-2.2,1.8-3.6,1.8c-1,0-1.9-0.3-2.8-0.9c-2-1.5-2.3-4.4-0.8-6.3
		c0.9-1.1,2.2-1.7,3.6-1.7c1,0,1.9,0.3,2.8,0.9C387.8,356.9,388.4,358.2,388.4,359.5z"/>
	<path class="st1" d="M387.3,175.7c0.6,0.8,0.9,1.8,0.9,2.8c0,1.3-0.6,2.7-1.7,3.6c-0.8,0.6-1.8,0.9-2.8,0.9c-1.3,0-2.7-0.6-3.6-1.7
		c-1.5-2-1.2-4.8,0.8-6.3c0.8-0.6,1.8-1,2.8-1C385.1,174,386.4,174.6,387.3,175.7z"/>
	<path d="M378.7,370.8c0,1.1-0.4,2.3-1.3,3.1c-0.9,0.9-2.1,1.4-3.2,1.4s-2.3-0.4-3.1-1.3c-1.8-1.7-1.8-4.6-0.1-6.4
		c0.9-0.9,2.1-1.4,3.2-1.4s2.2,0.4,3.1,1.3C378.2,368.5,378.7,369.6,378.7,370.8z"/>
	<path d="M377.1,164.1c0.9,0.9,1.3,2,1.3,3.1c0,1.2-0.5,2.3-1.4,3.2s-2,1.3-3.1,1.3c-1.2,0-2.3-0.5-3.2-1.4
		c-1.7-1.8-1.7-4.6,0.1-6.4c0.9-0.9,2-1.3,3.1-1.3C375.1,162.7,376.3,163.2,377.1,164.1z"/>
	<path d="M366.7,378.1c0.7,0.8,1,1.9,1,2.9c0,1.3-0.6,2.6-1.6,3.5c-0.8,0.7-1.9,1-2.9,1c-1.3,0-2.6-0.6-3.5-1.6
		c-1.6-1.9-1.3-4.8,0.6-6.3c0.8-0.7,1.9-1,2.9-1C364.5,376.4,365.8,377,366.7,378.1z"/>
	<path class="st1" d="M367.4,157.1c0,1-0.3,2-1,2.9c-0.9,1.1-2.2,1.6-3.5,1.6c-1,0-2-0.3-2.9-1c-1.9-1.6-2.2-4.4-0.6-6.3
		c0.9-1.1,2.2-1.6,3.5-1.6c1,0,2,0.3,2.9,1C366.8,154.5,367.4,155.8,367.4,157.1z"/>
	<path class="st1" d="M354.9,387.3c0.5,0.8,0.7,1.6,0.7,2.5c0,1.5-0.7,2.9-2,3.8c-0.8,0.5-1.6,0.7-2.5,0.7c-1.5,0-2.9-0.7-3.8-2
		c-1.4-2.1-0.8-4.9,1.3-6.2l0,0C350.8,384.7,353.6,385.3,354.9,387.3z"/>
	<path d="M355.4,148.3c0,0.8-0.2,1.7-0.7,2.4c-0.9,1.3-2.3,2.1-3.8,2.1c-0.9,0-1.7-0.2-2.5-0.7c-2.1-1.4-2.7-4.1-1.3-6.2
		c0.9-1.3,2.3-2.1,3.8-2.1c0.9,0,1.7,0.2,2.5,0.7C354.6,145.4,355.4,146.8,355.4,148.3z"/>
	<path class="st0" d="M342.2,395.2c0.3,0.7,0.5,1.4,0.5,2c0,1.6-0.9,3.2-2.5,4c-0.6,0.3-1.4,0.5-2,0.5c-0.8,0-1.6-0.2-2.3-0.6
		c-0.7-0.4-1.3-1-1.7-1.8c-1.1-2.2-0.2-4.9,2-6c0.7-0.3,1.4-0.5,2-0.5C339.9,392.8,341.4,393.7,342.2,395.2z"/>
	<path d="M342.4,140.8c0,0.7-0.2,1.4-0.5,2c-0.4,0.8-1,1.4-1.7,1.8c-0.7,0.4-1.5,0.7-2.3,0.7c-0.7,0-1.4-0.2-2-0.5
		c-2.2-1.1-3.1-3.8-2-6c0.8-1.6,2.4-2.5,4-2.5c0.7,0,1.4,0.2,2,0.5C341.5,137.6,342.4,139.2,342.4,140.8z"/>
	<path d="M328.8,401.7c0.2,0.5,0.3,1.1,0.3,1.6c0,1.8-1.1,3.5-2.9,4.2c-0.5,0.2-1.1,0.3-1.6,0.3c-0.9,0-1.8-0.3-2.5-0.8
		s-1.3-1.2-1.7-2.1c-0.9-2.3,0.3-4.9,2.6-5.8c0.5-0.2,1.1-0.3,1.6-0.3C326.4,398.9,328.1,400,328.8,401.7z"/>
	<path d="M328.8,134.8c0,0.5-0.1,1.1-0.3,1.6c-0.3,0.9-0.9,1.6-1.7,2.1c-0.7,0.5-1.6,0.8-2.5,0.8c-0.5,0-1.1-0.1-1.6-0.3
		c-2.3-0.9-3.5-3.5-2.6-5.8c0.7-1.8,2.4-2.9,4.2-2.9c0.5,0,1.1,0.1,1.6,0.3C327.7,131.2,328.8,133,328.8,134.8z"/>
	<path d="M314.8,406.9c0.1,0.4,0.2,0.8,0.2,1.2c0,2-1.3,3.8-3.3,4.3c-0.4,0.1-0.8,0.2-1.2,0.2c-1,0-1.9-0.3-2.7-0.9
		c-0.8-0.6-1.4-1.4-1.6-2.4c-0.7-2.4,0.7-4.9,3.1-5.5C311.6,403.1,314.1,404.5,314.8,406.9z"/>
	<path class="st0" d="M314.6,130.1c0,0.4-0.1,0.8-0.2,1.2c-0.3,1-0.9,1.8-1.6,2.4c-0.8,0.6-1.7,0.9-2.7,0.9c-0.4,0-0.8-0.1-1.2-0.2
		c-2.4-0.7-3.8-3.1-3.1-5.5c0.6-2,2.4-3.3,4.3-3.3c0.4,0,0.8,0.1,1.2,0.2C313.3,126.3,314.6,128.1,314.6,130.1z"/>
	<path class="st0" d="M300.3,410.6c0.1,0.3,0.1,0.5,0.1,0.8c0,2.1-1.5,4-3.7,4.4c-0.3,0-0.5,0.1-0.8,0.1c-1.1,0-2.1-0.4-2.9-1
		s-1.4-1.6-1.6-2.7c-0.5-2.4,1.2-4.8,3.6-5.2c0.3,0,0.5-0.1,0.8-0.1C298,406.9,299.9,408.4,300.3,410.6z"/>
	<path d="M300,126.8c0,0.3,0,0.5-0.1,0.8c-0.2,1.1-0.8,2-1.6,2.7c-0.8,0.7-1.8,1-2.9,1c-0.3,0-0.5,0-0.8-0.1
		c-2.4-0.4-4.1-2.8-3.6-5.2c0.4-2.2,2.3-3.7,4.4-3.7c0.3,0,0.5,0,0.8,0.1C298.5,122.8,300,124.7,300,126.8z"/>
	<path class="st1" d="M285.6,413c0,0.1,0,0.3,0,0.4c0,2.3-1.7,4.2-4.1,4.5c-0.1,0-0.3,0-0.4,0c-1.1,0-2.2-0.4-3-1.2
		c-0.8-0.7-1.4-1.7-1.5-2.9c-0.2-2.5,1.6-4.7,4-4.9c0.1,0,0.3,0,0.4,0C283.4,409,285.3,410.7,285.6,413z"/>
	<path d="M285.2,124.7c0,0.1,0,0.3,0,0.4c-0.1,1.2-0.7,2.2-1.5,2.9c-0.8,0.7-1.9,1.2-3,1.2c-0.1,0-0.3,0-0.4,0
		c-2.5-0.2-4.3-2.4-4-4.9c0.2-2.3,2.2-4.1,4.5-4.1c0.2,0,0.3,0,0.4,0C283.5,120.5,285.2,122.4,285.2,124.7z"/>
	<path d="M270.7,414.2v0.1c-0.1,2.5-2.1,4.4-4.5,4.4h-0.1l0,0c-2.4-0.1-4.4-2.1-4.4-4.5v-0.1c0.1-2.5,2.1-4.5,4.6-4.4
		C268.7,409.8,270.7,411.8,270.7,414.2z"/>
	<path class="st1" d="M270.3,123.9L270.3,123.9c0,2.5-1.9,4.5-4.4,4.6h-0.1c-1.2,0-2.3-0.5-3.1-1.3c-0.8-0.8-1.3-1.9-1.4-3.1
		c-0.1-2.5,1.9-4.6,4.4-4.6h0.1C268.2,119.5,270.3,121.5,270.3,123.9z"/>
	<path d="M255.8,413.1c0,0.2,0,0.4,0,0.6c-0.2,1.1-0.7,2.1-1.5,2.8c-0.8,0.7-1.9,1.1-3,1.1c-0.2,0-0.4,0-0.6,0
		c-2.5-0.3-4.2-2.6-3.9-5c0.3-2.3,2.2-3.9,4.5-3.9c0.2,0,0.4,0,0.6,0C254.1,408.9,255.8,410.9,255.8,413.1z"/>
	<path class="st0" d="M255.4,124.6c0,0.2,0,0.4,0,0.6c0,2.2-1.7,4.2-3.9,4.5c-0.2,0-0.4,0-0.6,0c-1.1,0-2.2-0.4-3-1.1
		c-0.8-0.7-1.3-1.7-1.5-2.8c-0.3-2.5,1.4-4.7,3.9-5c0.2,0,0.4,0,0.6,0C253.2,120.7,255.1,122.3,255.4,124.6z"/>
	<path d="M241.1,410.5c0,0.3,0,0.7-0.1,1c-0.2,1-0.8,1.9-1.6,2.5s-1.8,1-2.8,1c-0.3,0-0.7,0-1-0.1c-2.4-0.6-3.9-3-3.4-5.4
		c0.5-2.1,2.3-3.5,4.4-3.5c0.3,0,0.7,0,1,0.1C239.6,406.6,241.1,408.4,241.1,410.5z"/>
	<path d="M240.6,126.8c0.1,0.4,0.1,0.7,0.1,1c0,2-1.4,3.9-3.5,4.4c-0.3,0.1-0.7,0.1-1,0.1c-1,0-2-0.4-2.8-1s-1.4-1.5-1.6-2.5
		c-0.6-2.4,0.9-4.8,3.4-5.4c0.3-0.1,0.7-0.1,1-0.1C238.3,123.4,240.1,124.7,240.6,126.8z"/>
	<path class="st1" d="M226.7,406.3c0,0.5-0.1,1-0.2,1.5c-0.3,0.9-0.9,1.7-1.7,2.2s-1.6,0.8-2.6,0.8c-0.5,0-1-0.1-1.5-0.2
		c-2.3-0.8-3.6-3.4-2.8-5.7c0.6-1.9,2.4-3,4.2-3c0.5,0,1,0.1,1.5,0.2C225.5,402.7,226.7,404.5,226.7,406.3z"/>
	<path class="st0" d="M226.1,130.5c0.2,0.5,0.2,1,0.2,1.5c0,1.9-1.2,3.6-3,4.2c-0.5,0.2-1,0.2-1.5,0.2c-0.9,0-1.8-0.3-2.6-0.8
		s-1.4-1.3-1.7-2.2c-0.8-2.3,0.4-4.9,2.8-5.7c0.5-0.2,1-0.2,1.5-0.2C223.7,127.5,225.5,128.7,226.1,130.5z"/>
	<path d="M212.8,400.7c0,0.6-0.1,1.3-0.4,1.9c-0.4,0.8-1,1.5-1.7,1.9s-1.5,0.7-2.4,0.7c-0.6,0-1.3-0.1-1.9-0.4
		c-2.2-1.1-3.2-3.7-2.2-6c0.8-1.6,2.4-2.6,4.1-2.6c0.6,0,1.3,0.1,1.9,0.4C211.9,397.4,212.8,399,212.8,400.7z"/>
	<path class="st0" d="M212.1,135.8c0.3,0.6,0.4,1.3,0.4,1.9c0,1.7-1,3.3-2.6,4.1c-0.6,0.3-1.3,0.4-1.9,0.4c-0.9,0-1.7-0.2-2.4-0.7
		c-0.7-0.4-1.3-1.1-1.7-1.9c-1.1-2.2-0.1-4.9,2.2-6c0.6-0.3,1.3-0.4,1.9-0.4C209.7,133.2,211.4,134.1,212.1,135.8z"/>
	<path d="M199.7,393.7c0,0.8-0.2,1.6-0.6,2.3c-0.8,1.4-2.3,2.2-3.9,2.2c-0.8,0-1.6-0.2-2.3-0.6c-2.1-1.3-2.8-4-1.5-6.2
		c0.8-1.4,2.3-2.2,3.9-2.2c0.8,0,1.6,0.2,2.3,0.6C198.9,390.7,199.7,392.2,199.7,393.7z"/>
	<path d="M198.7,142.4c0.4,0.7,0.6,1.5,0.6,2.3c0,1.5-0.8,3-2.2,3.9c-0.7,0.4-1.5,0.7-2.3,0.7c-1.5,0-3-0.8-3.9-2.2
		c-1.3-2.1-0.6-4.9,1.5-6.2c0.7-0.4,1.5-0.7,2.3-0.7C196.4,140.2,197.9,141,198.7,142.4z"/>
	<path class="st1" d="M187.2,385.4c0,0.9-0.3,1.9-0.9,2.7c-0.9,1.2-2.2,1.8-3.6,1.8c-0.9,0-1.9-0.3-2.7-0.9c-2-1.5-2.4-4.3-0.9-6.3
		c0.9-1.2,2.2-1.8,3.6-1.8c0.9,0,1.9,0.3,2.7,0.9C186.6,382.7,187.2,384,187.2,385.4z"/>
	<path class="st0" d="M186.1,150.3c0.6,0.8,0.9,1.8,0.9,2.7c0,1.4-0.6,2.7-1.8,3.6c-0.8,0.6-1.8,0.9-2.7,0.9c-1.4,0-2.7-0.6-3.6-1.8
		c-1.5-2-1.1-4.8,0.9-6.3c0.8-0.6,1.8-0.9,2.7-0.9C183.8,148.6,185.2,149.2,186.1,150.3z"/>
	<path d="M175.8,375.8c0,1.1-0.4,2.2-1.2,3c-0.9,1-2.1,1.5-3.3,1.5c-1.1,0-2.2-0.4-3.1-1.2c-1.8-1.7-1.9-4.5-0.2-6.4
		c0.9-1,2.1-1.4,3.3-1.4c1.1,0,2.2,0.4,3.1,1.2C175.3,373.4,175.8,374.6,175.8,375.8z"/>
	<path class="st2" d="M174.3,159.6c0.8,0.9,1.2,2,1.2,3.1c0,1.2-0.5,2.4-1.4,3.3c-0.9,0.8-2,1.2-3.1,1.2c-1.2,0-2.4-0.5-3.3-1.4
		c-1.7-1.8-1.6-4.7,0.2-6.4c0.9-0.8,2-1.2,3.1-1.2C172.2,158.1,173.4,158.6,174.3,159.6z"/>
	<path class="st0" d="M164.2,362.2c0.8,0.9,1.1,1.9,1.1,3c0,1.2-0.5,2.5-1.5,3.4c-0.9,0.8-1.9,1.1-3,1.1c-1.2,0-2.5-0.5-3.4-1.5
		c-1.6-1.9-1.5-4.7,0.4-6.4c0.9-0.8,1.9-1.1,3-1.1C162.1,360.7,163.3,361.2,164.2,362.2z"/>
	<path class="st2" d="M165.1,173.3c0,1.1-0.4,2.1-1.1,3c-0.9,1-2.1,1.5-3.4,1.5c-1.1,0-2.1-0.4-3-1.1c-1.9-1.6-2.1-4.5-0.4-6.4
		c0.9-1,2.1-1.5,3.4-1.5c1.1,0,2.1,0.4,3,1.1C164.6,170.8,165.1,172.1,165.1,173.3z"/>
	<path d="M155.2,350.8c0.6,0.8,0.8,1.7,0.8,2.6c0,1.4-0.7,2.8-1.9,3.7c-0.8,0.6-1.7,0.8-2.6,0.8c-1.4,0-2.8-0.7-3.7-1.9
		c-1.4-2-1-4.8,1-6.3c0.8-0.6,1.7-0.8,2.6-0.8C152.9,349,154.3,349.6,155.2,350.8z"/>
	<path class="st2" d="M155.8,185.1c0,0.9-0.3,1.8-0.8,2.6c-0.9,1.2-2.3,1.9-3.7,1.9c-0.9,0-1.8-0.3-2.6-0.8c-2-1.4-2.5-4.2-1.1-6.3
		c0.9-1.2,2.3-1.9,3.7-1.9c0.9,0,1.8,0.3,2.6,0.8C155.2,182.3,155.8,183.6,155.8,185.1z"/>
	<path class="st2" d="M147.8,197.6c0,0.8-0.2,1.5-0.6,2.2c-0.8,1.5-2.4,2.3-3.9,2.3c-0.8,0-1.5-0.2-2.2-0.6c-2.2-1.2-2.9-4-1.7-6.1
		c0.8-1.5,2.4-2.3,3.9-2.3c0.8,0,1.5,0.2,2.2,0.6C147,194.6,147.8,196.1,147.8,197.6z"/>
	<path class="st2" d="M141.1,211c0,0.6-0.1,1.2-0.4,1.8c-0.4,0.8-1,1.5-1.7,2s-1.6,0.7-2.4,0.7c-0.6,0-1.2-0.1-1.8-0.4
		c-2.3-1-3.3-3.6-2.3-5.9c0.7-1.7,2.4-2.7,4.1-2.7c0.6,0,1.2,0.1,1.8,0.4C140.1,207.6,141.1,209.3,141.1,211z"/>
	<path class="st2" d="M135.8,225c0,0.4-0.1,0.9-0.2,1.4c-0.3,1-0.9,1.8-1.7,2.3s-1.7,0.8-2.6,0.8c-0.5,0-0.9-0.1-1.4-0.2
		c-2.4-0.8-3.7-3.3-2.9-5.6c0.6-1.9,2.4-3.1,4.3-3.1c0.5,0,0.9,0.1,1.4,0.2C134.6,221.3,135.8,223.1,135.8,225z"/>
	<path d="M132,298.2c0.1,0.3,0.1,0.6,0.1,0.9c0,2.1-1.5,3.9-3.6,4.4c-0.3,0.1-0.6,0.1-0.9,0.1c-1.1,0-2-0.4-2.8-1s-1.4-1.5-1.6-2.6
		c-0.5-2.4,1-4.8,3.5-5.3c0.3-0.1,0.6-0.1,0.9-0.1C129.7,294.6,131.6,296.1,132,298.2z"/>
	<path d="M132,239.4c0,0.3,0,0.6-0.1,0.9c-0.2,1.1-0.8,2-1.6,2.6s-1.8,1-2.8,1c-0.3,0-0.6,0-0.9-0.1c-2.4-0.5-4-2.9-3.5-5.3
		c0.4-2.1,2.3-3.6,4.4-3.6c0.3,0,0.6,0,0.9,0.1C130.6,235.5,132,237.4,132,239.4z"/>
	<path d="M129.8,283.9c0,0.2,0,0.3,0,0.5c0,2.3-1.7,4.2-4,4.5c-0.2,0-0.3,0-0.5,0c-1.1,0-2.2-0.4-3-1.1s-1.3-1.7-1.5-2.9
		c-0.3-2.5,1.5-4.7,4-4.9c0.2,0,0.3,0,0.5,0C127.6,279.9,129.5,281.6,129.8,283.9z"/>
	<path d="M129.8,254.2c0,0.1,0,0.3,0,0.5c-0.1,1.2-0.7,2.2-1.5,2.9s-1.9,1.1-3,1.1c-0.2,0-0.3,0-0.5,0c-2.5-0.2-4.3-2.5-4-4.9
		c0.2-2.3,2.2-4,4.5-4c0.2,0,0.3,0,0.5,0C128,250,129.8,251.9,129.8,254.2z"/>
	<path d="M129,269.3c0,0,0,0.1,0,0.2l0,0c0,2.5-2,4.5-4.5,4.5c-1.2,0-2.4-0.5-3.2-1.3c-0.8-0.8-1.3-1.9-1.3-3.2c0-0.1,0-0.1,0-0.2
		s0-0.1,0-0.2c0-1.2,0.5-2.4,1.3-3.2s1.9-1.3,3.2-1.3s2.4,0.5,3.2,1.3c0.8,0.8,1.3,1.9,1.3,3.2C129,269.2,129,269.2,129,269.3z"/>
	<path d="M139.5,343.1c-1.2-2.2-0.5-4.9,1.7-6.1l0,0c2.2-1.2,4.9-0.5,6.1,1.7l0,0c1.2,2.2,0.5,4.9-1.7,6.1l0,0
		c-0.7,0.4-1.5,0.6-2.2,0.6l0,0C141.9,345.4,140.4,344.6,139.5,343.1z"/>
</g>
</svg>
