<?xml version="1.0" encoding="utf-8"?>
<!-- Generator: Adobe Illustrator 26.0.1, SVG Export Plug-In . SVG Version: 6.00 Build 0)  -->
<svg version="1.1" id="Layer_1" xmlns="http://www.w3.org/2000/svg" xmlns:xlink="http://www.w3.org/1999/xlink" x="0px" y="0px"
	 viewBox="0 0 538.1 538.1" style="enable-background:new 0 0 538.1 538.1;" xml:space="preserve">
<style type="text/css">
	.st0{fill:#C5C5C5;}
	.st1{fill:#857AAE;}
	.st2{fill:#6A56A4;}
	.st3{fill:#3D2662;}
	.st4{fill:#37236B;}
</style>
<g id="Ring11">
	<path d="M525,268.9L525,268.9c0,2.5-2,4.5-4.5,4.5l0,0c-2.5,0-4.5-2-4.5-4.5s2-4.5,4.5-4.5c1.2,0,2.4,0.5,3.2,1.3
		C524.5,266.6,525,267.7,525,268.9z"/>
	<path d="M524.6,283.9c0,0.1,0,0.2,0,0.2c-0.1,1.2-0.6,2.3-1.4,3c-0.8,0.8-1.9,1.2-3.1,1.2c-0.1,0-0.2,0-0.2,0
		c-2.5-0.1-4.4-2.3-4.2-4.7c0.1-2.4,2.1-4.3,4.5-4.3c0.1,0,0.2,0,0.2,0C522.8,279.5,524.6,281.5,524.6,283.9z"/>
	<path d="M524.6,253.7c0,0.1,0,0.2,0,0.3c0,2.4-1.9,4.3-4.2,4.5c-0.1,0-0.2,0-0.3,0c-1.2,0-2.3-0.5-3.1-1.2c-0.8-0.8-1.3-1.8-1.4-3
		c-0.1-2.5,1.8-4.6,4.2-4.7c0.1,0,0.2,0,0.3,0C522.5,249.5,524.5,251.3,524.6,253.7z"/>
	<path class="st0" d="M523.4,298.8c0,0.2,0,0.3,0,0.5c-0.1,1.1-0.7,2.1-1.5,2.9c-0.8,0.7-1.8,1.1-3,1.1c-0.2,0-0.3,0-0.5,0
		c-2.5-0.3-4.2-2.5-4-5c0.2-2.3,2.2-4,4.4-4c0.2,0,0.3,0,0.5,0C521.7,294.6,523.4,296.5,523.4,298.8z"/>
	<path d="M523.3,238.6c0,0.2,0,0.3,0,0.5c0,2.3-1.7,4.2-4,4.5c-0.2,0-0.3,0-0.5,0c-1.1,0-2.2-0.4-3-1.1c-0.8-0.7-1.4-1.7-1.5-2.9
		c-0.3-2.5,1.5-4.7,4-5c0.2,0,0.3,0,0.5,0C521.1,234.6,523.1,236.3,523.3,238.6z"/>
	<path class="st1" d="M521.4,313.6c0,0.2,0,0.5-0.1,0.8c-0.2,1.1-0.8,2-1.5,2.7c-0.8,0.7-1.8,1.1-2.9,1.1c-0.2,0-0.5,0-0.8-0.1
		c-2.5-0.4-4.1-2.7-3.7-5.2c0.4-2.5,2.7-4.1,5.2-3.7C519.8,309.5,521.4,311.4,521.4,313.6z"/>
	<path d="M521.2,223.5c0,0.3,0.1,0.5,0.1,0.8c0,2.1-1.6,4.1-3.8,4.4c-0.2,0.1-0.5,0.1-0.8,0.1c-1.1,0-2.1-0.4-2.9-1.1
		c-0.8-0.7-1.4-1.6-1.5-2.7c-0.4-2.5,1.2-4.8,3.7-5.2c0.2,0,0.5-0.1,0.8-0.1C518.9,219.8,520.8,221.3,521.2,223.5z"/>
	<path d="M518.5,328.2c0,0.3,0,0.7-0.1,1c-0.2,1-0.8,1.9-1.6,2.5s-1.8,1-2.8,1c-0.3,0-0.7,0-1-0.1c-2.4-0.6-3.9-3-3.4-5.4
		c0.5-2.1,2.3-3.5,4.4-3.5c0.3,0,0.7,0,1,0.1C517.1,324.3,518.5,326.2,518.5,328.2z"/>
	<path d="M518.3,208.6c0.1,0.3,0.1,0.7,0.1,1c0,2.1-1.4,3.9-3.5,4.4c-0.3,0.1-0.7,0.1-1,0.1c-1,0-2-0.3-2.8-1
		c-0.8-0.6-1.4-1.5-1.6-2.5c-0.5-2.4,1-4.8,3.4-5.4c0.3-0.1,0.7-0.1,1-0.1C515.9,205.1,517.8,206.5,518.3,208.6z"/>
	<path d="M514.8,342.7c0,0.4-0.1,0.8-0.2,1.2c-0.3,1-0.9,1.8-1.6,2.4c-0.8,0.6-1.7,0.9-2.7,0.9c-0.4,0-0.8-0.1-1.2-0.2
		c-2.4-0.7-3.8-3.2-3.1-5.6l0,0c0.7-2.4,3.2-3.8,5.6-3.1C513.5,339,514.8,340.8,514.8,342.7z"/>
	<path d="M514.5,193.9c0.1,0.4,0.2,0.8,0.2,1.2c0,1.9-1.3,3.8-3.3,4.3c-0.4,0.1-0.8,0.2-1.2,0.2c-1,0-1.9-0.3-2.7-0.9
		c-0.8-0.6-1.4-1.4-1.6-2.4c-0.7-2.4,0.7-4.9,3.1-5.6c0.4-0.1,0.8-0.2,1.2-0.2C512.1,190.6,513.9,191.9,514.5,193.9z"/>
	<path d="M510.2,357c0,0.5-0.1,1-0.2,1.5c-0.3,0.9-0.9,1.7-1.7,2.2s-1.7,0.8-2.6,0.8c-0.5,0-1-0.1-1.5-0.2c-2.3-0.8-3.6-3.4-2.8-5.7
		c0.6-1.9,2.4-3,4.2-3c0.5,0,1,0.1,1.5,0.2C509.1,353.4,510.2,355.1,510.2,357z"/>
	<path class="st1" d="M509.8,179.4c0.2,0.5,0.3,1,0.3,1.5c0,1.9-1.2,3.6-3,4.2c-0.5,0.2-1,0.3-1.5,0.3c-0.9,0-1.8-0.3-2.6-0.8
		c-0.8-0.5-1.3-1.3-1.7-2.2c-0.8-2.3,0.4-4.9,2.8-5.7c0.5-0.2,1-0.2,1.5-0.2C507.4,176.4,509.2,177.6,509.8,179.4z"/>
	<path d="M504.9,370.9c0,0.6-0.1,1.2-0.4,1.7c-0.4,0.9-1,1.6-1.7,2c-0.7,0.5-1.6,0.7-2.5,0.7c-0.6,0-1.2-0.1-1.7-0.4
		c-2.3-1-3.4-3.6-2.4-5.9c0.7-1.7,2.4-2.8,4.1-2.8c0.6,0,1.2,0.1,1.7,0.4C503.8,367.5,504.9,369.2,504.9,370.9z"/>
	<path class="st1" d="M504.4,165.2c0.2,0.6,0.4,1.2,0.4,1.7c0,1.8-1,3.4-2.8,4.2c-0.6,0.2-1.2,0.4-1.7,0.4c-0.9,0-1.7-0.3-2.5-0.7
		c-0.7-0.5-1.3-1.2-1.7-2c-1-2.3,0.1-4.9,2.4-5.9c0.6-0.2,1.2-0.4,1.8-0.4C502,162.4,503.6,163.5,504.4,165.2z"/>
	<path class="st1" d="M498.7,384.5c0,0.7-0.1,1.3-0.5,2c-0.4,0.8-1,1.4-1.7,1.9c-0.7,0.4-1.5,0.7-2.4,0.7c-0.7,0-1.3-0.1-2-0.5
		c-2.2-1.1-3.1-3.8-2.1-6c0.8-1.6,2.4-2.5,4-2.5c0.7,0,1.3,0.1,2,0.5C497.8,381.3,498.7,382.9,498.7,384.5z"/>
	<path class="st1" d="M498,151.4c0.3,0.6,0.5,1.3,0.5,2c0,1.7-0.9,3.3-2.5,4c-0.6,0.3-1.3,0.5-2,0.5c-0.8,0-1.6-0.2-2.4-0.7
		c-0.7-0.4-1.3-1.1-1.7-1.9c-1.1-2.2-0.2-4.9,2-6c0.6-0.3,1.3-0.5,2-0.5C495.7,148.8,497.3,149.8,498,151.4z"/>
	<path class="st0" d="M491.7,397.7c0,0.8-0.2,1.5-0.6,2.2c-0.8,1.4-2.3,2.3-3.9,2.3l0,0c-0.8,0-1.5-0.2-2.2-0.6
		c-2.2-1.2-2.9-4-1.7-6.1c1.2-2.2,4-2.9,6.1-1.7C490.9,394.7,491.7,396.2,491.7,397.7z"/>
	<path d="M490.9,137.9c0.4,0.7,0.6,1.5,0.6,2.2c0,1.6-0.8,3.1-2.3,3.9c-0.7,0.4-1.5,0.6-2.2,0.6c-1.6,0-3.1-0.8-3.9-2.3l0,0
		c-1.2-2.2-0.5-4.9,1.7-6.1c0.7-0.4,1.5-0.6,2.2-0.6C488.6,135.6,490.1,136.4,490.9,137.9L490.9,137.9z"/>
	<path class="st1" d="M484,410.5c0,0.8-0.2,1.7-0.7,2.4c-0.9,1.3-2.3,2.1-3.8,2.1c-0.8,0-1.7-0.2-2.5-0.7c-2.1-1.4-2.7-4.1-1.3-6.2
		c0.9-1.3,2.3-2,3.8-2c0.8,0,1.7,0.2,2.5,0.7C483.3,407.6,484,409,484,410.5z"/>
	<path d="M483,124.9c0.5,0.8,0.7,1.6,0.7,2.5c0,1.5-0.7,2.9-2,3.8c-0.8,0.5-1.6,0.7-2.5,0.7c-1.5,0-2.9-0.7-3.8-2
		c-1.4-2.1-0.8-4.9,1.3-6.2c0.8-0.5,1.6-0.7,2.5-0.7C480.7,122.9,482.1,123.6,483,124.9z"/>
	<path d="M475.4,422.7c0,0.9-0.3,1.9-0.9,2.7c-0.9,1.2-2.2,1.8-3.6,1.8c-0.9,0-1.9-0.3-2.7-0.9c-2-1.5-2.4-4.3-0.9-6.3
		c0.9-1.2,2.2-1.8,3.6-1.8c0.9,0,1.9,0.3,2.7,0.9C474.8,420,475.4,421.4,475.4,422.7z"/>
	<path d="M474.2,112.4c0.6,0.8,0.9,1.8,0.9,2.7c0,1.4-0.6,2.7-1.8,3.6c-0.8,0.6-1.8,0.9-2.7,0.9c-1.4,0-2.7-0.6-3.6-1.8
		c-1.5-2-1.1-4.8,0.9-6.3c0.8-0.6,1.8-0.9,2.7-0.9C472,110.6,473.3,111.2,474.2,112.4z"/>
	<path d="M466.1,434.4c0,1-0.4,2.1-1.1,2.9c-0.9,1-2.2,1.6-3.4,1.6c-1,0-2.1-0.4-2.9-1.1c-1.9-1.6-2.1-4.5-0.5-6.3
		c0.9-1,2.2-1.6,3.4-1.6c1,0,2.1,0.4,2.9,1.1C465.6,431.9,466.1,433.2,466.1,434.4z"/>
	<path d="M464.7,100.5c0.7,0.8,1.1,1.9,1.1,2.9c0,1.3-0.5,2.5-1.6,3.4c-0.8,0.7-1.9,1.1-2.9,1.1c-1.3,0-2.5-0.5-3.4-1.6
		c-1.6-1.9-1.4-4.7,0.5-6.3c0.8-0.7,1.9-1.1,2.9-1.1C462.5,98.9,463.8,99.5,464.7,100.5z"/>
	<path d="M456.1,445.5c0,1.1-0.4,2.2-1.3,3.1s-2.1,1.4-3.2,1.4s-2.3-0.4-3.1-1.3c-1.8-1.7-1.8-4.6-0.1-6.4c0.9-0.9,2.1-1.4,3.2-1.4
		s2.2,0.4,3.1,1.3C455.7,443.2,456.1,444.3,456.1,445.5z"/>
	<path d="M454.4,89.2c0.9,0.9,1.3,2,1.3,3.1c0,1.2-0.5,2.3-1.4,3.2c-0.9,0.8-2,1.3-3.1,1.3c-1.2,0-2.4-0.4-3.2-1.4
		c-1.7-1.8-1.7-4.6,0.1-6.4c0.9-0.9,2-1.3,3.1-1.3C452.4,87.9,453.6,88.3,454.4,89.2z"/>
	<path class="st1" d="M444.2,452.9c0.8,0.9,1.2,1.9,1.2,3c0,1.2-0.5,2.4-1.5,3.3c-0.9,0.8-1.9,1.2-3,1.2c-1.2,0-2.4-0.5-3.3-1.5
		c-1.7-1.8-1.5-4.7,0.3-6.4c0.9-0.8,2-1.2,3-1.2C442.1,451.4,443.3,451.9,444.2,452.9z"/>
	<path d="M445,82c0,1.1-0.4,2.2-1.2,3c-0.9,1-2.1,1.5-3.3,1.5c-1.1,0-2.2-0.4-3-1.2c-1.8-1.7-2-4.5-0.3-6.3c0.9-1,2.1-1.5,3.3-1.5
		c1.1,0,2.2,0.4,3,1.2C444.5,79.5,445,80.7,445,82z"/>
	<path class="st1" d="M433.1,462.8c0.7,0.8,1,1.8,1,2.8c0,1.3-0.6,2.6-1.7,3.5c-0.8,0.7-1.8,1-2.8,1c-1.3,0-2.6-0.6-3.5-1.7
		c-1.6-1.9-1.2-4.8,0.7-6.3c0.8-0.7,1.8-1,2.8-1C430.9,461.1,432.2,461.7,433.1,462.8z"/>
	<path d="M433.6,72.3c0,1-0.3,2-1,2.8c-0.9,1.1-2.2,1.7-3.5,1.7c-1,0-2-0.3-2.8-1c-1.9-1.6-2.3-4.4-0.7-6.3c0.9-1.1,2.2-1.7,3.5-1.7
		c1,0,2,0.3,2.8,1C433,69.7,433.6,71,433.6,72.3z"/>
	<path d="M421.3,472c0.5,0.8,0.8,1.7,0.8,2.6c0,1.4-0.7,2.8-1.9,3.7c-0.8,0.5-1.7,0.8-2.6,0.8c-1.4,0-2.8-0.7-3.7-1.9
		c-1.4-2-0.9-4.9,1.1-6.3c0.8-0.5,1.7-0.8,2.6-0.8C419,470.1,420.4,470.8,421.3,472z"/>
	<path class="st0" d="M421.6,63.4c0,0.9-0.3,1.8-0.8,2.6c-0.9,1.2-2.3,1.9-3.7,1.9c-0.9,0-1.8-0.3-2.6-0.8c-2-1.4-2.5-4.2-1.1-6.3
		c0.9-1.3,2.3-1.9,3.7-1.9c0.9,0,1.8,0.3,2.6,0.8C421,60.5,421.6,61.9,421.6,63.4z"/>
	<path d="M408.9,480.4c0.5,0.7,0.7,1.5,0.7,2.3c0,1.5-0.8,3-2.1,3.9c-0.7,0.4-1.5,0.7-2.3,0.7c-1.5,0-3-0.8-3.9-2.2
		c-1.3-2.1-0.6-4.9,1.5-6.2c0.7-0.4,1.5-0.7,2.3-0.7C406.6,478.3,408.1,479,408.9,480.4z"/>
	<path class="st0" d="M409.1,55.2c0,0.8-0.2,1.6-0.6,2.3c-0.9,1.4-2.3,2.2-3.9,2.2c-0.8,0-1.6-0.2-2.3-0.7c-2.1-1.3-2.8-4.1-1.5-6.2
		c0.9-1.4,2.3-2.2,3.9-2.2c0.8,0,1.6,0.2,2.3,0.7C408.3,52.2,409.1,53.7,409.1,55.2z"/>
	<path d="M396.1,488.1c0.4,0.7,0.5,1.4,0.5,2.1c0,1.6-0.9,3.2-2.4,4l0,0c-0.7,0.4-1.4,0.5-2.1,0.5c-0.8,0-1.6-0.2-2.3-0.6
		c-0.7-0.4-1.3-1-1.7-1.8c-1.2-2.2-0.3-4.9,1.9-6.1C392.2,485,394.9,485.9,396.1,488.1z"/>
	<path class="st1" d="M396.1,47.8c0,0.7-0.2,1.4-0.5,2.1c-0.4,0.8-1,1.4-1.7,1.8c-0.7,0.4-1.5,0.6-2.3,0.6c-0.7,0-1.4-0.2-2.1-0.5
		c-2.2-1.2-3-3.9-1.9-6.1c0.8-1.5,2.4-2.4,4-2.4c0.7,0,1.4,0.2,2.1,0.5C395.2,44.7,396.1,46.2,396.1,47.8z"/>
	<path d="M382.8,494.9c0.3,0.6,0.4,1.2,0.4,1.9c0,1.7-1,3.3-2.6,4.1c-0.6,0.3-1.2,0.4-1.9,0.4c-0.9,0-1.7-0.2-2.4-0.7
		c-0.7-0.5-1.3-1.1-1.7-1.9c-1-2.3,0-4.9,2.2-6c0.6-0.3,1.2-0.4,1.9-0.4C380.4,492.2,382,493.2,382.8,494.9z"/>
	<path d="M382.7,41.3c0,0.6-0.1,1.2-0.4,1.8c-0.4,0.8-1,1.5-1.7,2s-1.6,0.7-2.4,0.7c-0.6,0-1.2-0.1-1.9-0.4c-2.3-1-3.3-3.7-2.2-6
		c0.8-1.7,2.4-2.6,4.1-2.6c0.6,0,1.2,0.1,1.8,0.4C381.7,37.9,382.7,39.6,382.7,41.3z"/>
	<path d="M369.1,500.9c0.2,0.5,0.3,1.1,0.3,1.6c0,1.8-1.1,3.5-2.9,4.2c-0.5,0.2-1.1,0.3-1.6,0.3c-0.9,0-1.8-0.3-2.5-0.8
		s-1.3-1.2-1.7-2.1c-0.9-2.3,0.3-4.9,2.6-5.8l0,0C365.6,497.4,368.2,498.6,369.1,500.9z"/>
	<path d="M368.9,35.5c0,0.5-0.1,1.1-0.3,1.6c-0.3,0.9-0.9,1.6-1.7,2.1c-0.7,0.5-1.6,0.8-2.5,0.8c-0.5,0-1.1-0.1-1.6-0.3
		c-2.3-0.9-3.5-3.5-2.6-5.8c0.7-1.8,2.4-2.9,4.2-2.9c0.5,0,1.1,0.1,1.6,0.3C367.8,32,368.9,33.7,368.9,35.5z"/>
	<path d="M355.1,506.1c0.1,0.5,0.2,0.9,0.2,1.4c0,1.9-1.2,3.7-3.1,4.3c-0.5,0.1-0.9,0.2-1.4,0.2c-0.9,0-1.9-0.3-2.6-0.9
		c-0.8-0.5-1.4-1.3-1.7-2.3c-0.8-2.4,0.5-4.9,2.9-5.7c0.5-0.2,0.9-0.2,1.4-0.2C352.7,503,354.5,504.2,355.1,506.1z"/>
	<path d="M354.8,30.6c0,0.5-0.1,0.9-0.2,1.4c-0.6,1.9-2.4,3.1-4.3,3.1l0,0c-0.4,0-0.9-0.1-1.4-0.2c-2.4-0.8-3.7-3.3-2.9-5.6
		c0.6-1.9,2.4-3.1,4.3-3.1c0.5,0,0.9,0.1,1.4,0.2C353.6,26.9,354.8,28.7,354.8,30.6z"/>
	<path d="M340.8,510.5c0.1,0.4,0.1,0.8,0.1,1.1c0,2-1.3,3.8-3.4,4.3c-0.4,0.1-0.8,0.1-1.1,0.1c-1,0-2-0.3-2.7-0.9
		c-0.8-0.6-1.4-1.4-1.6-2.4c-0.6-2.4,0.8-4.9,3.2-5.5c0.4-0.1,0.8-0.1,1.1-0.1C338.5,507.2,340.3,508.5,340.8,510.5z"/>
	<path d="M340.4,26.4c0,0.4,0,0.8-0.1,1.1c-0.3,1-0.9,1.9-1.6,2.4c-0.8,0.6-1.7,0.9-2.7,0.9c-0.4,0-0.8,0-1.1-0.1
		c-2.4-0.6-3.8-3.1-3.2-5.5c0.5-2,2.4-3.4,4.4-3.4c0.4,0,0.8,0,1.1,0.1C339.1,22.6,340.4,24.4,340.4,26.4z"/>
	<path d="M326.3,514.2c0.1,0.3,0.1,0.6,0.1,0.9c0,2.1-1.5,3.9-3.6,4.4c-0.3,0.1-0.6,0.1-0.9,0.1c-1,0-2-0.4-2.8-1s-1.4-1.5-1.6-2.6
		c-0.5-2.4,1.1-4.8,3.5-5.3c0.3-0.1,0.6-0.1,0.9-0.1C324,510.6,325.9,512,326.3,514.2z"/>
	<path d="M325.9,23.1c0,0.3,0,0.6-0.1,0.9c-0.2,1.1-0.8,2-1.6,2.6c-0.8,0.6-1.8,1-2.8,1c-0.3,0-0.6,0-0.9-0.1
		c-2.4-0.5-4-2.9-3.5-5.3c0.4-2.1,2.3-3.6,4.4-3.6c0.3,0,0.6,0,0.9,0.1C324.4,19.1,325.9,21,325.9,23.1z"/>
	<path d="M311.7,517.1c0,0.2,0,0.5,0,0.7c0,2.2-1.6,4.1-3.8,4.4c-0.2,0-0.4,0-0.6,0h-0.1c-1.1,0-2.1-0.4-2.9-1.1
		c-0.8-0.7-1.4-1.6-1.5-2.7c-0.4-2.5,1.3-4.8,3.8-5.1c0.2,0,0.5,0,0.7,0C309.4,513.3,311.3,514.8,311.7,517.1z"/>
	<path class="st2" d="M311.2,20.4c0,0.2,0,0.5-0.1,0.7c-0.2,1.1-0.7,2.1-1.5,2.7c-0.8,0.7-1.8,1.1-2.9,1.1c-0.2,0-0.5,0-0.7,0
		c-2.5-0.4-4.1-2.7-3.8-5.1c0.3-2.2,2.3-3.8,4.4-3.8c0.2,0,0.5,0,0.7,0.1C309.6,16.3,311.2,18.2,311.2,20.4z"/>
	<path class="st1" d="M296.9,519.2c0,0.2,0,0.3,0,0.5c0,2.3-1.7,4.2-4,4.5c-0.2,0-0.3,0-0.5,0c-1.1,0-2.2-0.4-3-1.1
		c-0.8-0.7-1.4-1.7-1.5-2.9c-0.3-2.5,1.5-4.7,4-5c0.2,0,0.3,0,0.5,0C294.7,515.2,296.7,516.9,296.9,519.2z"/>
	<path class="st2" d="M296.4,18.5c0,0.2,0,0.3,0,0.5c-0.1,1.2-0.7,2.2-1.5,2.9c-0.8,0.7-1.9,1.1-3,1.1c-0.2,0-0.3,0-0.5,0l0,0
		c-2.5-0.3-4.3-2.5-4-4.9c0.2-2.3,2.2-4,4.5-4c0.2,0,0.3,0,0.5,0C294.7,14.3,296.4,16.2,296.4,18.5z"/>
	<path class="st1" d="M282,520.7c0,0.1,0,0.2,0,0.3c0,2.4-1.8,4.3-4.2,4.5c-0.1,0-0.2,0-0.3,0c-1.2,0-2.3-0.5-3.1-1.2
		s-1.4-1.8-1.4-3c-0.2-2.5,1.7-4.6,4.2-4.8c0.1,0,0.2,0,0.3,0C279.9,516.5,281.9,518.3,282,520.7z"/>
	<path d="M281.5,17.2c0,0.1,0,0.2,0,0.3c-0.1,1.2-0.6,2.2-1.4,3s-1.9,1.2-3.1,1.2c-0.1,0-0.2,0-0.3,0c-2.5-0.1-4.4-2.3-4.2-4.8
		c0.1-2.4,2.1-4.2,4.5-4.2c0.1,0,0.2,0,0.3,0C279.6,12.9,281.5,14.9,281.5,17.2z"/>
	<path class="st1" d="M267.1,521.3L267.1,521.3c0,1.3-0.6,2.4-1.4,3.2s-1.9,1.3-3.1,1.3h-0.1c-2.5-0.1-4.4-2.1-4.4-4.6
		c0.1-2.5,2.1-4.4,4.5-4.4h0.1C265.2,516.8,267.1,518.8,267.1,521.3z"/>
	<path d="M266.5,16.9V17c0,2.4-1.9,4.4-4.4,4.5H262c-1.2,0-2.3-0.5-3.1-1.3c-0.8-0.8-1.3-1.9-1.4-3.1c-0.1-2.5,1.9-4.6,4.4-4.6h0.1
		C264.5,12.5,266.5,14.4,266.5,16.9z"/>
	<path class="st1" d="M252.2,520.4c0,0.1,0,0.3,0,0.4c-0.1,1.2-0.7,2.2-1.5,2.9s-1.9,1.2-3,1.2c-0.1,0-0.2,0-0.4,0
		c-2.5-0.2-4.3-2.4-4.1-4.9c0.2-2.4,2.2-4.1,4.5-4.1c0.1,0,0.3,0,0.4,0C250.4,516.1,252.2,518.1,252.2,520.4z"/>
	<path d="M251.6,17.5c0,0.1,0,0.3,0,0.4c0,2.3-1.8,4.3-4.1,4.5c-0.1,0-0.3,0-0.4,0c-1.2,0-2.2-0.4-3-1.2c-0.8-0.7-1.4-1.8-1.5-2.9
		c-0.2-2.5,1.6-4.7,4.1-4.9c0.1,0,0.3,0,0.4,0C249.4,13.4,251.4,15.1,251.6,17.5z"/>
	<path d="M237.3,518.7c0,0.2,0,0.4-0.1,0.7c-0.2,1.1-0.7,2.1-1.5,2.8s-1.8,1.1-2.9,1.1c-0.2,0-0.4,0-0.7,0l0,0
		c-2.2-0.3-3.8-2.2-3.8-4.4c0-0.2,0-0.4,0.1-0.7c0.3-2.2,2.2-3.8,4.4-3.8c0.2,0,0.4,0,0.7,0C235.7,514.6,237.3,516.5,237.3,518.7z"
		/>
	<path d="M236.7,19c0,0.2,0.1,0.4,0.1,0.7c0,2.2-1.6,4.1-3.8,4.5c-0.2,0-0.4,0-0.7,0c-1.1,0-2.1-0.4-2.9-1.1
		c-0.8-0.7-1.4-1.6-1.5-2.8c-0.4-2.5,1.3-4.8,3.8-5.1c0.2,0,0.4-0.1,0.7-0.1C234.5,15.1,236.4,16.7,236.7,19z"/>
	<path d="M222.6,516.1c0,0.3,0,0.6-0.1,0.9c-0.2,1.1-0.8,2-1.6,2.6s-1.8,1-2.8,1c-0.3,0-0.6,0-0.9-0.1c-2.4-0.5-4-2.9-3.5-5.3
		c0.4-2.1,2.3-3.6,4.4-3.6c0.3,0,0.6,0,0.9,0.1C221.2,512.1,222.6,514,222.6,516.1z"/>
	<path d="M222,21.3c0.1,0.3,0.1,0.6,0.1,0.9c0,2.1-1.5,3.9-3.6,4.4l0,0c-0.3,0.1-0.6,0.1-0.9,0.1c-1,0-2-0.4-2.8-1s-1.4-1.5-1.6-2.6
		c-0.5-2.4,1-4.8,3.5-5.3c0.3-0.1,0.6-0.1,0.9-0.1C219.7,17.8,221.5,19.2,222,21.3z"/>
	<path class="st3" d="M208.1,512.6c0,0.4-0.1,0.8-0.2,1.2c-0.3,1-0.9,1.8-1.6,2.4c-0.8,0.6-1.7,0.9-2.7,0.9c-0.4,0-0.8,0-1.2-0.1
		c-2.4-0.7-3.8-3.1-3.2-5.5c0.5-2,2.4-3.3,4.3-3.3c0.4,0,0.8,0.1,1.2,0.2C206.8,508.8,208.1,510.6,208.1,512.6z"/>
	<path d="M207.4,24.6c0.1,0.4,0.2,0.8,0.2,1.2c0,2-1.3,3.8-3.3,4.4c-0.4,0.1-0.8,0.2-1.2,0.2c-1,0-1.9-0.3-2.7-0.9s-1.4-1.4-1.6-2.4
		c-0.7-2.4,0.8-4.9,3.1-5.5c0.4-0.1,0.8-0.2,1.2-0.2C205,21.3,206.8,22.6,207.4,24.6z"/>
	<path class="st3" d="M193.8,508.3c0,0.5-0.1,1-0.2,1.4c-0.3,0.9-0.9,1.7-1.7,2.2c-0.8,0.5-1.7,0.8-2.6,0.8c-0.5,0-1-0.1-1.4-0.2
		c-2.4-0.8-3.6-3.3-2.8-5.7c0.6-1.9,2.4-3.1,4.3-3.1c0.5,0,1,0.1,1.4,0.2C192.6,504.7,193.8,506.4,193.8,508.3z"/>
	<path d="M193,28.7c0.2,0.5,0.2,1,0.2,1.4c0,1.9-1.2,3.6-3.1,4.3c-0.5,0.2-1,0.2-1.4,0.2c-0.9,0-1.9-0.3-2.6-0.8
		c-0.8-0.5-1.3-1.3-1.7-2.2c-0.8-2.4,0.5-4.9,2.8-5.7c0.5-0.2,1-0.2,1.4-0.2C190.6,25.6,192.4,26.8,193,28.7z"/>
	<path class="st3" d="M179.7,503.1c0,0.6-0.1,1.1-0.3,1.7c-0.3,0.9-0.9,1.6-1.7,2.1s-1.6,0.8-2.5,0.8c-0.6,0-1.1-0.1-1.7-0.3
		c-2.3-0.9-3.4-3.6-2.5-5.9c0.7-1.8,2.4-2.8,4.2-2.8c0.6,0,1.1,0.1,1.7,0.3C178.7,499.6,179.7,501.3,179.7,503.1z"/>
	<path d="M178.9,33.6c0.2,0.5,0.3,1.1,0.3,1.7c0,1.8-1.1,3.5-2.8,4.2c-0.5,0.2-1.1,0.3-1.7,0.3c-0.9,0-1.8-0.3-2.5-0.8
		s-1.3-1.2-1.7-2.1c-0.9-2.3,0.2-4.9,2.5-5.9c0.6-0.2,1.1-0.3,1.7-0.3C176.5,30.8,178.2,31.9,178.9,33.6z"/>
	<path class="st1" d="M166,497.1c0,0.6-0.1,1.3-0.4,1.9c-0.4,0.8-1,1.5-1.7,1.9s-1.5,0.7-2.4,0.7c-0.7,0-1.3-0.1-1.9-0.4
		c-2.2-1.1-3.2-3.8-2.1-6c0.8-1.6,2.4-2.6,4.1-2.6c0.6,0,1.3,0.1,1.9,0.4C165.1,493.8,166,495.4,166,497.1z"/>
	<path d="M165.2,39.4c0.3,0.6,0.4,1.3,0.4,1.9c0,1.7-0.9,3.3-2.6,4.1c-0.6,0.3-1.3,0.4-1.9,0.4c-0.8,0-1.7-0.2-2.4-0.7
		c-0.7-0.4-1.3-1.1-1.7-1.9c-1.1-2.2-0.1-4.9,2.1-6c0.6-0.3,1.3-0.4,1.9-0.4C162.8,36.9,164.4,37.8,165.2,39.4z"/>
	<path d="M152.7,490.3c0,0.7-0.2,1.5-0.6,2.2c-0.8,1.5-2.4,2.3-3.9,2.3c-0.7,0-1.5-0.2-2.2-0.5c-2.2-1.2-3-3.9-1.8-6.1
		c0.8-1.5,2.4-2.3,3.9-2.3c0.7,0,1.5,0.2,2.2,0.6C151.9,487.1,152.7,488.7,152.7,490.3z"/>
	<path class="st1" d="M151.8,46c0.4,0.7,0.6,1.4,0.6,2.2c0,1.6-0.8,3.1-2.3,3.9c-0.7,0.4-1.4,0.6-2.2,0.6c-1.6,0-3.1-0.8-3.9-2.3
		c-1.2-2.2-0.4-4.9,1.8-6.1l0,0c0.7-0.4,1.4-0.6,2.2-0.6C149.4,43.7,150.9,44.5,151.8,46z"/>
	<path class="st1" d="M139.8,482.7c0,0.8-0.2,1.6-0.7,2.4c-0.9,1.4-2.3,2.1-3.8,2.1c-0.8,0-1.6-0.2-2.4-0.7
		c-2.1-1.3-2.7-4.1-1.4-6.2c0.9-1.4,2.3-2.1,3.8-2.1c0.8,0,1.7,0.2,2.4,0.7C139.1,479.7,139.8,481.2,139.8,482.7z"/>
	<path class="st1" d="M138.8,53.4c0.5,0.8,0.7,1.6,0.7,2.4c0,1.5-0.7,3-2.1,3.8c-0.8,0.5-1.6,0.7-2.4,0.7c-1.5,0-2.9-0.7-3.8-2.1
		c-1.3-2.1-0.7-4.9,1.4-6.2c0.8-0.5,1.6-0.7,2.4-0.7C136.5,51.3,137.9,52,138.8,53.4z"/>
	<path class="st4" d="M127.4,474.3c0,0.9-0.3,1.8-0.8,2.6c-0.9,1.2-2.3,1.9-3.7,1.9c-0.9,0-1.8-0.3-2.6-0.8c-2-1.5-2.5-4.3-1-6.3
		c0.9-1.2,2.3-1.9,3.7-1.9c0.9,0,1.8,0.3,2.6,0.8C126.8,471.5,127.4,472.9,127.4,474.3z"/>
	<path d="M126.2,61.5c0.6,0.8,0.8,1.7,0.8,2.6c0,1.4-0.7,2.8-1.9,3.7c-0.8,0.6-1.7,0.8-2.6,0.8c-1.4,0-2.8-0.7-3.7-1.9
		c-1.5-2-1-4.8,1-6.3c0.8-0.6,1.7-0.8,2.6-0.8C124,59.7,125.4,60.3,126.2,61.5z"/>
	<path class="st4" d="M115.5,465.3c0,1-0.3,2-1,2.8c-0.9,1.1-2.2,1.7-3.5,1.7c-1,0-2-0.3-2.8-1c-1.9-1.6-2.2-4.4-0.7-6.3
		c0.9-1.1,2.2-1.7,3.5-1.7c1,0,2,0.3,2.8,1C114.9,462.7,115.5,464,115.5,465.3z"/>
	<path class="st1" d="M114.2,70.4c0.7,0.8,1,1.8,1,2.8c0,1.3-0.6,2.6-1.7,3.5c-0.8,0.7-1.8,1-2.8,1c-1.3,0-2.6-0.6-3.5-1.7
		c-1.6-1.9-1.3-4.8,0.7-6.3c0.8-0.7,1.8-1,2.8-1C112,68.7,113.3,69.3,114.2,70.4z"/>
	<path d="M104.2,455.5c0,1.1-0.4,2.2-1.2,3c-0.9,1-2.1,1.5-3.3,1.5c-1.1,0-2.2-0.4-3-1.2c-1.8-1.7-2-4.5-0.3-6.4
		c0.9-1,2.1-1.5,3.3-1.5c1.1,0,2.2,0.4,3,1.2C103.7,453.1,104.2,454.3,104.2,455.5z"/>
	<path d="M102.7,80c0.8,0.9,1.2,2,1.2,3c0,1.2-0.5,2.4-1.5,3.3c-0.9,0.8-2,1.2-3,1.2c-1.2,0-2.4-0.5-3.3-1.5
		c-1.7-1.8-1.5-4.7,0.3-6.3c0.9-0.8,1.9-1.2,3-1.2C100.6,78.5,101.8,79,102.7,80z"/>
	<path d="M92.2,442c0.8,0.9,1.3,2,1.3,3.1c0,1.2-0.5,2.3-1.4,3.2c-0.9,0.9-2,1.3-3.1,1.3c-1.2,0-2.3-0.5-3.2-1.4
		c-1.7-1.8-1.7-4.6,0.1-6.4c0.9-0.9,2-1.3,3.1-1.3C90.1,440.6,91.3,441.1,92.2,442z"/>
	<path d="M93.2,93.4c0,1.1-0.4,2.3-1.3,3.1c-0.9,0.9-2.1,1.4-3.2,1.4s-2.3-0.4-3.1-1.3c-1.8-1.7-1.8-4.6-0.1-6.4
		c0.9-0.9,2.1-1.4,3.2-1.4s2.3,0.4,3.1,1.3C92.7,91.1,93.2,92.2,93.2,93.4z"/>
	<path d="M82.2,431.2c0.7,0.9,1.1,1.9,1.1,2.9c0,1.3-0.5,2.5-1.6,3.4c-0.8,0.7-1.9,1.1-2.9,1.1c-1.3,0-2.5-0.5-3.4-1.6
		c-1.6-1.9-1.4-4.7,0.5-6.4c0.8-0.7,1.9-1.1,2.9-1.1C80.1,429.6,81.3,430.1,82.2,431.2z"/>
	<path d="M83.1,104.4c0,1-0.4,2.1-1.1,2.9c-0.9,1-2.2,1.6-3.4,1.6c-1,0-2.1-0.4-2.9-1.1c-1.9-1.6-2.1-4.5-0.5-6.3
		c0.9-1,2.1-1.6,3.4-1.6c1,0,2.1,0.4,2.9,1.1C82.6,101.9,83.1,103.2,83.1,104.4z"/>
	<path class="st1" d="M73,419.8c0.6,0.8,0.9,1.8,0.9,2.7c0,1.3-0.6,2.7-1.8,3.6c-0.8,0.6-1.8,0.9-2.7,0.9c-1.3,0-2.7-0.6-3.6-1.8
		c-1.5-2-1.2-4.8,0.8-6.3c0.8-0.6,1.8-0.9,2.7-0.9C70.7,418,72.1,418.6,73,419.8z"/>
	<path d="M73.7,116c0,1-0.3,1.9-0.9,2.7c-0.9,1.2-2.2,1.8-3.6,1.8l0,0c-1,0-1.9-0.3-2.7-0.9c-2-1.5-2.3-4.3-0.8-6.3
		c0.9-1.2,2.2-1.8,3.6-1.8c1,0,1.9,0.3,2.7,0.9C73,113.3,73.7,114.7,73.7,116z"/>
	<path class="st1" d="M64.4,407.9c0.5,0.8,0.8,1.6,0.8,2.5c0,1.4-0.7,2.9-2,3.7c-0.8,0.5-1.7,0.8-2.5,0.8c-1.4,0-2.9-0.7-3.7-2
		c-1.4-2-0.8-4.8,1.2-6.2c0.8-0.5,1.6-0.8,2.5-0.8C62.1,405.9,63.5,406.6,64.4,407.9z"/>
	<path d="M64.9,128.2c0,0.9-0.2,1.7-0.8,2.5c-0.9,1.3-2.3,2-3.7,2c-0.9,0-1.7-0.2-2.5-0.8c-2.1-1.4-2.6-4.2-1.2-6.2
		c0.9-1.3,2.3-2,3.7-2c0.9,0,1.8,0.2,2.5,0.8C64.2,125.3,64.9,126.7,64.9,128.2z"/>
	<path class="st2" d="M56.5,395.5c0.4,0.7,0.6,1.5,0.6,2.3c0,1.5-0.8,3-2.2,3.9c-0.7,0.4-1.5,0.6-2.3,0.6c-1.5,0-3-0.8-3.9-2.2
		c-1.3-2.1-0.6-4.9,1.6-6.2c0.7-0.4,1.5-0.6,2.3-0.6C54.2,393.3,55.7,394.1,56.5,395.5z"/>
	<path d="M56.9,140.8c0,0.8-0.2,1.6-0.6,2.3c-0.8,1.4-2.3,2.2-3.9,2.2c-0.8,0-1.6-0.2-2.3-0.6c-2.1-1.3-2.8-4-1.6-6.2
		c0.8-1.4,2.3-2.2,3.9-2.2c0.8,0,1.6,0.2,2.3,0.6C56.1,137.8,56.9,139.3,56.9,140.8z"/>
	<path d="M49.4,382.7c0.3,0.7,0.5,1.4,0.5,2.1c0,1.6-0.9,3.2-2.4,4c-0.7,0.3-1.4,0.5-2.1,0.5c-0.8,0-1.6-0.2-2.3-0.6s-1.3-1-1.7-1.8
		c-1.1-2.2-0.3-4.9,1.9-6.1c0.7-0.3,1.4-0.5,2.1-0.5C47,380.3,48.6,381.1,49.4,382.7z"/>
	<path d="M49.7,153.9c0,0.7-0.1,1.4-0.5,2.1c-0.4,0.8-1,1.4-1.7,1.8c-0.7,0.4-1.5,0.6-2.3,0.6c-0.7,0-1.4-0.2-2.1-0.5
		c-2.2-1.1-3.1-3.9-1.9-6.1c0.8-1.6,2.4-2.4,4-2.4c0.7,0,1.4,0.2,2.1,0.5C48.8,150.7,49.7,152.3,49.7,153.9z"/>
	<path d="M43.1,369.5c1,2.3,0,4.9-2.3,5.9c-0.6,0.3-1.2,0.4-1.8,0.4c-0.9,0-1.7-0.2-2.4-0.7s-1.3-1.1-1.7-2c-1-2.3,0-4.9,2.3-5.9
		c0.6-0.3,1.2-0.4,1.8-0.4C40.7,366.8,42.3,367.8,43.1,369.5L43.1,369.5z"/>
	<path class="st0" d="M43.2,167.4c0,0.6-0.1,1.2-0.4,1.8c-0.4,0.8-1,1.5-1.7,2s-1.6,0.7-2.4,0.7c-0.6,0-1.2-0.1-1.8-0.4
		c-2.3-1-3.3-3.7-2.3-5.9c0.7-1.7,2.4-2.7,4.1-2.7c0.6,0,1.2,0.1,1.8,0.4C42.2,164,43.2,165.7,43.2,167.4z"/>
	<path d="M37.5,355.9c0.2,0.5,0.3,1.1,0.3,1.6c0,1.8-1.1,3.5-2.9,4.2c-0.5,0.2-1,0.3-1.6,0.3c-0.9,0-1.8-0.3-2.5-0.8
		s-1.3-1.2-1.7-2.1c-0.9-2.3,0.3-4.9,2.6-5.8c0.5-0.2,1.1-0.3,1.6-0.3C35.1,353,36.8,354.1,37.5,355.9z"/>
	<path class="st0" d="M37.6,181.3c0,0.5-0.1,1.1-0.3,1.6c-0.3,0.9-0.9,1.6-1.7,2.1c-0.7,0.5-1.6,0.8-2.5,0.8c-0.5,0-1-0.1-1.6-0.3
		c-2.3-0.9-3.5-3.5-2.6-5.8c0.7-1.8,2.4-2.9,4.2-2.9c0.5,0,1,0.1,1.6,0.3C36.5,177.7,37.6,179.5,37.6,181.3z"/>
	<path class="st1" d="M32.8,342c0.1,0.4,0.2,0.9,0.2,1.3c0,1.9-1.2,3.7-3.2,4.3c-0.4,0.1-0.9,0.2-1.3,0.2c-1,0-1.9-0.3-2.6-0.9
		c-0.8-0.5-1.4-1.4-1.7-2.3c-0.7-2.4,0.6-4.9,3-5.6c0.4-0.1,0.9-0.2,1.3-0.2C30.4,338.8,32.2,340.1,32.8,342z"/>
	<path class="st1" d="M32.8,195.5c0,0.4-0.1,0.9-0.2,1.3c-0.3,1-0.9,1.8-1.7,2.3c-0.8,0.6-1.7,0.9-2.6,0.9c-0.4,0-0.9-0.1-1.3-0.2
		c-2.4-0.7-3.7-3.2-3-5.6c0.6-1.9,2.4-3.2,4.3-3.2c0.4,0,0.9,0.1,1.3,0.2C31.6,191.8,32.8,193.5,32.8,195.5z"/>
	<path class="st0" d="M28.9,327.9c0.1,0.4,0.1,0.7,0.1,1.1c0,2-1.4,3.9-3.4,4.4c-0.4,0.1-0.7,0.1-1.1,0.1c-1,0-2-0.3-2.8-0.9
		s-1.4-1.5-1.6-2.5c-0.6-2.4,0.9-4.9,3.3-5.4c0.4-0.1,0.7-0.1,1.1-0.1C26.6,324.4,28.4,325.8,28.9,327.9z"/>
	<path d="M28.9,209.9c0,0.3,0,0.7-0.1,1c-0.2,1-0.8,1.9-1.6,2.5c-0.8,0.6-1.7,1-2.8,1c-0.4,0-0.7,0-1.1-0.1c-2.4-0.6-3.9-3-3.3-5.4
		c0.5-2.1,2.3-3.4,4.4-3.4c0.3,0,0.7,0.1,1.1,0.1C27.5,206,28.9,207.9,28.9,209.9z"/>
	<path d="M25.9,313.5c0,0.3,0.1,0.6,0.1,0.8c0,2.1-1.5,4-3.7,4.4c-0.3,0-0.5,0.1-0.8,0.1c-1.1,0-2.1-0.4-2.9-1
		c-0.8-0.7-1.4-1.6-1.6-2.7c-0.4-2.4,1.2-4.8,3.6-5.2c0.3,0,0.5-0.1,0.8-0.1C23.6,309.8,25.5,311.3,25.9,313.5z"/>
	<path class="st4" d="M25.8,224.5c0,0.3,0,0.5-0.1,0.8c-0.2,1.1-0.8,2-1.6,2.7c-0.8,0.7-1.8,1-2.9,1c-0.3,0-0.5,0-0.8-0.1
		c-2.4-0.4-4.1-2.8-3.6-5.2c0.4-2.2,2.3-3.7,4.4-3.7c0.2,0,0.5,0,0.8,0.1C24.3,220.5,25.8,222.4,25.8,224.5z"/>
	<path class="st0" d="M23.7,299c0,0.2,0,0.4,0,0.5c0,2.2-1.7,4.2-4,4.5c-0.2,0-0.4,0-0.5,0c-1.1,0-2.2-0.4-3-1.1
		c-0.8-0.7-1.4-1.7-1.5-2.8c-0.3-2.5,1.5-4.7,3.9-5c0.2,0,0.4,0,0.5,0C21.5,295,23.4,296.7,23.7,299z"/>
	<path d="M23.6,239.3c0,0.2,0,0.4,0,0.5c-0.1,1.1-0.7,2.1-1.5,2.9c-0.8,0.7-1.8,1.1-3,1.1c-0.2,0-0.4,0-0.5,0
		c-2.5-0.3-4.2-2.5-3.9-5c0.3-2.3,2.2-4,4.5-4c0.2,0,0.4,0,0.5,0C22,235.1,23.6,237,23.6,239.3z"/>
	<path class="st0" d="M22.4,284.4c0,0.1,0,0.2,0,0.3c0,2.4-1.8,4.3-4.2,4.5c-0.1,0-0.2,0-0.3,0c-1.2,0-2.3-0.5-3.1-1.2
		c-0.8-0.8-1.3-1.8-1.4-3c-0.1-2.5,1.7-4.6,4.2-4.8c0.1,0,0.2,0,0.3,0C20.2,280.1,22.2,282,22.4,284.4z"/>
	<path d="M22.3,254.2c0,0.1,0,0.2,0,0.2c-0.1,2.4-2.1,4.2-4.5,4.2c-0.1,0-0.2,0-0.3,0c-2.5-0.1-4.4-2.3-4.2-4.8
		c0.1-2.4,2.1-4.2,4.5-4.2c0.1,0,0.2,0,0.3,0C20.5,249.8,22.3,251.8,22.3,254.2z"/>
	<path class="st0" d="M21.9,269.7L21.9,269.7c0,2.5-2,4.5-4.5,4.5l0,0c-1.2,0-2.4-0.5-3.2-1.3s-1.3-1.9-1.3-3.2c0-0.1,0-0.2,0-0.3
		s0-0.2,0-0.3c0-1.2,0.5-2.4,1.3-3.2c0.8-0.8,1.9-1.3,3.2-1.3s2.4,0.5,3.2,1.3c0.8,0.8,1.3,1.9,1.3,3.2c0,0.1,0,0.2,0,0.3
		S21.9,269.6,21.9,269.7z"/>
</g>
</svg>
