<?xml version="1.0" encoding="utf-8"?>
<!-- Generator: Adobe Illustrator 26.0.1, SVG Export Plug-In . SVG Version: 6.00 Build 0)  -->
<svg version="1.1" id="Layer_1" xmlns="http://www.w3.org/2000/svg" xmlns:xlink="http://www.w3.org/1999/xlink" x="0px" y="0px"
	 viewBox="0 0 538.1 538.1" style="enable-background:new 0 0 538.1 538.1;" xml:space="preserve">
<style type="text/css">
	.st0{fill:#6A56A4;}
	.st1{fill:#857AAE;}
	.st2{fill:#C5C5C5;}
	.st3{fill:#37236B;}
	.st4{fill:#3D2662;}
	.st5{fill:#FFFFFF;}
</style>
<g id="Ring10">
	<path class="st0" d="M513.1,276.4v0.1c0,1.2-0.5,2.3-1.4,3.1c-0.8,0.8-1.9,1.3-3.1,1.3h-0.1c-2.5-0.1-4.4-2.1-4.4-4.6
		c0.1-2.5,2.1-4.4,4.5-4.4h0.1C511.2,272,513.1,274,513.1,276.4z"/>
	<path class="st0" d="M513.1,261.3v0.1c0,2.4-1.9,4.4-4.4,4.5h-0.1c-1.2,0-2.3-0.5-3.1-1.3c-0.8-0.8-1.3-1.9-1.4-3.1
		c-0.1-2.5,1.9-4.6,4.4-4.6h0.1C511,257,513,258.9,513.1,261.3z"/>
	<path class="st0" d="M512.3,291.3c0,0.1,0,0.3,0,0.4c-0.1,1.2-0.6,2.2-1.5,2.9c-0.8,0.7-1.9,1.2-3,1.2c-0.1,0-0.3,0-0.4,0
		c-2.5-0.2-4.3-2.4-4.1-4.9c0.2-2.3,2.2-4.1,4.5-4.1c0.1,0,0.3,0,0.4,0C510.5,287,512.3,289,512.3,291.3z"/>
	<path class="st0" d="M512.2,246.1c0,0.1,0,0.3,0,0.4c0,2.3-1.8,4.3-4.1,4.5c-0.1,0-0.3,0-0.4,0c-1.2,0-2.2-0.4-3-1.2
		c-0.8-0.7-1.3-1.8-1.4-2.9c-0.2-2.5,1.6-4.7,4.1-4.9c0.1,0,0.3,0,0.4,0C510,242,512,243.8,512.2,246.1z"/>
	<path class="st1" d="M510.5,306.2c0,0.2,0,0.4,0,0.6c-0.2,1.1-0.7,2.1-1.5,2.8c-0.8,0.7-1.8,1.1-2.9,1.1c-0.2,0-0.4,0-0.7-0.1
		c-2.5-0.4-4.2-2.6-3.8-5.1c0.3-2.2,2.2-3.9,4.4-3.9c0.2,0,0.4,0,0.7,0C508.9,302,510.5,304,510.5,306.2z"/>
	<path class="st0" d="M510.4,231c0,0.2,0,0.4,0,0.7c0,2.2-1.6,4.1-3.9,4.4c-0.2,0-0.4,0.1-0.7,0.1c-1.1,0-2.1-0.4-2.9-1.1
		c-0.8-0.7-1.4-1.6-1.5-2.8c-0.4-2.5,1.3-4.8,3.8-5.1c0.2,0,0.4,0,0.7,0C508.2,227.2,510.1,228.8,510.4,231z"/>
	<path class="st2" d="M507.9,320.9c0,0.3,0,0.6-0.1,0.9c-0.2,1.1-0.8,2-1.6,2.6c-0.8,0.6-1.8,1-2.8,1c-0.3,0-0.6,0-0.9-0.1
		c-2.4-0.5-4-2.9-3.5-5.3c0.4-2.1,2.3-3.6,4.4-3.6c0.3,0,0.6,0,0.9,0.1C506.5,316.9,507.9,318.8,507.9,320.9z"/>
	<path d="M507.7,216c0.1,0.3,0.1,0.6,0.1,0.9c0,2.1-1.5,4-3.6,4.4c-0.3,0.1-0.6,0.1-0.9,0.1c-1,0-2-0.4-2.8-1s-1.4-1.5-1.6-2.6
		c-0.5-2.4,1-4.8,3.5-5.3c0.3-0.1,0.6-0.1,0.9-0.1C505.4,212.5,507.3,213.9,507.7,216z"/>
	<path class="st2" d="M504.5,335.4c0,0.4,0,0.8-0.2,1.2c-0.3,1-0.9,1.8-1.6,2.4c-0.8,0.6-1.7,0.9-2.7,0.9c-0.4,0-0.8,0-1.2-0.2
		c-2.4-0.6-3.8-3.1-3.2-5.5c0.5-2,2.4-3.3,4.4-3.3c0.4,0,0.8,0.1,1.2,0.1C503.2,331.6,504.5,333.5,504.5,335.4z"/>
	<path d="M504.2,201.2c0.1,0.4,0.2,0.8,0.2,1.2c0,2-1.3,3.8-3.3,4.3c-0.4,0.1-0.8,0.2-1.2,0.2c-1,0-1.9-0.3-2.7-0.9
		c-0.8-0.6-1.4-1.4-1.6-2.4l0,0c-0.7-2.4,0.8-4.9,3.2-5.5c0.4-0.1,0.8-0.2,1.2-0.2C501.8,197.9,503.7,199.2,504.2,201.2z"/>
	<path d="M500.2,349.8c0,0.5-0.1,1-0.2,1.4c-0.3,0.9-0.9,1.7-1.7,2.2c-0.8,0.5-1.7,0.8-2.6,0.8c-0.5,0-1-0.1-1.4-0.2
		c-2.4-0.8-3.6-3.3-2.8-5.7l0,0c0.8-2.3,3.4-3.6,5.7-2.8C499,346.1,500.2,347.9,500.2,349.8z"/>
	<path class="st1" d="M499.8,186.7c0.2,0.5,0.2,1,0.2,1.4c0,1.9-1.2,3.6-3.1,4.3c-0.5,0.2-1,0.2-1.4,0.2c-0.9,0-1.8-0.3-2.6-0.8
		c-0.8-0.5-1.4-1.3-1.7-2.2c-0.8-2.3,0.5-4.9,2.8-5.7c0.5-0.2,1-0.2,1.4-0.2C497.4,183.6,499.1,184.8,499.8,186.7z"/>
	<path class="st1" d="M495,363.8c0,0.6-0.1,1.1-0.3,1.7l0,0c-0.4,0.9-1,1.6-1.7,2.1s-1.6,0.8-2.5,0.8c-0.6,0-1.1-0.1-1.7-0.3
		c-2.3-0.9-3.4-3.6-2.5-5.9c0.7-1.8,2.4-2.8,4.2-2.8c0.6,0,1.1,0.1,1.7,0.3C493.9,360.3,495,362,495,363.8z"/>
	<path class="st1" d="M494.5,172.4c0.2,0.6,0.3,1.1,0.3,1.7c0,1.8-1.1,3.5-2.8,4.2c-0.5,0.2-1.1,0.3-1.7,0.3c-0.9,0-1.8-0.3-2.5-0.8
		s-1.3-1.2-1.7-2.1c-0.9-2.3,0.2-4.9,2.5-5.9c0.5-0.2,1.1-0.3,1.7-0.3C492.1,169.6,493.7,170.7,494.5,172.4z"/>
	<path class="st1" d="M488.9,377.4c0,0.7-0.1,1.3-0.4,1.9c-0.4,0.8-1,1.4-1.7,1.9c-0.7,0.4-1.5,0.7-2.4,0.7c-0.6,0-1.3-0.1-2-0.4
		c-2.2-1.1-3.2-3.8-2.1-6c0.8-1.6,2.4-2.5,4.1-2.5c0.6,0,1.3,0.1,2,0.4C488,374.1,488.9,375.8,488.9,377.4z"/>
	<path class="st3" d="M488.3,158.5c0.3,0.6,0.4,1.3,0.4,1.9c0,1.7-0.9,3.3-2.5,4.1c-0.6,0.3-1.3,0.4-2,0.4c-0.8,0-1.6-0.2-2.4-0.7
		c-0.7-0.4-1.3-1.1-1.7-1.9c-1.1-2.2-0.1-4.9,2.1-6c0.6-0.3,1.3-0.4,2-0.4C485.9,155.9,487.5,156.9,488.3,158.5z"/>
	<path d="M482,390.7c0,0.7-0.2,1.5-0.6,2.2c-0.8,1.5-2.4,2.3-3.9,2.3c-0.8,0-1.5-0.2-2.2-0.6c-2.2-1.2-2.9-4-1.7-6.1
		c0.8-1.5,2.4-2.3,3.9-2.3c0.8,0,1.5,0.2,2.2,0.6C481.2,387.6,482,389.1,482,390.7z"/>
	<path class="st3" d="M481.2,145c0.4,0.7,0.6,1.5,0.6,2.2c0,1.6-0.8,3.1-2.3,3.9c-0.7,0.4-1.5,0.6-2.2,0.6c-1.6,0-3.1-0.8-3.9-2.3
		c-1.2-2.2-0.5-4.9,1.7-6.1c0.7-0.4,1.5-0.6,2.2-0.6C478.9,142.7,480.4,143.5,481.2,145z"/>
	<path d="M474.3,403.5c0,0.8-0.2,1.7-0.7,2.4c-0.9,1.3-2.3,2-3.8,2c-0.8,0-1.7-0.2-2.4-0.7c-2.1-1.4-2.7-4.1-1.3-6.2
		c0.9-1.3,2.3-2,3.8-2c0.8,0,1.7,0.2,2.4,0.7C473.6,400.5,474.3,402,474.3,403.5z"/>
	<path class="st3" d="M473.3,131.9c0.5,0.8,0.7,1.6,0.7,2.5c0,1.5-0.7,2.9-2,3.8c-0.8,0.5-1.6,0.7-2.5,0.7c-1.5,0-2.9-0.7-3.8-2.1
		c-1.4-2.1-0.8-4.9,1.3-6.2c0.8-0.5,1.6-0.7,2.5-0.7C471,129.9,472.4,130.6,473.3,131.9z"/>
	<path class="st0" d="M465.8,415.7c0,0.9-0.3,1.9-0.9,2.7c-0.9,1.2-2.2,1.8-3.6,1.8c-0.9,0-1.9-0.3-2.7-0.9c-2-1.5-2.4-4.3-0.9-6.3
		c0.9-1.2,2.2-1.8,3.6-1.8c0.9,0,1.9,0.3,2.7,0.9C465.2,413,465.8,414.3,465.8,415.7z"/>
	<path d="M464.6,119.4c0.6,0.8,0.9,1.8,0.9,2.7c0,1.4-0.6,2.7-1.8,3.6c-0.8,0.6-1.8,0.9-2.7,0.9c-1.4,0-2.7-0.6-3.6-1.8
		c-1.5-2-1.1-4.8,0.9-6.3c0.8-0.6,1.8-0.9,2.7-0.9C462.3,117.6,463.7,118.3,464.6,119.4z"/>
	<path class="st3" d="M456.4,427.4c0,1-0.4,2.1-1.1,2.9c-0.9,1-2.2,1.6-3.4,1.6c-1,0-2.1-0.4-2.9-1.1c-1.9-1.6-2.1-4.4-0.5-6.3
		c0.9-1,2.1-1.6,3.4-1.6c1,0,2.1,0.4,2.9,1.1C455.9,424.8,456.4,426.1,456.4,427.4z"/>
	<path class="st2" d="M455,107.5c0.7,0.8,1.1,1.9,1.1,2.9c0,1.3-0.5,2.5-1.6,3.4c-0.9,0.7-1.9,1.1-2.9,1.1c-1.3,0-2.5-0.5-3.4-1.6
		c-1.6-1.9-1.4-4.7,0.5-6.4c0.9-0.7,1.9-1.1,2.9-1.1C452.8,106,454.1,106.5,455,107.5z"/>
	<path class="st3" d="M446.4,438.4c0,1.1-0.4,2.3-1.3,3.1c-0.9,0.9-2.1,1.4-3.2,1.4s-2.3-0.4-3.1-1.3c-1.8-1.7-1.8-4.6-0.1-6.4
		c0.9-0.9,2.1-1.4,3.2-1.4s2.3,0.4,3.1,1.3C445.9,436.1,446.4,437.2,446.4,438.4z"/>
	<path class="st2" d="M444.7,96.3c0.9,0.9,1.3,2,1.3,3.2s-0.5,2.3-1.3,3.2c-0.9,0.9-2,1.3-3.1,1.3c-1.2,0-2.3-0.5-3.2-1.4
		c-1.8-1.8-1.7-4.6,0.1-6.4c0.9-0.9,2-1.3,3.1-1.3C442.6,95,443.8,95.4,444.7,96.3z"/>
	<path class="st3" d="M434.4,445.7c0.8,0.9,1.1,1.9,1.1,3c0,1.2-0.5,2.5-1.5,3.4c-0.9,0.8-1.9,1.1-3,1.1c-1.2,0-2.5-0.5-3.4-1.5
		c-1.7-1.9-1.5-4.7,0.4-6.4C429.9,443.7,432.7,443.9,434.4,445.7z"/>
	<path d="M435.1,89.2c0,1.1-0.4,2.1-1.1,3c-0.9,1-2.1,1.5-3.4,1.5c-1.1,0-2.1-0.4-3-1.1c-1.9-1.7-2-4.5-0.4-6.4
		c0.9-1,2.1-1.5,3.4-1.5c1.1,0,2.1,0.4,3,1.1C434.6,86.7,435.1,87.9,435.1,89.2z"/>
	<path class="st2" d="M423.1,455.5c0.6,0.8,1,1.8,1,2.8c0,1.3-0.6,2.7-1.7,3.5c-0.8,0.6-1.8,1-2.8,1c-1.3,0-2.7-0.6-3.6-1.7
		c-1.5-2-1.2-4.8,0.8-6.3c0.8-0.6,1.8-0.9,2.8-0.9C420.9,453.8,422.2,454.4,423.1,455.5z"/>
	<path class="st3" d="M423.6,79.7c0,1-0.3,1.9-0.9,2.8c-0.9,1.1-2.2,1.7-3.6,1.7c-1,0-1.9-0.3-2.8-0.9c-2-1.5-2.3-4.3-0.8-6.3
		c0.9-1.2,2.2-1.8,3.6-1.8c1,0,1.9,0.3,2.8,0.9C423,77,423.6,78.3,423.6,79.7z"/>
	<path class="st1" d="M411.2,464.5c0.5,0.8,0.8,1.6,0.8,2.5c0,1.4-0.7,2.9-2,3.7c-0.8,0.5-1.6,0.8-2.5,0.8c-1.5,0-2.9-0.7-3.7-2
		c-1.4-2.1-0.9-4.9,1.2-6.2c0.8-0.5,1.7-0.8,2.5-0.8C408.9,462.6,410.3,463.2,411.2,464.5z"/>
	<path class="st3" d="M411.5,70.9c0,0.9-0.2,1.7-0.8,2.5c-0.9,1.3-2.3,2-3.7,2c-0.9,0-1.7-0.2-2.5-0.8c-2.1-1.4-2.6-4.2-1.2-6.2
		c0.9-1.3,2.3-2,3.7-2c0.9,0,1.7,0.2,2.5,0.8C410.8,68,411.5,69.5,411.5,70.9z"/>
	<path d="M398.7,472.7c0.4,0.7,0.6,1.5,0.6,2.3c0,1.5-0.8,3.1-2.2,3.9c-0.7,0.4-1.5,0.6-2.3,0.6c-1.5,0-3.1-0.8-3.9-2.2
		c-1.2-2.1-0.5-4.9,1.6-6.2c0.7-0.4,1.5-0.6,2.3-0.6C396.4,470.5,397.9,471.3,398.7,472.7z"/>
	<path class="st3" d="M398.9,63c0,0.8-0.2,1.5-0.6,2.3c-0.8,1.4-2.3,2.2-3.9,2.2c-0.8,0-1.5-0.2-2.2-0.6c-2.2-1.2-2.9-4-1.6-6.2
		c0.8-1.4,2.3-2.2,3.9-2.2c0.8,0,1.6,0.2,2.3,0.6C398.1,59.9,398.9,61.4,398.9,63z"/>
	<path class="st0" d="M385.7,480.1c0.3,0.6,0.5,1.3,0.5,2c0,1.6-0.9,3.2-2.5,4c-0.6,0.3-1.3,0.5-2,0.5c-0.8,0-1.6-0.2-2.3-0.6
		c-0.7-0.4-1.3-1-1.7-1.8c-1.1-2.2-0.2-4.9,2-6l0,0C381.9,477,384.6,477.9,385.7,480.1z"/>
	<path class="st1" d="M385.7,55.9c0,0.7-0.1,1.4-0.5,2c-0.4,0.8-1,1.4-1.7,1.8c-0.7,0.4-1.5,0.7-2.4,0.7c-0.7,0-1.4-0.2-2-0.5
		c-2.2-1.1-3.1-3.8-2-6c0.8-1.6,2.4-2.5,4-2.5c0.7,0,1.4,0.2,2,0.5C384.8,52.6,385.7,54.2,385.7,55.9z"/>
	<path class="st0" d="M372.3,486.6c0.2,0.6,0.4,1.2,0.4,1.8c0,1.8-1,3.4-2.8,4.1c-0.6,0.2-1.2,0.4-1.8,0.4c-0.9,0-1.7-0.3-2.5-0.7
		c-0.7-0.5-1.3-1.2-1.7-2c-1-2.3,0.1-4.9,2.4-5.9c0.6-0.2,1.2-0.4,1.8-0.4C369.9,483.9,371.6,484.9,372.3,486.6z"/>
	<path class="st1" d="M372.1,49.7c0,0.6-0.1,1.2-0.4,1.7c-0.4,0.9-1,1.5-1.7,2s-1.6,0.7-2.5,0.7c-0.6,0-1.2-0.1-1.8-0.4
		c-2.3-1-3.4-3.6-2.4-5.9c0.7-1.7,2.4-2.8,4.1-2.8c0.6,0,1.2,0.1,1.8,0.4C371.1,46.2,372.1,47.9,372.1,49.7z"/>
	<path class="st0" d="M358.5,492.3c0.2,0.5,0.3,1,0.3,1.5c0,1.9-1.1,3.6-3,4.2c-0.5,0.2-1,0.3-1.5,0.3c-0.9,0-1.8-0.3-2.6-0.8
		c-0.8-0.5-1.4-1.3-1.7-2.2c-0.8-2.3,0.4-4.9,2.7-5.8c0.5-0.2,1-0.3,1.5-0.3C356.1,489.3,357.8,490.5,358.5,492.3z"/>
	<path d="M358.2,44.3c0,0.5-0.1,1-0.3,1.5c-0.3,0.9-0.9,1.7-1.7,2.2s-1.6,0.8-2.6,0.8c-0.5,0-1-0.1-1.5-0.3
		c-2.3-0.8-3.6-3.4-2.7-5.7c0.6-1.8,2.4-3,4.2-3c0.5,0,1,0.1,1.5,0.2C357,40.7,358.2,42.4,358.2,44.3z"/>
	<path class="st0" d="M344.3,497.1c0.1,0.4,0.2,0.9,0.2,1.3c0,1.9-1.3,3.7-3.2,4.3c-0.4,0.1-0.8,0.2-1.3,0.2c-1,0-1.9-0.3-2.7-0.9
		c-0.8-0.6-1.4-1.4-1.6-2.4c-0.7-2.4,0.7-4.9,3.1-5.6c0.4-0.1,0.8-0.2,1.2-0.2C341.9,493.9,343.7,495.2,344.3,497.1z"/>
	<path d="M344,39.7c0,0.4-0.1,0.8-0.2,1.2c-0.3,1-0.9,1.8-1.6,2.4c-0.8,0.6-1.7,0.9-2.7,0.9c-0.4,0-0.8-0.1-1.2-0.2
		c-2.4-0.7-3.8-3.2-3.1-5.6c0.6-2,2.4-3.3,4.3-3.3c0.4,0,0.8,0.1,1.2,0.2C342.7,36,344,37.8,344,39.7z"/>
	<path class="st0" d="M329.9,501.1c0.1,0.3,0.1,0.7,0.1,1c0,2-1.4,3.9-3.5,4.4c-0.3,0.1-0.7,0.1-1,0.1c-1,0-2-0.3-2.8-1
		c-0.8-0.6-1.4-1.5-1.6-2.5c-0.6-2.4,0.9-4.8,3.4-5.4c0.3-0.1,0.7-0.1,1-0.1C327.6,497.6,329.4,499.1,329.9,501.1z"/>
	<path d="M329.5,36c0,0.3,0,0.7-0.1,1c-0.2,1-0.8,1.9-1.6,2.5c-0.8,0.6-1.8,1-2.8,1c-0.3,0-0.7,0-1-0.1c-2.4-0.5-3.9-3-3.4-5.4
		c0.5-2.1,2.3-3.5,4.4-3.5c0.3,0,0.7,0,1,0.1C328.1,32.1,329.5,33.9,329.5,36z"/>
	<path d="M315.3,504.3c0,0.3,0.1,0.5,0.1,0.8c0,2.1-1.5,4.1-3.7,4.4c-0.3,0-0.5,0.1-0.8,0.1c-1.1,0-2.1-0.4-2.9-1s-1.4-1.6-1.5-2.7
		c-0.4-2.5,1.2-4.8,3.7-5.2c0.3,0,0.5-0.1,0.8-0.1C313,500.6,315,502.2,315.3,504.3z"/>
	<path d="M314.9,33c0,0.3,0,0.5-0.1,0.8c-0.2,1.1-0.8,2-1.5,2.7c-0.8,0.6-1.8,1-2.9,1c-0.2,0-0.5,0-0.8-0.1
		c-2.5-0.4-4.1-2.8-3.7-5.2c0.4-2.2,2.3-3.7,4.4-3.7c0.3,0,0.5,0,0.8,0.1C313.3,29,314.9,30.9,314.9,33z"/>
	<path d="M300.6,506.8c0,0.2,0,0.4,0,0.6c0,2.2-1.7,4.2-4,4.4c-0.2,0-0.4,0-0.6,0c-1.1,0-2.2-0.4-3-1.1s-1.4-1.7-1.5-2.8
		c-0.3-2.5,1.4-4.7,3.9-5c0.2,0,0.4,0,0.6,0C298.4,502.8,300.3,504.5,300.6,506.8z"/>
	<path class="st4" d="M300.1,30.8c0,0.2,0,0.4,0,0.6c-0.1,1.1-0.7,2.1-1.5,2.8s-1.9,1.1-3,1.1c-0.2,0-0.4,0-0.5,0
		c-2.5-0.3-4.2-2.5-3.9-5c0.3-2.3,2.2-3.9,4.5-3.9c0.2,0,0.4,0,0.5,0C298.4,26.7,300.1,28.6,300.1,30.8z"/>
	<path d="M285.7,508.5c0,0.1,0,0.2,0,0.3c0,2.3-1.8,4.3-4.2,4.5c-0.1,0-0.2,0-0.4,0c-1.2,0-2.2-0.4-3.1-1.2c-0.8-0.8-1.3-1.8-1.4-3
		c-0.2-2.5,1.7-4.6,4.1-4.8c0.1,0,0.2,0,0.4,0C283.6,504.3,285.6,506.1,285.7,508.5z"/>
	<path d="M285.2,29.4c0,0.1,0,0.2,0,0.3c-0.1,1.2-0.6,2.2-1.4,3c-0.8,0.8-1.9,1.2-3,1.2c-0.1,0-0.2,0-0.3,0
		c-2.5-0.2-4.3-2.3-4.2-4.8c0.2-2.4,2.1-4.2,4.5-4.2c0.1,0,0.2,0,0.3,0C283.4,25.1,285.2,27.1,285.2,29.4z"/>
	<path class="st1" d="M270.8,509.4C270.8,509.5,270.8,509.5,270.8,509.4c0,1.3-0.5,2.4-1.4,3.2c-0.8,0.8-1.9,1.3-3.1,1.3
		c0,0,0,0-0.1,0c-2.5,0-4.5-2.1-4.4-4.6c0-2.5,2-4.4,4.5-4.4c0,0,0,0,0.1,0C268.8,505,270.8,507,270.8,509.4z"/>
	<path class="st1" d="M270.3,28.7C270.3,28.8,270.3,28.8,270.3,28.7c0,2.5-2,4.5-4.4,4.6h-0.1c-1.2,0-2.3-0.5-3.1-1.3
		c-0.8-0.8-1.3-1.9-1.4-3.1c0-2.5,1.9-4.5,4.4-4.6c0,0,0,0,0.1,0C268.2,24.3,270.2,26.3,270.3,28.7z"/>
	<path class="st2" d="M255.9,508.8c0,0.1,0,0.2,0,0.3c-0.1,1.2-0.6,2.2-1.4,3c-0.8,0.8-1.9,1.2-3.1,1.2c-0.1,0-0.2,0-0.3,0l0,0
		c-2.4-0.2-4.2-2.1-4.2-4.5c0-0.1,0-0.2,0-0.3c0.2-2.4,2.2-4.2,4.5-4.2c0.1,0,0.2,0,0.3,0C254.1,504.5,255.9,506.4,255.9,508.8z"/>
	<path class="st1" d="M255.3,29.2c0,0.1,0,0.2,0,0.4c0,2.3-1.8,4.3-4.1,4.5c-0.1,0-0.2,0-0.4,0c-1.2,0-2.2-0.5-3.1-1.2
		c-0.8-0.7-1.3-1.8-1.4-3c-0.2-2.5,1.7-4.6,4.1-4.8c0.1,0,0.2,0,0.3,0C253.2,25,255.1,26.8,255.3,29.2z"/>
	<path class="st2" d="M241,507.2c0,0.2,0,0.4,0,0.6c-0.2,1.1-0.7,2.1-1.5,2.8c-0.8,0.7-1.8,1.1-2.9,1.1c-0.2,0-0.4,0-0.6,0
		c-2.5-0.3-4.2-2.6-3.9-5.1c0.3-2.2,2.2-3.9,4.5-3.9c0.2,0,0.4,0,0.6,0C239.4,503.1,241,505,241,507.2z"/>
	<path class="st1" d="M240.4,30.5c0,0.2,0.1,0.4,0.1,0.6c0,2.2-1.6,4.1-3.9,4.5c-0.2,0-0.4,0-0.6,0c-1.1,0-2.1-0.4-2.9-1.1
		c-0.8-0.7-1.3-1.7-1.5-2.8c-0.4-2.5,1.4-4.7,3.8-5.1c0.2,0,0.4,0,0.6,0C238.2,26.6,240.1,28.2,240.4,30.5z"/>
	<path class="st2" d="M226.3,504.7c0,0.3,0,0.6-0.1,0.9c-0.2,1.1-0.8,2-1.6,2.6s-1.8,1-2.8,1c-0.3,0-0.6,0-0.9-0.1
		c-2.4-0.5-4-2.9-3.5-5.3c0.4-2.1,2.3-3.6,4.4-3.6c0.3,0,0.6,0,0.9,0.1C224.8,500.7,226.3,502.6,226.3,504.7z"/>
	<path d="M225.7,32.8c0.1,0.3,0.1,0.6,0.1,0.9c0,2.1-1.5,4-3.6,4.4c-0.3,0.1-0.6,0.1-0.9,0.1c-1.1,0-2.1-0.4-2.8-1
		c-0.8-0.6-1.4-1.5-1.6-2.6c-0.5-2.4,1.1-4.8,3.5-5.3c0.3-0.1,0.6-0.1,0.9-0.1C223.4,29.2,225.2,30.6,225.7,32.8z"/>
	<path d="M211.8,501.3c0,0.4-0.1,0.8-0.2,1.2c-0.3,1-0.8,1.8-1.6,2.4s-1.7,0.9-2.7,0.9c-0.4,0-0.8,0-1.2-0.1
		c-2.4-0.6-3.8-3.1-3.2-5.5c0.5-2,2.4-3.3,4.3-3.3c0.4,0,0.8,0.1,1.2,0.2C210.4,497.5,211.8,499.3,211.8,501.3z"/>
	<path d="M211.1,35.9c0.1,0.4,0.2,0.8,0.2,1.2c0,2-1.3,3.8-3.3,4.3c-0.4,0.1-0.8,0.2-1.2,0.2c-1,0-1.9-0.3-2.7-0.9
		c-0.8-0.6-1.4-1.4-1.6-2.4c-0.6-2.4,0.8-4.9,3.2-5.5c0.4-0.1,0.8-0.2,1.2-0.2C208.7,32.6,210.5,33.9,211.1,35.9z"/>
	<path d="M197.4,497c0,0.5-0.1,1-0.2,1.4c-0.3,0.9-0.9,1.7-1.7,2.2s-1.7,0.8-2.6,0.8c-0.5,0-1-0.1-1.4-0.2c-2.4-0.8-3.6-3.4-2.8-5.7
		c0.6-1.9,2.4-3.1,4.3-3.1c0.5,0,1,0.1,1.4,0.2C196.3,493.3,197.4,495.1,197.4,497z"/>
	<path d="M196.7,40c0.2,0.5,0.2,1,0.2,1.5c0,1.9-1.2,3.6-3.1,4.2c-0.5,0.2-1,0.2-1.4,0.2c-0.9,0-1.9-0.3-2.6-0.8
		c-0.8-0.5-1.3-1.3-1.7-2.2c-0.8-2.4,0.5-4.9,2.8-5.7c0.5-0.2,1-0.2,1.4-0.2C194.3,37,196,38.1,196.7,40z"/>
	<path d="M183.4,491.7c0,0.6-0.1,1.1-0.3,1.7c-0.4,0.9-0.9,1.6-1.7,2c-0.7,0.5-1.6,0.8-2.5,0.8c-0.6,0-1.2-0.1-1.7-0.3
		c-2.3-0.9-3.4-3.6-2.5-5.9c0.7-1.7,2.4-2.8,4.2-2.8c0.6,0,1.1,0.1,1.7,0.3C182.4,488.3,183.4,490,183.4,491.7z"/>
	<path class="st1" d="M182.6,45c0.2,0.6,0.3,1.1,0.3,1.7c0,1.8-1.1,3.5-2.8,4.2c-0.6,0.2-1.1,0.3-1.7,0.3c-0.9,0-1.8-0.3-2.5-0.7
		s-1.3-1.2-1.7-2c-0.9-2.3,0.2-4.9,2.4-5.9c0.6-0.2,1.1-0.3,1.7-0.3C180.2,42.2,181.9,43.2,182.6,45z"/>
	<path d="M169.7,485.7c0,0.6-0.2,1.3-0.5,1.9c-0.4,0.8-1,1.4-1.7,1.9c-0.7,0.4-1.5,0.7-2.4,0.7c-0.6,0-1.3-0.1-1.9-0.4
		c-2.2-1.1-3.2-3.8-2.1-6c0.8-1.6,2.4-2.6,4.1-2.6c0.6,0,1.3,0.1,1.9,0.5C168.8,482.4,169.7,484,169.7,485.7z"/>
	<path d="M168.9,50.8c0.3,0.6,0.5,1.3,0.5,2c0,1.7-0.9,3.3-2.5,4.1c-0.6,0.3-1.3,0.5-2,0.5c-0.8,0-1.7-0.2-2.4-0.7
		c-0.7-0.4-1.3-1.1-1.7-1.9c-1.1-2.2-0.2-4.9,2.1-6c0.6-0.3,1.3-0.5,2-0.5C166.5,48.3,168.1,49.2,168.9,50.8z"/>
	<path d="M156.5,478.7c0,0.8-0.2,1.5-0.6,2.2c-0.8,1.5-2.4,2.3-3.9,2.3c-0.8,0-1.5-0.2-2.2-0.6c-2.2-1.2-2.9-4-1.7-6.1
		c0.8-1.5,2.3-2.3,3.9-2.3c0.8,0,1.5,0.2,2.2,0.6C155.7,475.6,156.5,477.2,156.5,478.7z"/>
	<path d="M155.5,57.5c0.4,0.7,0.6,1.5,0.6,2.2c0,1.6-0.8,3.1-2.3,3.9c-0.7,0.4-1.5,0.6-2.2,0.6c-1.6,0-3.1-0.8-3.9-2.3
		c-1.2-2.2-0.5-4.9,1.7-6.1c0.7-0.4,1.5-0.6,2.2-0.6C153.2,55.2,154.7,56,155.5,57.5z"/>
	<path class="st0" d="M141.6,467.2c2.1,1.4,2.7,4.1,1.3,6.2c-0.9,1.3-2.3,2-3.8,2c-0.8,0-1.7-0.2-2.4-0.7c-2.1-1.4-2.7-4.1-1.3-6.2
		c0.9-1.3,2.3-2.1,3.8-2.1C140,466.5,140.9,466.7,141.6,467.2L141.6,467.2z"/>
	<path class="st3" d="M142.6,65c0.5,0.8,0.7,1.6,0.7,2.4c0,1.5-0.7,2.9-2,3.8c-0.8,0.5-1.6,0.7-2.5,0.7c-1.5,0-2.9-0.7-3.8-2.1
		c-1.3-2.1-0.8-4.9,1.3-6.2c0.8-0.5,1.6-0.7,2.4-0.7C140.3,63,141.7,63.7,142.6,65z"/>
	<path class="st0" d="M131.4,462.5c0,0.9-0.3,1.9-0.9,2.7c-0.9,1.2-2.2,1.8-3.6,1.8c-0.9,0-1.9-0.3-2.7-0.9c-2-1.5-2.4-4.3-0.9-6.3
		c0.9-1.2,2.2-1.8,3.6-1.8c0.9,0,1.9,0.3,2.7,0.9C130.7,459.8,131.4,461.1,131.4,462.5z"/>
	<path class="st3" d="M130.2,73.3c0.6,0.8,0.9,1.8,0.9,2.7c0,1.4-0.6,2.7-1.8,3.6c-0.8,0.6-1.7,0.9-2.7,0.9c-1.4,0-2.7-0.6-3.6-1.8
		c-1.5-2-1.1-4.8,0.9-6.3c0.8-0.6,1.7-0.9,2.7-0.9C127.9,71.5,129.3,72.1,130.2,73.3z"/>
	<path class="st0" d="M118,449.8c1.9,1.6,2.2,4.4,0.5,6.3c-0.9,1.1-2.2,1.6-3.4,1.6c-1,0-2.1-0.4-2.9-1.1c-1.9-1.6-2.2-4.4-0.6-6.3
		c0.9-1.1,2.2-1.6,3.5-1.6C116.2,448.7,117.2,449.1,118,449.8L118,449.8z"/>
	<path d="M118.3,82.4c0.7,0.8,1.1,1.9,1.1,2.9c0,1.3-0.5,2.5-1.6,3.4c-0.8,0.7-1.9,1.1-2.9,1.1c-1.3,0-2.6-0.5-3.4-1.6
		c-1.6-1.9-1.4-4.7,0.5-6.3c0.8-0.7,1.9-1.1,2.9-1.1C116.1,80.8,117.4,81.3,118.3,82.4z"/>
	<path class="st0" d="M107.1,440c1.8,1.7,1.9,4.6,0.2,6.4c-0.9,0.9-2.1,1.4-3.3,1.4c-1.1,0-2.2-0.4-3.1-1.2
		c-0.9-0.9-1.4-2.1-1.4-3.3c0-1.1,0.4-2.2,1.2-3.1c0.9-0.9,2.1-1.4,3.3-1.4C105.1,438.8,106.2,439.2,107.1,440L107.1,440z"/>
	<path class="st0" d="M107,92.1c0.8,0.9,1.2,2,1.2,3.1c0,1.2-0.5,2.4-1.4,3.3c-0.9,0.8-2,1.2-3.1,1.2c-1.2,0-2.4-0.5-3.3-1.4
		c-1.7-1.8-1.7-4.7,0.2-6.4c0.9-0.8,2-1.2,3.1-1.2C104.9,90.7,106.1,91.2,107,92.1z"/>
	<path class="st0" d="M96.8,429.6c0.8,0.9,1.2,2,1.2,3.1c0,1.2-0.5,2.4-1.4,3.3c-0.9,0.8-2,1.2-3.1,1.2c-1.2,0-2.4-0.5-3.3-1.4
		c-1.7-1.8-1.6-4.7,0.2-6.4c0.9-0.8,2-1.2,3.1-1.2C94.7,428.1,95.9,428.6,96.8,429.6z"/>
	<path class="st0" d="M97.7,105.9c0,1.1-0.4,2.2-1.2,3.1c-0.9,1-2.1,1.4-3.3,1.4c-1.1,0-2.2-0.4-3.1-1.2c-1.8-1.7-1.9-4.5-0.2-6.4
		c0.9-1,2.1-1.4,3.3-1.4c1.1,0,2.2,0.4,3.1,1.2C97.2,103.5,97.7,104.7,97.7,105.9z"/>
	<path d="M87.1,418.5c0.7,0.8,1,1.8,1,2.8c0,1.3-0.6,2.6-1.7,3.5c-0.8,0.7-1.8,1-2.8,1c-1.3,0-2.6-0.6-3.5-1.6
		c-1.6-1.9-1.3-4.8,0.6-6.3c0.8-0.7,1.8-1,2.8-1C85,416.9,86.3,417.4,87.1,418.5z"/>
	<path d="M87.9,117.2c0,1-0.3,2-1,2.8c-0.9,1.1-2.2,1.7-3.5,1.7c-1,0-2-0.3-2.8-1c-1.9-1.6-2.2-4.4-0.6-6.3c0.9-1.1,2.2-1.7,3.5-1.7
		c1,0,2,0.3,2.8,1C87.4,114.6,87.9,115.9,87.9,117.2z"/>
	<path d="M78.2,406.9c0.6,0.8,0.8,1.7,0.8,2.6c0,1.4-0.6,2.8-1.9,3.6c-0.8,0.6-1.7,0.9-2.6,0.9c-1.4,0-2.8-0.6-3.6-1.9
		c-1.5-2-1-4.8,1-6.3c0.8-0.6,1.7-0.9,2.6-0.9C75.9,405,77.3,405.7,78.2,406.9z"/>
	<path d="M78.8,129c0,0.9-0.3,1.8-0.8,2.6c-0.9,1.2-2.3,1.9-3.7,1.9c-0.9,0-1.8-0.3-2.6-0.9c-2-1.4-2.5-4.3-1-6.3
		c0.9-1.2,2.2-1.9,3.7-1.9c0.9,0,1.8,0.3,2.6,0.8C78.2,126.3,78.8,127.6,78.8,129z"/>
	<path d="M70,394.8c0.5,0.8,0.7,1.6,0.7,2.4c0,1.5-0.8,3-2.1,3.8c-0.8,0.5-1.6,0.7-2.4,0.7c-1.5,0-3-0.7-3.8-2.1
		c-1.3-2.1-0.7-4.9,1.4-6.2c0.7-0.5,1.6-0.7,2.4-0.7C67.7,392.7,69.2,393.4,70,394.8z"/>
	<path class="st0" d="M70.5,141.5c0,0.8-0.2,1.6-0.7,2.4c-0.9,1.4-2.3,2.1-3.8,2.1c-0.8,0-1.6-0.2-2.4-0.7c-2.1-1.3-2.7-4.1-1.4-6.2
		c0.9-1.4,2.3-2.1,3.8-2.1c0.8,0,1.6,0.2,2.4,0.7C69.7,138.5,70.5,140,70.5,141.5z"/>
	<path class="st3" d="M62.6,382.1c0.4,0.7,0.6,1.4,0.6,2.2c0,1.6-0.8,3.1-2.3,4c-0.7,0.4-1.4,0.5-2.2,0.5c-1.6,0-3.1-0.9-4-2.3
		c-1.2-2.2-0.4-4.9,1.8-6.1c0.7-0.4,1.4-0.6,2.2-0.6C60.2,379.8,61.8,380.6,62.6,382.1z"/>
	<path class="st0" d="M62.9,154.4c0,0.7-0.2,1.5-0.5,2.1c-0.8,1.5-2.4,2.3-4,2.3c-0.7,0-1.5-0.2-2.1-0.5c-2.2-1.2-3-3.9-1.8-6.1
		c0.8-1.5,2.4-2.4,3.9-2.4c0.7,0,1.5,0.2,2.2,0.6C62.1,151.2,62.9,152.8,62.9,154.4z"/>
	<path class="st3" d="M56,369.1c0.3,0.6,0.4,1.3,0.4,1.9c0,1.7-1,3.3-2.6,4.1c-0.6,0.3-1.3,0.4-1.9,0.4c-0.8,0-1.7-0.2-2.4-0.7
		s-1.3-1.1-1.7-1.9c-1.1-2.2-0.1-4.9,2.2-6c0.6-0.3,1.3-0.4,1.9-0.4C53.6,366.5,55.2,367.4,56,369.1z"/>
	<path class="st0" d="M56.2,167.7c0,0.6-0.1,1.3-0.4,1.9c-0.4,0.8-1,1.5-1.7,1.9s-1.5,0.7-2.4,0.7c-0.6,0-1.3-0.1-1.9-0.4
		c-2.2-1-3.2-3.7-2.2-6c0.8-1.6,2.4-2.6,4.1-2.6c0.6,0,1.3,0.1,1.9,0.4C55.2,164.4,56.2,166,56.2,167.7z"/>
	<path class="st3" d="M50.2,355.6c0.2,0.5,0.3,1.1,0.3,1.6c0,1.8-1.1,3.5-2.8,4.2c-0.5,0.2-1.1,0.3-1.7,0.3c-0.9,0-1.8-0.3-2.5-0.8
		s-1.3-1.2-1.7-2.1c-0.9-2.3,0.2-4.9,2.5-5.8c0.5-0.2,1.1-0.3,1.6-0.3C47.8,352.8,49.5,353.8,50.2,355.6z"/>
	<path class="st3" d="M50.3,181.5c0,0.6-0.1,1.1-0.3,1.7c-0.4,0.9-0.9,1.6-1.7,2.1c-0.7,0.5-1.6,0.8-2.5,0.8c-0.5,0-1.1-0.1-1.6-0.3
		c-2.3-0.9-3.5-3.5-2.5-5.8c0.7-1.8,2.4-2.9,4.2-2.9c0.5,0,1.1,0.1,1.6,0.3C49.2,178,50.3,179.7,50.3,181.5z"/>
	<path d="M45.2,341.8c0.1,0.5,0.2,0.9,0.2,1.4c0,1.9-1.2,3.7-3.1,4.3c-0.5,0.1-0.9,0.2-1.4,0.2c-1,0-1.9-0.3-2.6-0.8
		c-0.8-0.5-1.4-1.3-1.7-2.3c-0.8-2.4,0.5-4.9,2.9-5.7c0.5-0.1,0.9-0.2,1.4-0.2C42.8,338.7,44.6,339.9,45.2,341.8z"/>
	<path class="st3" d="M45.3,195.6c0,0.5-0.1,0.9-0.2,1.4c-0.3,0.9-0.9,1.7-1.7,2.3s-1.7,0.8-2.6,0.8c-0.4,0-0.9-0.1-1.4-0.2
		c-2.4-0.8-3.7-3.3-2.9-5.7c0.6-1.9,2.4-3.1,4.3-3.1c0.5,0,0.9,0.1,1.4,0.2C44,191.9,45.3,193.7,45.3,195.6z"/>
	<path d="M41.1,327.7c0.6,2.4-0.8,4.9-3.2,5.5c-0.4,0.1-0.7,0.1-1.1,0.1c-1,0-2-0.3-2.7-0.9c-0.8-0.6-1.4-1.4-1.6-2.5
		c-0.1-0.4-0.1-0.7-0.1-1.1c0-2,1.4-3.8,3.4-4.4c0.4-0.1,0.8-0.1,1.1-0.1C38.8,324.3,40.6,325.7,41.1,327.7L41.1,327.7z"/>
	<path class="st3" d="M41.1,209.9c0,0.4,0,0.7-0.1,1.1c-0.3,1-0.8,1.9-1.6,2.5s-1.7,0.9-2.8,0.9c-0.4,0-0.7,0-1.1-0.1
		c-2.4-0.6-3.9-3.1-3.3-5.5c0.5-2,2.4-3.4,4.4-3.4c0.4,0,0.7,0.1,1.1,0.1C39.8,206.1,41.1,207.9,41.1,209.9z"/>
	<path class="st5" d="M37.9,313.4c0.1,0.3,0.1,0.6,0.1,0.9c0,2.1-1.5,4-3.7,4.4c-0.3,0.1-0.6,0.1-0.8,0.1c-1.1,0-2.1-0.4-2.8-1
		c-0.8-0.6-1.4-1.6-1.6-2.6c-0.5-2.4,1.1-4.8,3.6-5.3c0.3-0.1,0.6-0.1,0.8-0.1C35.6,309.8,37.5,311.3,37.9,313.4z"/>
	<path d="M37.9,224.5c0,0.3,0,0.6-0.1,0.8c-0.2,1.1-0.8,2-1.6,2.6s-1.8,1-2.9,1c-0.3,0-0.5,0-0.8-0.1c-2.4-0.5-4-2.8-3.6-5.2
		c0.4-2.2,2.3-3.7,4.4-3.7c0.3,0,0.5,0,0.8,0.1C36.4,220.5,37.9,222.4,37.9,224.5z"/>
	<path class="st5" d="M35.7,298.9c0,0.2,0,0.4,0,0.6c0,2.2-1.7,4.2-3.9,4.5c-0.2,0-0.4,0-0.6,0c-1.1,0-2.2-0.4-3-1.1
		s-1.4-1.7-1.5-2.8c-0.3-2.5,1.4-4.7,3.9-5c0.2,0,0.4,0,0.6,0C33.4,295,35.4,296.7,35.7,298.9z"/>
	<path d="M35.6,239.3c0,0.2,0,0.4,0,0.5c-0.1,1.1-0.7,2.1-1.5,2.8s-1.8,1.1-3,1.1c-0.2,0-0.4,0-0.5,0c-2.5-0.3-4.2-2.6-3.9-5
		c0.3-2.3,2.2-3.9,4.5-3.9c0.2,0,0.4,0,0.6,0C34,235.1,35.6,237.1,35.6,239.3z"/>
	<path d="M34.3,284.3c0.2,2.5-1.7,4.6-4.2,4.8c-0.1,0-0.2,0-0.3,0c-1.2,0-2.3-0.5-3.1-1.2c-0.8-0.8-1.3-1.8-1.4-3
		c-0.2-2.5,1.7-4.6,4.2-4.8c0.1,0,0.2,0,0.3,0C32.2,280.1,34.1,282,34.3,284.3L34.3,284.3z"/>
	<path d="M34.3,254.2c0,0.1,0,0.2,0,0.3c-0.1,1.2-0.6,2.3-1.4,3c-0.8,0.8-1.9,1.2-3.1,1.2c-0.1,0-0.2,0-0.3,0
		c-2.5-0.2-4.4-2.3-4.2-4.8c0.1-2.4,2.1-4.2,4.5-4.2c0.1,0,0.2,0,0.3,0C32.4,249.8,34.3,251.8,34.3,254.2z"/>
	<path d="M32.5,265.9c0.8,0.8,1.3,1.9,1.3,3.2c0,0.1,0,0.2,0,0.3c0,0.1,0,0.2,0,0.3l0,0c0,2.5-2,4.5-4.5,4.5c-1.2,0-2.4-0.5-3.2-1.3
		c-0.8-0.8-1.3-1.9-1.3-3.2c0-0.1,0-0.2,0-0.3c0-0.1,0-0.2,0-0.3c0-1.2,0.5-2.4,1.3-3.2c0.8-0.8,1.9-1.3,3.2-1.3
		C30.5,264.6,31.7,265.1,32.5,265.9z"/>
</g>
</svg>
